<?xml version="1.0" encoding="utf-8" standalone="no"?>
<!DOCTYPE svg PUBLIC "-//W3C//DTD SVG 1.1//EN"
  "http://www.w3.org/Graphics/SVG/1.1/DTD/svg11.dtd">
<!-- Created with matplotlib (https://matplotlib.org/) -->
<svg height="648pt" version="1.1" viewBox="0 0 864 648" width="864pt" xmlns="http://www.w3.org/2000/svg" xmlns:xlink="http://www.w3.org/1999/xlink">
 <defs>
  <style type="text/css">
*{stroke-linecap:butt;stroke-linejoin:round;}
  </style>
 </defs>
 <g id="figure_1">
  <g id="patch_1">
   <path d="M 0 648 
L 864 648 
L 864 0 
L 0 0 
z
" style="fill:#ffffff;"/>
  </g>
  <g id="axes_1">
   <g id="patch_2">
    <path d="M 108 518.4 
L 777.6 518.4 
L 777.6 77.76 
L 108 77.76 
z
" style="fill:#ffffff;"/>
   </g>
   <g id="matplotlib.axis_1">
    <g id="xtick_1">
     <g id="line2d_1">
      <path clip-path="url(#p1ded7ad273)" d="M 127.338989 518.4 
L 127.338989 77.76 
" style="fill:none;stroke:#b0b0b0;stroke-linecap:square;stroke-width:0.8;"/>
     </g>
     <g id="line2d_2">
      <defs>
       <path d="M 0 0 
L 0 3.5 
" id="mcfc8cc9f3e" style="stroke:#000000;stroke-width:0.8;"/>
      </defs>
      <g>
       <use style="stroke:#000000;stroke-width:0.8;" x="127.338989" xlink:href="#mcfc8cc9f3e" y="518.4"/>
      </g>
     </g>
     <g id="text_1">
      <!-- 00:00:00 -->
      <defs>
       <path d="M 31.78125 66.40625 
Q 24.171875 66.40625 20.328125 58.90625 
Q 16.5 51.421875 16.5 36.375 
Q 16.5 21.390625 20.328125 13.890625 
Q 24.171875 6.390625 31.78125 6.390625 
Q 39.453125 6.390625 43.28125 13.890625 
Q 47.125 21.390625 47.125 36.375 
Q 47.125 51.421875 43.28125 58.90625 
Q 39.453125 66.40625 31.78125 66.40625 
z
M 31.78125 74.21875 
Q 44.046875 74.21875 50.515625 64.515625 
Q 56.984375 54.828125 56.984375 36.375 
Q 56.984375 17.96875 50.515625 8.265625 
Q 44.046875 -1.421875 31.78125 -1.421875 
Q 19.53125 -1.421875 13.0625 8.265625 
Q 6.59375 17.96875 6.59375 36.375 
Q 6.59375 54.828125 13.0625 64.515625 
Q 19.53125 74.21875 31.78125 74.21875 
z
" id="DejaVuSans-48"/>
       <path d="M 11.71875 12.40625 
L 22.015625 12.40625 
L 22.015625 0 
L 11.71875 0 
z
M 11.71875 51.703125 
L 22.015625 51.703125 
L 22.015625 39.3125 
L 11.71875 39.3125 
z
" id="DejaVuSans-58"/>
      </defs>
      <g transform="translate(87.40378 554.43669)rotate(-30)scale(0.1 -0.1)">
       <use xlink:href="#DejaVuSans-48"/>
       <use x="63.623047" xlink:href="#DejaVuSans-48"/>
       <use x="127.246094" xlink:href="#DejaVuSans-58"/>
       <use x="160.9375" xlink:href="#DejaVuSans-48"/>
       <use x="224.560547" xlink:href="#DejaVuSans-48"/>
       <use x="288.183594" xlink:href="#DejaVuSans-58"/>
       <use x="321.875" xlink:href="#DejaVuSans-48"/>
       <use x="385.498047" xlink:href="#DejaVuSans-48"/>
      </g>
     </g>
    </g>
    <g id="xtick_2">
     <g id="line2d_3">
      <path clip-path="url(#p1ded7ad273)" d="M 194.352112 518.4 
L 194.352112 77.76 
" style="fill:none;stroke:#b0b0b0;stroke-linecap:square;stroke-width:0.8;"/>
     </g>
     <g id="line2d_4">
      <g>
       <use style="stroke:#000000;stroke-width:0.8;" x="194.352112" xlink:href="#mcfc8cc9f3e" y="518.4"/>
      </g>
     </g>
     <g id="text_2">
      <!-- 00:00:10 -->
      <defs>
       <path d="M 12.40625 8.296875 
L 28.515625 8.296875 
L 28.515625 63.921875 
L 10.984375 60.40625 
L 10.984375 69.390625 
L 28.421875 72.90625 
L 38.28125 72.90625 
L 38.28125 8.296875 
L 54.390625 8.296875 
L 54.390625 0 
L 12.40625 0 
z
" id="DejaVuSans-49"/>
      </defs>
      <g transform="translate(154.416902 554.43669)rotate(-30)scale(0.1 -0.1)">
       <use xlink:href="#DejaVuSans-48"/>
       <use x="63.623047" xlink:href="#DejaVuSans-48"/>
       <use x="127.246094" xlink:href="#DejaVuSans-58"/>
       <use x="160.9375" xlink:href="#DejaVuSans-48"/>
       <use x="224.560547" xlink:href="#DejaVuSans-48"/>
       <use x="288.183594" xlink:href="#DejaVuSans-58"/>
       <use x="321.875" xlink:href="#DejaVuSans-49"/>
       <use x="385.498047" xlink:href="#DejaVuSans-48"/>
      </g>
     </g>
    </g>
    <g id="xtick_3">
     <g id="line2d_5">
      <path clip-path="url(#p1ded7ad273)" d="M 261.365295 518.4 
L 261.365295 77.76 
" style="fill:none;stroke:#b0b0b0;stroke-linecap:square;stroke-width:0.8;"/>
     </g>
     <g id="line2d_6">
      <g>
       <use style="stroke:#000000;stroke-width:0.8;" x="261.365295" xlink:href="#mcfc8cc9f3e" y="518.4"/>
      </g>
     </g>
     <g id="text_3">
      <!-- 00:00:20 -->
      <defs>
       <path d="M 19.1875 8.296875 
L 53.609375 8.296875 
L 53.609375 0 
L 7.328125 0 
L 7.328125 8.296875 
Q 12.9375 14.109375 22.625 23.890625 
Q 32.328125 33.6875 34.8125 36.53125 
Q 39.546875 41.84375 41.421875 45.53125 
Q 43.3125 49.21875 43.3125 52.78125 
Q 43.3125 58.59375 39.234375 62.25 
Q 35.15625 65.921875 28.609375 65.921875 
Q 23.96875 65.921875 18.8125 64.3125 
Q 13.671875 62.703125 7.8125 59.421875 
L 7.8125 69.390625 
Q 13.765625 71.78125 18.9375 73 
Q 24.125 74.21875 28.421875 74.21875 
Q 39.75 74.21875 46.484375 68.546875 
Q 53.21875 62.890625 53.21875 53.421875 
Q 53.21875 48.921875 51.53125 44.890625 
Q 49.859375 40.875 45.40625 35.40625 
Q 44.1875 33.984375 37.640625 27.21875 
Q 31.109375 20.453125 19.1875 8.296875 
z
" id="DejaVuSans-50"/>
      </defs>
      <g transform="translate(221.430086 554.43669)rotate(-30)scale(0.1 -0.1)">
       <use xlink:href="#DejaVuSans-48"/>
       <use x="63.623047" xlink:href="#DejaVuSans-48"/>
       <use x="127.246094" xlink:href="#DejaVuSans-58"/>
       <use x="160.9375" xlink:href="#DejaVuSans-48"/>
       <use x="224.560547" xlink:href="#DejaVuSans-48"/>
       <use x="288.183594" xlink:href="#DejaVuSans-58"/>
       <use x="321.875" xlink:href="#DejaVuSans-50"/>
       <use x="385.498047" xlink:href="#DejaVuSans-48"/>
      </g>
     </g>
    </g>
    <g id="xtick_4">
     <g id="line2d_7">
      <path clip-path="url(#p1ded7ad273)" d="M 328.378418 518.4 
L 328.378418 77.76 
" style="fill:none;stroke:#b0b0b0;stroke-linecap:square;stroke-width:0.8;"/>
     </g>
     <g id="line2d_8">
      <g>
       <use style="stroke:#000000;stroke-width:0.8;" x="328.378418" xlink:href="#mcfc8cc9f3e" y="518.4"/>
      </g>
     </g>
     <g id="text_4">
      <!-- 00:00:30 -->
      <defs>
       <path d="M 40.578125 39.3125 
Q 47.65625 37.796875 51.625 33 
Q 55.609375 28.21875 55.609375 21.1875 
Q 55.609375 10.40625 48.1875 4.484375 
Q 40.765625 -1.421875 27.09375 -1.421875 
Q 22.515625 -1.421875 17.65625 -0.515625 
Q 12.796875 0.390625 7.625 2.203125 
L 7.625 11.71875 
Q 11.71875 9.328125 16.59375 8.109375 
Q 21.484375 6.890625 26.8125 6.890625 
Q 36.078125 6.890625 40.9375 10.546875 
Q 45.796875 14.203125 45.796875 21.1875 
Q 45.796875 27.640625 41.28125 31.265625 
Q 36.765625 34.90625 28.71875 34.90625 
L 20.21875 34.90625 
L 20.21875 43.015625 
L 29.109375 43.015625 
Q 36.375 43.015625 40.234375 45.921875 
Q 44.09375 48.828125 44.09375 54.296875 
Q 44.09375 59.90625 40.109375 62.90625 
Q 36.140625 65.921875 28.71875 65.921875 
Q 24.65625 65.921875 20.015625 65.03125 
Q 15.375 64.15625 9.8125 62.3125 
L 9.8125 71.09375 
Q 15.4375 72.65625 20.34375 73.4375 
Q 25.25 74.21875 29.59375 74.21875 
Q 40.828125 74.21875 47.359375 69.109375 
Q 53.90625 64.015625 53.90625 55.328125 
Q 53.90625 49.265625 50.4375 45.09375 
Q 46.96875 40.921875 40.578125 39.3125 
z
" id="DejaVuSans-51"/>
      </defs>
      <g transform="translate(288.443208 554.43669)rotate(-30)scale(0.1 -0.1)">
       <use xlink:href="#DejaVuSans-48"/>
       <use x="63.623047" xlink:href="#DejaVuSans-48"/>
       <use x="127.246094" xlink:href="#DejaVuSans-58"/>
       <use x="160.9375" xlink:href="#DejaVuSans-48"/>
       <use x="224.560547" xlink:href="#DejaVuSans-48"/>
       <use x="288.183594" xlink:href="#DejaVuSans-58"/>
       <use x="321.875" xlink:href="#DejaVuSans-51"/>
       <use x="385.498047" xlink:href="#DejaVuSans-48"/>
      </g>
     </g>
    </g>
    <g id="xtick_5">
     <g id="line2d_9">
      <path clip-path="url(#p1ded7ad273)" d="M 395.391602 518.4 
L 395.391602 77.76 
" style="fill:none;stroke:#b0b0b0;stroke-linecap:square;stroke-width:0.8;"/>
     </g>
     <g id="line2d_10">
      <g>
       <use style="stroke:#000000;stroke-width:0.8;" x="395.391602" xlink:href="#mcfc8cc9f3e" y="518.4"/>
      </g>
     </g>
     <g id="text_5">
      <!-- 00:00:40 -->
      <defs>
       <path d="M 37.796875 64.3125 
L 12.890625 25.390625 
L 37.796875 25.390625 
z
M 35.203125 72.90625 
L 47.609375 72.90625 
L 47.609375 25.390625 
L 58.015625 25.390625 
L 58.015625 17.1875 
L 47.609375 17.1875 
L 47.609375 0 
L 37.796875 0 
L 37.796875 17.1875 
L 4.890625 17.1875 
L 4.890625 26.703125 
z
" id="DejaVuSans-52"/>
      </defs>
      <g transform="translate(355.456392 554.43669)rotate(-30)scale(0.1 -0.1)">
       <use xlink:href="#DejaVuSans-48"/>
       <use x="63.623047" xlink:href="#DejaVuSans-48"/>
       <use x="127.246094" xlink:href="#DejaVuSans-58"/>
       <use x="160.9375" xlink:href="#DejaVuSans-48"/>
       <use x="224.560547" xlink:href="#DejaVuSans-48"/>
       <use x="288.183594" xlink:href="#DejaVuSans-58"/>
       <use x="321.875" xlink:href="#DejaVuSans-52"/>
       <use x="385.498047" xlink:href="#DejaVuSans-48"/>
      </g>
     </g>
    </g>
    <g id="xtick_6">
     <g id="line2d_11">
      <path clip-path="url(#p1ded7ad273)" d="M 462.404663 518.4 
L 462.404663 77.76 
" style="fill:none;stroke:#b0b0b0;stroke-linecap:square;stroke-width:0.8;"/>
     </g>
     <g id="line2d_12">
      <g>
       <use style="stroke:#000000;stroke-width:0.8;" x="462.404663" xlink:href="#mcfc8cc9f3e" y="518.4"/>
      </g>
     </g>
     <g id="text_6">
      <!-- 00:00:50 -->
      <defs>
       <path d="M 10.796875 72.90625 
L 49.515625 72.90625 
L 49.515625 64.59375 
L 19.828125 64.59375 
L 19.828125 46.734375 
Q 21.96875 47.46875 24.109375 47.828125 
Q 26.265625 48.1875 28.421875 48.1875 
Q 40.625 48.1875 47.75 41.5 
Q 54.890625 34.8125 54.890625 23.390625 
Q 54.890625 11.625 47.5625 5.09375 
Q 40.234375 -1.421875 26.90625 -1.421875 
Q 22.3125 -1.421875 17.546875 -0.640625 
Q 12.796875 0.140625 7.71875 1.703125 
L 7.71875 11.625 
Q 12.109375 9.234375 16.796875 8.0625 
Q 21.484375 6.890625 26.703125 6.890625 
Q 35.15625 6.890625 40.078125 11.328125 
Q 45.015625 15.765625 45.015625 23.390625 
Q 45.015625 31 40.078125 35.4375 
Q 35.15625 39.890625 26.703125 39.890625 
Q 22.75 39.890625 18.8125 39.015625 
Q 14.890625 38.140625 10.796875 36.28125 
z
" id="DejaVuSans-53"/>
      </defs>
      <g transform="translate(422.469453 554.43669)rotate(-30)scale(0.1 -0.1)">
       <use xlink:href="#DejaVuSans-48"/>
       <use x="63.623047" xlink:href="#DejaVuSans-48"/>
       <use x="127.246094" xlink:href="#DejaVuSans-58"/>
       <use x="160.9375" xlink:href="#DejaVuSans-48"/>
       <use x="224.560547" xlink:href="#DejaVuSans-48"/>
       <use x="288.183594" xlink:href="#DejaVuSans-58"/>
       <use x="321.875" xlink:href="#DejaVuSans-53"/>
       <use x="385.498047" xlink:href="#DejaVuSans-48"/>
      </g>
     </g>
    </g>
    <g id="xtick_7">
     <g id="line2d_13">
      <path clip-path="url(#p1ded7ad273)" d="M 529.417786 518.4 
L 529.417786 77.76 
" style="fill:none;stroke:#b0b0b0;stroke-linecap:square;stroke-width:0.8;"/>
     </g>
     <g id="line2d_14">
      <g>
       <use style="stroke:#000000;stroke-width:0.8;" x="529.417786" xlink:href="#mcfc8cc9f3e" y="518.4"/>
      </g>
     </g>
     <g id="text_7">
      <!-- 00:01:00 -->
      <g transform="translate(489.482576 554.43669)rotate(-30)scale(0.1 -0.1)">
       <use xlink:href="#DejaVuSans-48"/>
       <use x="63.623047" xlink:href="#DejaVuSans-48"/>
       <use x="127.246094" xlink:href="#DejaVuSans-58"/>
       <use x="160.9375" xlink:href="#DejaVuSans-48"/>
       <use x="224.560547" xlink:href="#DejaVuSans-49"/>
       <use x="288.183594" xlink:href="#DejaVuSans-58"/>
       <use x="321.875" xlink:href="#DejaVuSans-48"/>
       <use x="385.498047" xlink:href="#DejaVuSans-48"/>
      </g>
     </g>
    </g>
    <g id="xtick_8">
     <g id="line2d_15">
      <path clip-path="url(#p1ded7ad273)" d="M 596.430969 518.4 
L 596.430969 77.76 
" style="fill:none;stroke:#b0b0b0;stroke-linecap:square;stroke-width:0.8;"/>
     </g>
     <g id="line2d_16">
      <g>
       <use style="stroke:#000000;stroke-width:0.8;" x="596.430969" xlink:href="#mcfc8cc9f3e" y="518.4"/>
      </g>
     </g>
     <g id="text_8">
      <!-- 00:01:10 -->
      <g transform="translate(556.49576 554.43669)rotate(-30)scale(0.1 -0.1)">
       <use xlink:href="#DejaVuSans-48"/>
       <use x="63.623047" xlink:href="#DejaVuSans-48"/>
       <use x="127.246094" xlink:href="#DejaVuSans-58"/>
       <use x="160.9375" xlink:href="#DejaVuSans-48"/>
       <use x="224.560547" xlink:href="#DejaVuSans-49"/>
       <use x="288.183594" xlink:href="#DejaVuSans-58"/>
       <use x="321.875" xlink:href="#DejaVuSans-49"/>
       <use x="385.498047" xlink:href="#DejaVuSans-48"/>
      </g>
     </g>
    </g>
    <g id="xtick_9">
     <g id="line2d_17">
      <path clip-path="url(#p1ded7ad273)" d="M 663.444092 518.4 
L 663.444092 77.76 
" style="fill:none;stroke:#b0b0b0;stroke-linecap:square;stroke-width:0.8;"/>
     </g>
     <g id="line2d_18">
      <g>
       <use style="stroke:#000000;stroke-width:0.8;" x="663.444092" xlink:href="#mcfc8cc9f3e" y="518.4"/>
      </g>
     </g>
     <g id="text_9">
      <!-- 00:01:20 -->
      <g transform="translate(623.508882 554.43669)rotate(-30)scale(0.1 -0.1)">
       <use xlink:href="#DejaVuSans-48"/>
       <use x="63.623047" xlink:href="#DejaVuSans-48"/>
       <use x="127.246094" xlink:href="#DejaVuSans-58"/>
       <use x="160.9375" xlink:href="#DejaVuSans-48"/>
       <use x="224.560547" xlink:href="#DejaVuSans-49"/>
       <use x="288.183594" xlink:href="#DejaVuSans-58"/>
       <use x="321.875" xlink:href="#DejaVuSans-50"/>
       <use x="385.498047" xlink:href="#DejaVuSans-48"/>
      </g>
     </g>
    </g>
    <g id="xtick_10">
     <g id="line2d_19">
      <path clip-path="url(#p1ded7ad273)" d="M 730.457275 518.4 
L 730.457275 77.76 
" style="fill:none;stroke:#b0b0b0;stroke-linecap:square;stroke-width:0.8;"/>
     </g>
     <g id="line2d_20">
      <g>
       <use style="stroke:#000000;stroke-width:0.8;" x="730.457275" xlink:href="#mcfc8cc9f3e" y="518.4"/>
      </g>
     </g>
     <g id="text_10">
      <!-- 00:01:30 -->
      <g transform="translate(690.522066 554.43669)rotate(-30)scale(0.1 -0.1)">
       <use xlink:href="#DejaVuSans-48"/>
       <use x="63.623047" xlink:href="#DejaVuSans-48"/>
       <use x="127.246094" xlink:href="#DejaVuSans-58"/>
       <use x="160.9375" xlink:href="#DejaVuSans-48"/>
       <use x="224.560547" xlink:href="#DejaVuSans-49"/>
       <use x="288.183594" xlink:href="#DejaVuSans-58"/>
       <use x="321.875" xlink:href="#DejaVuSans-51"/>
       <use x="385.498047" xlink:href="#DejaVuSans-48"/>
      </g>
     </g>
    </g>
    <g id="text_11">
     <!-- DateTime -->
     <defs>
      <path d="M 19.671875 64.796875 
L 19.671875 8.109375 
L 31.59375 8.109375 
Q 46.6875 8.109375 53.6875 14.9375 
Q 60.6875 21.78125 60.6875 36.53125 
Q 60.6875 51.171875 53.6875 57.984375 
Q 46.6875 64.796875 31.59375 64.796875 
z
M 9.8125 72.90625 
L 30.078125 72.90625 
Q 51.265625 72.90625 61.171875 64.09375 
Q 71.09375 55.28125 71.09375 36.53125 
Q 71.09375 17.671875 61.125 8.828125 
Q 51.171875 0 30.078125 0 
L 9.8125 0 
z
" id="DejaVuSans-68"/>
      <path d="M 34.28125 27.484375 
Q 23.390625 27.484375 19.1875 25 
Q 14.984375 22.515625 14.984375 16.5 
Q 14.984375 11.71875 18.140625 8.90625 
Q 21.296875 6.109375 26.703125 6.109375 
Q 34.1875 6.109375 38.703125 11.40625 
Q 43.21875 16.703125 43.21875 25.484375 
L 43.21875 27.484375 
z
M 52.203125 31.203125 
L 52.203125 0 
L 43.21875 0 
L 43.21875 8.296875 
Q 40.140625 3.328125 35.546875 0.953125 
Q 30.953125 -1.421875 24.3125 -1.421875 
Q 15.921875 -1.421875 10.953125 3.296875 
Q 6 8.015625 6 15.921875 
Q 6 25.140625 12.171875 29.828125 
Q 18.359375 34.515625 30.609375 34.515625 
L 43.21875 34.515625 
L 43.21875 35.40625 
Q 43.21875 41.609375 39.140625 45 
Q 35.0625 48.390625 27.6875 48.390625 
Q 23 48.390625 18.546875 47.265625 
Q 14.109375 46.140625 10.015625 43.890625 
L 10.015625 52.203125 
Q 14.9375 54.109375 19.578125 55.046875 
Q 24.21875 56 28.609375 56 
Q 40.484375 56 46.34375 49.84375 
Q 52.203125 43.703125 52.203125 31.203125 
z
" id="DejaVuSans-97"/>
      <path d="M 18.3125 70.21875 
L 18.3125 54.6875 
L 36.8125 54.6875 
L 36.8125 47.703125 
L 18.3125 47.703125 
L 18.3125 18.015625 
Q 18.3125 11.328125 20.140625 9.421875 
Q 21.96875 7.515625 27.59375 7.515625 
L 36.8125 7.515625 
L 36.8125 0 
L 27.59375 0 
Q 17.1875 0 13.234375 3.875 
Q 9.28125 7.765625 9.28125 18.015625 
L 9.28125 47.703125 
L 2.6875 47.703125 
L 2.6875 54.6875 
L 9.28125 54.6875 
L 9.28125 70.21875 
z
" id="DejaVuSans-116"/>
      <path d="M 56.203125 29.59375 
L 56.203125 25.203125 
L 14.890625 25.203125 
Q 15.484375 15.921875 20.484375 11.0625 
Q 25.484375 6.203125 34.421875 6.203125 
Q 39.59375 6.203125 44.453125 7.46875 
Q 49.3125 8.734375 54.109375 11.28125 
L 54.109375 2.78125 
Q 49.265625 0.734375 44.1875 -0.34375 
Q 39.109375 -1.421875 33.890625 -1.421875 
Q 20.796875 -1.421875 13.15625 6.1875 
Q 5.515625 13.8125 5.515625 26.8125 
Q 5.515625 40.234375 12.765625 48.109375 
Q 20.015625 56 32.328125 56 
Q 43.359375 56 49.78125 48.890625 
Q 56.203125 41.796875 56.203125 29.59375 
z
M 47.21875 32.234375 
Q 47.125 39.59375 43.09375 43.984375 
Q 39.0625 48.390625 32.421875 48.390625 
Q 24.90625 48.390625 20.390625 44.140625 
Q 15.875 39.890625 15.1875 32.171875 
z
" id="DejaVuSans-101"/>
      <path d="M -0.296875 72.90625 
L 61.375 72.90625 
L 61.375 64.59375 
L 35.5 64.59375 
L 35.5 0 
L 25.59375 0 
L 25.59375 64.59375 
L -0.296875 64.59375 
z
" id="DejaVuSans-84"/>
      <path d="M 9.421875 54.6875 
L 18.40625 54.6875 
L 18.40625 0 
L 9.421875 0 
z
M 9.421875 75.984375 
L 18.40625 75.984375 
L 18.40625 64.59375 
L 9.421875 64.59375 
z
" id="DejaVuSans-105"/>
      <path d="M 52 44.1875 
Q 55.375 50.25 60.0625 53.125 
Q 64.75 56 71.09375 56 
Q 79.640625 56 84.28125 50.015625 
Q 88.921875 44.046875 88.921875 33.015625 
L 88.921875 0 
L 79.890625 0 
L 79.890625 32.71875 
Q 79.890625 40.578125 77.09375 44.375 
Q 74.3125 48.1875 68.609375 48.1875 
Q 61.625 48.1875 57.5625 43.546875 
Q 53.515625 38.921875 53.515625 30.90625 
L 53.515625 0 
L 44.484375 0 
L 44.484375 32.71875 
Q 44.484375 40.625 41.703125 44.40625 
Q 38.921875 48.1875 33.109375 48.1875 
Q 26.21875 48.1875 22.15625 43.53125 
Q 18.109375 38.875 18.109375 30.90625 
L 18.109375 0 
L 9.078125 0 
L 9.078125 54.6875 
L 18.109375 54.6875 
L 18.109375 46.1875 
Q 21.1875 51.21875 25.484375 53.609375 
Q 29.78125 56 35.6875 56 
Q 41.65625 56 45.828125 52.96875 
Q 50 49.953125 52 44.1875 
z
" id="DejaVuSans-109"/>
     </defs>
     <g transform="translate(418.615625 567.83619)scale(0.1 -0.1)">
      <use xlink:href="#DejaVuSans-68"/>
      <use x="77.001953" xlink:href="#DejaVuSans-97"/>
      <use x="138.28125" xlink:href="#DejaVuSans-116"/>
      <use x="177.490234" xlink:href="#DejaVuSans-101"/>
      <use x="239.013672" xlink:href="#DejaVuSans-84"/>
      <use x="296.972656" xlink:href="#DejaVuSans-105"/>
      <use x="324.755859" xlink:href="#DejaVuSans-109"/>
      <use x="422.167969" xlink:href="#DejaVuSans-101"/>
     </g>
    </g>
   </g>
   <g id="matplotlib.axis_2">
    <g id="ytick_1">
     <g id="line2d_21">
      <path clip-path="url(#p1ded7ad273)" d="M 108 473.825455 
L 777.6 473.825455 
" style="fill:none;stroke:#b0b0b0;stroke-linecap:square;stroke-width:0.8;"/>
     </g>
     <g id="line2d_22">
      <defs>
       <path d="M 0 0 
L -3.5 0 
" id="m81e70f5589" style="stroke:#000000;stroke-width:0.8;"/>
      </defs>
      <g>
       <use style="stroke:#000000;stroke-width:0.8;" x="108" xlink:href="#m81e70f5589" y="473.825455"/>
      </g>
     </g>
     <g id="text_12">
      <!-- 26 -->
      <defs>
       <path d="M 33.015625 40.375 
Q 26.375 40.375 22.484375 35.828125 
Q 18.609375 31.296875 18.609375 23.390625 
Q 18.609375 15.53125 22.484375 10.953125 
Q 26.375 6.390625 33.015625 6.390625 
Q 39.65625 6.390625 43.53125 10.953125 
Q 47.40625 15.53125 47.40625 23.390625 
Q 47.40625 31.296875 43.53125 35.828125 
Q 39.65625 40.375 33.015625 40.375 
z
M 52.59375 71.296875 
L 52.59375 62.3125 
Q 48.875 64.0625 45.09375 64.984375 
Q 41.3125 65.921875 37.59375 65.921875 
Q 27.828125 65.921875 22.671875 59.328125 
Q 17.53125 52.734375 16.796875 39.40625 
Q 19.671875 43.65625 24.015625 45.921875 
Q 28.375 48.1875 33.59375 48.1875 
Q 44.578125 48.1875 50.953125 41.515625 
Q 57.328125 34.859375 57.328125 23.390625 
Q 57.328125 12.15625 50.6875 5.359375 
Q 44.046875 -1.421875 33.015625 -1.421875 
Q 20.359375 -1.421875 13.671875 8.265625 
Q 6.984375 17.96875 6.984375 36.375 
Q 6.984375 53.65625 15.1875 63.9375 
Q 23.390625 74.21875 37.203125 74.21875 
Q 40.921875 74.21875 44.703125 73.484375 
Q 48.484375 72.75 52.59375 71.296875 
z
" id="DejaVuSans-54"/>
      </defs>
      <g transform="translate(88.275 477.624673)scale(0.1 -0.1)">
       <use xlink:href="#DejaVuSans-50"/>
       <use x="63.623047" xlink:href="#DejaVuSans-54"/>
      </g>
     </g>
    </g>
    <g id="ytick_2">
     <g id="line2d_23">
      <path clip-path="url(#p1ded7ad273)" d="M 108 424.734545 
L 777.6 424.734545 
" style="fill:none;stroke:#b0b0b0;stroke-linecap:square;stroke-width:0.8;"/>
     </g>
     <g id="line2d_24">
      <g>
       <use style="stroke:#000000;stroke-width:0.8;" x="108" xlink:href="#m81e70f5589" y="424.734545"/>
      </g>
     </g>
     <g id="text_13">
      <!-- 27 -->
      <defs>
       <path d="M 8.203125 72.90625 
L 55.078125 72.90625 
L 55.078125 68.703125 
L 28.609375 0 
L 18.3125 0 
L 43.21875 64.59375 
L 8.203125 64.59375 
z
" id="DejaVuSans-55"/>
      </defs>
      <g transform="translate(88.275 428.533764)scale(0.1 -0.1)">
       <use xlink:href="#DejaVuSans-50"/>
       <use x="63.623047" xlink:href="#DejaVuSans-55"/>
      </g>
     </g>
    </g>
    <g id="ytick_3">
     <g id="line2d_25">
      <path clip-path="url(#p1ded7ad273)" d="M 108 375.643636 
L 777.6 375.643636 
" style="fill:none;stroke:#b0b0b0;stroke-linecap:square;stroke-width:0.8;"/>
     </g>
     <g id="line2d_26">
      <g>
       <use style="stroke:#000000;stroke-width:0.8;" x="108" xlink:href="#m81e70f5589" y="375.643636"/>
      </g>
     </g>
     <g id="text_14">
      <!-- 28 -->
      <defs>
       <path d="M 31.78125 34.625 
Q 24.75 34.625 20.71875 30.859375 
Q 16.703125 27.09375 16.703125 20.515625 
Q 16.703125 13.921875 20.71875 10.15625 
Q 24.75 6.390625 31.78125 6.390625 
Q 38.8125 6.390625 42.859375 10.171875 
Q 46.921875 13.96875 46.921875 20.515625 
Q 46.921875 27.09375 42.890625 30.859375 
Q 38.875 34.625 31.78125 34.625 
z
M 21.921875 38.8125 
Q 15.578125 40.375 12.03125 44.71875 
Q 8.5 49.078125 8.5 55.328125 
Q 8.5 64.0625 14.71875 69.140625 
Q 20.953125 74.21875 31.78125 74.21875 
Q 42.671875 74.21875 48.875 69.140625 
Q 55.078125 64.0625 55.078125 55.328125 
Q 55.078125 49.078125 51.53125 44.71875 
Q 48 40.375 41.703125 38.8125 
Q 48.828125 37.15625 52.796875 32.3125 
Q 56.78125 27.484375 56.78125 20.515625 
Q 56.78125 9.90625 50.3125 4.234375 
Q 43.84375 -1.421875 31.78125 -1.421875 
Q 19.734375 -1.421875 13.25 4.234375 
Q 6.78125 9.90625 6.78125 20.515625 
Q 6.78125 27.484375 10.78125 32.3125 
Q 14.796875 37.15625 21.921875 38.8125 
z
M 18.3125 54.390625 
Q 18.3125 48.734375 21.84375 45.5625 
Q 25.390625 42.390625 31.78125 42.390625 
Q 38.140625 42.390625 41.71875 45.5625 
Q 45.3125 48.734375 45.3125 54.390625 
Q 45.3125 60.0625 41.71875 63.234375 
Q 38.140625 66.40625 31.78125 66.40625 
Q 25.390625 66.40625 21.84375 63.234375 
Q 18.3125 60.0625 18.3125 54.390625 
z
" id="DejaVuSans-56"/>
      </defs>
      <g transform="translate(88.275 379.442855)scale(0.1 -0.1)">
       <use xlink:href="#DejaVuSans-50"/>
       <use x="63.623047" xlink:href="#DejaVuSans-56"/>
      </g>
     </g>
    </g>
    <g id="ytick_4">
     <g id="line2d_27">
      <path clip-path="url(#p1ded7ad273)" d="M 108 326.552727 
L 777.6 326.552727 
" style="fill:none;stroke:#b0b0b0;stroke-linecap:square;stroke-width:0.8;"/>
     </g>
     <g id="line2d_28">
      <g>
       <use style="stroke:#000000;stroke-width:0.8;" x="108" xlink:href="#m81e70f5589" y="326.552727"/>
      </g>
     </g>
     <g id="text_15">
      <!-- 29 -->
      <defs>
       <path d="M 10.984375 1.515625 
L 10.984375 10.5 
Q 14.703125 8.734375 18.5 7.8125 
Q 22.3125 6.890625 25.984375 6.890625 
Q 35.75 6.890625 40.890625 13.453125 
Q 46.046875 20.015625 46.78125 33.40625 
Q 43.953125 29.203125 39.59375 26.953125 
Q 35.25 24.703125 29.984375 24.703125 
Q 19.046875 24.703125 12.671875 31.3125 
Q 6.296875 37.9375 6.296875 49.421875 
Q 6.296875 60.640625 12.9375 67.421875 
Q 19.578125 74.21875 30.609375 74.21875 
Q 43.265625 74.21875 49.921875 64.515625 
Q 56.59375 54.828125 56.59375 36.375 
Q 56.59375 19.140625 48.40625 8.859375 
Q 40.234375 -1.421875 26.421875 -1.421875 
Q 22.703125 -1.421875 18.890625 -0.6875 
Q 15.09375 0.046875 10.984375 1.515625 
z
M 30.609375 32.421875 
Q 37.25 32.421875 41.125 36.953125 
Q 45.015625 41.5 45.015625 49.421875 
Q 45.015625 57.28125 41.125 61.84375 
Q 37.25 66.40625 30.609375 66.40625 
Q 23.96875 66.40625 20.09375 61.84375 
Q 16.21875 57.28125 16.21875 49.421875 
Q 16.21875 41.5 20.09375 36.953125 
Q 23.96875 32.421875 30.609375 32.421875 
z
" id="DejaVuSans-57"/>
      </defs>
      <g transform="translate(88.275 330.351946)scale(0.1 -0.1)">
       <use xlink:href="#DejaVuSans-50"/>
       <use x="63.623047" xlink:href="#DejaVuSans-57"/>
      </g>
     </g>
    </g>
    <g id="ytick_5">
     <g id="line2d_29">
      <path clip-path="url(#p1ded7ad273)" d="M 108 277.461818 
L 777.6 277.461818 
" style="fill:none;stroke:#b0b0b0;stroke-linecap:square;stroke-width:0.8;"/>
     </g>
     <g id="line2d_30">
      <g>
       <use style="stroke:#000000;stroke-width:0.8;" x="108" xlink:href="#m81e70f5589" y="277.461818"/>
      </g>
     </g>
     <g id="text_16">
      <!-- 30 -->
      <g transform="translate(88.275 281.261037)scale(0.1 -0.1)">
       <use xlink:href="#DejaVuSans-51"/>
       <use x="63.623047" xlink:href="#DejaVuSans-48"/>
      </g>
     </g>
    </g>
    <g id="ytick_6">
     <g id="line2d_31">
      <path clip-path="url(#p1ded7ad273)" d="M 108 228.370909 
L 777.6 228.370909 
" style="fill:none;stroke:#b0b0b0;stroke-linecap:square;stroke-width:0.8;"/>
     </g>
     <g id="line2d_32">
      <g>
       <use style="stroke:#000000;stroke-width:0.8;" x="108" xlink:href="#m81e70f5589" y="228.370909"/>
      </g>
     </g>
     <g id="text_17">
      <!-- 31 -->
      <g transform="translate(88.275 232.170128)scale(0.1 -0.1)">
       <use xlink:href="#DejaVuSans-51"/>
       <use x="63.623047" xlink:href="#DejaVuSans-49"/>
      </g>
     </g>
    </g>
    <g id="ytick_7">
     <g id="line2d_33">
      <path clip-path="url(#p1ded7ad273)" d="M 108 179.28 
L 777.6 179.28 
" style="fill:none;stroke:#b0b0b0;stroke-linecap:square;stroke-width:0.8;"/>
     </g>
     <g id="line2d_34">
      <g>
       <use style="stroke:#000000;stroke-width:0.8;" x="108" xlink:href="#m81e70f5589" y="179.28"/>
      </g>
     </g>
     <g id="text_18">
      <!-- 32 -->
      <g transform="translate(88.275 183.079219)scale(0.1 -0.1)">
       <use xlink:href="#DejaVuSans-51"/>
       <use x="63.623047" xlink:href="#DejaVuSans-50"/>
      </g>
     </g>
    </g>
    <g id="ytick_8">
     <g id="line2d_35">
      <path clip-path="url(#p1ded7ad273)" d="M 108 130.189091 
L 777.6 130.189091 
" style="fill:none;stroke:#b0b0b0;stroke-linecap:square;stroke-width:0.8;"/>
     </g>
     <g id="line2d_36">
      <g>
       <use style="stroke:#000000;stroke-width:0.8;" x="108" xlink:href="#m81e70f5589" y="130.189091"/>
      </g>
     </g>
     <g id="text_19">
      <!-- 33 -->
      <g transform="translate(88.275 133.98831)scale(0.1 -0.1)">
       <use xlink:href="#DejaVuSans-51"/>
       <use x="63.623047" xlink:href="#DejaVuSans-51"/>
      </g>
     </g>
    </g>
    <g id="ytick_9">
     <g id="line2d_37">
      <path clip-path="url(#p1ded7ad273)" d="M 108 81.098182 
L 777.6 81.098182 
" style="fill:none;stroke:#b0b0b0;stroke-linecap:square;stroke-width:0.8;"/>
     </g>
     <g id="line2d_38">
      <g>
       <use style="stroke:#000000;stroke-width:0.8;" x="108" xlink:href="#m81e70f5589" y="81.098182"/>
      </g>
     </g>
     <g id="text_20">
      <!-- 34 -->
      <g transform="translate(88.275 84.897401)scale(0.1 -0.1)">
       <use xlink:href="#DejaVuSans-51"/>
       <use x="63.623047" xlink:href="#DejaVuSans-52"/>
      </g>
     </g>
    </g>
    <g id="text_21">
     <!-- Temperature (°C) -->
     <defs>
      <path d="M 18.109375 8.203125 
L 18.109375 -20.796875 
L 9.078125 -20.796875 
L 9.078125 54.6875 
L 18.109375 54.6875 
L 18.109375 46.390625 
Q 20.953125 51.265625 25.265625 53.625 
Q 29.59375 56 35.59375 56 
Q 45.5625 56 51.78125 48.09375 
Q 58.015625 40.1875 58.015625 27.296875 
Q 58.015625 14.40625 51.78125 6.484375 
Q 45.5625 -1.421875 35.59375 -1.421875 
Q 29.59375 -1.421875 25.265625 0.953125 
Q 20.953125 3.328125 18.109375 8.203125 
z
M 48.6875 27.296875 
Q 48.6875 37.203125 44.609375 42.84375 
Q 40.53125 48.484375 33.40625 48.484375 
Q 26.265625 48.484375 22.1875 42.84375 
Q 18.109375 37.203125 18.109375 27.296875 
Q 18.109375 17.390625 22.1875 11.75 
Q 26.265625 6.109375 33.40625 6.109375 
Q 40.53125 6.109375 44.609375 11.75 
Q 48.6875 17.390625 48.6875 27.296875 
z
" id="DejaVuSans-112"/>
      <path d="M 41.109375 46.296875 
Q 39.59375 47.171875 37.8125 47.578125 
Q 36.03125 48 33.890625 48 
Q 26.265625 48 22.1875 43.046875 
Q 18.109375 38.09375 18.109375 28.8125 
L 18.109375 0 
L 9.078125 0 
L 9.078125 54.6875 
L 18.109375 54.6875 
L 18.109375 46.1875 
Q 20.953125 51.171875 25.484375 53.578125 
Q 30.03125 56 36.53125 56 
Q 37.453125 56 38.578125 55.875 
Q 39.703125 55.765625 41.0625 55.515625 
z
" id="DejaVuSans-114"/>
      <path d="M 8.5 21.578125 
L 8.5 54.6875 
L 17.484375 54.6875 
L 17.484375 21.921875 
Q 17.484375 14.15625 20.5 10.265625 
Q 23.53125 6.390625 29.59375 6.390625 
Q 36.859375 6.390625 41.078125 11.03125 
Q 45.3125 15.671875 45.3125 23.6875 
L 45.3125 54.6875 
L 54.296875 54.6875 
L 54.296875 0 
L 45.3125 0 
L 45.3125 8.40625 
Q 42.046875 3.421875 37.71875 1 
Q 33.40625 -1.421875 27.6875 -1.421875 
Q 18.265625 -1.421875 13.375 4.4375 
Q 8.5 10.296875 8.5 21.578125 
z
M 31.109375 56 
z
" id="DejaVuSans-117"/>
      <path id="DejaVuSans-32"/>
      <path d="M 31 75.875 
Q 24.46875 64.65625 21.28125 53.65625 
Q 18.109375 42.671875 18.109375 31.390625 
Q 18.109375 20.125 21.3125 9.0625 
Q 24.515625 -2 31 -13.1875 
L 23.1875 -13.1875 
Q 15.875 -1.703125 12.234375 9.375 
Q 8.59375 20.453125 8.59375 31.390625 
Q 8.59375 42.28125 12.203125 53.3125 
Q 15.828125 64.359375 23.1875 75.875 
z
" id="DejaVuSans-40"/>
      <path d="M 25 67.921875 
Q 21.09375 67.921875 18.40625 65.203125 
Q 15.71875 62.5 15.71875 58.59375 
Q 15.71875 54.734375 18.40625 52.078125 
Q 21.09375 49.421875 25 49.421875 
Q 28.90625 49.421875 31.59375 52.078125 
Q 34.28125 54.734375 34.28125 58.59375 
Q 34.28125 62.453125 31.5625 65.1875 
Q 28.859375 67.921875 25 67.921875 
z
M 25 74.21875 
Q 28.125 74.21875 31 73.015625 
Q 33.890625 71.828125 35.984375 69.578125 
Q 38.234375 67.390625 39.359375 64.59375 
Q 40.484375 61.8125 40.484375 58.59375 
Q 40.484375 52.15625 35.96875 47.6875 
Q 31.453125 43.21875 24.90625 43.21875 
Q 18.3125 43.21875 13.90625 47.609375 
Q 9.515625 52 9.515625 58.59375 
Q 9.515625 65.140625 14 69.671875 
Q 18.5 74.21875 25 74.21875 
z
" id="DejaVuSans-176"/>
      <path d="M 64.40625 67.28125 
L 64.40625 56.890625 
Q 59.421875 61.53125 53.78125 63.8125 
Q 48.140625 66.109375 41.796875 66.109375 
Q 29.296875 66.109375 22.65625 58.46875 
Q 16.015625 50.828125 16.015625 36.375 
Q 16.015625 21.96875 22.65625 14.328125 
Q 29.296875 6.6875 41.796875 6.6875 
Q 48.140625 6.6875 53.78125 8.984375 
Q 59.421875 11.28125 64.40625 15.921875 
L 64.40625 5.609375 
Q 59.234375 2.09375 53.4375 0.328125 
Q 47.65625 -1.421875 41.21875 -1.421875 
Q 24.65625 -1.421875 15.125 8.703125 
Q 5.609375 18.84375 5.609375 36.375 
Q 5.609375 53.953125 15.125 64.078125 
Q 24.65625 74.21875 41.21875 74.21875 
Q 47.75 74.21875 53.53125 72.484375 
Q 59.328125 70.75 64.40625 67.28125 
z
" id="DejaVuSans-67"/>
      <path d="M 8.015625 75.875 
L 15.828125 75.875 
Q 23.140625 64.359375 26.78125 53.3125 
Q 30.421875 42.28125 30.421875 31.390625 
Q 30.421875 20.453125 26.78125 9.375 
Q 23.140625 -1.703125 15.828125 -13.1875 
L 8.015625 -13.1875 
Q 14.5 -2 17.703125 9.0625 
Q 20.90625 20.125 20.90625 31.390625 
Q 20.90625 42.671875 17.703125 53.65625 
Q 14.5 64.65625 8.015625 75.875 
z
" id="DejaVuSans-41"/>
     </defs>
     <g transform="translate(82.195312 341.231562)rotate(-90)scale(0.1 -0.1)">
      <use xlink:href="#DejaVuSans-84"/>
      <use x="44.083984" xlink:href="#DejaVuSans-101"/>
      <use x="105.607422" xlink:href="#DejaVuSans-109"/>
      <use x="203.019531" xlink:href="#DejaVuSans-112"/>
      <use x="266.496094" xlink:href="#DejaVuSans-101"/>
      <use x="328.019531" xlink:href="#DejaVuSans-114"/>
      <use x="369.132812" xlink:href="#DejaVuSans-97"/>
      <use x="430.412109" xlink:href="#DejaVuSans-116"/>
      <use x="469.621094" xlink:href="#DejaVuSans-117"/>
      <use x="533" xlink:href="#DejaVuSans-114"/>
      <use x="571.863281" xlink:href="#DejaVuSans-101"/>
      <use x="633.386719" xlink:href="#DejaVuSans-32"/>
      <use x="665.173828" xlink:href="#DejaVuSans-40"/>
      <use x="704.1875" xlink:href="#DejaVuSans-176"/>
      <use x="754.1875" xlink:href="#DejaVuSans-67"/>
      <use x="824.011719" xlink:href="#DejaVuSans-41"/>
     </g>
    </g>
   </g>
   <g id="line2d_39">
    <path clip-path="url(#p1ded7ad273)" d="M 138.43634 466.952727 
L 141.760193 465.48 
L 145.090759 463.516364 
L 148.39447 463.516364 
L 151.691528 463.516364 
L 155.042236 463.516364 
L 204.625244 462.043636 
L 207.928955 463.516364 
L 211.252869 462.043636 
L 215.059204 462.043636 
L 217.846924 462.043636 
L 221.150696 462.043636 
L 270.794006 462.043636 
L 274.097778 462.043636 
L 277.428345 462.043636 
L 280.7052 462.043636 
L 283.988953 462.043636 
L 336.989624 292.189091 
L 340.273254 282.370909 
L 343.576965 272.552727 
L 346.907532 264.207273 
L 350.20459 257.334545 
L 353.535156 248.989091 
L 403.051147 177.807273 
L 406.368286 177.807273 
L 409.672058 177.807273 
L 413.002625 177.807273 
L 416.272827 177.807273 
L 419.583313 177.807273 
L 469.240051 205.789091 
L 472.510254 207.752727 
L 476.075378 210.698182 
L 479.164673 212.661818 
L 482.461731 214.134545 
L 485.785583 216.098182 
L 535.449036 246.043636 
L 538.746094 247.516364 
L 542.069885 248.989091 
L 545.400452 252.425455 
L 548.704224 254.389091 
L 551.994568 255.861818 
L 604.760681 284.334545 
L 608.071167 285.807273 
L 611.401672 289.243636 
L 614.705505 289.243636 
L 618.022644 292.189091 
L 621.326355 292.189091 
L 670.983093 314.28 
L 674.273438 315.752727 
L 677.604004 317.225455 
L 680.907715 317.225455 
L 684.231628 317.225455 
L 687.535339 320.661818 
L 737.761719 335.88 
L 740.529358 335.88 
L 743.833069 338.825455 
L 747.163635 338.825455 
" style="fill:none;stroke:#1f77b4;stroke-linecap:square;stroke-width:1.5;"/>
    <defs>
     <path d="M 0 2.5 
C 0.663008 2.5 1.29895 2.236584 1.767767 1.767767 
C 2.236584 1.29895 2.5 0.663008 2.5 0 
C 2.5 -0.663008 2.236584 -1.29895 1.767767 -1.767767 
C 1.29895 -2.236584 0.663008 -2.5 0 -2.5 
C -0.663008 -2.5 -1.29895 -2.236584 -1.767767 -1.767767 
C -2.236584 -1.29895 -2.5 -0.663008 -2.5 0 
C -2.5 0.663008 -2.236584 1.29895 -1.767767 1.767767 
C -1.29895 2.236584 -0.663008 2.5 0 2.5 
z
" id="m0c1d258455" style="stroke:#1f77b4;"/>
    </defs>
    <g clip-path="url(#p1ded7ad273)">
     <use style="fill:#1f77b4;stroke:#1f77b4;" x="138.43634" xlink:href="#m0c1d258455" y="466.952727"/>
     <use style="fill:#1f77b4;stroke:#1f77b4;" x="141.760193" xlink:href="#m0c1d258455" y="465.48"/>
     <use style="fill:#1f77b4;stroke:#1f77b4;" x="145.090759" xlink:href="#m0c1d258455" y="463.516364"/>
     <use style="fill:#1f77b4;stroke:#1f77b4;" x="148.39447" xlink:href="#m0c1d258455" y="463.516364"/>
     <use style="fill:#1f77b4;stroke:#1f77b4;" x="151.691528" xlink:href="#m0c1d258455" y="463.516364"/>
     <use style="fill:#1f77b4;stroke:#1f77b4;" x="155.042236" xlink:href="#m0c1d258455" y="463.516364"/>
     <use style="fill:#1f77b4;stroke:#1f77b4;" x="204.625244" xlink:href="#m0c1d258455" y="462.043636"/>
     <use style="fill:#1f77b4;stroke:#1f77b4;" x="207.928955" xlink:href="#m0c1d258455" y="463.516364"/>
     <use style="fill:#1f77b4;stroke:#1f77b4;" x="211.252869" xlink:href="#m0c1d258455" y="462.043636"/>
     <use style="fill:#1f77b4;stroke:#1f77b4;" x="215.059204" xlink:href="#m0c1d258455" y="462.043636"/>
     <use style="fill:#1f77b4;stroke:#1f77b4;" x="217.846924" xlink:href="#m0c1d258455" y="462.043636"/>
     <use style="fill:#1f77b4;stroke:#1f77b4;" x="221.150696" xlink:href="#m0c1d258455" y="462.043636"/>
     <use style="fill:#1f77b4;stroke:#1f77b4;" x="270.794006" xlink:href="#m0c1d258455" y="462.043636"/>
     <use style="fill:#1f77b4;stroke:#1f77b4;" x="274.097778" xlink:href="#m0c1d258455" y="462.043636"/>
     <use style="fill:#1f77b4;stroke:#1f77b4;" x="277.428345" xlink:href="#m0c1d258455" y="462.043636"/>
     <use style="fill:#1f77b4;stroke:#1f77b4;" x="280.7052" xlink:href="#m0c1d258455" y="462.043636"/>
     <use style="fill:#1f77b4;stroke:#1f77b4;" x="283.988953" xlink:href="#m0c1d258455" y="462.043636"/>
     <use style="fill:#1f77b4;stroke:#1f77b4;" x="336.989624" xlink:href="#m0c1d258455" y="292.189091"/>
     <use style="fill:#1f77b4;stroke:#1f77b4;" x="340.273254" xlink:href="#m0c1d258455" y="282.370909"/>
     <use style="fill:#1f77b4;stroke:#1f77b4;" x="343.576965" xlink:href="#m0c1d258455" y="272.552727"/>
     <use style="fill:#1f77b4;stroke:#1f77b4;" x="346.907532" xlink:href="#m0c1d258455" y="264.207273"/>
     <use style="fill:#1f77b4;stroke:#1f77b4;" x="350.20459" xlink:href="#m0c1d258455" y="257.334545"/>
     <use style="fill:#1f77b4;stroke:#1f77b4;" x="353.535156" xlink:href="#m0c1d258455" y="248.989091"/>
     <use style="fill:#1f77b4;stroke:#1f77b4;" x="403.051147" xlink:href="#m0c1d258455" y="177.807273"/>
     <use style="fill:#1f77b4;stroke:#1f77b4;" x="406.368286" xlink:href="#m0c1d258455" y="177.807273"/>
     <use style="fill:#1f77b4;stroke:#1f77b4;" x="409.672058" xlink:href="#m0c1d258455" y="177.807273"/>
     <use style="fill:#1f77b4;stroke:#1f77b4;" x="413.002625" xlink:href="#m0c1d258455" y="177.807273"/>
     <use style="fill:#1f77b4;stroke:#1f77b4;" x="416.272827" xlink:href="#m0c1d258455" y="177.807273"/>
     <use style="fill:#1f77b4;stroke:#1f77b4;" x="419.583313" xlink:href="#m0c1d258455" y="177.807273"/>
     <use style="fill:#1f77b4;stroke:#1f77b4;" x="469.240051" xlink:href="#m0c1d258455" y="205.789091"/>
     <use style="fill:#1f77b4;stroke:#1f77b4;" x="472.510254" xlink:href="#m0c1d258455" y="207.752727"/>
     <use style="fill:#1f77b4;stroke:#1f77b4;" x="476.075378" xlink:href="#m0c1d258455" y="210.698182"/>
     <use style="fill:#1f77b4;stroke:#1f77b4;" x="479.164673" xlink:href="#m0c1d258455" y="212.661818"/>
     <use style="fill:#1f77b4;stroke:#1f77b4;" x="482.461731" xlink:href="#m0c1d258455" y="214.134545"/>
     <use style="fill:#1f77b4;stroke:#1f77b4;" x="485.785583" xlink:href="#m0c1d258455" y="216.098182"/>
     <use style="fill:#1f77b4;stroke:#1f77b4;" x="535.449036" xlink:href="#m0c1d258455" y="246.043636"/>
     <use style="fill:#1f77b4;stroke:#1f77b4;" x="538.746094" xlink:href="#m0c1d258455" y="247.516364"/>
     <use style="fill:#1f77b4;stroke:#1f77b4;" x="542.069885" xlink:href="#m0c1d258455" y="248.989091"/>
     <use style="fill:#1f77b4;stroke:#1f77b4;" x="545.400452" xlink:href="#m0c1d258455" y="252.425455"/>
     <use style="fill:#1f77b4;stroke:#1f77b4;" x="548.704224" xlink:href="#m0c1d258455" y="254.389091"/>
     <use style="fill:#1f77b4;stroke:#1f77b4;" x="551.994568" xlink:href="#m0c1d258455" y="255.861818"/>
     <use style="fill:#1f77b4;stroke:#1f77b4;" x="604.760681" xlink:href="#m0c1d258455" y="284.334545"/>
     <use style="fill:#1f77b4;stroke:#1f77b4;" x="608.071167" xlink:href="#m0c1d258455" y="285.807273"/>
     <use style="fill:#1f77b4;stroke:#1f77b4;" x="611.401672" xlink:href="#m0c1d258455" y="289.243636"/>
     <use style="fill:#1f77b4;stroke:#1f77b4;" x="614.705505" xlink:href="#m0c1d258455" y="289.243636"/>
     <use style="fill:#1f77b4;stroke:#1f77b4;" x="618.022644" xlink:href="#m0c1d258455" y="292.189091"/>
     <use style="fill:#1f77b4;stroke:#1f77b4;" x="621.326355" xlink:href="#m0c1d258455" y="292.189091"/>
     <use style="fill:#1f77b4;stroke:#1f77b4;" x="670.983093" xlink:href="#m0c1d258455" y="314.28"/>
     <use style="fill:#1f77b4;stroke:#1f77b4;" x="674.273438" xlink:href="#m0c1d258455" y="315.752727"/>
     <use style="fill:#1f77b4;stroke:#1f77b4;" x="677.604004" xlink:href="#m0c1d258455" y="317.225455"/>
     <use style="fill:#1f77b4;stroke:#1f77b4;" x="680.907715" xlink:href="#m0c1d258455" y="317.225455"/>
     <use style="fill:#1f77b4;stroke:#1f77b4;" x="684.231628" xlink:href="#m0c1d258455" y="317.225455"/>
     <use style="fill:#1f77b4;stroke:#1f77b4;" x="687.535339" xlink:href="#m0c1d258455" y="320.661818"/>
     <use style="fill:#1f77b4;stroke:#1f77b4;" x="737.761719" xlink:href="#m0c1d258455" y="335.88"/>
     <use style="fill:#1f77b4;stroke:#1f77b4;" x="740.529358" xlink:href="#m0c1d258455" y="335.88"/>
     <use style="fill:#1f77b4;stroke:#1f77b4;" x="743.833069" xlink:href="#m0c1d258455" y="338.825455"/>
     <use style="fill:#1f77b4;stroke:#1f77b4;" x="747.163635" xlink:href="#m0c1d258455" y="338.825455"/>
    </g>
   </g>
   <g id="line2d_40">
    <path clip-path="url(#p1ded7ad273)" d="M 138.43634 498.370909 
L 141.760193 496.898182 
L 145.090759 496.898182 
L 148.39447 498.370909 
L 151.691528 498.370909 
L 155.042236 496.898182 
L 204.625244 493.461818 
L 207.928955 493.461818 
L 211.252869 493.461818 
L 215.059204 493.461818 
L 217.846924 493.461818 
L 221.150696 493.461818 
L 270.794006 491.989091 
L 274.097778 491.989091 
L 277.428345 493.461818 
L 280.7052 491.989091 
L 283.988953 491.989091 
L 336.989624 491.989091 
L 340.273254 490.025455 
L 343.576965 490.025455 
L 346.907532 488.552727 
L 350.20459 490.025455 
L 353.535156 490.025455 
L 403.051147 437.007273 
L 406.368286 422.28 
L 409.672058 403.625455 
L 413.002625 390.370909 
L 416.272827 377.116364 
L 419.583313 360.425455 
L 469.240051 212.661818 
L 472.510254 207.752727 
L 476.075378 202.843636 
L 479.164673 195.970909 
L 482.461731 191.061818 
L 485.785583 189.098182 
L 535.449036 144.425455 
L 538.746094 144.425455 
L 542.069885 145.898182 
L 545.400452 144.425455 
L 548.704224 145.898182 
L 551.994568 145.898182 
L 604.760681 182.716364 
L 608.071167 182.716364 
L 611.401672 186.152727 
L 614.705505 187.625455 
L 618.022644 191.061818 
L 621.326355 191.061818 
L 670.983093 207.752727 
L 674.273438 202.843636 
L 677.604004 195.970909 
L 680.907715 189.098182 
L 684.231628 180.752727 
L 687.535339 177.807273 
L 737.761719 107.607273 
L 740.529358 104.661818 
L 743.833069 102.698182 
L 747.163635 97.789091 
" style="fill:none;stroke:#ff7f0e;stroke-linecap:square;stroke-width:1.5;"/>
    <defs>
     <path d="M 0 2.5 
C 0.663008 2.5 1.29895 2.236584 1.767767 1.767767 
C 2.236584 1.29895 2.5 0.663008 2.5 0 
C 2.5 -0.663008 2.236584 -1.29895 1.767767 -1.767767 
C 1.29895 -2.236584 0.663008 -2.5 0 -2.5 
C -0.663008 -2.5 -1.29895 -2.236584 -1.767767 -1.767767 
C -2.236584 -1.29895 -2.5 -0.663008 -2.5 0 
C -2.5 0.663008 -2.236584 1.29895 -1.767767 1.767767 
C -1.29895 2.236584 -0.663008 2.5 0 2.5 
z
" id="m493b903f6c" style="stroke:#ff7f0e;"/>
    </defs>
    <g clip-path="url(#p1ded7ad273)">
     <use style="fill:#ff7f0e;stroke:#ff7f0e;" x="138.43634" xlink:href="#m493b903f6c" y="498.370909"/>
     <use style="fill:#ff7f0e;stroke:#ff7f0e;" x="141.760193" xlink:href="#m493b903f6c" y="496.898182"/>
     <use style="fill:#ff7f0e;stroke:#ff7f0e;" x="145.090759" xlink:href="#m493b903f6c" y="496.898182"/>
     <use style="fill:#ff7f0e;stroke:#ff7f0e;" x="148.39447" xlink:href="#m493b903f6c" y="498.370909"/>
     <use style="fill:#ff7f0e;stroke:#ff7f0e;" x="151.691528" xlink:href="#m493b903f6c" y="498.370909"/>
     <use style="fill:#ff7f0e;stroke:#ff7f0e;" x="155.042236" xlink:href="#m493b903f6c" y="496.898182"/>
     <use style="fill:#ff7f0e;stroke:#ff7f0e;" x="204.625244" xlink:href="#m493b903f6c" y="493.461818"/>
     <use style="fill:#ff7f0e;stroke:#ff7f0e;" x="207.928955" xlink:href="#m493b903f6c" y="493.461818"/>
     <use style="fill:#ff7f0e;stroke:#ff7f0e;" x="211.252869" xlink:href="#m493b903f6c" y="493.461818"/>
     <use style="fill:#ff7f0e;stroke:#ff7f0e;" x="215.059204" xlink:href="#m493b903f6c" y="493.461818"/>
     <use style="fill:#ff7f0e;stroke:#ff7f0e;" x="217.846924" xlink:href="#m493b903f6c" y="493.461818"/>
     <use style="fill:#ff7f0e;stroke:#ff7f0e;" x="221.150696" xlink:href="#m493b903f6c" y="493.461818"/>
     <use style="fill:#ff7f0e;stroke:#ff7f0e;" x="270.794006" xlink:href="#m493b903f6c" y="491.989091"/>
     <use style="fill:#ff7f0e;stroke:#ff7f0e;" x="274.097778" xlink:href="#m493b903f6c" y="491.989091"/>
     <use style="fill:#ff7f0e;stroke:#ff7f0e;" x="277.428345" xlink:href="#m493b903f6c" y="493.461818"/>
     <use style="fill:#ff7f0e;stroke:#ff7f0e;" x="280.7052" xlink:href="#m493b903f6c" y="491.989091"/>
     <use style="fill:#ff7f0e;stroke:#ff7f0e;" x="283.988953" xlink:href="#m493b903f6c" y="491.989091"/>
     <use style="fill:#ff7f0e;stroke:#ff7f0e;" x="336.989624" xlink:href="#m493b903f6c" y="491.989091"/>
     <use style="fill:#ff7f0e;stroke:#ff7f0e;" x="340.273254" xlink:href="#m493b903f6c" y="490.025455"/>
     <use style="fill:#ff7f0e;stroke:#ff7f0e;" x="343.576965" xlink:href="#m493b903f6c" y="490.025455"/>
     <use style="fill:#ff7f0e;stroke:#ff7f0e;" x="346.907532" xlink:href="#m493b903f6c" y="488.552727"/>
     <use style="fill:#ff7f0e;stroke:#ff7f0e;" x="350.20459" xlink:href="#m493b903f6c" y="490.025455"/>
     <use style="fill:#ff7f0e;stroke:#ff7f0e;" x="353.535156" xlink:href="#m493b903f6c" y="490.025455"/>
     <use style="fill:#ff7f0e;stroke:#ff7f0e;" x="403.051147" xlink:href="#m493b903f6c" y="437.007273"/>
     <use style="fill:#ff7f0e;stroke:#ff7f0e;" x="406.368286" xlink:href="#m493b903f6c" y="422.28"/>
     <use style="fill:#ff7f0e;stroke:#ff7f0e;" x="409.672058" xlink:href="#m493b903f6c" y="403.625455"/>
     <use style="fill:#ff7f0e;stroke:#ff7f0e;" x="413.002625" xlink:href="#m493b903f6c" y="390.370909"/>
     <use style="fill:#ff7f0e;stroke:#ff7f0e;" x="416.272827" xlink:href="#m493b903f6c" y="377.116364"/>
     <use style="fill:#ff7f0e;stroke:#ff7f0e;" x="419.583313" xlink:href="#m493b903f6c" y="360.425455"/>
     <use style="fill:#ff7f0e;stroke:#ff7f0e;" x="469.240051" xlink:href="#m493b903f6c" y="212.661818"/>
     <use style="fill:#ff7f0e;stroke:#ff7f0e;" x="472.510254" xlink:href="#m493b903f6c" y="207.752727"/>
     <use style="fill:#ff7f0e;stroke:#ff7f0e;" x="476.075378" xlink:href="#m493b903f6c" y="202.843636"/>
     <use style="fill:#ff7f0e;stroke:#ff7f0e;" x="479.164673" xlink:href="#m493b903f6c" y="195.970909"/>
     <use style="fill:#ff7f0e;stroke:#ff7f0e;" x="482.461731" xlink:href="#m493b903f6c" y="191.061818"/>
     <use style="fill:#ff7f0e;stroke:#ff7f0e;" x="485.785583" xlink:href="#m493b903f6c" y="189.098182"/>
     <use style="fill:#ff7f0e;stroke:#ff7f0e;" x="535.449036" xlink:href="#m493b903f6c" y="144.425455"/>
     <use style="fill:#ff7f0e;stroke:#ff7f0e;" x="538.746094" xlink:href="#m493b903f6c" y="144.425455"/>
     <use style="fill:#ff7f0e;stroke:#ff7f0e;" x="542.069885" xlink:href="#m493b903f6c" y="145.898182"/>
     <use style="fill:#ff7f0e;stroke:#ff7f0e;" x="545.400452" xlink:href="#m493b903f6c" y="144.425455"/>
     <use style="fill:#ff7f0e;stroke:#ff7f0e;" x="548.704224" xlink:href="#m493b903f6c" y="145.898182"/>
     <use style="fill:#ff7f0e;stroke:#ff7f0e;" x="551.994568" xlink:href="#m493b903f6c" y="145.898182"/>
     <use style="fill:#ff7f0e;stroke:#ff7f0e;" x="604.760681" xlink:href="#m493b903f6c" y="182.716364"/>
     <use style="fill:#ff7f0e;stroke:#ff7f0e;" x="608.071167" xlink:href="#m493b903f6c" y="182.716364"/>
     <use style="fill:#ff7f0e;stroke:#ff7f0e;" x="611.401672" xlink:href="#m493b903f6c" y="186.152727"/>
     <use style="fill:#ff7f0e;stroke:#ff7f0e;" x="614.705505" xlink:href="#m493b903f6c" y="187.625455"/>
     <use style="fill:#ff7f0e;stroke:#ff7f0e;" x="618.022644" xlink:href="#m493b903f6c" y="191.061818"/>
     <use style="fill:#ff7f0e;stroke:#ff7f0e;" x="621.326355" xlink:href="#m493b903f6c" y="191.061818"/>
     <use style="fill:#ff7f0e;stroke:#ff7f0e;" x="670.983093" xlink:href="#m493b903f6c" y="207.752727"/>
     <use style="fill:#ff7f0e;stroke:#ff7f0e;" x="674.273438" xlink:href="#m493b903f6c" y="202.843636"/>
     <use style="fill:#ff7f0e;stroke:#ff7f0e;" x="677.604004" xlink:href="#m493b903f6c" y="195.970909"/>
     <use style="fill:#ff7f0e;stroke:#ff7f0e;" x="680.907715" xlink:href="#m493b903f6c" y="189.098182"/>
     <use style="fill:#ff7f0e;stroke:#ff7f0e;" x="684.231628" xlink:href="#m493b903f6c" y="180.752727"/>
     <use style="fill:#ff7f0e;stroke:#ff7f0e;" x="687.535339" xlink:href="#m493b903f6c" y="177.807273"/>
     <use style="fill:#ff7f0e;stroke:#ff7f0e;" x="737.761719" xlink:href="#m493b903f6c" y="107.607273"/>
     <use style="fill:#ff7f0e;stroke:#ff7f0e;" x="740.529358" xlink:href="#m493b903f6c" y="104.661818"/>
     <use style="fill:#ff7f0e;stroke:#ff7f0e;" x="743.833069" xlink:href="#m493b903f6c" y="102.698182"/>
     <use style="fill:#ff7f0e;stroke:#ff7f0e;" x="747.163635" xlink:href="#m493b903f6c" y="97.789091"/>
    </g>
   </g>
   <g id="line2d_41">
    <path clip-path="url(#p1ded7ad273)" d="M 138.43634 460.08 
L 141.760193 460.08 
L 145.090759 458.607273 
L 148.39447 460.08 
L 151.691528 458.607273 
L 155.042236 458.607273 
L 204.625244 457.134545 
L 207.928955 457.134545 
L 211.252869 457.134545 
L 215.059204 457.134545 
L 217.846924 455.170909 
L 221.150696 457.134545 
L 270.794006 455.170909 
L 274.097778 457.134545 
L 277.428345 457.134545 
L 280.7052 457.134545 
L 283.988953 455.170909 
L 336.989624 274.025455 
L 340.273254 264.207273 
L 343.576965 254.389091 
L 346.907532 244.08 
L 350.20459 234.261818 
L 353.535156 225.916364 
L 403.051147 147.861818 
L 406.368286 149.334545 
L 409.672058 149.334545 
L 413.002625 149.334545 
L 416.272827 149.334545 
L 419.583313 150.807273 
L 469.240051 172.898182 
L 472.510254 174.370909 
L 476.075378 175.843636 
L 479.164673 177.807273 
L 482.461731 179.28 
L 485.785583 182.716364 
L 535.449036 212.661818 
L 538.746094 216.098182 
L 542.069885 216.098182 
L 545.400452 219.043636 
L 548.704224 221.007273 
L 551.994568 222.48 
L 604.760681 252.425455 
L 608.071167 252.425455 
L 611.401672 254.389091 
L 614.705505 255.861818 
L 618.022644 257.334545 
L 621.326355 259.298182 
L 670.983093 284.334545 
L 674.273438 285.807273 
L 677.604004 289.243636 
L 680.907715 289.243636 
L 684.231628 292.189091 
L 687.535339 292.189091 
L 737.761719 209.225455 
L 740.529358 199.407273 
L 743.833069 192.534545 
L 747.163635 186.152727 
" style="fill:none;stroke:#2ca02c;stroke-linecap:square;stroke-width:1.5;"/>
    <defs>
     <path d="M 0 2.5 
C 0.663008 2.5 1.29895 2.236584 1.767767 1.767767 
C 2.236584 1.29895 2.5 0.663008 2.5 0 
C 2.5 -0.663008 2.236584 -1.29895 1.767767 -1.767767 
C 1.29895 -2.236584 0.663008 -2.5 0 -2.5 
C -0.663008 -2.5 -1.29895 -2.236584 -1.767767 -1.767767 
C -2.236584 -1.29895 -2.5 -0.663008 -2.5 0 
C -2.5 0.663008 -2.236584 1.29895 -1.767767 1.767767 
C -1.29895 2.236584 -0.663008 2.5 0 2.5 
z
" id="m1fd329e2d5" style="stroke:#2ca02c;"/>
    </defs>
    <g clip-path="url(#p1ded7ad273)">
     <use style="fill:#2ca02c;stroke:#2ca02c;" x="138.43634" xlink:href="#m1fd329e2d5" y="460.08"/>
     <use style="fill:#2ca02c;stroke:#2ca02c;" x="141.760193" xlink:href="#m1fd329e2d5" y="460.08"/>
     <use style="fill:#2ca02c;stroke:#2ca02c;" x="145.090759" xlink:href="#m1fd329e2d5" y="458.607273"/>
     <use style="fill:#2ca02c;stroke:#2ca02c;" x="148.39447" xlink:href="#m1fd329e2d5" y="460.08"/>
     <use style="fill:#2ca02c;stroke:#2ca02c;" x="151.691528" xlink:href="#m1fd329e2d5" y="458.607273"/>
     <use style="fill:#2ca02c;stroke:#2ca02c;" x="155.042236" xlink:href="#m1fd329e2d5" y="458.607273"/>
     <use style="fill:#2ca02c;stroke:#2ca02c;" x="204.625244" xlink:href="#m1fd329e2d5" y="457.134545"/>
     <use style="fill:#2ca02c;stroke:#2ca02c;" x="207.928955" xlink:href="#m1fd329e2d5" y="457.134545"/>
     <use style="fill:#2ca02c;stroke:#2ca02c;" x="211.252869" xlink:href="#m1fd329e2d5" y="457.134545"/>
     <use style="fill:#2ca02c;stroke:#2ca02c;" x="215.059204" xlink:href="#m1fd329e2d5" y="457.134545"/>
     <use style="fill:#2ca02c;stroke:#2ca02c;" x="217.846924" xlink:href="#m1fd329e2d5" y="455.170909"/>
     <use style="fill:#2ca02c;stroke:#2ca02c;" x="221.150696" xlink:href="#m1fd329e2d5" y="457.134545"/>
     <use style="fill:#2ca02c;stroke:#2ca02c;" x="270.794006" xlink:href="#m1fd329e2d5" y="455.170909"/>
     <use style="fill:#2ca02c;stroke:#2ca02c;" x="274.097778" xlink:href="#m1fd329e2d5" y="457.134545"/>
     <use style="fill:#2ca02c;stroke:#2ca02c;" x="277.428345" xlink:href="#m1fd329e2d5" y="457.134545"/>
     <use style="fill:#2ca02c;stroke:#2ca02c;" x="280.7052" xlink:href="#m1fd329e2d5" y="457.134545"/>
     <use style="fill:#2ca02c;stroke:#2ca02c;" x="283.988953" xlink:href="#m1fd329e2d5" y="455.170909"/>
     <use style="fill:#2ca02c;stroke:#2ca02c;" x="336.989624" xlink:href="#m1fd329e2d5" y="274.025455"/>
     <use style="fill:#2ca02c;stroke:#2ca02c;" x="340.273254" xlink:href="#m1fd329e2d5" y="264.207273"/>
     <use style="fill:#2ca02c;stroke:#2ca02c;" x="343.576965" xlink:href="#m1fd329e2d5" y="254.389091"/>
     <use style="fill:#2ca02c;stroke:#2ca02c;" x="346.907532" xlink:href="#m1fd329e2d5" y="244.08"/>
     <use style="fill:#2ca02c;stroke:#2ca02c;" x="350.20459" xlink:href="#m1fd329e2d5" y="234.261818"/>
     <use style="fill:#2ca02c;stroke:#2ca02c;" x="353.535156" xlink:href="#m1fd329e2d5" y="225.916364"/>
     <use style="fill:#2ca02c;stroke:#2ca02c;" x="403.051147" xlink:href="#m1fd329e2d5" y="147.861818"/>
     <use style="fill:#2ca02c;stroke:#2ca02c;" x="406.368286" xlink:href="#m1fd329e2d5" y="149.334545"/>
     <use style="fill:#2ca02c;stroke:#2ca02c;" x="409.672058" xlink:href="#m1fd329e2d5" y="149.334545"/>
     <use style="fill:#2ca02c;stroke:#2ca02c;" x="413.002625" xlink:href="#m1fd329e2d5" y="149.334545"/>
     <use style="fill:#2ca02c;stroke:#2ca02c;" x="416.272827" xlink:href="#m1fd329e2d5" y="149.334545"/>
     <use style="fill:#2ca02c;stroke:#2ca02c;" x="419.583313" xlink:href="#m1fd329e2d5" y="150.807273"/>
     <use style="fill:#2ca02c;stroke:#2ca02c;" x="469.240051" xlink:href="#m1fd329e2d5" y="172.898182"/>
     <use style="fill:#2ca02c;stroke:#2ca02c;" x="472.510254" xlink:href="#m1fd329e2d5" y="174.370909"/>
     <use style="fill:#2ca02c;stroke:#2ca02c;" x="476.075378" xlink:href="#m1fd329e2d5" y="175.843636"/>
     <use style="fill:#2ca02c;stroke:#2ca02c;" x="479.164673" xlink:href="#m1fd329e2d5" y="177.807273"/>
     <use style="fill:#2ca02c;stroke:#2ca02c;" x="482.461731" xlink:href="#m1fd329e2d5" y="179.28"/>
     <use style="fill:#2ca02c;stroke:#2ca02c;" x="485.785583" xlink:href="#m1fd329e2d5" y="182.716364"/>
     <use style="fill:#2ca02c;stroke:#2ca02c;" x="535.449036" xlink:href="#m1fd329e2d5" y="212.661818"/>
     <use style="fill:#2ca02c;stroke:#2ca02c;" x="538.746094" xlink:href="#m1fd329e2d5" y="216.098182"/>
     <use style="fill:#2ca02c;stroke:#2ca02c;" x="542.069885" xlink:href="#m1fd329e2d5" y="216.098182"/>
     <use style="fill:#2ca02c;stroke:#2ca02c;" x="545.400452" xlink:href="#m1fd329e2d5" y="219.043636"/>
     <use style="fill:#2ca02c;stroke:#2ca02c;" x="548.704224" xlink:href="#m1fd329e2d5" y="221.007273"/>
     <use style="fill:#2ca02c;stroke:#2ca02c;" x="551.994568" xlink:href="#m1fd329e2d5" y="222.48"/>
     <use style="fill:#2ca02c;stroke:#2ca02c;" x="604.760681" xlink:href="#m1fd329e2d5" y="252.425455"/>
     <use style="fill:#2ca02c;stroke:#2ca02c;" x="608.071167" xlink:href="#m1fd329e2d5" y="252.425455"/>
     <use style="fill:#2ca02c;stroke:#2ca02c;" x="611.401672" xlink:href="#m1fd329e2d5" y="254.389091"/>
     <use style="fill:#2ca02c;stroke:#2ca02c;" x="614.705505" xlink:href="#m1fd329e2d5" y="255.861818"/>
     <use style="fill:#2ca02c;stroke:#2ca02c;" x="618.022644" xlink:href="#m1fd329e2d5" y="257.334545"/>
     <use style="fill:#2ca02c;stroke:#2ca02c;" x="621.326355" xlink:href="#m1fd329e2d5" y="259.298182"/>
     <use style="fill:#2ca02c;stroke:#2ca02c;" x="670.983093" xlink:href="#m1fd329e2d5" y="284.334545"/>
     <use style="fill:#2ca02c;stroke:#2ca02c;" x="674.273438" xlink:href="#m1fd329e2d5" y="285.807273"/>
     <use style="fill:#2ca02c;stroke:#2ca02c;" x="677.604004" xlink:href="#m1fd329e2d5" y="289.243636"/>
     <use style="fill:#2ca02c;stroke:#2ca02c;" x="680.907715" xlink:href="#m1fd329e2d5" y="289.243636"/>
     <use style="fill:#2ca02c;stroke:#2ca02c;" x="684.231628" xlink:href="#m1fd329e2d5" y="292.189091"/>
     <use style="fill:#2ca02c;stroke:#2ca02c;" x="687.535339" xlink:href="#m1fd329e2d5" y="292.189091"/>
     <use style="fill:#2ca02c;stroke:#2ca02c;" x="737.761719" xlink:href="#m1fd329e2d5" y="209.225455"/>
     <use style="fill:#2ca02c;stroke:#2ca02c;" x="740.529358" xlink:href="#m1fd329e2d5" y="199.407273"/>
     <use style="fill:#2ca02c;stroke:#2ca02c;" x="743.833069" xlink:href="#m1fd329e2d5" y="192.534545"/>
     <use style="fill:#2ca02c;stroke:#2ca02c;" x="747.163635" xlink:href="#m1fd329e2d5" y="186.152727"/>
    </g>
   </g>
   <g id="patch_3">
    <path d="M 108 518.4 
L 108 77.76 
" style="fill:none;stroke:#000000;stroke-linecap:square;stroke-linejoin:miter;stroke-width:0.8;"/>
   </g>
   <g id="patch_4">
    <path d="M 777.6 518.4 
L 777.6 77.76 
" style="fill:none;stroke:#000000;stroke-linecap:square;stroke-linejoin:miter;stroke-width:0.8;"/>
   </g>
   <g id="patch_5">
    <path d="M 108 518.4 
L 777.599976 518.4 
" style="fill:none;stroke:#000000;stroke-linecap:square;stroke-linejoin:miter;stroke-width:0.8;"/>
   </g>
   <g id="patch_6">
    <path d="M 108 77.76 
L 777.599976 77.76 
" style="fill:none;stroke:#000000;stroke-linecap:square;stroke-linejoin:miter;stroke-width:0.8;"/>
   </g>
   <g id="text_22">
    <!-- RTD temperature (°C) -->
    <defs>
     <path d="M 44.390625 34.1875 
Q 47.5625 33.109375 50.5625 29.59375 
Q 53.5625 26.078125 56.59375 19.921875 
L 66.609375 0 
L 56 0 
L 46.6875 18.703125 
Q 43.0625 26.03125 39.671875 28.421875 
Q 36.28125 30.8125 30.421875 30.8125 
L 19.671875 30.8125 
L 19.671875 0 
L 9.8125 0 
L 9.8125 72.90625 
L 32.078125 72.90625 
Q 44.578125 72.90625 50.734375 67.671875 
Q 56.890625 62.453125 56.890625 51.90625 
Q 56.890625 45.015625 53.6875 40.46875 
Q 50.484375 35.9375 44.390625 34.1875 
z
M 19.671875 64.796875 
L 19.671875 38.921875 
L 32.078125 38.921875 
Q 39.203125 38.921875 42.84375 42.21875 
Q 46.484375 45.515625 46.484375 51.90625 
Q 46.484375 58.296875 42.84375 61.546875 
Q 39.203125 64.796875 32.078125 64.796875 
z
" id="DejaVuSans-82"/>
    </defs>
    <g transform="translate(377.385 71.76)scale(0.12 -0.12)">
     <use xlink:href="#DejaVuSans-82"/>
     <use x="62.232422" xlink:href="#DejaVuSans-84"/>
     <use x="123.316406" xlink:href="#DejaVuSans-68"/>
     <use x="200.318359" xlink:href="#DejaVuSans-32"/>
     <use x="232.105469" xlink:href="#DejaVuSans-116"/>
     <use x="271.314453" xlink:href="#DejaVuSans-101"/>
     <use x="332.837891" xlink:href="#DejaVuSans-109"/>
     <use x="430.25" xlink:href="#DejaVuSans-112"/>
     <use x="493.726562" xlink:href="#DejaVuSans-101"/>
     <use x="555.25" xlink:href="#DejaVuSans-114"/>
     <use x="596.363281" xlink:href="#DejaVuSans-97"/>
     <use x="657.642578" xlink:href="#DejaVuSans-116"/>
     <use x="696.851562" xlink:href="#DejaVuSans-117"/>
     <use x="760.230469" xlink:href="#DejaVuSans-114"/>
     <use x="799.09375" xlink:href="#DejaVuSans-101"/>
     <use x="860.617188" xlink:href="#DejaVuSans-32"/>
     <use x="892.404297" xlink:href="#DejaVuSans-40"/>
     <use x="931.417969" xlink:href="#DejaVuSans-176"/>
     <use x="981.417969" xlink:href="#DejaVuSans-67"/>
     <use x="1051.242188" xlink:href="#DejaVuSans-41"/>
    </g>
   </g>
   <g id="legend_1">
    <g id="patch_7">
     <path d="M 115 130.62875 
L 193.179688 130.62875 
Q 195.179688 130.62875 195.179688 128.62875 
L 195.179688 84.76 
Q 195.179688 82.76 193.179688 82.76 
L 115 82.76 
Q 113 82.76 113 84.76 
L 113 128.62875 
Q 113 130.62875 115 130.62875 
z
" style="fill:#ffffff;opacity:0.8;stroke:#cccccc;stroke-linejoin:miter;"/>
    </g>
    <g id="line2d_42">
     <path d="M 117 90.858437 
L 137 90.858437 
" style="fill:none;stroke:#1f77b4;stroke-linecap:square;stroke-width:1.5;"/>
    </g>
    <g id="line2d_43">
     <g>
      <use style="fill:#1f77b4;stroke:#1f77b4;" x="127" xlink:href="#m0c1d258455" y="90.858437"/>
     </g>
    </g>
    <g id="text_23">
     <!-- RTD1_(C) -->
     <defs>
      <path d="M 50.984375 -16.609375 
L 50.984375 -23.578125 
L -0.984375 -23.578125 
L -0.984375 -16.609375 
z
" id="DejaVuSans-95"/>
     </defs>
     <g transform="translate(145 94.358437)scale(0.1 -0.1)">
      <use xlink:href="#DejaVuSans-82"/>
      <use x="62.232422" xlink:href="#DejaVuSans-84"/>
      <use x="123.316406" xlink:href="#DejaVuSans-68"/>
      <use x="200.318359" xlink:href="#DejaVuSans-49"/>
      <use x="263.941406" xlink:href="#DejaVuSans-95"/>
      <use x="313.941406" xlink:href="#DejaVuSans-40"/>
      <use x="352.955078" xlink:href="#DejaVuSans-67"/>
      <use x="422.779297" xlink:href="#DejaVuSans-41"/>
     </g>
    </g>
    <g id="line2d_44">
     <path d="M 117 105.814687 
L 137 105.814687 
" style="fill:none;stroke:#ff7f0e;stroke-linecap:square;stroke-width:1.5;"/>
    </g>
    <g id="line2d_45">
     <g>
      <use style="fill:#ff7f0e;stroke:#ff7f0e;" x="127" xlink:href="#m493b903f6c" y="105.814687"/>
     </g>
    </g>
    <g id="text_24">
     <!-- RTD2_(C) -->
     <g transform="translate(145 109.314687)scale(0.1 -0.1)">
      <use xlink:href="#DejaVuSans-82"/>
      <use x="62.232422" xlink:href="#DejaVuSans-84"/>
      <use x="123.316406" xlink:href="#DejaVuSans-68"/>
      <use x="200.318359" xlink:href="#DejaVuSans-50"/>
      <use x="263.941406" xlink:href="#DejaVuSans-95"/>
      <use x="313.941406" xlink:href="#DejaVuSans-40"/>
      <use x="352.955078" xlink:href="#DejaVuSans-67"/>
      <use x="422.779297" xlink:href="#DejaVuSans-41"/>
     </g>
    </g>
    <g id="line2d_46">
     <path d="M 117 120.770937 
L 137 120.770937 
" style="fill:none;stroke:#2ca02c;stroke-linecap:square;stroke-width:1.5;"/>
    </g>
    <g id="line2d_47">
     <g>
      <use style="fill:#2ca02c;stroke:#2ca02c;" x="127" xlink:href="#m1fd329e2d5" y="120.770937"/>
     </g>
    </g>
    <g id="text_25">
     <!-- RTD3_(C) -->
     <g transform="translate(145 124.270937)scale(0.1 -0.1)">
      <use xlink:href="#DejaVuSans-82"/>
      <use x="62.232422" xlink:href="#DejaVuSans-84"/>
      <use x="123.316406" xlink:href="#DejaVuSans-68"/>
      <use x="200.318359" xlink:href="#DejaVuSans-51"/>
      <use x="263.941406" xlink:href="#DejaVuSans-95"/>
      <use x="313.941406" xlink:href="#DejaVuSans-40"/>
      <use x="352.955078" xlink:href="#DejaVuSans-67"/>
      <use x="422.779297" xlink:href="#DejaVuSans-41"/>
     </g>
    </g>
   </g>
  </g>
 </g>
 <defs>
  <clipPath id="p1ded7ad273">
   <rect height="440.64" width="669.6" x="108" y="77.76"/>
  </clipPath>
 </defs>
</svg>
