<?xml version="1.0" encoding="utf-8" standalone="no"?>
<!DOCTYPE svg PUBLIC "-//W3C//DTD SVG 1.1//EN"
  "http://www.w3.org/Graphics/SVG/1.1/DTD/svg11.dtd">
<svg height="648pt" version="1.1" viewBox="0 0 864 648" width="864pt" xmlns="http://www.w3.org/2000/svg" xmlns:xlink="http://www.w3.org/1999/xlink">
 <metadata>
  <rdf:RDF xmlns:cc="http://creativecommons.org/ns#" xmlns:dc="http://purl.org/dc/elements/1.1/" xmlns:rdf="http://www.w3.org/1999/02/22-rdf-syntax-ns#">
   <cc:Work>
    <dc:type rdf:resource="http://purl.org/dc/dcmitype/StillImage"/>
    <dc:date>2021-08-14T18:52:15.365883</dc:date>
    <dc:format>image/svg+xml</dc:format>
    <dc:creator>
     <cc:Agent>
      <dc:title>Matplotlib v3.4.3, https://matplotlib.org/</dc:title>
     </cc:Agent>
    </dc:creator>
   </cc:Work>
  </rdf:RDF>
 </metadata>
 <defs>
  <style type="text/css">*{stroke-linecap:butt;stroke-linejoin:round;}</style>
 </defs>
 <g id="figure_1">
  <g id="patch_1">
   <path d="M 0 648 
L 864 648 
L 864 0 
L 0 0 
z
" style="fill:none;"/>
  </g>
  <g id="axes_1">
   <g id="patch_2">
    <path d="M 108 518.4 
L 777.6 518.4 
L 777.6 77.76 
L 108 77.76 
z
" style="fill:#ffffff;"/>
   </g>
   <g id="matplotlib.axis_1">
    <g id="xtick_1">
     <g id="line2d_1">
      <path clip-path="url(#p865739ca7d)" d="M 227.736452 518.4 
L 227.736452 77.76 
" style="fill:none;stroke:#b0b0b0;stroke-linecap:square;stroke-width:0.8;"/>
     </g>
     <g id="line2d_2">
      <defs>
       <path d="M 0 0 
L 0 3.5 
" id="m3a3e57ea6b" style="stroke:#000000;stroke-width:0.8;"/>
      </defs>
      <g>
       <use style="stroke:#000000;stroke-width:0.8;" x="227.736452" xlink:href="#m3a3e57ea6b" y="518.4"/>
      </g>
     </g>
     <g id="text_1">
      <!-- 00:00:10 -->
      <g transform="translate(187.801242 554.43669)rotate(-30)scale(0.1 -0.1)">
       <defs>
        <path d="M 2034 4250 
Q 1547 4250 1301 3770 
Q 1056 3291 1056 2328 
Q 1056 1369 1301 889 
Q 1547 409 2034 409 
Q 2525 409 2770 889 
Q 3016 1369 3016 2328 
Q 3016 3291 2770 3770 
Q 2525 4250 2034 4250 
z
M 2034 4750 
Q 2819 4750 3233 4129 
Q 3647 3509 3647 2328 
Q 3647 1150 3233 529 
Q 2819 -91 2034 -91 
Q 1250 -91 836 529 
Q 422 1150 422 2328 
Q 422 3509 836 4129 
Q 1250 4750 2034 4750 
z
" id="DejaVuSans-30" transform="scale(0.015625)"/>
        <path d="M 750 794 
L 1409 794 
L 1409 0 
L 750 0 
L 750 794 
z
M 750 3309 
L 1409 3309 
L 1409 2516 
L 750 2516 
L 750 3309 
z
" id="DejaVuSans-3a" transform="scale(0.015625)"/>
        <path d="M 794 531 
L 1825 531 
L 1825 4091 
L 703 3866 
L 703 4441 
L 1819 4666 
L 2450 4666 
L 2450 531 
L 3481 531 
L 3481 0 
L 794 0 
L 794 531 
z
" id="DejaVuSans-31" transform="scale(0.015625)"/>
       </defs>
       <use xlink:href="#DejaVuSans-30"/>
       <use x="63.623047" xlink:href="#DejaVuSans-30"/>
       <use x="127.246094" xlink:href="#DejaVuSans-3a"/>
       <use x="160.9375" xlink:href="#DejaVuSans-30"/>
       <use x="224.560547" xlink:href="#DejaVuSans-30"/>
       <use x="288.183594" xlink:href="#DejaVuSans-3a"/>
       <use x="321.875" xlink:href="#DejaVuSans-31"/>
       <use x="385.498047" xlink:href="#DejaVuSans-30"/>
      </g>
     </g>
    </g>
    <g id="xtick_2">
     <g id="line2d_3">
      <path clip-path="url(#p865739ca7d)" d="M 352.248565 518.4 
L 352.248565 77.76 
" style="fill:none;stroke:#b0b0b0;stroke-linecap:square;stroke-width:0.8;"/>
     </g>
     <g id="line2d_4">
      <g>
       <use style="stroke:#000000;stroke-width:0.8;" x="352.248565" xlink:href="#m3a3e57ea6b" y="518.4"/>
      </g>
     </g>
     <g id="text_2">
      <!-- 00:00:20 -->
      <g transform="translate(312.313356 554.43669)rotate(-30)scale(0.1 -0.1)">
       <defs>
        <path d="M 1228 531 
L 3431 531 
L 3431 0 
L 469 0 
L 469 531 
Q 828 903 1448 1529 
Q 2069 2156 2228 2338 
Q 2531 2678 2651 2914 
Q 2772 3150 2772 3378 
Q 2772 3750 2511 3984 
Q 2250 4219 1831 4219 
Q 1534 4219 1204 4116 
Q 875 4013 500 3803 
L 500 4441 
Q 881 4594 1212 4672 
Q 1544 4750 1819 4750 
Q 2544 4750 2975 4387 
Q 3406 4025 3406 3419 
Q 3406 3131 3298 2873 
Q 3191 2616 2906 2266 
Q 2828 2175 2409 1742 
Q 1991 1309 1228 531 
z
" id="DejaVuSans-32" transform="scale(0.015625)"/>
       </defs>
       <use xlink:href="#DejaVuSans-30"/>
       <use x="63.623047" xlink:href="#DejaVuSans-30"/>
       <use x="127.246094" xlink:href="#DejaVuSans-3a"/>
       <use x="160.9375" xlink:href="#DejaVuSans-30"/>
       <use x="224.560547" xlink:href="#DejaVuSans-30"/>
       <use x="288.183594" xlink:href="#DejaVuSans-3a"/>
       <use x="321.875" xlink:href="#DejaVuSans-32"/>
       <use x="385.498047" xlink:href="#DejaVuSans-30"/>
      </g>
     </g>
    </g>
    <g id="xtick_3">
     <g id="line2d_5">
      <path clip-path="url(#p865739ca7d)" d="M 476.760679 518.4 
L 476.760679 77.76 
" style="fill:none;stroke:#b0b0b0;stroke-linecap:square;stroke-width:0.8;"/>
     </g>
     <g id="line2d_6">
      <g>
       <use style="stroke:#000000;stroke-width:0.8;" x="476.760679" xlink:href="#m3a3e57ea6b" y="518.4"/>
      </g>
     </g>
     <g id="text_3">
      <!-- 00:00:30 -->
      <g transform="translate(436.825469 554.43669)rotate(-30)scale(0.1 -0.1)">
       <defs>
        <path d="M 2597 2516 
Q 3050 2419 3304 2112 
Q 3559 1806 3559 1356 
Q 3559 666 3084 287 
Q 2609 -91 1734 -91 
Q 1441 -91 1130 -33 
Q 819 25 488 141 
L 488 750 
Q 750 597 1062 519 
Q 1375 441 1716 441 
Q 2309 441 2620 675 
Q 2931 909 2931 1356 
Q 2931 1769 2642 2001 
Q 2353 2234 1838 2234 
L 1294 2234 
L 1294 2753 
L 1863 2753 
Q 2328 2753 2575 2939 
Q 2822 3125 2822 3475 
Q 2822 3834 2567 4026 
Q 2313 4219 1838 4219 
Q 1578 4219 1281 4162 
Q 984 4106 628 3988 
L 628 4550 
Q 988 4650 1302 4700 
Q 1616 4750 1894 4750 
Q 2613 4750 3031 4423 
Q 3450 4097 3450 3541 
Q 3450 3153 3228 2886 
Q 3006 2619 2597 2516 
z
" id="DejaVuSans-33" transform="scale(0.015625)"/>
       </defs>
       <use xlink:href="#DejaVuSans-30"/>
       <use x="63.623047" xlink:href="#DejaVuSans-30"/>
       <use x="127.246094" xlink:href="#DejaVuSans-3a"/>
       <use x="160.9375" xlink:href="#DejaVuSans-30"/>
       <use x="224.560547" xlink:href="#DejaVuSans-30"/>
       <use x="288.183594" xlink:href="#DejaVuSans-3a"/>
       <use x="321.875" xlink:href="#DejaVuSans-33"/>
       <use x="385.498047" xlink:href="#DejaVuSans-30"/>
      </g>
     </g>
    </g>
    <g id="xtick_4">
     <g id="line2d_7">
      <path clip-path="url(#p865739ca7d)" d="M 601.272793 518.4 
L 601.272793 77.76 
" style="fill:none;stroke:#b0b0b0;stroke-linecap:square;stroke-width:0.8;"/>
     </g>
     <g id="line2d_8">
      <g>
       <use style="stroke:#000000;stroke-width:0.8;" x="601.272793" xlink:href="#m3a3e57ea6b" y="518.4"/>
      </g>
     </g>
     <g id="text_4">
      <!-- 00:00:40 -->
      <g transform="translate(561.337583 554.43669)rotate(-30)scale(0.1 -0.1)">
       <defs>
        <path d="M 2419 4116 
L 825 1625 
L 2419 1625 
L 2419 4116 
z
M 2253 4666 
L 3047 4666 
L 3047 1625 
L 3713 1625 
L 3713 1100 
L 3047 1100 
L 3047 0 
L 2419 0 
L 2419 1100 
L 313 1100 
L 313 1709 
L 2253 4666 
z
" id="DejaVuSans-34" transform="scale(0.015625)"/>
       </defs>
       <use xlink:href="#DejaVuSans-30"/>
       <use x="63.623047" xlink:href="#DejaVuSans-30"/>
       <use x="127.246094" xlink:href="#DejaVuSans-3a"/>
       <use x="160.9375" xlink:href="#DejaVuSans-30"/>
       <use x="224.560547" xlink:href="#DejaVuSans-30"/>
       <use x="288.183594" xlink:href="#DejaVuSans-3a"/>
       <use x="321.875" xlink:href="#DejaVuSans-34"/>
       <use x="385.498047" xlink:href="#DejaVuSans-30"/>
      </g>
     </g>
    </g>
    <g id="xtick_5">
     <g id="line2d_9">
      <path clip-path="url(#p865739ca7d)" d="M 725.784906 518.4 
L 725.784906 77.76 
" style="fill:none;stroke:#b0b0b0;stroke-linecap:square;stroke-width:0.8;"/>
     </g>
     <g id="line2d_10">
      <g>
       <use style="stroke:#000000;stroke-width:0.8;" x="725.784906" xlink:href="#m3a3e57ea6b" y="518.4"/>
      </g>
     </g>
     <g id="text_5">
      <!-- 00:00:50 -->
      <g transform="translate(685.849697 554.43669)rotate(-30)scale(0.1 -0.1)">
       <defs>
        <path d="M 691 4666 
L 3169 4666 
L 3169 4134 
L 1269 4134 
L 1269 2991 
Q 1406 3038 1543 3061 
Q 1681 3084 1819 3084 
Q 2600 3084 3056 2656 
Q 3513 2228 3513 1497 
Q 3513 744 3044 326 
Q 2575 -91 1722 -91 
Q 1428 -91 1123 -41 
Q 819 9 494 109 
L 494 744 
Q 775 591 1075 516 
Q 1375 441 1709 441 
Q 2250 441 2565 725 
Q 2881 1009 2881 1497 
Q 2881 1984 2565 2268 
Q 2250 2553 1709 2553 
Q 1456 2553 1204 2497 
Q 953 2441 691 2322 
L 691 4666 
z
" id="DejaVuSans-35" transform="scale(0.015625)"/>
       </defs>
       <use xlink:href="#DejaVuSans-30"/>
       <use x="63.623047" xlink:href="#DejaVuSans-30"/>
       <use x="127.246094" xlink:href="#DejaVuSans-3a"/>
       <use x="160.9375" xlink:href="#DejaVuSans-30"/>
       <use x="224.560547" xlink:href="#DejaVuSans-30"/>
       <use x="288.183594" xlink:href="#DejaVuSans-3a"/>
       <use x="321.875" xlink:href="#DejaVuSans-35"/>
       <use x="385.498047" xlink:href="#DejaVuSans-30"/>
      </g>
     </g>
    </g>
    <g id="text_6">
     <!-- DateTime -->
     <g transform="translate(418.615625 567.83619)scale(0.1 -0.1)">
      <defs>
       <path d="M 1259 4147 
L 1259 519 
L 2022 519 
Q 2988 519 3436 956 
Q 3884 1394 3884 2338 
Q 3884 3275 3436 3711 
Q 2988 4147 2022 4147 
L 1259 4147 
z
M 628 4666 
L 1925 4666 
Q 3281 4666 3915 4102 
Q 4550 3538 4550 2338 
Q 4550 1131 3912 565 
Q 3275 0 1925 0 
L 628 0 
L 628 4666 
z
" id="DejaVuSans-44" transform="scale(0.015625)"/>
       <path d="M 2194 1759 
Q 1497 1759 1228 1600 
Q 959 1441 959 1056 
Q 959 750 1161 570 
Q 1363 391 1709 391 
Q 2188 391 2477 730 
Q 2766 1069 2766 1631 
L 2766 1759 
L 2194 1759 
z
M 3341 1997 
L 3341 0 
L 2766 0 
L 2766 531 
Q 2569 213 2275 61 
Q 1981 -91 1556 -91 
Q 1019 -91 701 211 
Q 384 513 384 1019 
Q 384 1609 779 1909 
Q 1175 2209 1959 2209 
L 2766 2209 
L 2766 2266 
Q 2766 2663 2505 2880 
Q 2244 3097 1772 3097 
Q 1472 3097 1187 3025 
Q 903 2953 641 2809 
L 641 3341 
Q 956 3463 1253 3523 
Q 1550 3584 1831 3584 
Q 2591 3584 2966 3190 
Q 3341 2797 3341 1997 
z
" id="DejaVuSans-61" transform="scale(0.015625)"/>
       <path d="M 1172 4494 
L 1172 3500 
L 2356 3500 
L 2356 3053 
L 1172 3053 
L 1172 1153 
Q 1172 725 1289 603 
Q 1406 481 1766 481 
L 2356 481 
L 2356 0 
L 1766 0 
Q 1100 0 847 248 
Q 594 497 594 1153 
L 594 3053 
L 172 3053 
L 172 3500 
L 594 3500 
L 594 4494 
L 1172 4494 
z
" id="DejaVuSans-74" transform="scale(0.015625)"/>
       <path d="M 3597 1894 
L 3597 1613 
L 953 1613 
Q 991 1019 1311 708 
Q 1631 397 2203 397 
Q 2534 397 2845 478 
Q 3156 559 3463 722 
L 3463 178 
Q 3153 47 2828 -22 
Q 2503 -91 2169 -91 
Q 1331 -91 842 396 
Q 353 884 353 1716 
Q 353 2575 817 3079 
Q 1281 3584 2069 3584 
Q 2775 3584 3186 3129 
Q 3597 2675 3597 1894 
z
M 3022 2063 
Q 3016 2534 2758 2815 
Q 2500 3097 2075 3097 
Q 1594 3097 1305 2825 
Q 1016 2553 972 2059 
L 3022 2063 
z
" id="DejaVuSans-65" transform="scale(0.015625)"/>
       <path d="M -19 4666 
L 3928 4666 
L 3928 4134 
L 2272 4134 
L 2272 0 
L 1638 0 
L 1638 4134 
L -19 4134 
L -19 4666 
z
" id="DejaVuSans-54" transform="scale(0.015625)"/>
       <path d="M 603 3500 
L 1178 3500 
L 1178 0 
L 603 0 
L 603 3500 
z
M 603 4863 
L 1178 4863 
L 1178 4134 
L 603 4134 
L 603 4863 
z
" id="DejaVuSans-69" transform="scale(0.015625)"/>
       <path d="M 3328 2828 
Q 3544 3216 3844 3400 
Q 4144 3584 4550 3584 
Q 5097 3584 5394 3201 
Q 5691 2819 5691 2113 
L 5691 0 
L 5113 0 
L 5113 2094 
Q 5113 2597 4934 2840 
Q 4756 3084 4391 3084 
Q 3944 3084 3684 2787 
Q 3425 2491 3425 1978 
L 3425 0 
L 2847 0 
L 2847 2094 
Q 2847 2600 2669 2842 
Q 2491 3084 2119 3084 
Q 1678 3084 1418 2786 
Q 1159 2488 1159 1978 
L 1159 0 
L 581 0 
L 581 3500 
L 1159 3500 
L 1159 2956 
Q 1356 3278 1631 3431 
Q 1906 3584 2284 3584 
Q 2666 3584 2933 3390 
Q 3200 3197 3328 2828 
z
" id="DejaVuSans-6d" transform="scale(0.015625)"/>
      </defs>
      <use xlink:href="#DejaVuSans-44"/>
      <use x="77.001953" xlink:href="#DejaVuSans-61"/>
      <use x="138.28125" xlink:href="#DejaVuSans-74"/>
      <use x="177.490234" xlink:href="#DejaVuSans-65"/>
      <use x="239.013672" xlink:href="#DejaVuSans-54"/>
      <use x="296.972656" xlink:href="#DejaVuSans-69"/>
      <use x="324.755859" xlink:href="#DejaVuSans-6d"/>
      <use x="422.167969" xlink:href="#DejaVuSans-65"/>
     </g>
    </g>
   </g>
   <g id="matplotlib.axis_2">
    <g id="ytick_1">
     <g id="line2d_11">
      <path clip-path="url(#p865739ca7d)" d="M 108 481.079608 
L 777.6 481.079608 
" style="fill:none;stroke:#b0b0b0;stroke-linecap:square;stroke-width:0.8;"/>
     </g>
     <g id="line2d_12">
      <defs>
       <path d="M 0 0 
L -3.5 0 
" id="m0885efe51c" style="stroke:#000000;stroke-width:0.8;"/>
      </defs>
      <g>
       <use style="stroke:#000000;stroke-width:0.8;" x="108" xlink:href="#m0885efe51c" y="481.079608"/>
      </g>
     </g>
     <g id="text_7">
      <!-- 28 -->
      <g transform="translate(88.275 484.878826)scale(0.1 -0.1)">
       <defs>
        <path d="M 2034 2216 
Q 1584 2216 1326 1975 
Q 1069 1734 1069 1313 
Q 1069 891 1326 650 
Q 1584 409 2034 409 
Q 2484 409 2743 651 
Q 3003 894 3003 1313 
Q 3003 1734 2745 1975 
Q 2488 2216 2034 2216 
z
M 1403 2484 
Q 997 2584 770 2862 
Q 544 3141 544 3541 
Q 544 4100 942 4425 
Q 1341 4750 2034 4750 
Q 2731 4750 3128 4425 
Q 3525 4100 3525 3541 
Q 3525 3141 3298 2862 
Q 3072 2584 2669 2484 
Q 3125 2378 3379 2068 
Q 3634 1759 3634 1313 
Q 3634 634 3220 271 
Q 2806 -91 2034 -91 
Q 1263 -91 848 271 
Q 434 634 434 1313 
Q 434 1759 690 2068 
Q 947 2378 1403 2484 
z
M 1172 3481 
Q 1172 3119 1398 2916 
Q 1625 2713 2034 2713 
Q 2441 2713 2670 2916 
Q 2900 3119 2900 3481 
Q 2900 3844 2670 4047 
Q 2441 4250 2034 4250 
Q 1625 4250 1398 4047 
Q 1172 3844 1172 3481 
z
" id="DejaVuSans-38" transform="scale(0.015625)"/>
       </defs>
       <use xlink:href="#DejaVuSans-32"/>
       <use x="63.623047" xlink:href="#DejaVuSans-38"/>
      </g>
     </g>
    </g>
    <g id="ytick_2">
     <g id="line2d_13">
      <path clip-path="url(#p865739ca7d)" d="M 108 409.032518 
L 777.6 409.032518 
" style="fill:none;stroke:#b0b0b0;stroke-linecap:square;stroke-width:0.8;"/>
     </g>
     <g id="line2d_14">
      <g>
       <use style="stroke:#000000;stroke-width:0.8;" x="108" xlink:href="#m0885efe51c" y="409.032518"/>
      </g>
     </g>
     <g id="text_8">
      <!-- 29 -->
      <g transform="translate(88.275 412.831737)scale(0.1 -0.1)">
       <defs>
        <path d="M 703 97 
L 703 672 
Q 941 559 1184 500 
Q 1428 441 1663 441 
Q 2288 441 2617 861 
Q 2947 1281 2994 2138 
Q 2813 1869 2534 1725 
Q 2256 1581 1919 1581 
Q 1219 1581 811 2004 
Q 403 2428 403 3163 
Q 403 3881 828 4315 
Q 1253 4750 1959 4750 
Q 2769 4750 3195 4129 
Q 3622 3509 3622 2328 
Q 3622 1225 3098 567 
Q 2575 -91 1691 -91 
Q 1453 -91 1209 -44 
Q 966 3 703 97 
z
M 1959 2075 
Q 2384 2075 2632 2365 
Q 2881 2656 2881 3163 
Q 2881 3666 2632 3958 
Q 2384 4250 1959 4250 
Q 1534 4250 1286 3958 
Q 1038 3666 1038 3163 
Q 1038 2656 1286 2365 
Q 1534 2075 1959 2075 
z
" id="DejaVuSans-39" transform="scale(0.015625)"/>
       </defs>
       <use xlink:href="#DejaVuSans-32"/>
       <use x="63.623047" xlink:href="#DejaVuSans-39"/>
      </g>
     </g>
    </g>
    <g id="ytick_3">
     <g id="line2d_15">
      <path clip-path="url(#p865739ca7d)" d="M 108 336.985428 
L 777.6 336.985428 
" style="fill:none;stroke:#b0b0b0;stroke-linecap:square;stroke-width:0.8;"/>
     </g>
     <g id="line2d_16">
      <g>
       <use style="stroke:#000000;stroke-width:0.8;" x="108" xlink:href="#m0885efe51c" y="336.985428"/>
      </g>
     </g>
     <g id="text_9">
      <!-- 30 -->
      <g transform="translate(88.275 340.784647)scale(0.1 -0.1)">
       <use xlink:href="#DejaVuSans-33"/>
       <use x="63.623047" xlink:href="#DejaVuSans-30"/>
      </g>
     </g>
    </g>
    <g id="ytick_4">
     <g id="line2d_17">
      <path clip-path="url(#p865739ca7d)" d="M 108 264.938339 
L 777.6 264.938339 
" style="fill:none;stroke:#b0b0b0;stroke-linecap:square;stroke-width:0.8;"/>
     </g>
     <g id="line2d_18">
      <g>
       <use style="stroke:#000000;stroke-width:0.8;" x="108" xlink:href="#m0885efe51c" y="264.938339"/>
      </g>
     </g>
     <g id="text_10">
      <!-- 31 -->
      <g transform="translate(88.275 268.737558)scale(0.1 -0.1)">
       <use xlink:href="#DejaVuSans-33"/>
       <use x="63.623047" xlink:href="#DejaVuSans-31"/>
      </g>
     </g>
    </g>
    <g id="ytick_5">
     <g id="line2d_19">
      <path clip-path="url(#p865739ca7d)" d="M 108 192.891249 
L 777.6 192.891249 
" style="fill:none;stroke:#b0b0b0;stroke-linecap:square;stroke-width:0.8;"/>
     </g>
     <g id="line2d_20">
      <g>
       <use style="stroke:#000000;stroke-width:0.8;" x="108" xlink:href="#m0885efe51c" y="192.891249"/>
      </g>
     </g>
     <g id="text_11">
      <!-- 32 -->
      <g transform="translate(88.275 196.690468)scale(0.1 -0.1)">
       <use xlink:href="#DejaVuSans-33"/>
       <use x="63.623047" xlink:href="#DejaVuSans-32"/>
      </g>
     </g>
    </g>
    <g id="ytick_6">
     <g id="line2d_21">
      <path clip-path="url(#p865739ca7d)" d="M 108 120.84416 
L 777.6 120.84416 
" style="fill:none;stroke:#b0b0b0;stroke-linecap:square;stroke-width:0.8;"/>
     </g>
     <g id="line2d_22">
      <g>
       <use style="stroke:#000000;stroke-width:0.8;" x="108" xlink:href="#m0885efe51c" y="120.84416"/>
      </g>
     </g>
     <g id="text_12">
      <!-- 33 -->
      <g transform="translate(88.275 124.643378)scale(0.1 -0.1)">
       <use xlink:href="#DejaVuSans-33"/>
       <use x="63.623047" xlink:href="#DejaVuSans-33"/>
      </g>
     </g>
    </g>
    <g id="text_13">
     <!-- Temperature (°C) -->
     <g transform="translate(82.195312 341.231562)rotate(-90)scale(0.1 -0.1)">
      <defs>
       <path d="M 1159 525 
L 1159 -1331 
L 581 -1331 
L 581 3500 
L 1159 3500 
L 1159 2969 
Q 1341 3281 1617 3432 
Q 1894 3584 2278 3584 
Q 2916 3584 3314 3078 
Q 3713 2572 3713 1747 
Q 3713 922 3314 415 
Q 2916 -91 2278 -91 
Q 1894 -91 1617 61 
Q 1341 213 1159 525 
z
M 3116 1747 
Q 3116 2381 2855 2742 
Q 2594 3103 2138 3103 
Q 1681 3103 1420 2742 
Q 1159 2381 1159 1747 
Q 1159 1113 1420 752 
Q 1681 391 2138 391 
Q 2594 391 2855 752 
Q 3116 1113 3116 1747 
z
" id="DejaVuSans-70" transform="scale(0.015625)"/>
       <path d="M 2631 2963 
Q 2534 3019 2420 3045 
Q 2306 3072 2169 3072 
Q 1681 3072 1420 2755 
Q 1159 2438 1159 1844 
L 1159 0 
L 581 0 
L 581 3500 
L 1159 3500 
L 1159 2956 
Q 1341 3275 1631 3429 
Q 1922 3584 2338 3584 
Q 2397 3584 2469 3576 
Q 2541 3569 2628 3553 
L 2631 2963 
z
" id="DejaVuSans-72" transform="scale(0.015625)"/>
       <path d="M 544 1381 
L 544 3500 
L 1119 3500 
L 1119 1403 
Q 1119 906 1312 657 
Q 1506 409 1894 409 
Q 2359 409 2629 706 
Q 2900 1003 2900 1516 
L 2900 3500 
L 3475 3500 
L 3475 0 
L 2900 0 
L 2900 538 
Q 2691 219 2414 64 
Q 2138 -91 1772 -91 
Q 1169 -91 856 284 
Q 544 659 544 1381 
z
M 1991 3584 
L 1991 3584 
z
" id="DejaVuSans-75" transform="scale(0.015625)"/>
       <path id="DejaVuSans-20" transform="scale(0.015625)"/>
       <path d="M 1984 4856 
Q 1566 4138 1362 3434 
Q 1159 2731 1159 2009 
Q 1159 1288 1364 580 
Q 1569 -128 1984 -844 
L 1484 -844 
Q 1016 -109 783 600 
Q 550 1309 550 2009 
Q 550 2706 781 3412 
Q 1013 4119 1484 4856 
L 1984 4856 
z
" id="DejaVuSans-28" transform="scale(0.015625)"/>
       <path d="M 1600 4347 
Q 1350 4347 1178 4173 
Q 1006 4000 1006 3750 
Q 1006 3503 1178 3333 
Q 1350 3163 1600 3163 
Q 1850 3163 2022 3333 
Q 2194 3503 2194 3750 
Q 2194 3997 2020 4172 
Q 1847 4347 1600 4347 
z
M 1600 4750 
Q 1800 4750 1984 4673 
Q 2169 4597 2303 4453 
Q 2447 4313 2519 4134 
Q 2591 3956 2591 3750 
Q 2591 3338 2302 3052 
Q 2013 2766 1594 2766 
Q 1172 2766 890 3047 
Q 609 3328 609 3750 
Q 609 4169 896 4459 
Q 1184 4750 1600 4750 
z
" id="DejaVuSans-b0" transform="scale(0.015625)"/>
       <path d="M 4122 4306 
L 4122 3641 
Q 3803 3938 3442 4084 
Q 3081 4231 2675 4231 
Q 1875 4231 1450 3742 
Q 1025 3253 1025 2328 
Q 1025 1406 1450 917 
Q 1875 428 2675 428 
Q 3081 428 3442 575 
Q 3803 722 4122 1019 
L 4122 359 
Q 3791 134 3420 21 
Q 3050 -91 2638 -91 
Q 1578 -91 968 557 
Q 359 1206 359 2328 
Q 359 3453 968 4101 
Q 1578 4750 2638 4750 
Q 3056 4750 3426 4639 
Q 3797 4528 4122 4306 
z
" id="DejaVuSans-43" transform="scale(0.015625)"/>
       <path d="M 513 4856 
L 1013 4856 
Q 1481 4119 1714 3412 
Q 1947 2706 1947 2009 
Q 1947 1309 1714 600 
Q 1481 -109 1013 -844 
L 513 -844 
Q 928 -128 1133 580 
Q 1338 1288 1338 2009 
Q 1338 2731 1133 3434 
Q 928 4138 513 4856 
z
" id="DejaVuSans-29" transform="scale(0.015625)"/>
      </defs>
      <use xlink:href="#DejaVuSans-54"/>
      <use x="44.083984" xlink:href="#DejaVuSans-65"/>
      <use x="105.607422" xlink:href="#DejaVuSans-6d"/>
      <use x="203.019531" xlink:href="#DejaVuSans-70"/>
      <use x="266.496094" xlink:href="#DejaVuSans-65"/>
      <use x="328.019531" xlink:href="#DejaVuSans-72"/>
      <use x="369.132812" xlink:href="#DejaVuSans-61"/>
      <use x="430.412109" xlink:href="#DejaVuSans-74"/>
      <use x="469.621094" xlink:href="#DejaVuSans-75"/>
      <use x="533" xlink:href="#DejaVuSans-72"/>
      <use x="571.863281" xlink:href="#DejaVuSans-65"/>
      <use x="633.386719" xlink:href="#DejaVuSans-20"/>
      <use x="665.173828" xlink:href="#DejaVuSans-28"/>
      <use x="704.1875" xlink:href="#DejaVuSans-b0"/>
      <use x="754.1875" xlink:href="#DejaVuSans-43"/>
      <use x="824.011719" xlink:href="#DejaVuSans-29"/>
     </g>
    </g>
   </g>
   <g id="line2d_23">
    <path clip-path="url(#p865739ca7d)" d="M 138.436364 498.370909 
L 156.876608 498.370909 
L 175.329303 498.370909 
L 193.769547 498.370909 
L 212.222242 498.370909 
L 230.662486 468.831602 
L 249.115182 465.949719 
L 267.555426 468.831602 
L 286.008121 465.949719 
L 304.448365 465.949719 
L 322.90106 463.788306 
L 341.341304 465.949719 
L 359.793999 442.174179 
L 378.234243 405.430164 
L 396.686939 358.599555 
L 415.127183 310.328005 
L 433.579878 266.379281 
L 452.020122 224.591969 
L 470.472817 192.891249 
L 488.913061 163.351942 
L 507.365757 136.694519 
L 525.806001 119.403218 
L 544.258696 115.080392 
L 562.69894 115.080392 
L 581.151635 117.241805 
L 599.591879 122.285101 
L 618.044574 129.48981 
L 636.484818 138.855932 
L 654.937514 148.942525 
L 673.377758 159.029117 
L 691.830453 168.395239 
L 710.270697 175.599948 
L 728.723392 185.68654 
L 747.163636 192.891249 
" style="fill:none;stroke:#1f77b4;stroke-linecap:square;stroke-width:1.5;"/>
    <defs>
     <path d="M 0 2.5 
C 0.663008 2.5 1.29895 2.236584 1.767767 1.767767 
C 2.236584 1.29895 2.5 0.663008 2.5 0 
C 2.5 -0.663008 2.236584 -1.29895 1.767767 -1.767767 
C 1.29895 -2.236584 0.663008 -2.5 0 -2.5 
C -0.663008 -2.5 -1.29895 -2.236584 -1.767767 -1.767767 
C -2.236584 -1.29895 -2.5 -0.663008 -2.5 0 
C -2.5 0.663008 -2.236584 1.29895 -1.767767 1.767767 
C -1.29895 2.236584 -0.663008 2.5 0 2.5 
z
" id="mb5dff817fb" style="stroke:#1f77b4;"/>
    </defs>
    <g clip-path="url(#p865739ca7d)">
     <use style="fill:#1f77b4;stroke:#1f77b4;" x="138.436364" xlink:href="#mb5dff817fb" y="498.370909"/>
     <use style="fill:#1f77b4;stroke:#1f77b4;" x="156.876608" xlink:href="#mb5dff817fb" y="498.370909"/>
     <use style="fill:#1f77b4;stroke:#1f77b4;" x="175.329303" xlink:href="#mb5dff817fb" y="498.370909"/>
     <use style="fill:#1f77b4;stroke:#1f77b4;" x="193.769547" xlink:href="#mb5dff817fb" y="498.370909"/>
     <use style="fill:#1f77b4;stroke:#1f77b4;" x="212.222242" xlink:href="#mb5dff817fb" y="498.370909"/>
     <use style="fill:#1f77b4;stroke:#1f77b4;" x="230.662486" xlink:href="#mb5dff817fb" y="468.831602"/>
     <use style="fill:#1f77b4;stroke:#1f77b4;" x="249.115182" xlink:href="#mb5dff817fb" y="465.949719"/>
     <use style="fill:#1f77b4;stroke:#1f77b4;" x="267.555426" xlink:href="#mb5dff817fb" y="468.831602"/>
     <use style="fill:#1f77b4;stroke:#1f77b4;" x="286.008121" xlink:href="#mb5dff817fb" y="465.949719"/>
     <use style="fill:#1f77b4;stroke:#1f77b4;" x="304.448365" xlink:href="#mb5dff817fb" y="465.949719"/>
     <use style="fill:#1f77b4;stroke:#1f77b4;" x="322.90106" xlink:href="#mb5dff817fb" y="463.788306"/>
     <use style="fill:#1f77b4;stroke:#1f77b4;" x="341.341304" xlink:href="#mb5dff817fb" y="465.949719"/>
     <use style="fill:#1f77b4;stroke:#1f77b4;" x="359.793999" xlink:href="#mb5dff817fb" y="442.174179"/>
     <use style="fill:#1f77b4;stroke:#1f77b4;" x="378.234243" xlink:href="#mb5dff817fb" y="405.430164"/>
     <use style="fill:#1f77b4;stroke:#1f77b4;" x="396.686939" xlink:href="#mb5dff817fb" y="358.599555"/>
     <use style="fill:#1f77b4;stroke:#1f77b4;" x="415.127183" xlink:href="#mb5dff817fb" y="310.328005"/>
     <use style="fill:#1f77b4;stroke:#1f77b4;" x="433.579878" xlink:href="#mb5dff817fb" y="266.379281"/>
     <use style="fill:#1f77b4;stroke:#1f77b4;" x="452.020122" xlink:href="#mb5dff817fb" y="224.591969"/>
     <use style="fill:#1f77b4;stroke:#1f77b4;" x="470.472817" xlink:href="#mb5dff817fb" y="192.891249"/>
     <use style="fill:#1f77b4;stroke:#1f77b4;" x="488.913061" xlink:href="#mb5dff817fb" y="163.351942"/>
     <use style="fill:#1f77b4;stroke:#1f77b4;" x="507.365757" xlink:href="#mb5dff817fb" y="136.694519"/>
     <use style="fill:#1f77b4;stroke:#1f77b4;" x="525.806001" xlink:href="#mb5dff817fb" y="119.403218"/>
     <use style="fill:#1f77b4;stroke:#1f77b4;" x="544.258696" xlink:href="#mb5dff817fb" y="115.080392"/>
     <use style="fill:#1f77b4;stroke:#1f77b4;" x="562.69894" xlink:href="#mb5dff817fb" y="115.080392"/>
     <use style="fill:#1f77b4;stroke:#1f77b4;" x="581.151635" xlink:href="#mb5dff817fb" y="117.241805"/>
     <use style="fill:#1f77b4;stroke:#1f77b4;" x="599.591879" xlink:href="#mb5dff817fb" y="122.285101"/>
     <use style="fill:#1f77b4;stroke:#1f77b4;" x="618.044574" xlink:href="#mb5dff817fb" y="129.48981"/>
     <use style="fill:#1f77b4;stroke:#1f77b4;" x="636.484818" xlink:href="#mb5dff817fb" y="138.855932"/>
     <use style="fill:#1f77b4;stroke:#1f77b4;" x="654.937514" xlink:href="#mb5dff817fb" y="148.942525"/>
     <use style="fill:#1f77b4;stroke:#1f77b4;" x="673.377758" xlink:href="#mb5dff817fb" y="159.029117"/>
     <use style="fill:#1f77b4;stroke:#1f77b4;" x="691.830453" xlink:href="#mb5dff817fb" y="168.395239"/>
     <use style="fill:#1f77b4;stroke:#1f77b4;" x="710.270697" xlink:href="#mb5dff817fb" y="175.599948"/>
     <use style="fill:#1f77b4;stroke:#1f77b4;" x="728.723392" xlink:href="#mb5dff817fb" y="185.68654"/>
     <use style="fill:#1f77b4;stroke:#1f77b4;" x="747.163636" xlink:href="#mb5dff817fb" y="192.891249"/>
    </g>
   </g>
   <g id="line2d_24">
    <path clip-path="url(#p865739ca7d)" d="M 138.436364 490.445729 
L 156.876608 490.445729 
L 175.329303 488.284317 
L 193.769547 490.445729 
L 212.222242 490.445729 
L 230.662486 461.626893 
L 249.115182 461.626893 
L 267.555426 461.626893 
L 286.008121 461.626893 
L 304.448365 456.583597 
L 322.90106 458.74501 
L 341.341304 454.422184 
L 359.793999 451.540301 
L 378.234243 446.497005 
L 396.686939 442.174179 
L 415.127183 439.292296 
L 433.579878 437.130883 
L 452.020122 434.248999 
L 470.472817 437.130883 
L 488.913061 432.087587 
L 507.365757 429.926174 
L 525.806001 398.225455 
L 544.258696 339.146841 
L 562.69894 278.627286 
L 581.151635 222.430556 
L 599.591879 171.277122 
L 618.044574 134.533107 
L 636.484818 110.037096 
L 654.937514 99.950504 
L 673.377758 97.789091 
L 691.830453 97.789091 
L 710.270697 104.9938 
L 728.723392 110.037096 
L 747.163636 117.241805 
" style="fill:none;stroke:#ff7f0e;stroke-linecap:square;stroke-width:1.5;"/>
    <defs>
     <path d="M 0 2.5 
C 0.663008 2.5 1.29895 2.236584 1.767767 1.767767 
C 2.236584 1.29895 2.5 0.663008 2.5 0 
C 2.5 -0.663008 2.236584 -1.29895 1.767767 -1.767767 
C 1.29895 -2.236584 0.663008 -2.5 0 -2.5 
C -0.663008 -2.5 -1.29895 -2.236584 -1.767767 -1.767767 
C -2.236584 -1.29895 -2.5 -0.663008 -2.5 0 
C -2.5 0.663008 -2.236584 1.29895 -1.767767 1.767767 
C -1.29895 2.236584 -0.663008 2.5 0 2.5 
z
" id="me88091d3a9" style="stroke:#ff7f0e;"/>
    </defs>
    <g clip-path="url(#p865739ca7d)">
     <use style="fill:#ff7f0e;stroke:#ff7f0e;" x="138.436364" xlink:href="#me88091d3a9" y="490.445729"/>
     <use style="fill:#ff7f0e;stroke:#ff7f0e;" x="156.876608" xlink:href="#me88091d3a9" y="490.445729"/>
     <use style="fill:#ff7f0e;stroke:#ff7f0e;" x="175.329303" xlink:href="#me88091d3a9" y="488.284317"/>
     <use style="fill:#ff7f0e;stroke:#ff7f0e;" x="193.769547" xlink:href="#me88091d3a9" y="490.445729"/>
     <use style="fill:#ff7f0e;stroke:#ff7f0e;" x="212.222242" xlink:href="#me88091d3a9" y="490.445729"/>
     <use style="fill:#ff7f0e;stroke:#ff7f0e;" x="230.662486" xlink:href="#me88091d3a9" y="461.626893"/>
     <use style="fill:#ff7f0e;stroke:#ff7f0e;" x="249.115182" xlink:href="#me88091d3a9" y="461.626893"/>
     <use style="fill:#ff7f0e;stroke:#ff7f0e;" x="267.555426" xlink:href="#me88091d3a9" y="461.626893"/>
     <use style="fill:#ff7f0e;stroke:#ff7f0e;" x="286.008121" xlink:href="#me88091d3a9" y="461.626893"/>
     <use style="fill:#ff7f0e;stroke:#ff7f0e;" x="304.448365" xlink:href="#me88091d3a9" y="456.583597"/>
     <use style="fill:#ff7f0e;stroke:#ff7f0e;" x="322.90106" xlink:href="#me88091d3a9" y="458.74501"/>
     <use style="fill:#ff7f0e;stroke:#ff7f0e;" x="341.341304" xlink:href="#me88091d3a9" y="454.422184"/>
     <use style="fill:#ff7f0e;stroke:#ff7f0e;" x="359.793999" xlink:href="#me88091d3a9" y="451.540301"/>
     <use style="fill:#ff7f0e;stroke:#ff7f0e;" x="378.234243" xlink:href="#me88091d3a9" y="446.497005"/>
     <use style="fill:#ff7f0e;stroke:#ff7f0e;" x="396.686939" xlink:href="#me88091d3a9" y="442.174179"/>
     <use style="fill:#ff7f0e;stroke:#ff7f0e;" x="415.127183" xlink:href="#me88091d3a9" y="439.292296"/>
     <use style="fill:#ff7f0e;stroke:#ff7f0e;" x="433.579878" xlink:href="#me88091d3a9" y="437.130883"/>
     <use style="fill:#ff7f0e;stroke:#ff7f0e;" x="452.020122" xlink:href="#me88091d3a9" y="434.248999"/>
     <use style="fill:#ff7f0e;stroke:#ff7f0e;" x="470.472817" xlink:href="#me88091d3a9" y="437.130883"/>
     <use style="fill:#ff7f0e;stroke:#ff7f0e;" x="488.913061" xlink:href="#me88091d3a9" y="432.087587"/>
     <use style="fill:#ff7f0e;stroke:#ff7f0e;" x="507.365757" xlink:href="#me88091d3a9" y="429.926174"/>
     <use style="fill:#ff7f0e;stroke:#ff7f0e;" x="525.806001" xlink:href="#me88091d3a9" y="398.225455"/>
     <use style="fill:#ff7f0e;stroke:#ff7f0e;" x="544.258696" xlink:href="#me88091d3a9" y="339.146841"/>
     <use style="fill:#ff7f0e;stroke:#ff7f0e;" x="562.69894" xlink:href="#me88091d3a9" y="278.627286"/>
     <use style="fill:#ff7f0e;stroke:#ff7f0e;" x="581.151635" xlink:href="#me88091d3a9" y="222.430556"/>
     <use style="fill:#ff7f0e;stroke:#ff7f0e;" x="599.591879" xlink:href="#me88091d3a9" y="171.277122"/>
     <use style="fill:#ff7f0e;stroke:#ff7f0e;" x="618.044574" xlink:href="#me88091d3a9" y="134.533107"/>
     <use style="fill:#ff7f0e;stroke:#ff7f0e;" x="636.484818" xlink:href="#me88091d3a9" y="110.037096"/>
     <use style="fill:#ff7f0e;stroke:#ff7f0e;" x="654.937514" xlink:href="#me88091d3a9" y="99.950504"/>
     <use style="fill:#ff7f0e;stroke:#ff7f0e;" x="673.377758" xlink:href="#me88091d3a9" y="97.789091"/>
     <use style="fill:#ff7f0e;stroke:#ff7f0e;" x="691.830453" xlink:href="#me88091d3a9" y="97.789091"/>
     <use style="fill:#ff7f0e;stroke:#ff7f0e;" x="710.270697" xlink:href="#me88091d3a9" y="104.9938"/>
     <use style="fill:#ff7f0e;stroke:#ff7f0e;" x="728.723392" xlink:href="#me88091d3a9" y="110.037096"/>
     <use style="fill:#ff7f0e;stroke:#ff7f0e;" x="747.163636" xlink:href="#me88091d3a9" y="117.241805"/>
    </g>
   </g>
   <g id="line2d_25">
    <path clip-path="url(#p865739ca7d)" d="M 138.436364 490.445729 
L 156.876608 490.445729 
L 175.329303 490.445729 
L 193.769547 493.327613 
L 212.222242 493.327613 
L 230.662486 458.74501 
L 249.115182 458.74501 
L 267.555426 458.74501 
L 286.008121 458.74501 
L 304.448365 458.74501 
L 322.90106 458.74501 
L 341.341304 456.583597 
L 359.793999 437.130883 
L 378.234243 400.386867 
L 396.686939 358.599555 
L 415.127183 317.532714 
L 433.579878 275.745402 
L 452.020122 236.839974 
L 470.472817 200.095958 
L 488.913061 166.233826 
L 507.365757 136.694519 
L 525.806001 115.080392 
L 544.258696 104.9938 
L 562.69894 99.950504 
L 581.151635 97.789091 
L 599.591879 97.789091 
L 618.044574 102.832387 
L 636.484818 110.037096 
L 654.937514 117.241805 
L 673.377758 122.285101 
L 691.830453 129.48981 
L 710.270697 136.694519 
L 728.723392 143.899228 
L 747.163636 153.985821 
" style="fill:none;stroke:#2ca02c;stroke-linecap:square;stroke-width:1.5;"/>
    <defs>
     <path d="M 0 2.5 
C 0.663008 2.5 1.29895 2.236584 1.767767 1.767767 
C 2.236584 1.29895 2.5 0.663008 2.5 0 
C 2.5 -0.663008 2.236584 -1.29895 1.767767 -1.767767 
C 1.29895 -2.236584 0.663008 -2.5 0 -2.5 
C -0.663008 -2.5 -1.29895 -2.236584 -1.767767 -1.767767 
C -2.236584 -1.29895 -2.5 -0.663008 -2.5 0 
C -2.5 0.663008 -2.236584 1.29895 -1.767767 1.767767 
C -1.29895 2.236584 -0.663008 2.5 0 2.5 
z
" id="m5ede7244c4" style="stroke:#2ca02c;"/>
    </defs>
    <g clip-path="url(#p865739ca7d)">
     <use style="fill:#2ca02c;stroke:#2ca02c;" x="138.436364" xlink:href="#m5ede7244c4" y="490.445729"/>
     <use style="fill:#2ca02c;stroke:#2ca02c;" x="156.876608" xlink:href="#m5ede7244c4" y="490.445729"/>
     <use style="fill:#2ca02c;stroke:#2ca02c;" x="175.329303" xlink:href="#m5ede7244c4" y="490.445729"/>
     <use style="fill:#2ca02c;stroke:#2ca02c;" x="193.769547" xlink:href="#m5ede7244c4" y="493.327613"/>
     <use style="fill:#2ca02c;stroke:#2ca02c;" x="212.222242" xlink:href="#m5ede7244c4" y="493.327613"/>
     <use style="fill:#2ca02c;stroke:#2ca02c;" x="230.662486" xlink:href="#m5ede7244c4" y="458.74501"/>
     <use style="fill:#2ca02c;stroke:#2ca02c;" x="249.115182" xlink:href="#m5ede7244c4" y="458.74501"/>
     <use style="fill:#2ca02c;stroke:#2ca02c;" x="267.555426" xlink:href="#m5ede7244c4" y="458.74501"/>
     <use style="fill:#2ca02c;stroke:#2ca02c;" x="286.008121" xlink:href="#m5ede7244c4" y="458.74501"/>
     <use style="fill:#2ca02c;stroke:#2ca02c;" x="304.448365" xlink:href="#m5ede7244c4" y="458.74501"/>
     <use style="fill:#2ca02c;stroke:#2ca02c;" x="322.90106" xlink:href="#m5ede7244c4" y="458.74501"/>
     <use style="fill:#2ca02c;stroke:#2ca02c;" x="341.341304" xlink:href="#m5ede7244c4" y="456.583597"/>
     <use style="fill:#2ca02c;stroke:#2ca02c;" x="359.793999" xlink:href="#m5ede7244c4" y="437.130883"/>
     <use style="fill:#2ca02c;stroke:#2ca02c;" x="378.234243" xlink:href="#m5ede7244c4" y="400.386867"/>
     <use style="fill:#2ca02c;stroke:#2ca02c;" x="396.686939" xlink:href="#m5ede7244c4" y="358.599555"/>
     <use style="fill:#2ca02c;stroke:#2ca02c;" x="415.127183" xlink:href="#m5ede7244c4" y="317.532714"/>
     <use style="fill:#2ca02c;stroke:#2ca02c;" x="433.579878" xlink:href="#m5ede7244c4" y="275.745402"/>
     <use style="fill:#2ca02c;stroke:#2ca02c;" x="452.020122" xlink:href="#m5ede7244c4" y="236.839974"/>
     <use style="fill:#2ca02c;stroke:#2ca02c;" x="470.472817" xlink:href="#m5ede7244c4" y="200.095958"/>
     <use style="fill:#2ca02c;stroke:#2ca02c;" x="488.913061" xlink:href="#m5ede7244c4" y="166.233826"/>
     <use style="fill:#2ca02c;stroke:#2ca02c;" x="507.365757" xlink:href="#m5ede7244c4" y="136.694519"/>
     <use style="fill:#2ca02c;stroke:#2ca02c;" x="525.806001" xlink:href="#m5ede7244c4" y="115.080392"/>
     <use style="fill:#2ca02c;stroke:#2ca02c;" x="544.258696" xlink:href="#m5ede7244c4" y="104.9938"/>
     <use style="fill:#2ca02c;stroke:#2ca02c;" x="562.69894" xlink:href="#m5ede7244c4" y="99.950504"/>
     <use style="fill:#2ca02c;stroke:#2ca02c;" x="581.151635" xlink:href="#m5ede7244c4" y="97.789091"/>
     <use style="fill:#2ca02c;stroke:#2ca02c;" x="599.591879" xlink:href="#m5ede7244c4" y="97.789091"/>
     <use style="fill:#2ca02c;stroke:#2ca02c;" x="618.044574" xlink:href="#m5ede7244c4" y="102.832387"/>
     <use style="fill:#2ca02c;stroke:#2ca02c;" x="636.484818" xlink:href="#m5ede7244c4" y="110.037096"/>
     <use style="fill:#2ca02c;stroke:#2ca02c;" x="654.937514" xlink:href="#m5ede7244c4" y="117.241805"/>
     <use style="fill:#2ca02c;stroke:#2ca02c;" x="673.377758" xlink:href="#m5ede7244c4" y="122.285101"/>
     <use style="fill:#2ca02c;stroke:#2ca02c;" x="691.830453" xlink:href="#m5ede7244c4" y="129.48981"/>
     <use style="fill:#2ca02c;stroke:#2ca02c;" x="710.270697" xlink:href="#m5ede7244c4" y="136.694519"/>
     <use style="fill:#2ca02c;stroke:#2ca02c;" x="728.723392" xlink:href="#m5ede7244c4" y="143.899228"/>
     <use style="fill:#2ca02c;stroke:#2ca02c;" x="747.163636" xlink:href="#m5ede7244c4" y="153.985821"/>
    </g>
   </g>
   <g id="patch_3">
    <path d="M 108 518.4 
L 108 77.76 
" style="fill:none;stroke:#000000;stroke-linecap:square;stroke-linejoin:miter;stroke-width:0.8;"/>
   </g>
   <g id="patch_4">
    <path d="M 777.6 518.4 
L 777.6 77.76 
" style="fill:none;stroke:#000000;stroke-linecap:square;stroke-linejoin:miter;stroke-width:0.8;"/>
   </g>
   <g id="patch_5">
    <path d="M 108 518.4 
L 777.6 518.4 
" style="fill:none;stroke:#000000;stroke-linecap:square;stroke-linejoin:miter;stroke-width:0.8;"/>
   </g>
   <g id="patch_6">
    <path d="M 108 77.76 
L 777.6 77.76 
" style="fill:none;stroke:#000000;stroke-linecap:square;stroke-linejoin:miter;stroke-width:0.8;"/>
   </g>
   <g id="text_14">
    <!-- RTD temperature (°C) -->
    <g transform="translate(377.385 71.76)scale(0.12 -0.12)">
     <defs>
      <path d="M 2841 2188 
Q 3044 2119 3236 1894 
Q 3428 1669 3622 1275 
L 4263 0 
L 3584 0 
L 2988 1197 
Q 2756 1666 2539 1819 
Q 2322 1972 1947 1972 
L 1259 1972 
L 1259 0 
L 628 0 
L 628 4666 
L 2053 4666 
Q 2853 4666 3247 4331 
Q 3641 3997 3641 3322 
Q 3641 2881 3436 2590 
Q 3231 2300 2841 2188 
z
M 1259 4147 
L 1259 2491 
L 2053 2491 
Q 2509 2491 2742 2702 
Q 2975 2913 2975 3322 
Q 2975 3731 2742 3939 
Q 2509 4147 2053 4147 
L 1259 4147 
z
" id="DejaVuSans-52" transform="scale(0.015625)"/>
     </defs>
     <use xlink:href="#DejaVuSans-52"/>
     <use x="62.232422" xlink:href="#DejaVuSans-54"/>
     <use x="123.316406" xlink:href="#DejaVuSans-44"/>
     <use x="200.318359" xlink:href="#DejaVuSans-20"/>
     <use x="232.105469" xlink:href="#DejaVuSans-74"/>
     <use x="271.314453" xlink:href="#DejaVuSans-65"/>
     <use x="332.837891" xlink:href="#DejaVuSans-6d"/>
     <use x="430.25" xlink:href="#DejaVuSans-70"/>
     <use x="493.726562" xlink:href="#DejaVuSans-65"/>
     <use x="555.25" xlink:href="#DejaVuSans-72"/>
     <use x="596.363281" xlink:href="#DejaVuSans-61"/>
     <use x="657.642578" xlink:href="#DejaVuSans-74"/>
     <use x="696.851562" xlink:href="#DejaVuSans-75"/>
     <use x="760.230469" xlink:href="#DejaVuSans-72"/>
     <use x="799.09375" xlink:href="#DejaVuSans-65"/>
     <use x="860.617188" xlink:href="#DejaVuSans-20"/>
     <use x="892.404297" xlink:href="#DejaVuSans-28"/>
     <use x="931.417969" xlink:href="#DejaVuSans-b0"/>
     <use x="981.417969" xlink:href="#DejaVuSans-43"/>
     <use x="1051.242188" xlink:href="#DejaVuSans-29"/>
    </g>
   </g>
   <g id="legend_1">
    <g id="patch_7">
     <path d="M 115 130.62875 
L 193.179688 130.62875 
Q 195.179688 130.62875 195.179688 128.62875 
L 195.179688 84.76 
Q 195.179688 82.76 193.179688 82.76 
L 115 82.76 
Q 113 82.76 113 84.76 
L 113 128.62875 
Q 113 130.62875 115 130.62875 
z
" style="fill:#ffffff;opacity:0.8;stroke:#cccccc;stroke-linejoin:miter;"/>
    </g>
    <g id="line2d_26">
     <path d="M 117 90.858437 
L 137 90.858437 
" style="fill:none;stroke:#1f77b4;stroke-linecap:square;stroke-width:1.5;"/>
    </g>
    <g id="line2d_27">
     <g>
      <use style="fill:#1f77b4;stroke:#1f77b4;" x="127" xlink:href="#mb5dff817fb" y="90.858437"/>
     </g>
    </g>
    <g id="text_15">
     <!-- RTD1_(C) -->
     <g transform="translate(145 94.358437)scale(0.1 -0.1)">
      <defs>
       <path d="M 3263 -1063 
L 3263 -1509 
L -63 -1509 
L -63 -1063 
L 3263 -1063 
z
" id="DejaVuSans-5f" transform="scale(0.015625)"/>
      </defs>
      <use xlink:href="#DejaVuSans-52"/>
      <use x="62.232422" xlink:href="#DejaVuSans-54"/>
      <use x="123.316406" xlink:href="#DejaVuSans-44"/>
      <use x="200.318359" xlink:href="#DejaVuSans-31"/>
      <use x="263.941406" xlink:href="#DejaVuSans-5f"/>
      <use x="313.941406" xlink:href="#DejaVuSans-28"/>
      <use x="352.955078" xlink:href="#DejaVuSans-43"/>
      <use x="422.779297" xlink:href="#DejaVuSans-29"/>
     </g>
    </g>
    <g id="line2d_28">
     <path d="M 117 105.814687 
L 137 105.814687 
" style="fill:none;stroke:#ff7f0e;stroke-linecap:square;stroke-width:1.5;"/>
    </g>
    <g id="line2d_29">
     <g>
      <use style="fill:#ff7f0e;stroke:#ff7f0e;" x="127" xlink:href="#me88091d3a9" y="105.814687"/>
     </g>
    </g>
    <g id="text_16">
     <!-- RTD2_(C) -->
     <g transform="translate(145 109.314687)scale(0.1 -0.1)">
      <use xlink:href="#DejaVuSans-52"/>
      <use x="62.232422" xlink:href="#DejaVuSans-54"/>
      <use x="123.316406" xlink:href="#DejaVuSans-44"/>
      <use x="200.318359" xlink:href="#DejaVuSans-32"/>
      <use x="263.941406" xlink:href="#DejaVuSans-5f"/>
      <use x="313.941406" xlink:href="#DejaVuSans-28"/>
      <use x="352.955078" xlink:href="#DejaVuSans-43"/>
      <use x="422.779297" xlink:href="#DejaVuSans-29"/>
     </g>
    </g>
    <g id="line2d_30">
     <path d="M 117 120.770937 
L 137 120.770937 
" style="fill:none;stroke:#2ca02c;stroke-linecap:square;stroke-width:1.5;"/>
    </g>
    <g id="line2d_31">
     <g>
      <use style="fill:#2ca02c;stroke:#2ca02c;" x="127" xlink:href="#m5ede7244c4" y="120.770937"/>
     </g>
    </g>
    <g id="text_17">
     <!-- RTD3_(C) -->
     <g transform="translate(145 124.270937)scale(0.1 -0.1)">
      <use xlink:href="#DejaVuSans-52"/>
      <use x="62.232422" xlink:href="#DejaVuSans-54"/>
      <use x="123.316406" xlink:href="#DejaVuSans-44"/>
      <use x="200.318359" xlink:href="#DejaVuSans-33"/>
      <use x="263.941406" xlink:href="#DejaVuSans-5f"/>
      <use x="313.941406" xlink:href="#DejaVuSans-28"/>
      <use x="352.955078" xlink:href="#DejaVuSans-43"/>
      <use x="422.779297" xlink:href="#DejaVuSans-29"/>
     </g>
    </g>
   </g>
  </g>
 </g>
 <defs>
  <clipPath id="p865739ca7d">
   <rect height="440.64" width="669.6" x="108" y="77.76"/>
  </clipPath>
 </defs>
</svg>
