<?xml version="1.0" encoding="utf-8" standalone="no"?>
<!DOCTYPE svg PUBLIC "-//W3C//DTD SVG 1.1//EN"
  "http://www.w3.org/Graphics/SVG/1.1/DTD/svg11.dtd">
<!-- Created with matplotlib (https://matplotlib.org/) -->
<svg height="648pt" version="1.1" viewBox="0 0 864 648" width="864pt" xmlns="http://www.w3.org/2000/svg" xmlns:xlink="http://www.w3.org/1999/xlink">
 <defs>
  <style type="text/css">
*{stroke-linecap:butt;stroke-linejoin:round;}
  </style>
 </defs>
 <g id="figure_1">
  <g id="patch_1">
   <path d="M 0 648 
L 864 648 
L 864 0 
L 0 0 
z
" style="fill:#ffffff;"/>
  </g>
  <g id="axes_1">
   <g id="patch_2">
    <path d="M 108 518.4 
L 777.6 518.4 
L 777.6 77.76 
L 108 77.76 
z
" style="fill:#ffffff;"/>
   </g>
   <g id="matplotlib.axis_1">
    <g id="xtick_1">
     <g id="line2d_1">
      <path clip-path="url(#p46f9a56a84)" d="M 122.203613 518.4 
L 122.203613 77.76 
" style="fill:none;stroke:#b0b0b0;stroke-linecap:square;stroke-width:0.8;"/>
     </g>
     <g id="line2d_2">
      <defs>
       <path d="M 0 0 
L 0 3.5 
" id="m59a6f594ce" style="stroke:#000000;stroke-width:0.8;"/>
      </defs>
      <g>
       <use style="stroke:#000000;stroke-width:0.8;" x="122.203613" xlink:href="#m59a6f594ce" y="518.4"/>
      </g>
     </g>
     <g id="text_1">
      <!-- 00:00:00 -->
      <defs>
       <path d="M 31.78125 66.40625 
Q 24.171875 66.40625 20.328125 58.90625 
Q 16.5 51.421875 16.5 36.375 
Q 16.5 21.390625 20.328125 13.890625 
Q 24.171875 6.390625 31.78125 6.390625 
Q 39.453125 6.390625 43.28125 13.890625 
Q 47.125 21.390625 47.125 36.375 
Q 47.125 51.421875 43.28125 58.90625 
Q 39.453125 66.40625 31.78125 66.40625 
z
M 31.78125 74.21875 
Q 44.046875 74.21875 50.515625 64.515625 
Q 56.984375 54.828125 56.984375 36.375 
Q 56.984375 17.96875 50.515625 8.265625 
Q 44.046875 -1.421875 31.78125 -1.421875 
Q 19.53125 -1.421875 13.0625 8.265625 
Q 6.59375 17.96875 6.59375 36.375 
Q 6.59375 54.828125 13.0625 64.515625 
Q 19.53125 74.21875 31.78125 74.21875 
z
" id="DejaVuSans-48"/>
       <path d="M 11.71875 12.40625 
L 22.015625 12.40625 
L 22.015625 0 
L 11.71875 0 
z
M 11.71875 51.703125 
L 22.015625 51.703125 
L 22.015625 39.3125 
L 11.71875 39.3125 
z
" id="DejaVuSans-58"/>
      </defs>
      <g transform="translate(82.268404 554.43669)rotate(-30)scale(0.1 -0.1)">
       <use xlink:href="#DejaVuSans-48"/>
       <use x="63.623047" xlink:href="#DejaVuSans-48"/>
       <use x="127.246094" xlink:href="#DejaVuSans-58"/>
       <use x="160.9375" xlink:href="#DejaVuSans-48"/>
       <use x="224.560547" xlink:href="#DejaVuSans-48"/>
       <use x="288.183594" xlink:href="#DejaVuSans-58"/>
       <use x="321.875" xlink:href="#DejaVuSans-48"/>
       <use x="385.498047" xlink:href="#DejaVuSans-48"/>
      </g>
     </g>
    </g>
    <g id="xtick_2">
     <g id="line2d_3">
      <path clip-path="url(#p46f9a56a84)" d="M 203.367188 518.4 
L 203.367188 77.76 
" style="fill:none;stroke:#b0b0b0;stroke-linecap:square;stroke-width:0.8;"/>
     </g>
     <g id="line2d_4">
      <g>
       <use style="stroke:#000000;stroke-width:0.8;" x="203.367188" xlink:href="#m59a6f594ce" y="518.4"/>
      </g>
     </g>
     <g id="text_2">
      <!-- 00:00:10 -->
      <defs>
       <path d="M 12.40625 8.296875 
L 28.515625 8.296875 
L 28.515625 63.921875 
L 10.984375 60.40625 
L 10.984375 69.390625 
L 28.421875 72.90625 
L 38.28125 72.90625 
L 38.28125 8.296875 
L 54.390625 8.296875 
L 54.390625 0 
L 12.40625 0 
z
" id="DejaVuSans-49"/>
      </defs>
      <g transform="translate(163.431978 554.43669)rotate(-30)scale(0.1 -0.1)">
       <use xlink:href="#DejaVuSans-48"/>
       <use x="63.623047" xlink:href="#DejaVuSans-48"/>
       <use x="127.246094" xlink:href="#DejaVuSans-58"/>
       <use x="160.9375" xlink:href="#DejaVuSans-48"/>
       <use x="224.560547" xlink:href="#DejaVuSans-48"/>
       <use x="288.183594" xlink:href="#DejaVuSans-58"/>
       <use x="321.875" xlink:href="#DejaVuSans-49"/>
       <use x="385.498047" xlink:href="#DejaVuSans-48"/>
      </g>
     </g>
    </g>
    <g id="xtick_3">
     <g id="line2d_5">
      <path clip-path="url(#p46f9a56a84)" d="M 284.530884 518.4 
L 284.530884 77.76 
" style="fill:none;stroke:#b0b0b0;stroke-linecap:square;stroke-width:0.8;"/>
     </g>
     <g id="line2d_6">
      <g>
       <use style="stroke:#000000;stroke-width:0.8;" x="284.530884" xlink:href="#m59a6f594ce" y="518.4"/>
      </g>
     </g>
     <g id="text_3">
      <!-- 00:00:20 -->
      <defs>
       <path d="M 19.1875 8.296875 
L 53.609375 8.296875 
L 53.609375 0 
L 7.328125 0 
L 7.328125 8.296875 
Q 12.9375 14.109375 22.625 23.890625 
Q 32.328125 33.6875 34.8125 36.53125 
Q 39.546875 41.84375 41.421875 45.53125 
Q 43.3125 49.21875 43.3125 52.78125 
Q 43.3125 58.59375 39.234375 62.25 
Q 35.15625 65.921875 28.609375 65.921875 
Q 23.96875 65.921875 18.8125 64.3125 
Q 13.671875 62.703125 7.8125 59.421875 
L 7.8125 69.390625 
Q 13.765625 71.78125 18.9375 73 
Q 24.125 74.21875 28.421875 74.21875 
Q 39.75 74.21875 46.484375 68.546875 
Q 53.21875 62.890625 53.21875 53.421875 
Q 53.21875 48.921875 51.53125 44.890625 
Q 49.859375 40.875 45.40625 35.40625 
Q 44.1875 33.984375 37.640625 27.21875 
Q 31.109375 20.453125 19.1875 8.296875 
z
" id="DejaVuSans-50"/>
      </defs>
      <g transform="translate(244.595674 554.43669)rotate(-30)scale(0.1 -0.1)">
       <use xlink:href="#DejaVuSans-48"/>
       <use x="63.623047" xlink:href="#DejaVuSans-48"/>
       <use x="127.246094" xlink:href="#DejaVuSans-58"/>
       <use x="160.9375" xlink:href="#DejaVuSans-48"/>
       <use x="224.560547" xlink:href="#DejaVuSans-48"/>
       <use x="288.183594" xlink:href="#DejaVuSans-58"/>
       <use x="321.875" xlink:href="#DejaVuSans-50"/>
       <use x="385.498047" xlink:href="#DejaVuSans-48"/>
      </g>
     </g>
    </g>
    <g id="xtick_4">
     <g id="line2d_7">
      <path clip-path="url(#p46f9a56a84)" d="M 365.694519 518.4 
L 365.694519 77.76 
" style="fill:none;stroke:#b0b0b0;stroke-linecap:square;stroke-width:0.8;"/>
     </g>
     <g id="line2d_8">
      <g>
       <use style="stroke:#000000;stroke-width:0.8;" x="365.694519" xlink:href="#m59a6f594ce" y="518.4"/>
      </g>
     </g>
     <g id="text_4">
      <!-- 00:00:30 -->
      <defs>
       <path d="M 40.578125 39.3125 
Q 47.65625 37.796875 51.625 33 
Q 55.609375 28.21875 55.609375 21.1875 
Q 55.609375 10.40625 48.1875 4.484375 
Q 40.765625 -1.421875 27.09375 -1.421875 
Q 22.515625 -1.421875 17.65625 -0.515625 
Q 12.796875 0.390625 7.625 2.203125 
L 7.625 11.71875 
Q 11.71875 9.328125 16.59375 8.109375 
Q 21.484375 6.890625 26.8125 6.890625 
Q 36.078125 6.890625 40.9375 10.546875 
Q 45.796875 14.203125 45.796875 21.1875 
Q 45.796875 27.640625 41.28125 31.265625 
Q 36.765625 34.90625 28.71875 34.90625 
L 20.21875 34.90625 
L 20.21875 43.015625 
L 29.109375 43.015625 
Q 36.375 43.015625 40.234375 45.921875 
Q 44.09375 48.828125 44.09375 54.296875 
Q 44.09375 59.90625 40.109375 62.90625 
Q 36.140625 65.921875 28.71875 65.921875 
Q 24.65625 65.921875 20.015625 65.03125 
Q 15.375 64.15625 9.8125 62.3125 
L 9.8125 71.09375 
Q 15.4375 72.65625 20.34375 73.4375 
Q 25.25 74.21875 29.59375 74.21875 
Q 40.828125 74.21875 47.359375 69.109375 
Q 53.90625 64.015625 53.90625 55.328125 
Q 53.90625 49.265625 50.4375 45.09375 
Q 46.96875 40.921875 40.578125 39.3125 
z
" id="DejaVuSans-51"/>
      </defs>
      <g transform="translate(325.759309 554.43669)rotate(-30)scale(0.1 -0.1)">
       <use xlink:href="#DejaVuSans-48"/>
       <use x="63.623047" xlink:href="#DejaVuSans-48"/>
       <use x="127.246094" xlink:href="#DejaVuSans-58"/>
       <use x="160.9375" xlink:href="#DejaVuSans-48"/>
       <use x="224.560547" xlink:href="#DejaVuSans-48"/>
       <use x="288.183594" xlink:href="#DejaVuSans-58"/>
       <use x="321.875" xlink:href="#DejaVuSans-51"/>
       <use x="385.498047" xlink:href="#DejaVuSans-48"/>
      </g>
     </g>
    </g>
    <g id="xtick_5">
     <g id="line2d_9">
      <path clip-path="url(#p46f9a56a84)" d="M 446.858154 518.4 
L 446.858154 77.76 
" style="fill:none;stroke:#b0b0b0;stroke-linecap:square;stroke-width:0.8;"/>
     </g>
     <g id="line2d_10">
      <g>
       <use style="stroke:#000000;stroke-width:0.8;" x="446.858154" xlink:href="#m59a6f594ce" y="518.4"/>
      </g>
     </g>
     <g id="text_5">
      <!-- 00:00:40 -->
      <defs>
       <path d="M 37.796875 64.3125 
L 12.890625 25.390625 
L 37.796875 25.390625 
z
M 35.203125 72.90625 
L 47.609375 72.90625 
L 47.609375 25.390625 
L 58.015625 25.390625 
L 58.015625 17.1875 
L 47.609375 17.1875 
L 47.609375 0 
L 37.796875 0 
L 37.796875 17.1875 
L 4.890625 17.1875 
L 4.890625 26.703125 
z
" id="DejaVuSans-52"/>
      </defs>
      <g transform="translate(406.922945 554.43669)rotate(-30)scale(0.1 -0.1)">
       <use xlink:href="#DejaVuSans-48"/>
       <use x="63.623047" xlink:href="#DejaVuSans-48"/>
       <use x="127.246094" xlink:href="#DejaVuSans-58"/>
       <use x="160.9375" xlink:href="#DejaVuSans-48"/>
       <use x="224.560547" xlink:href="#DejaVuSans-48"/>
       <use x="288.183594" xlink:href="#DejaVuSans-58"/>
       <use x="321.875" xlink:href="#DejaVuSans-52"/>
       <use x="385.498047" xlink:href="#DejaVuSans-48"/>
      </g>
     </g>
    </g>
    <g id="xtick_6">
     <g id="line2d_11">
      <path clip-path="url(#p46f9a56a84)" d="M 528.02179 518.4 
L 528.02179 77.76 
" style="fill:none;stroke:#b0b0b0;stroke-linecap:square;stroke-width:0.8;"/>
     </g>
     <g id="line2d_12">
      <g>
       <use style="stroke:#000000;stroke-width:0.8;" x="528.02179" xlink:href="#m59a6f594ce" y="518.4"/>
      </g>
     </g>
     <g id="text_6">
      <!-- 00:00:50 -->
      <defs>
       <path d="M 10.796875 72.90625 
L 49.515625 72.90625 
L 49.515625 64.59375 
L 19.828125 64.59375 
L 19.828125 46.734375 
Q 21.96875 47.46875 24.109375 47.828125 
Q 26.265625 48.1875 28.421875 48.1875 
Q 40.625 48.1875 47.75 41.5 
Q 54.890625 34.8125 54.890625 23.390625 
Q 54.890625 11.625 47.5625 5.09375 
Q 40.234375 -1.421875 26.90625 -1.421875 
Q 22.3125 -1.421875 17.546875 -0.640625 
Q 12.796875 0.140625 7.71875 1.703125 
L 7.71875 11.625 
Q 12.109375 9.234375 16.796875 8.0625 
Q 21.484375 6.890625 26.703125 6.890625 
Q 35.15625 6.890625 40.078125 11.328125 
Q 45.015625 15.765625 45.015625 23.390625 
Q 45.015625 31 40.078125 35.4375 
Q 35.15625 39.890625 26.703125 39.890625 
Q 22.75 39.890625 18.8125 39.015625 
Q 14.890625 38.140625 10.796875 36.28125 
z
" id="DejaVuSans-53"/>
      </defs>
      <g transform="translate(488.08658 554.43669)rotate(-30)scale(0.1 -0.1)">
       <use xlink:href="#DejaVuSans-48"/>
       <use x="63.623047" xlink:href="#DejaVuSans-48"/>
       <use x="127.246094" xlink:href="#DejaVuSans-58"/>
       <use x="160.9375" xlink:href="#DejaVuSans-48"/>
       <use x="224.560547" xlink:href="#DejaVuSans-48"/>
       <use x="288.183594" xlink:href="#DejaVuSans-58"/>
       <use x="321.875" xlink:href="#DejaVuSans-53"/>
       <use x="385.498047" xlink:href="#DejaVuSans-48"/>
      </g>
     </g>
    </g>
    <g id="xtick_7">
     <g id="line2d_13">
      <path clip-path="url(#p46f9a56a84)" d="M 609.185364 518.4 
L 609.185364 77.76 
" style="fill:none;stroke:#b0b0b0;stroke-linecap:square;stroke-width:0.8;"/>
     </g>
     <g id="line2d_14">
      <g>
       <use style="stroke:#000000;stroke-width:0.8;" x="609.185364" xlink:href="#m59a6f594ce" y="518.4"/>
      </g>
     </g>
     <g id="text_7">
      <!-- 00:01:00 -->
      <g transform="translate(569.250154 554.43669)rotate(-30)scale(0.1 -0.1)">
       <use xlink:href="#DejaVuSans-48"/>
       <use x="63.623047" xlink:href="#DejaVuSans-48"/>
       <use x="127.246094" xlink:href="#DejaVuSans-58"/>
       <use x="160.9375" xlink:href="#DejaVuSans-48"/>
       <use x="224.560547" xlink:href="#DejaVuSans-49"/>
       <use x="288.183594" xlink:href="#DejaVuSans-58"/>
       <use x="321.875" xlink:href="#DejaVuSans-48"/>
       <use x="385.498047" xlink:href="#DejaVuSans-48"/>
      </g>
     </g>
    </g>
    <g id="xtick_8">
     <g id="line2d_15">
      <path clip-path="url(#p46f9a56a84)" d="M 690.34906 518.4 
L 690.34906 77.76 
" style="fill:none;stroke:#b0b0b0;stroke-linecap:square;stroke-width:0.8;"/>
     </g>
     <g id="line2d_16">
      <g>
       <use style="stroke:#000000;stroke-width:0.8;" x="690.34906" xlink:href="#m59a6f594ce" y="518.4"/>
      </g>
     </g>
     <g id="text_8">
      <!-- 00:01:10 -->
      <g transform="translate(650.41385 554.43669)rotate(-30)scale(0.1 -0.1)">
       <use xlink:href="#DejaVuSans-48"/>
       <use x="63.623047" xlink:href="#DejaVuSans-48"/>
       <use x="127.246094" xlink:href="#DejaVuSans-58"/>
       <use x="160.9375" xlink:href="#DejaVuSans-48"/>
       <use x="224.560547" xlink:href="#DejaVuSans-49"/>
       <use x="288.183594" xlink:href="#DejaVuSans-58"/>
       <use x="321.875" xlink:href="#DejaVuSans-49"/>
       <use x="385.498047" xlink:href="#DejaVuSans-48"/>
      </g>
     </g>
    </g>
    <g id="xtick_9">
     <g id="line2d_17">
      <path clip-path="url(#p46f9a56a84)" d="M 771.512634 518.4 
L 771.512634 77.76 
" style="fill:none;stroke:#b0b0b0;stroke-linecap:square;stroke-width:0.8;"/>
     </g>
     <g id="line2d_18">
      <g>
       <use style="stroke:#000000;stroke-width:0.8;" x="771.512634" xlink:href="#m59a6f594ce" y="518.4"/>
      </g>
     </g>
     <g id="text_9">
      <!-- 00:01:20 -->
      <g transform="translate(731.577425 554.43669)rotate(-30)scale(0.1 -0.1)">
       <use xlink:href="#DejaVuSans-48"/>
       <use x="63.623047" xlink:href="#DejaVuSans-48"/>
       <use x="127.246094" xlink:href="#DejaVuSans-58"/>
       <use x="160.9375" xlink:href="#DejaVuSans-48"/>
       <use x="224.560547" xlink:href="#DejaVuSans-49"/>
       <use x="288.183594" xlink:href="#DejaVuSans-58"/>
       <use x="321.875" xlink:href="#DejaVuSans-50"/>
       <use x="385.498047" xlink:href="#DejaVuSans-48"/>
      </g>
     </g>
    </g>
    <g id="text_10">
     <!-- DateTime -->
     <defs>
      <path d="M 19.671875 64.796875 
L 19.671875 8.109375 
L 31.59375 8.109375 
Q 46.6875 8.109375 53.6875 14.9375 
Q 60.6875 21.78125 60.6875 36.53125 
Q 60.6875 51.171875 53.6875 57.984375 
Q 46.6875 64.796875 31.59375 64.796875 
z
M 9.8125 72.90625 
L 30.078125 72.90625 
Q 51.265625 72.90625 61.171875 64.09375 
Q 71.09375 55.28125 71.09375 36.53125 
Q 71.09375 17.671875 61.125 8.828125 
Q 51.171875 0 30.078125 0 
L 9.8125 0 
z
" id="DejaVuSans-68"/>
      <path d="M 34.28125 27.484375 
Q 23.390625 27.484375 19.1875 25 
Q 14.984375 22.515625 14.984375 16.5 
Q 14.984375 11.71875 18.140625 8.90625 
Q 21.296875 6.109375 26.703125 6.109375 
Q 34.1875 6.109375 38.703125 11.40625 
Q 43.21875 16.703125 43.21875 25.484375 
L 43.21875 27.484375 
z
M 52.203125 31.203125 
L 52.203125 0 
L 43.21875 0 
L 43.21875 8.296875 
Q 40.140625 3.328125 35.546875 0.953125 
Q 30.953125 -1.421875 24.3125 -1.421875 
Q 15.921875 -1.421875 10.953125 3.296875 
Q 6 8.015625 6 15.921875 
Q 6 25.140625 12.171875 29.828125 
Q 18.359375 34.515625 30.609375 34.515625 
L 43.21875 34.515625 
L 43.21875 35.40625 
Q 43.21875 41.609375 39.140625 45 
Q 35.0625 48.390625 27.6875 48.390625 
Q 23 48.390625 18.546875 47.265625 
Q 14.109375 46.140625 10.015625 43.890625 
L 10.015625 52.203125 
Q 14.9375 54.109375 19.578125 55.046875 
Q 24.21875 56 28.609375 56 
Q 40.484375 56 46.34375 49.84375 
Q 52.203125 43.703125 52.203125 31.203125 
z
" id="DejaVuSans-97"/>
      <path d="M 18.3125 70.21875 
L 18.3125 54.6875 
L 36.8125 54.6875 
L 36.8125 47.703125 
L 18.3125 47.703125 
L 18.3125 18.015625 
Q 18.3125 11.328125 20.140625 9.421875 
Q 21.96875 7.515625 27.59375 7.515625 
L 36.8125 7.515625 
L 36.8125 0 
L 27.59375 0 
Q 17.1875 0 13.234375 3.875 
Q 9.28125 7.765625 9.28125 18.015625 
L 9.28125 47.703125 
L 2.6875 47.703125 
L 2.6875 54.6875 
L 9.28125 54.6875 
L 9.28125 70.21875 
z
" id="DejaVuSans-116"/>
      <path d="M 56.203125 29.59375 
L 56.203125 25.203125 
L 14.890625 25.203125 
Q 15.484375 15.921875 20.484375 11.0625 
Q 25.484375 6.203125 34.421875 6.203125 
Q 39.59375 6.203125 44.453125 7.46875 
Q 49.3125 8.734375 54.109375 11.28125 
L 54.109375 2.78125 
Q 49.265625 0.734375 44.1875 -0.34375 
Q 39.109375 -1.421875 33.890625 -1.421875 
Q 20.796875 -1.421875 13.15625 6.1875 
Q 5.515625 13.8125 5.515625 26.8125 
Q 5.515625 40.234375 12.765625 48.109375 
Q 20.015625 56 32.328125 56 
Q 43.359375 56 49.78125 48.890625 
Q 56.203125 41.796875 56.203125 29.59375 
z
M 47.21875 32.234375 
Q 47.125 39.59375 43.09375 43.984375 
Q 39.0625 48.390625 32.421875 48.390625 
Q 24.90625 48.390625 20.390625 44.140625 
Q 15.875 39.890625 15.1875 32.171875 
z
" id="DejaVuSans-101"/>
      <path d="M -0.296875 72.90625 
L 61.375 72.90625 
L 61.375 64.59375 
L 35.5 64.59375 
L 35.5 0 
L 25.59375 0 
L 25.59375 64.59375 
L -0.296875 64.59375 
z
" id="DejaVuSans-84"/>
      <path d="M 9.421875 54.6875 
L 18.40625 54.6875 
L 18.40625 0 
L 9.421875 0 
z
M 9.421875 75.984375 
L 18.40625 75.984375 
L 18.40625 64.59375 
L 9.421875 64.59375 
z
" id="DejaVuSans-105"/>
      <path d="M 52 44.1875 
Q 55.375 50.25 60.0625 53.125 
Q 64.75 56 71.09375 56 
Q 79.640625 56 84.28125 50.015625 
Q 88.921875 44.046875 88.921875 33.015625 
L 88.921875 0 
L 79.890625 0 
L 79.890625 32.71875 
Q 79.890625 40.578125 77.09375 44.375 
Q 74.3125 48.1875 68.609375 48.1875 
Q 61.625 48.1875 57.5625 43.546875 
Q 53.515625 38.921875 53.515625 30.90625 
L 53.515625 0 
L 44.484375 0 
L 44.484375 32.71875 
Q 44.484375 40.625 41.703125 44.40625 
Q 38.921875 48.1875 33.109375 48.1875 
Q 26.21875 48.1875 22.15625 43.53125 
Q 18.109375 38.875 18.109375 30.90625 
L 18.109375 0 
L 9.078125 0 
L 9.078125 54.6875 
L 18.109375 54.6875 
L 18.109375 46.1875 
Q 21.1875 51.21875 25.484375 53.609375 
Q 29.78125 56 35.6875 56 
Q 41.65625 56 45.828125 52.96875 
Q 50 49.953125 52 44.1875 
z
" id="DejaVuSans-109"/>
     </defs>
     <g transform="translate(418.615625 567.83619)scale(0.1 -0.1)">
      <use xlink:href="#DejaVuSans-68"/>
      <use x="77.001953" xlink:href="#DejaVuSans-97"/>
      <use x="138.28125" xlink:href="#DejaVuSans-116"/>
      <use x="177.490234" xlink:href="#DejaVuSans-101"/>
      <use x="239.013672" xlink:href="#DejaVuSans-84"/>
      <use x="296.972656" xlink:href="#DejaVuSans-105"/>
      <use x="324.755859" xlink:href="#DejaVuSans-109"/>
      <use x="422.167969" xlink:href="#DejaVuSans-101"/>
     </g>
    </g>
   </g>
   <g id="matplotlib.axis_2">
    <g id="ytick_1">
     <g id="line2d_19">
      <path clip-path="url(#p46f9a56a84)" d="M 108 467.414045 
L 777.6 467.414045 
" style="fill:none;stroke:#b0b0b0;stroke-linecap:square;stroke-width:0.8;"/>
     </g>
     <g id="line2d_20">
      <defs>
       <path d="M 0 0 
L -3.5 0 
" id="mfc144361b4" style="stroke:#000000;stroke-width:0.8;"/>
      </defs>
      <g>
       <use style="stroke:#000000;stroke-width:0.8;" x="108" xlink:href="#mfc144361b4" y="467.414045"/>
      </g>
     </g>
     <g id="text_11">
      <!-- 26 -->
      <defs>
       <path d="M 33.015625 40.375 
Q 26.375 40.375 22.484375 35.828125 
Q 18.609375 31.296875 18.609375 23.390625 
Q 18.609375 15.53125 22.484375 10.953125 
Q 26.375 6.390625 33.015625 6.390625 
Q 39.65625 6.390625 43.53125 10.953125 
Q 47.40625 15.53125 47.40625 23.390625 
Q 47.40625 31.296875 43.53125 35.828125 
Q 39.65625 40.375 33.015625 40.375 
z
M 52.59375 71.296875 
L 52.59375 62.3125 
Q 48.875 64.0625 45.09375 64.984375 
Q 41.3125 65.921875 37.59375 65.921875 
Q 27.828125 65.921875 22.671875 59.328125 
Q 17.53125 52.734375 16.796875 39.40625 
Q 19.671875 43.65625 24.015625 45.921875 
Q 28.375 48.1875 33.59375 48.1875 
Q 44.578125 48.1875 50.953125 41.515625 
Q 57.328125 34.859375 57.328125 23.390625 
Q 57.328125 12.15625 50.6875 5.359375 
Q 44.046875 -1.421875 33.015625 -1.421875 
Q 20.359375 -1.421875 13.671875 8.265625 
Q 6.984375 17.96875 6.984375 36.375 
Q 6.984375 53.65625 15.1875 63.9375 
Q 23.390625 74.21875 37.203125 74.21875 
Q 40.921875 74.21875 44.703125 73.484375 
Q 48.484375 72.75 52.59375 71.296875 
z
" id="DejaVuSans-54"/>
      </defs>
      <g transform="translate(88.275 471.213264)scale(0.1 -0.1)">
       <use xlink:href="#DejaVuSans-50"/>
       <use x="63.623047" xlink:href="#DejaVuSans-54"/>
      </g>
     </g>
    </g>
    <g id="ytick_2">
     <g id="line2d_21">
      <path clip-path="url(#p46f9a56a84)" d="M 108 405.500318 
L 777.6 405.500318 
" style="fill:none;stroke:#b0b0b0;stroke-linecap:square;stroke-width:0.8;"/>
     </g>
     <g id="line2d_22">
      <g>
       <use style="stroke:#000000;stroke-width:0.8;" x="108" xlink:href="#mfc144361b4" y="405.500318"/>
      </g>
     </g>
     <g id="text_12">
      <!-- 27 -->
      <defs>
       <path d="M 8.203125 72.90625 
L 55.078125 72.90625 
L 55.078125 68.703125 
L 28.609375 0 
L 18.3125 0 
L 43.21875 64.59375 
L 8.203125 64.59375 
z
" id="DejaVuSans-55"/>
      </defs>
      <g transform="translate(88.275 409.299536)scale(0.1 -0.1)">
       <use xlink:href="#DejaVuSans-50"/>
       <use x="63.623047" xlink:href="#DejaVuSans-55"/>
      </g>
     </g>
    </g>
    <g id="ytick_3">
     <g id="line2d_23">
      <path clip-path="url(#p46f9a56a84)" d="M 108 343.58659 
L 777.6 343.58659 
" style="fill:none;stroke:#b0b0b0;stroke-linecap:square;stroke-width:0.8;"/>
     </g>
     <g id="line2d_24">
      <g>
       <use style="stroke:#000000;stroke-width:0.8;" x="108" xlink:href="#mfc144361b4" y="343.58659"/>
      </g>
     </g>
     <g id="text_13">
      <!-- 28 -->
      <defs>
       <path d="M 31.78125 34.625 
Q 24.75 34.625 20.71875 30.859375 
Q 16.703125 27.09375 16.703125 20.515625 
Q 16.703125 13.921875 20.71875 10.15625 
Q 24.75 6.390625 31.78125 6.390625 
Q 38.8125 6.390625 42.859375 10.171875 
Q 46.921875 13.96875 46.921875 20.515625 
Q 46.921875 27.09375 42.890625 30.859375 
Q 38.875 34.625 31.78125 34.625 
z
M 21.921875 38.8125 
Q 15.578125 40.375 12.03125 44.71875 
Q 8.5 49.078125 8.5 55.328125 
Q 8.5 64.0625 14.71875 69.140625 
Q 20.953125 74.21875 31.78125 74.21875 
Q 42.671875 74.21875 48.875 69.140625 
Q 55.078125 64.0625 55.078125 55.328125 
Q 55.078125 49.078125 51.53125 44.71875 
Q 48 40.375 41.703125 38.8125 
Q 48.828125 37.15625 52.796875 32.3125 
Q 56.78125 27.484375 56.78125 20.515625 
Q 56.78125 9.90625 50.3125 4.234375 
Q 43.84375 -1.421875 31.78125 -1.421875 
Q 19.734375 -1.421875 13.25 4.234375 
Q 6.78125 9.90625 6.78125 20.515625 
Q 6.78125 27.484375 10.78125 32.3125 
Q 14.796875 37.15625 21.921875 38.8125 
z
M 18.3125 54.390625 
Q 18.3125 48.734375 21.84375 45.5625 
Q 25.390625 42.390625 31.78125 42.390625 
Q 38.140625 42.390625 41.71875 45.5625 
Q 45.3125 48.734375 45.3125 54.390625 
Q 45.3125 60.0625 41.71875 63.234375 
Q 38.140625 66.40625 31.78125 66.40625 
Q 25.390625 66.40625 21.84375 63.234375 
Q 18.3125 60.0625 18.3125 54.390625 
z
" id="DejaVuSans-56"/>
      </defs>
      <g transform="translate(88.275 347.385809)scale(0.1 -0.1)">
       <use xlink:href="#DejaVuSans-50"/>
       <use x="63.623047" xlink:href="#DejaVuSans-56"/>
      </g>
     </g>
    </g>
    <g id="ytick_4">
     <g id="line2d_25">
      <path clip-path="url(#p46f9a56a84)" d="M 108 281.672862 
L 777.6 281.672862 
" style="fill:none;stroke:#b0b0b0;stroke-linecap:square;stroke-width:0.8;"/>
     </g>
     <g id="line2d_26">
      <g>
       <use style="stroke:#000000;stroke-width:0.8;" x="108" xlink:href="#mfc144361b4" y="281.672862"/>
      </g>
     </g>
     <g id="text_14">
      <!-- 29 -->
      <defs>
       <path d="M 10.984375 1.515625 
L 10.984375 10.5 
Q 14.703125 8.734375 18.5 7.8125 
Q 22.3125 6.890625 25.984375 6.890625 
Q 35.75 6.890625 40.890625 13.453125 
Q 46.046875 20.015625 46.78125 33.40625 
Q 43.953125 29.203125 39.59375 26.953125 
Q 35.25 24.703125 29.984375 24.703125 
Q 19.046875 24.703125 12.671875 31.3125 
Q 6.296875 37.9375 6.296875 49.421875 
Q 6.296875 60.640625 12.9375 67.421875 
Q 19.578125 74.21875 30.609375 74.21875 
Q 43.265625 74.21875 49.921875 64.515625 
Q 56.59375 54.828125 56.59375 36.375 
Q 56.59375 19.140625 48.40625 8.859375 
Q 40.234375 -1.421875 26.421875 -1.421875 
Q 22.703125 -1.421875 18.890625 -0.6875 
Q 15.09375 0.046875 10.984375 1.515625 
z
M 30.609375 32.421875 
Q 37.25 32.421875 41.125 36.953125 
Q 45.015625 41.5 45.015625 49.421875 
Q 45.015625 57.28125 41.125 61.84375 
Q 37.25 66.40625 30.609375 66.40625 
Q 23.96875 66.40625 20.09375 61.84375 
Q 16.21875 57.28125 16.21875 49.421875 
Q 16.21875 41.5 20.09375 36.953125 
Q 23.96875 32.421875 30.609375 32.421875 
z
" id="DejaVuSans-57"/>
      </defs>
      <g transform="translate(88.275 285.472081)scale(0.1 -0.1)">
       <use xlink:href="#DejaVuSans-50"/>
       <use x="63.623047" xlink:href="#DejaVuSans-57"/>
      </g>
     </g>
    </g>
    <g id="ytick_5">
     <g id="line2d_27">
      <path clip-path="url(#p46f9a56a84)" d="M 108 219.759134 
L 777.6 219.759134 
" style="fill:none;stroke:#b0b0b0;stroke-linecap:square;stroke-width:0.8;"/>
     </g>
     <g id="line2d_28">
      <g>
       <use style="stroke:#000000;stroke-width:0.8;" x="108" xlink:href="#mfc144361b4" y="219.759134"/>
      </g>
     </g>
     <g id="text_15">
      <!-- 30 -->
      <g transform="translate(88.275 223.558353)scale(0.1 -0.1)">
       <use xlink:href="#DejaVuSans-51"/>
       <use x="63.623047" xlink:href="#DejaVuSans-48"/>
      </g>
     </g>
    </g>
    <g id="ytick_6">
     <g id="line2d_29">
      <path clip-path="url(#p46f9a56a84)" d="M 108 157.845407 
L 777.6 157.845407 
" style="fill:none;stroke:#b0b0b0;stroke-linecap:square;stroke-width:0.8;"/>
     </g>
     <g id="line2d_30">
      <g>
       <use style="stroke:#000000;stroke-width:0.8;" x="108" xlink:href="#mfc144361b4" y="157.845407"/>
      </g>
     </g>
     <g id="text_16">
      <!-- 31 -->
      <g transform="translate(88.275 161.644626)scale(0.1 -0.1)">
       <use xlink:href="#DejaVuSans-51"/>
       <use x="63.623047" xlink:href="#DejaVuSans-49"/>
      </g>
     </g>
    </g>
    <g id="ytick_7">
     <g id="line2d_31">
      <path clip-path="url(#p46f9a56a84)" d="M 108 95.931679 
L 777.6 95.931679 
" style="fill:none;stroke:#b0b0b0;stroke-linecap:square;stroke-width:0.8;"/>
     </g>
     <g id="line2d_32">
      <g>
       <use style="stroke:#000000;stroke-width:0.8;" x="108" xlink:href="#mfc144361b4" y="95.931679"/>
      </g>
     </g>
     <g id="text_17">
      <!-- 32 -->
      <g transform="translate(88.275 99.730898)scale(0.1 -0.1)">
       <use xlink:href="#DejaVuSans-51"/>
       <use x="63.623047" xlink:href="#DejaVuSans-50"/>
      </g>
     </g>
    </g>
    <g id="text_18">
     <!-- Temperature (°C) -->
     <defs>
      <path d="M 18.109375 8.203125 
L 18.109375 -20.796875 
L 9.078125 -20.796875 
L 9.078125 54.6875 
L 18.109375 54.6875 
L 18.109375 46.390625 
Q 20.953125 51.265625 25.265625 53.625 
Q 29.59375 56 35.59375 56 
Q 45.5625 56 51.78125 48.09375 
Q 58.015625 40.1875 58.015625 27.296875 
Q 58.015625 14.40625 51.78125 6.484375 
Q 45.5625 -1.421875 35.59375 -1.421875 
Q 29.59375 -1.421875 25.265625 0.953125 
Q 20.953125 3.328125 18.109375 8.203125 
z
M 48.6875 27.296875 
Q 48.6875 37.203125 44.609375 42.84375 
Q 40.53125 48.484375 33.40625 48.484375 
Q 26.265625 48.484375 22.1875 42.84375 
Q 18.109375 37.203125 18.109375 27.296875 
Q 18.109375 17.390625 22.1875 11.75 
Q 26.265625 6.109375 33.40625 6.109375 
Q 40.53125 6.109375 44.609375 11.75 
Q 48.6875 17.390625 48.6875 27.296875 
z
" id="DejaVuSans-112"/>
      <path d="M 41.109375 46.296875 
Q 39.59375 47.171875 37.8125 47.578125 
Q 36.03125 48 33.890625 48 
Q 26.265625 48 22.1875 43.046875 
Q 18.109375 38.09375 18.109375 28.8125 
L 18.109375 0 
L 9.078125 0 
L 9.078125 54.6875 
L 18.109375 54.6875 
L 18.109375 46.1875 
Q 20.953125 51.171875 25.484375 53.578125 
Q 30.03125 56 36.53125 56 
Q 37.453125 56 38.578125 55.875 
Q 39.703125 55.765625 41.0625 55.515625 
z
" id="DejaVuSans-114"/>
      <path d="M 8.5 21.578125 
L 8.5 54.6875 
L 17.484375 54.6875 
L 17.484375 21.921875 
Q 17.484375 14.15625 20.5 10.265625 
Q 23.53125 6.390625 29.59375 6.390625 
Q 36.859375 6.390625 41.078125 11.03125 
Q 45.3125 15.671875 45.3125 23.6875 
L 45.3125 54.6875 
L 54.296875 54.6875 
L 54.296875 0 
L 45.3125 0 
L 45.3125 8.40625 
Q 42.046875 3.421875 37.71875 1 
Q 33.40625 -1.421875 27.6875 -1.421875 
Q 18.265625 -1.421875 13.375 4.4375 
Q 8.5 10.296875 8.5 21.578125 
z
M 31.109375 56 
z
" id="DejaVuSans-117"/>
      <path id="DejaVuSans-32"/>
      <path d="M 31 75.875 
Q 24.46875 64.65625 21.28125 53.65625 
Q 18.109375 42.671875 18.109375 31.390625 
Q 18.109375 20.125 21.3125 9.0625 
Q 24.515625 -2 31 -13.1875 
L 23.1875 -13.1875 
Q 15.875 -1.703125 12.234375 9.375 
Q 8.59375 20.453125 8.59375 31.390625 
Q 8.59375 42.28125 12.203125 53.3125 
Q 15.828125 64.359375 23.1875 75.875 
z
" id="DejaVuSans-40"/>
      <path d="M 25 67.921875 
Q 21.09375 67.921875 18.40625 65.203125 
Q 15.71875 62.5 15.71875 58.59375 
Q 15.71875 54.734375 18.40625 52.078125 
Q 21.09375 49.421875 25 49.421875 
Q 28.90625 49.421875 31.59375 52.078125 
Q 34.28125 54.734375 34.28125 58.59375 
Q 34.28125 62.453125 31.5625 65.1875 
Q 28.859375 67.921875 25 67.921875 
z
M 25 74.21875 
Q 28.125 74.21875 31 73.015625 
Q 33.890625 71.828125 35.984375 69.578125 
Q 38.234375 67.390625 39.359375 64.59375 
Q 40.484375 61.8125 40.484375 58.59375 
Q 40.484375 52.15625 35.96875 47.6875 
Q 31.453125 43.21875 24.90625 43.21875 
Q 18.3125 43.21875 13.90625 47.609375 
Q 9.515625 52 9.515625 58.59375 
Q 9.515625 65.140625 14 69.671875 
Q 18.5 74.21875 25 74.21875 
z
" id="DejaVuSans-176"/>
      <path d="M 64.40625 67.28125 
L 64.40625 56.890625 
Q 59.421875 61.53125 53.78125 63.8125 
Q 48.140625 66.109375 41.796875 66.109375 
Q 29.296875 66.109375 22.65625 58.46875 
Q 16.015625 50.828125 16.015625 36.375 
Q 16.015625 21.96875 22.65625 14.328125 
Q 29.296875 6.6875 41.796875 6.6875 
Q 48.140625 6.6875 53.78125 8.984375 
Q 59.421875 11.28125 64.40625 15.921875 
L 64.40625 5.609375 
Q 59.234375 2.09375 53.4375 0.328125 
Q 47.65625 -1.421875 41.21875 -1.421875 
Q 24.65625 -1.421875 15.125 8.703125 
Q 5.609375 18.84375 5.609375 36.375 
Q 5.609375 53.953125 15.125 64.078125 
Q 24.65625 74.21875 41.21875 74.21875 
Q 47.75 74.21875 53.53125 72.484375 
Q 59.328125 70.75 64.40625 67.28125 
z
" id="DejaVuSans-67"/>
      <path d="M 8.015625 75.875 
L 15.828125 75.875 
Q 23.140625 64.359375 26.78125 53.3125 
Q 30.421875 42.28125 30.421875 31.390625 
Q 30.421875 20.453125 26.78125 9.375 
Q 23.140625 -1.703125 15.828125 -13.1875 
L 8.015625 -13.1875 
Q 14.5 -2 17.703125 9.0625 
Q 20.90625 20.125 20.90625 31.390625 
Q 20.90625 42.671875 17.703125 53.65625 
Q 14.5 64.65625 8.015625 75.875 
z
" id="DejaVuSans-41"/>
     </defs>
     <g transform="translate(82.195312 341.231562)rotate(-90)scale(0.1 -0.1)">
      <use xlink:href="#DejaVuSans-84"/>
      <use x="44.083984" xlink:href="#DejaVuSans-101"/>
      <use x="105.607422" xlink:href="#DejaVuSans-109"/>
      <use x="203.019531" xlink:href="#DejaVuSans-112"/>
      <use x="266.496094" xlink:href="#DejaVuSans-101"/>
      <use x="328.019531" xlink:href="#DejaVuSans-114"/>
      <use x="369.132812" xlink:href="#DejaVuSans-97"/>
      <use x="430.412109" xlink:href="#DejaVuSans-116"/>
      <use x="469.621094" xlink:href="#DejaVuSans-117"/>
      <use x="533" xlink:href="#DejaVuSans-114"/>
      <use x="571.863281" xlink:href="#DejaVuSans-101"/>
      <use x="633.386719" xlink:href="#DejaVuSans-32"/>
      <use x="665.173828" xlink:href="#DejaVuSans-40"/>
      <use x="704.1875" xlink:href="#DejaVuSans-176"/>
      <use x="754.1875" xlink:href="#DejaVuSans-67"/>
      <use x="824.011719" xlink:href="#DejaVuSans-41"/>
     </g>
    </g>
   </g>
   <g id="line2d_33">
    <path clip-path="url(#p46f9a56a84)" d="M 138.43634 490.322124 
L 154.669067 490.322124 
L 170.901794 494.036948 
L 179.018188 485.988164 
L 195.250916 452.554751 
L 211.483643 412.929965 
L 227.716309 370.82863 
L 235.832764 326.869883 
L 252.06543 284.768549 
L 268.298157 242.667214 
L 276.41449 207.376389 
L 292.647217 175.800388 
L 308.879944 146.081799 
L 316.996338 133.699053 
L 333.229065 129.365092 
L 349.461792 127.50768 
L 357.578186 123.173719 
L 373.810913 123.173719 
L 390.04364 121.316307 
L 398.159912 118.839758 
L 414.392639 116.982346 
L 430.625366 116.982346 
L 446.858154 116.982346 
L 454.974487 118.839758 
L 471.207214 125.650268 
L 487.439941 131.841641 
L 495.556335 142.366975 
L 511.789062 152.892309 
L 528.02179 163.417642 
L 536.138184 171.466427 
L 552.370911 181.991761 
L 568.603638 190.659682 
L 584.836365 201.185016 
L 592.952637 211.091213 
L 609.185364 217.901723 
L 625.418091 225.950507 
L 633.534485 232.14188 
L 649.767212 240.809802 
L 665.999939 247.001175 
L 674.116333 255.669097 
L 690.34906 261.860469 
L 706.581787 268.051842 
L 722.814514 274.243215 
L 730.930786 280.434588 
L 747.163635 286.62596 
" style="fill:none;stroke:#1f77b4;stroke-linecap:square;stroke-width:1.5;"/>
    <defs>
     <path d="M 0 2.5 
C 0.663008 2.5 1.29895 2.236584 1.767767 1.767767 
C 2.236584 1.29895 2.5 0.663008 2.5 0 
C 2.5 -0.663008 2.236584 -1.29895 1.767767 -1.767767 
C 1.29895 -2.236584 0.663008 -2.5 0 -2.5 
C -0.663008 -2.5 -1.29895 -2.236584 -1.767767 -1.767767 
C -2.236584 -1.29895 -2.5 -0.663008 -2.5 0 
C -2.5 0.663008 -2.236584 1.29895 -1.767767 1.767767 
C -1.29895 2.236584 -0.663008 2.5 0 2.5 
z
" id="m4465e91439" style="stroke:#1f77b4;"/>
    </defs>
    <g clip-path="url(#p46f9a56a84)">
     <use style="fill:#1f77b4;stroke:#1f77b4;" x="138.43634" xlink:href="#m4465e91439" y="490.322124"/>
     <use style="fill:#1f77b4;stroke:#1f77b4;" x="154.669067" xlink:href="#m4465e91439" y="490.322124"/>
     <use style="fill:#1f77b4;stroke:#1f77b4;" x="170.901794" xlink:href="#m4465e91439" y="494.036948"/>
     <use style="fill:#1f77b4;stroke:#1f77b4;" x="179.018188" xlink:href="#m4465e91439" y="485.988164"/>
     <use style="fill:#1f77b4;stroke:#1f77b4;" x="195.250916" xlink:href="#m4465e91439" y="452.554751"/>
     <use style="fill:#1f77b4;stroke:#1f77b4;" x="211.483643" xlink:href="#m4465e91439" y="412.929965"/>
     <use style="fill:#1f77b4;stroke:#1f77b4;" x="227.716309" xlink:href="#m4465e91439" y="370.82863"/>
     <use style="fill:#1f77b4;stroke:#1f77b4;" x="235.832764" xlink:href="#m4465e91439" y="326.869883"/>
     <use style="fill:#1f77b4;stroke:#1f77b4;" x="252.06543" xlink:href="#m4465e91439" y="284.768549"/>
     <use style="fill:#1f77b4;stroke:#1f77b4;" x="268.298157" xlink:href="#m4465e91439" y="242.667214"/>
     <use style="fill:#1f77b4;stroke:#1f77b4;" x="276.41449" xlink:href="#m4465e91439" y="207.376389"/>
     <use style="fill:#1f77b4;stroke:#1f77b4;" x="292.647217" xlink:href="#m4465e91439" y="175.800388"/>
     <use style="fill:#1f77b4;stroke:#1f77b4;" x="308.879944" xlink:href="#m4465e91439" y="146.081799"/>
     <use style="fill:#1f77b4;stroke:#1f77b4;" x="316.996338" xlink:href="#m4465e91439" y="133.699053"/>
     <use style="fill:#1f77b4;stroke:#1f77b4;" x="333.229065" xlink:href="#m4465e91439" y="129.365092"/>
     <use style="fill:#1f77b4;stroke:#1f77b4;" x="349.461792" xlink:href="#m4465e91439" y="127.50768"/>
     <use style="fill:#1f77b4;stroke:#1f77b4;" x="357.578186" xlink:href="#m4465e91439" y="123.173719"/>
     <use style="fill:#1f77b4;stroke:#1f77b4;" x="373.810913" xlink:href="#m4465e91439" y="123.173719"/>
     <use style="fill:#1f77b4;stroke:#1f77b4;" x="390.04364" xlink:href="#m4465e91439" y="121.316307"/>
     <use style="fill:#1f77b4;stroke:#1f77b4;" x="398.159912" xlink:href="#m4465e91439" y="118.839758"/>
     <use style="fill:#1f77b4;stroke:#1f77b4;" x="414.392639" xlink:href="#m4465e91439" y="116.982346"/>
     <use style="fill:#1f77b4;stroke:#1f77b4;" x="430.625366" xlink:href="#m4465e91439" y="116.982346"/>
     <use style="fill:#1f77b4;stroke:#1f77b4;" x="446.858154" xlink:href="#m4465e91439" y="116.982346"/>
     <use style="fill:#1f77b4;stroke:#1f77b4;" x="454.974487" xlink:href="#m4465e91439" y="118.839758"/>
     <use style="fill:#1f77b4;stroke:#1f77b4;" x="471.207214" xlink:href="#m4465e91439" y="125.650268"/>
     <use style="fill:#1f77b4;stroke:#1f77b4;" x="487.439941" xlink:href="#m4465e91439" y="131.841641"/>
     <use style="fill:#1f77b4;stroke:#1f77b4;" x="495.556335" xlink:href="#m4465e91439" y="142.366975"/>
     <use style="fill:#1f77b4;stroke:#1f77b4;" x="511.789062" xlink:href="#m4465e91439" y="152.892309"/>
     <use style="fill:#1f77b4;stroke:#1f77b4;" x="528.02179" xlink:href="#m4465e91439" y="163.417642"/>
     <use style="fill:#1f77b4;stroke:#1f77b4;" x="536.138184" xlink:href="#m4465e91439" y="171.466427"/>
     <use style="fill:#1f77b4;stroke:#1f77b4;" x="552.370911" xlink:href="#m4465e91439" y="181.991761"/>
     <use style="fill:#1f77b4;stroke:#1f77b4;" x="568.603638" xlink:href="#m4465e91439" y="190.659682"/>
     <use style="fill:#1f77b4;stroke:#1f77b4;" x="584.836365" xlink:href="#m4465e91439" y="201.185016"/>
     <use style="fill:#1f77b4;stroke:#1f77b4;" x="592.952637" xlink:href="#m4465e91439" y="211.091213"/>
     <use style="fill:#1f77b4;stroke:#1f77b4;" x="609.185364" xlink:href="#m4465e91439" y="217.901723"/>
     <use style="fill:#1f77b4;stroke:#1f77b4;" x="625.418091" xlink:href="#m4465e91439" y="225.950507"/>
     <use style="fill:#1f77b4;stroke:#1f77b4;" x="633.534485" xlink:href="#m4465e91439" y="232.14188"/>
     <use style="fill:#1f77b4;stroke:#1f77b4;" x="649.767212" xlink:href="#m4465e91439" y="240.809802"/>
     <use style="fill:#1f77b4;stroke:#1f77b4;" x="665.999939" xlink:href="#m4465e91439" y="247.001175"/>
     <use style="fill:#1f77b4;stroke:#1f77b4;" x="674.116333" xlink:href="#m4465e91439" y="255.669097"/>
     <use style="fill:#1f77b4;stroke:#1f77b4;" x="690.34906" xlink:href="#m4465e91439" y="261.860469"/>
     <use style="fill:#1f77b4;stroke:#1f77b4;" x="706.581787" xlink:href="#m4465e91439" y="268.051842"/>
     <use style="fill:#1f77b4;stroke:#1f77b4;" x="722.814514" xlink:href="#m4465e91439" y="274.243215"/>
     <use style="fill:#1f77b4;stroke:#1f77b4;" x="730.930786" xlink:href="#m4465e91439" y="280.434588"/>
     <use style="fill:#1f77b4;stroke:#1f77b4;" x="747.163635" xlink:href="#m4465e91439" y="286.62596"/>
    </g>
   </g>
   <g id="line2d_34">
    <path clip-path="url(#p46f9a56a84)" d="M 138.43634 481.654203 
L 154.669067 481.654203 
L 170.901794 484.130752 
L 179.018188 485.988164 
L 195.250916 485.988164 
L 211.483643 487.845575 
L 227.716309 490.322124 
L 235.832764 490.322124 
L 252.06543 492.179536 
L 268.298157 492.179536 
L 276.41449 494.036948 
L 292.647217 494.036948 
L 308.879944 498.370909 
L 316.996338 498.370909 
L 333.229065 490.322124 
L 349.461792 448.22079 
L 357.578186 395.594121 
L 373.810913 343.58659 
L 390.04364 299.627843 
L 398.159912 257.526508 
L 414.392639 221.616546 
L 430.625366 188.183133 
L 446.858154 163.417642 
L 454.974487 148.558348 
L 471.207214 142.366975 
L 487.439941 142.366975 
L 495.556335 146.081799 
L 511.789062 150.415759 
L 528.02179 156.607132 
L 536.138184 165.275054 
L 552.370911 173.323839 
L 568.603638 180.134349 
L 584.836365 188.183133 
L 592.952637 198.708467 
L 609.185364 207.376389 
L 625.418091 215.425174 
L 633.534485 224.093095 
L 649.767212 230.284468 
L 665.999939 238.333253 
L 674.116333 245.143763 
L 690.34906 253.192547 
L 706.581787 259.38392 
L 722.814514 266.19443 
L 730.930786 272.385803 
L 747.163635 280.434588 
" style="fill:none;stroke:#ff7f0e;stroke-linecap:square;stroke-width:1.5;"/>
    <defs>
     <path d="M 0 2.5 
C 0.663008 2.5 1.29895 2.236584 1.767767 1.767767 
C 2.236584 1.29895 2.5 0.663008 2.5 0 
C 2.5 -0.663008 2.236584 -1.29895 1.767767 -1.767767 
C 1.29895 -2.236584 0.663008 -2.5 0 -2.5 
C -0.663008 -2.5 -1.29895 -2.236584 -1.767767 -1.767767 
C -2.236584 -1.29895 -2.5 -0.663008 -2.5 0 
C -2.5 0.663008 -2.236584 1.29895 -1.767767 1.767767 
C -1.29895 2.236584 -0.663008 2.5 0 2.5 
z
" id="m2564dd2811" style="stroke:#ff7f0e;"/>
    </defs>
    <g clip-path="url(#p46f9a56a84)">
     <use style="fill:#ff7f0e;stroke:#ff7f0e;" x="138.43634" xlink:href="#m2564dd2811" y="481.654203"/>
     <use style="fill:#ff7f0e;stroke:#ff7f0e;" x="154.669067" xlink:href="#m2564dd2811" y="481.654203"/>
     <use style="fill:#ff7f0e;stroke:#ff7f0e;" x="170.901794" xlink:href="#m2564dd2811" y="484.130752"/>
     <use style="fill:#ff7f0e;stroke:#ff7f0e;" x="179.018188" xlink:href="#m2564dd2811" y="485.988164"/>
     <use style="fill:#ff7f0e;stroke:#ff7f0e;" x="195.250916" xlink:href="#m2564dd2811" y="485.988164"/>
     <use style="fill:#ff7f0e;stroke:#ff7f0e;" x="211.483643" xlink:href="#m2564dd2811" y="487.845575"/>
     <use style="fill:#ff7f0e;stroke:#ff7f0e;" x="227.716309" xlink:href="#m2564dd2811" y="490.322124"/>
     <use style="fill:#ff7f0e;stroke:#ff7f0e;" x="235.832764" xlink:href="#m2564dd2811" y="490.322124"/>
     <use style="fill:#ff7f0e;stroke:#ff7f0e;" x="252.06543" xlink:href="#m2564dd2811" y="492.179536"/>
     <use style="fill:#ff7f0e;stroke:#ff7f0e;" x="268.298157" xlink:href="#m2564dd2811" y="492.179536"/>
     <use style="fill:#ff7f0e;stroke:#ff7f0e;" x="276.41449" xlink:href="#m2564dd2811" y="494.036948"/>
     <use style="fill:#ff7f0e;stroke:#ff7f0e;" x="292.647217" xlink:href="#m2564dd2811" y="494.036948"/>
     <use style="fill:#ff7f0e;stroke:#ff7f0e;" x="308.879944" xlink:href="#m2564dd2811" y="498.370909"/>
     <use style="fill:#ff7f0e;stroke:#ff7f0e;" x="316.996338" xlink:href="#m2564dd2811" y="498.370909"/>
     <use style="fill:#ff7f0e;stroke:#ff7f0e;" x="333.229065" xlink:href="#m2564dd2811" y="490.322124"/>
     <use style="fill:#ff7f0e;stroke:#ff7f0e;" x="349.461792" xlink:href="#m2564dd2811" y="448.22079"/>
     <use style="fill:#ff7f0e;stroke:#ff7f0e;" x="357.578186" xlink:href="#m2564dd2811" y="395.594121"/>
     <use style="fill:#ff7f0e;stroke:#ff7f0e;" x="373.810913" xlink:href="#m2564dd2811" y="343.58659"/>
     <use style="fill:#ff7f0e;stroke:#ff7f0e;" x="390.04364" xlink:href="#m2564dd2811" y="299.627843"/>
     <use style="fill:#ff7f0e;stroke:#ff7f0e;" x="398.159912" xlink:href="#m2564dd2811" y="257.526508"/>
     <use style="fill:#ff7f0e;stroke:#ff7f0e;" x="414.392639" xlink:href="#m2564dd2811" y="221.616546"/>
     <use style="fill:#ff7f0e;stroke:#ff7f0e;" x="430.625366" xlink:href="#m2564dd2811" y="188.183133"/>
     <use style="fill:#ff7f0e;stroke:#ff7f0e;" x="446.858154" xlink:href="#m2564dd2811" y="163.417642"/>
     <use style="fill:#ff7f0e;stroke:#ff7f0e;" x="454.974487" xlink:href="#m2564dd2811" y="148.558348"/>
     <use style="fill:#ff7f0e;stroke:#ff7f0e;" x="471.207214" xlink:href="#m2564dd2811" y="142.366975"/>
     <use style="fill:#ff7f0e;stroke:#ff7f0e;" x="487.439941" xlink:href="#m2564dd2811" y="142.366975"/>
     <use style="fill:#ff7f0e;stroke:#ff7f0e;" x="495.556335" xlink:href="#m2564dd2811" y="146.081799"/>
     <use style="fill:#ff7f0e;stroke:#ff7f0e;" x="511.789062" xlink:href="#m2564dd2811" y="150.415759"/>
     <use style="fill:#ff7f0e;stroke:#ff7f0e;" x="528.02179" xlink:href="#m2564dd2811" y="156.607132"/>
     <use style="fill:#ff7f0e;stroke:#ff7f0e;" x="536.138184" xlink:href="#m2564dd2811" y="165.275054"/>
     <use style="fill:#ff7f0e;stroke:#ff7f0e;" x="552.370911" xlink:href="#m2564dd2811" y="173.323839"/>
     <use style="fill:#ff7f0e;stroke:#ff7f0e;" x="568.603638" xlink:href="#m2564dd2811" y="180.134349"/>
     <use style="fill:#ff7f0e;stroke:#ff7f0e;" x="584.836365" xlink:href="#m2564dd2811" y="188.183133"/>
     <use style="fill:#ff7f0e;stroke:#ff7f0e;" x="592.952637" xlink:href="#m2564dd2811" y="198.708467"/>
     <use style="fill:#ff7f0e;stroke:#ff7f0e;" x="609.185364" xlink:href="#m2564dd2811" y="207.376389"/>
     <use style="fill:#ff7f0e;stroke:#ff7f0e;" x="625.418091" xlink:href="#m2564dd2811" y="215.425174"/>
     <use style="fill:#ff7f0e;stroke:#ff7f0e;" x="633.534485" xlink:href="#m2564dd2811" y="224.093095"/>
     <use style="fill:#ff7f0e;stroke:#ff7f0e;" x="649.767212" xlink:href="#m2564dd2811" y="230.284468"/>
     <use style="fill:#ff7f0e;stroke:#ff7f0e;" x="665.999939" xlink:href="#m2564dd2811" y="238.333253"/>
     <use style="fill:#ff7f0e;stroke:#ff7f0e;" x="674.116333" xlink:href="#m2564dd2811" y="245.143763"/>
     <use style="fill:#ff7f0e;stroke:#ff7f0e;" x="690.34906" xlink:href="#m2564dd2811" y="253.192547"/>
     <use style="fill:#ff7f0e;stroke:#ff7f0e;" x="706.581787" xlink:href="#m2564dd2811" y="259.38392"/>
     <use style="fill:#ff7f0e;stroke:#ff7f0e;" x="722.814514" xlink:href="#m2564dd2811" y="266.19443"/>
     <use style="fill:#ff7f0e;stroke:#ff7f0e;" x="730.930786" xlink:href="#m2564dd2811" y="272.385803"/>
     <use style="fill:#ff7f0e;stroke:#ff7f0e;" x="747.163635" xlink:href="#m2564dd2811" y="280.434588"/>
    </g>
   </g>
   <g id="line2d_35">
    <path clip-path="url(#p46f9a56a84)" d="M 138.43634 464.937496 
L 154.669067 464.937496 
L 170.901794 469.271457 
L 179.018188 469.271457 
L 195.250916 471.128869 
L 211.483643 471.128869 
L 227.716309 475.46283 
L 235.832764 477.320242 
L 252.06543 479.796791 
L 268.298157 479.796791 
L 276.41449 481.654203 
L 292.647217 484.130752 
L 308.879944 485.988164 
L 316.996338 484.130752 
L 333.229065 448.22079 
L 349.461792 398.07067 
L 357.578186 343.58659 
L 373.810913 290.959921 
L 390.04364 242.667214 
L 398.159912 204.89984 
L 414.392639 171.466427 
L 430.625366 144.224387 
L 446.858154 121.316307 
L 454.974487 106.457013 
L 471.207214 102.123052 
L 487.439941 97.789091 
L 495.556335 102.123052 
L 511.789062 106.457013 
L 528.02179 115.124935 
L 536.138184 118.839758 
L 552.370911 127.50768 
L 568.603638 135.556465 
L 584.836365 144.224387 
L 592.952637 152.892309 
L 609.185364 160.941093 
L 625.418091 169.609015 
L 633.534485 177.6578 
L 649.767212 183.849172 
L 665.999939 192.517094 
L 674.116333 198.708467 
L 690.34906 204.89984 
L 706.581787 213.567762 
L 722.814514 219.759134 
L 730.930786 228.427056 
L 747.163635 234.618429 
" style="fill:none;stroke:#2ca02c;stroke-linecap:square;stroke-width:1.5;"/>
    <defs>
     <path d="M 0 2.5 
C 0.663008 2.5 1.29895 2.236584 1.767767 1.767767 
C 2.236584 1.29895 2.5 0.663008 2.5 0 
C 2.5 -0.663008 2.236584 -1.29895 1.767767 -1.767767 
C 1.29895 -2.236584 0.663008 -2.5 0 -2.5 
C -0.663008 -2.5 -1.29895 -2.236584 -1.767767 -1.767767 
C -2.236584 -1.29895 -2.5 -0.663008 -2.5 0 
C -2.5 0.663008 -2.236584 1.29895 -1.767767 1.767767 
C -1.29895 2.236584 -0.663008 2.5 0 2.5 
z
" id="mf2d3727a26" style="stroke:#2ca02c;"/>
    </defs>
    <g clip-path="url(#p46f9a56a84)">
     <use style="fill:#2ca02c;stroke:#2ca02c;" x="138.43634" xlink:href="#mf2d3727a26" y="464.937496"/>
     <use style="fill:#2ca02c;stroke:#2ca02c;" x="154.669067" xlink:href="#mf2d3727a26" y="464.937496"/>
     <use style="fill:#2ca02c;stroke:#2ca02c;" x="170.901794" xlink:href="#mf2d3727a26" y="469.271457"/>
     <use style="fill:#2ca02c;stroke:#2ca02c;" x="179.018188" xlink:href="#mf2d3727a26" y="469.271457"/>
     <use style="fill:#2ca02c;stroke:#2ca02c;" x="195.250916" xlink:href="#mf2d3727a26" y="471.128869"/>
     <use style="fill:#2ca02c;stroke:#2ca02c;" x="211.483643" xlink:href="#mf2d3727a26" y="471.128869"/>
     <use style="fill:#2ca02c;stroke:#2ca02c;" x="227.716309" xlink:href="#mf2d3727a26" y="475.46283"/>
     <use style="fill:#2ca02c;stroke:#2ca02c;" x="235.832764" xlink:href="#mf2d3727a26" y="477.320242"/>
     <use style="fill:#2ca02c;stroke:#2ca02c;" x="252.06543" xlink:href="#mf2d3727a26" y="479.796791"/>
     <use style="fill:#2ca02c;stroke:#2ca02c;" x="268.298157" xlink:href="#mf2d3727a26" y="479.796791"/>
     <use style="fill:#2ca02c;stroke:#2ca02c;" x="276.41449" xlink:href="#mf2d3727a26" y="481.654203"/>
     <use style="fill:#2ca02c;stroke:#2ca02c;" x="292.647217" xlink:href="#mf2d3727a26" y="484.130752"/>
     <use style="fill:#2ca02c;stroke:#2ca02c;" x="308.879944" xlink:href="#mf2d3727a26" y="485.988164"/>
     <use style="fill:#2ca02c;stroke:#2ca02c;" x="316.996338" xlink:href="#mf2d3727a26" y="484.130752"/>
     <use style="fill:#2ca02c;stroke:#2ca02c;" x="333.229065" xlink:href="#mf2d3727a26" y="448.22079"/>
     <use style="fill:#2ca02c;stroke:#2ca02c;" x="349.461792" xlink:href="#mf2d3727a26" y="398.07067"/>
     <use style="fill:#2ca02c;stroke:#2ca02c;" x="357.578186" xlink:href="#mf2d3727a26" y="343.58659"/>
     <use style="fill:#2ca02c;stroke:#2ca02c;" x="373.810913" xlink:href="#mf2d3727a26" y="290.959921"/>
     <use style="fill:#2ca02c;stroke:#2ca02c;" x="390.04364" xlink:href="#mf2d3727a26" y="242.667214"/>
     <use style="fill:#2ca02c;stroke:#2ca02c;" x="398.159912" xlink:href="#mf2d3727a26" y="204.89984"/>
     <use style="fill:#2ca02c;stroke:#2ca02c;" x="414.392639" xlink:href="#mf2d3727a26" y="171.466427"/>
     <use style="fill:#2ca02c;stroke:#2ca02c;" x="430.625366" xlink:href="#mf2d3727a26" y="144.224387"/>
     <use style="fill:#2ca02c;stroke:#2ca02c;" x="446.858154" xlink:href="#mf2d3727a26" y="121.316307"/>
     <use style="fill:#2ca02c;stroke:#2ca02c;" x="454.974487" xlink:href="#mf2d3727a26" y="106.457013"/>
     <use style="fill:#2ca02c;stroke:#2ca02c;" x="471.207214" xlink:href="#mf2d3727a26" y="102.123052"/>
     <use style="fill:#2ca02c;stroke:#2ca02c;" x="487.439941" xlink:href="#mf2d3727a26" y="97.789091"/>
     <use style="fill:#2ca02c;stroke:#2ca02c;" x="495.556335" xlink:href="#mf2d3727a26" y="102.123052"/>
     <use style="fill:#2ca02c;stroke:#2ca02c;" x="511.789062" xlink:href="#mf2d3727a26" y="106.457013"/>
     <use style="fill:#2ca02c;stroke:#2ca02c;" x="528.02179" xlink:href="#mf2d3727a26" y="115.124935"/>
     <use style="fill:#2ca02c;stroke:#2ca02c;" x="536.138184" xlink:href="#mf2d3727a26" y="118.839758"/>
     <use style="fill:#2ca02c;stroke:#2ca02c;" x="552.370911" xlink:href="#mf2d3727a26" y="127.50768"/>
     <use style="fill:#2ca02c;stroke:#2ca02c;" x="568.603638" xlink:href="#mf2d3727a26" y="135.556465"/>
     <use style="fill:#2ca02c;stroke:#2ca02c;" x="584.836365" xlink:href="#mf2d3727a26" y="144.224387"/>
     <use style="fill:#2ca02c;stroke:#2ca02c;" x="592.952637" xlink:href="#mf2d3727a26" y="152.892309"/>
     <use style="fill:#2ca02c;stroke:#2ca02c;" x="609.185364" xlink:href="#mf2d3727a26" y="160.941093"/>
     <use style="fill:#2ca02c;stroke:#2ca02c;" x="625.418091" xlink:href="#mf2d3727a26" y="169.609015"/>
     <use style="fill:#2ca02c;stroke:#2ca02c;" x="633.534485" xlink:href="#mf2d3727a26" y="177.6578"/>
     <use style="fill:#2ca02c;stroke:#2ca02c;" x="649.767212" xlink:href="#mf2d3727a26" y="183.849172"/>
     <use style="fill:#2ca02c;stroke:#2ca02c;" x="665.999939" xlink:href="#mf2d3727a26" y="192.517094"/>
     <use style="fill:#2ca02c;stroke:#2ca02c;" x="674.116333" xlink:href="#mf2d3727a26" y="198.708467"/>
     <use style="fill:#2ca02c;stroke:#2ca02c;" x="690.34906" xlink:href="#mf2d3727a26" y="204.89984"/>
     <use style="fill:#2ca02c;stroke:#2ca02c;" x="706.581787" xlink:href="#mf2d3727a26" y="213.567762"/>
     <use style="fill:#2ca02c;stroke:#2ca02c;" x="722.814514" xlink:href="#mf2d3727a26" y="219.759134"/>
     <use style="fill:#2ca02c;stroke:#2ca02c;" x="730.930786" xlink:href="#mf2d3727a26" y="228.427056"/>
     <use style="fill:#2ca02c;stroke:#2ca02c;" x="747.163635" xlink:href="#mf2d3727a26" y="234.618429"/>
    </g>
   </g>
   <g id="patch_3">
    <path d="M 108 518.4 
L 108 77.76 
" style="fill:none;stroke:#000000;stroke-linecap:square;stroke-linejoin:miter;stroke-width:0.8;"/>
   </g>
   <g id="patch_4">
    <path d="M 777.6 518.4 
L 777.6 77.76 
" style="fill:none;stroke:#000000;stroke-linecap:square;stroke-linejoin:miter;stroke-width:0.8;"/>
   </g>
   <g id="patch_5">
    <path d="M 108 518.4 
L 777.599976 518.4 
" style="fill:none;stroke:#000000;stroke-linecap:square;stroke-linejoin:miter;stroke-width:0.8;"/>
   </g>
   <g id="patch_6">
    <path d="M 108 77.76 
L 777.599976 77.76 
" style="fill:none;stroke:#000000;stroke-linecap:square;stroke-linejoin:miter;stroke-width:0.8;"/>
   </g>
   <g id="text_19">
    <!-- RTD temperature (°C) -->
    <defs>
     <path d="M 44.390625 34.1875 
Q 47.5625 33.109375 50.5625 29.59375 
Q 53.5625 26.078125 56.59375 19.921875 
L 66.609375 0 
L 56 0 
L 46.6875 18.703125 
Q 43.0625 26.03125 39.671875 28.421875 
Q 36.28125 30.8125 30.421875 30.8125 
L 19.671875 30.8125 
L 19.671875 0 
L 9.8125 0 
L 9.8125 72.90625 
L 32.078125 72.90625 
Q 44.578125 72.90625 50.734375 67.671875 
Q 56.890625 62.453125 56.890625 51.90625 
Q 56.890625 45.015625 53.6875 40.46875 
Q 50.484375 35.9375 44.390625 34.1875 
z
M 19.671875 64.796875 
L 19.671875 38.921875 
L 32.078125 38.921875 
Q 39.203125 38.921875 42.84375 42.21875 
Q 46.484375 45.515625 46.484375 51.90625 
Q 46.484375 58.296875 42.84375 61.546875 
Q 39.203125 64.796875 32.078125 64.796875 
z
" id="DejaVuSans-82"/>
    </defs>
    <g transform="translate(377.385 71.76)scale(0.12 -0.12)">
     <use xlink:href="#DejaVuSans-82"/>
     <use x="62.232422" xlink:href="#DejaVuSans-84"/>
     <use x="123.316406" xlink:href="#DejaVuSans-68"/>
     <use x="200.318359" xlink:href="#DejaVuSans-32"/>
     <use x="232.105469" xlink:href="#DejaVuSans-116"/>
     <use x="271.314453" xlink:href="#DejaVuSans-101"/>
     <use x="332.837891" xlink:href="#DejaVuSans-109"/>
     <use x="430.25" xlink:href="#DejaVuSans-112"/>
     <use x="493.726562" xlink:href="#DejaVuSans-101"/>
     <use x="555.25" xlink:href="#DejaVuSans-114"/>
     <use x="596.363281" xlink:href="#DejaVuSans-97"/>
     <use x="657.642578" xlink:href="#DejaVuSans-116"/>
     <use x="696.851562" xlink:href="#DejaVuSans-117"/>
     <use x="760.230469" xlink:href="#DejaVuSans-114"/>
     <use x="799.09375" xlink:href="#DejaVuSans-101"/>
     <use x="860.617188" xlink:href="#DejaVuSans-32"/>
     <use x="892.404297" xlink:href="#DejaVuSans-40"/>
     <use x="931.417969" xlink:href="#DejaVuSans-176"/>
     <use x="981.417969" xlink:href="#DejaVuSans-67"/>
     <use x="1051.242188" xlink:href="#DejaVuSans-41"/>
    </g>
   </g>
   <g id="legend_1">
    <g id="patch_7">
     <path d="M 691.064062 129.794375 
L 770.6 129.794375 
Q 772.6 129.794375 772.6 127.794375 
L 772.6 84.76 
Q 772.6 82.76 770.6 82.76 
L 691.064062 82.76 
Q 689.064062 82.76 689.064062 84.76 
L 689.064062 127.794375 
Q 689.064062 129.794375 691.064062 129.794375 
z
" style="fill:#ffffff;opacity:0.8;stroke:#cccccc;stroke-linejoin:miter;"/>
    </g>
    <g id="line2d_36">
     <path d="M 693.064062 90.858437 
L 713.064062 90.858437 
" style="fill:none;stroke:#1f77b4;stroke-linecap:square;stroke-width:1.5;"/>
    </g>
    <g id="line2d_37">
     <g>
      <use style="fill:#1f77b4;stroke:#1f77b4;" x="703.064062" xlink:href="#m4465e91439" y="90.858437"/>
     </g>
    </g>
    <g id="text_20">
     <!--  RTD1 (C) -->
     <g transform="translate(721.064062 94.358437)scale(0.1 -0.1)">
      <use xlink:href="#DejaVuSans-32"/>
      <use x="31.787109" xlink:href="#DejaVuSans-82"/>
      <use x="94.019531" xlink:href="#DejaVuSans-84"/>
      <use x="155.103516" xlink:href="#DejaVuSans-68"/>
      <use x="232.105469" xlink:href="#DejaVuSans-49"/>
      <use x="295.728516" xlink:href="#DejaVuSans-32"/>
      <use x="327.515625" xlink:href="#DejaVuSans-40"/>
      <use x="366.529297" xlink:href="#DejaVuSans-67"/>
      <use x="436.353516" xlink:href="#DejaVuSans-41"/>
     </g>
    </g>
    <g id="line2d_38">
     <path d="M 693.064062 105.536562 
L 713.064062 105.536562 
" style="fill:none;stroke:#ff7f0e;stroke-linecap:square;stroke-width:1.5;"/>
    </g>
    <g id="line2d_39">
     <g>
      <use style="fill:#ff7f0e;stroke:#ff7f0e;" x="703.064062" xlink:href="#m2564dd2811" y="105.536562"/>
     </g>
    </g>
    <g id="text_21">
     <!--  RTD2 (C) -->
     <g transform="translate(721.064062 109.036562)scale(0.1 -0.1)">
      <use xlink:href="#DejaVuSans-32"/>
      <use x="31.787109" xlink:href="#DejaVuSans-82"/>
      <use x="94.019531" xlink:href="#DejaVuSans-84"/>
      <use x="155.103516" xlink:href="#DejaVuSans-68"/>
      <use x="232.105469" xlink:href="#DejaVuSans-50"/>
      <use x="295.728516" xlink:href="#DejaVuSans-32"/>
      <use x="327.515625" xlink:href="#DejaVuSans-40"/>
      <use x="366.529297" xlink:href="#DejaVuSans-67"/>
      <use x="436.353516" xlink:href="#DejaVuSans-41"/>
     </g>
    </g>
    <g id="line2d_40">
     <path d="M 693.064062 120.214687 
L 713.064062 120.214687 
" style="fill:none;stroke:#2ca02c;stroke-linecap:square;stroke-width:1.5;"/>
    </g>
    <g id="line2d_41">
     <g>
      <use style="fill:#2ca02c;stroke:#2ca02c;" x="703.064062" xlink:href="#mf2d3727a26" y="120.214687"/>
     </g>
    </g>
    <g id="text_22">
     <!--  RTD3 (C) -->
     <g transform="translate(721.064062 123.714687)scale(0.1 -0.1)">
      <use xlink:href="#DejaVuSans-32"/>
      <use x="31.787109" xlink:href="#DejaVuSans-82"/>
      <use x="94.019531" xlink:href="#DejaVuSans-84"/>
      <use x="155.103516" xlink:href="#DejaVuSans-68"/>
      <use x="232.105469" xlink:href="#DejaVuSans-51"/>
      <use x="295.728516" xlink:href="#DejaVuSans-32"/>
      <use x="327.515625" xlink:href="#DejaVuSans-40"/>
      <use x="366.529297" xlink:href="#DejaVuSans-67"/>
      <use x="436.353516" xlink:href="#DejaVuSans-41"/>
     </g>
    </g>
   </g>
  </g>
 </g>
 <defs>
  <clipPath id="p46f9a56a84">
   <rect height="440.64" width="669.6" x="108" y="77.76"/>
  </clipPath>
 </defs>
</svg>
