<?xml version="1.0" encoding="utf-8" standalone="no"?>
<!DOCTYPE svg PUBLIC "-//W3C//DTD SVG 1.1//EN"
  "http://www.w3.org/Graphics/SVG/1.1/DTD/svg11.dtd">
<!-- Created with matplotlib (https://matplotlib.org/) -->
<svg height="648pt" version="1.1" viewBox="0 0 864 648" width="864pt" xmlns="http://www.w3.org/2000/svg" xmlns:xlink="http://www.w3.org/1999/xlink">
 <defs>
  <style type="text/css">
*{stroke-linecap:butt;stroke-linejoin:round;}
  </style>
 </defs>
 <g id="figure_1">
  <g id="patch_1">
   <path d="M 0 648 
L 864 648 
L 864 0 
L 0 0 
z
" style="fill:#ffffff;"/>
  </g>
  <g id="axes_1">
   <g id="patch_2">
    <path d="M 108 518.4 
L 777.6 518.4 
L 777.6 77.76 
L 108 77.76 
z
" style="fill:#ffffff;"/>
   </g>
   <g id="matplotlib.axis_1">
    <g id="xtick_1">
     <g id="line2d_1">
      <path clip-path="url(#pee68aecbef)" d="M 202.650879 518.4 
L 202.650879 77.76 
" style="fill:none;stroke:#b0b0b0;stroke-linecap:square;stroke-width:0.8;"/>
     </g>
     <g id="line2d_2">
      <defs>
       <path d="M 0 0 
L 0 3.5 
" id="mdd32512a16" style="stroke:#000000;stroke-width:0.8;"/>
      </defs>
      <g>
       <use style="stroke:#000000;stroke-width:0.8;" x="202.650879" xlink:href="#mdd32512a16" y="518.4"/>
      </g>
     </g>
     <g id="text_1">
      <!-- 00:00:10 -->
      <defs>
       <path d="M 31.78125 66.40625 
Q 24.171875 66.40625 20.328125 58.90625 
Q 16.5 51.421875 16.5 36.375 
Q 16.5 21.390625 20.328125 13.890625 
Q 24.171875 6.390625 31.78125 6.390625 
Q 39.453125 6.390625 43.28125 13.890625 
Q 47.125 21.390625 47.125 36.375 
Q 47.125 51.421875 43.28125 58.90625 
Q 39.453125 66.40625 31.78125 66.40625 
z
M 31.78125 74.21875 
Q 44.046875 74.21875 50.515625 64.515625 
Q 56.984375 54.828125 56.984375 36.375 
Q 56.984375 17.96875 50.515625 8.265625 
Q 44.046875 -1.421875 31.78125 -1.421875 
Q 19.53125 -1.421875 13.0625 8.265625 
Q 6.59375 17.96875 6.59375 36.375 
Q 6.59375 54.828125 13.0625 64.515625 
Q 19.53125 74.21875 31.78125 74.21875 
z
" id="DejaVuSans-48"/>
       <path d="M 11.71875 12.40625 
L 22.015625 12.40625 
L 22.015625 0 
L 11.71875 0 
z
M 11.71875 51.703125 
L 22.015625 51.703125 
L 22.015625 39.3125 
L 11.71875 39.3125 
z
" id="DejaVuSans-58"/>
       <path d="M 12.40625 8.296875 
L 28.515625 8.296875 
L 28.515625 63.921875 
L 10.984375 60.40625 
L 10.984375 69.390625 
L 28.421875 72.90625 
L 38.28125 72.90625 
L 38.28125 8.296875 
L 54.390625 8.296875 
L 54.390625 0 
L 12.40625 0 
z
" id="DejaVuSans-49"/>
      </defs>
      <g transform="translate(162.715669 554.43669)rotate(-30)scale(0.1 -0.1)">
       <use xlink:href="#DejaVuSans-48"/>
       <use x="63.623047" xlink:href="#DejaVuSans-48"/>
       <use x="127.246094" xlink:href="#DejaVuSans-58"/>
       <use x="160.9375" xlink:href="#DejaVuSans-48"/>
       <use x="224.560547" xlink:href="#DejaVuSans-48"/>
       <use x="288.183594" xlink:href="#DejaVuSans-58"/>
       <use x="321.875" xlink:href="#DejaVuSans-49"/>
       <use x="385.498047" xlink:href="#DejaVuSans-48"/>
      </g>
     </g>
    </g>
    <g id="xtick_2">
     <g id="line2d_3">
      <path clip-path="url(#pee68aecbef)" d="M 297.348755 518.4 
L 297.348755 77.76 
" style="fill:none;stroke:#b0b0b0;stroke-linecap:square;stroke-width:0.8;"/>
     </g>
     <g id="line2d_4">
      <g>
       <use style="stroke:#000000;stroke-width:0.8;" x="297.348755" xlink:href="#mdd32512a16" y="518.4"/>
      </g>
     </g>
     <g id="text_2">
      <!-- 00:00:20 -->
      <defs>
       <path d="M 19.1875 8.296875 
L 53.609375 8.296875 
L 53.609375 0 
L 7.328125 0 
L 7.328125 8.296875 
Q 12.9375 14.109375 22.625 23.890625 
Q 32.328125 33.6875 34.8125 36.53125 
Q 39.546875 41.84375 41.421875 45.53125 
Q 43.3125 49.21875 43.3125 52.78125 
Q 43.3125 58.59375 39.234375 62.25 
Q 35.15625 65.921875 28.609375 65.921875 
Q 23.96875 65.921875 18.8125 64.3125 
Q 13.671875 62.703125 7.8125 59.421875 
L 7.8125 69.390625 
Q 13.765625 71.78125 18.9375 73 
Q 24.125 74.21875 28.421875 74.21875 
Q 39.75 74.21875 46.484375 68.546875 
Q 53.21875 62.890625 53.21875 53.421875 
Q 53.21875 48.921875 51.53125 44.890625 
Q 49.859375 40.875 45.40625 35.40625 
Q 44.1875 33.984375 37.640625 27.21875 
Q 31.109375 20.453125 19.1875 8.296875 
z
" id="DejaVuSans-50"/>
      </defs>
      <g transform="translate(257.413545 554.43669)rotate(-30)scale(0.1 -0.1)">
       <use xlink:href="#DejaVuSans-48"/>
       <use x="63.623047" xlink:href="#DejaVuSans-48"/>
       <use x="127.246094" xlink:href="#DejaVuSans-58"/>
       <use x="160.9375" xlink:href="#DejaVuSans-48"/>
       <use x="224.560547" xlink:href="#DejaVuSans-48"/>
       <use x="288.183594" xlink:href="#DejaVuSans-58"/>
       <use x="321.875" xlink:href="#DejaVuSans-50"/>
       <use x="385.498047" xlink:href="#DejaVuSans-48"/>
      </g>
     </g>
    </g>
    <g id="xtick_3">
     <g id="line2d_5">
      <path clip-path="url(#pee68aecbef)" d="M 392.046631 518.4 
L 392.046631 77.76 
" style="fill:none;stroke:#b0b0b0;stroke-linecap:square;stroke-width:0.8;"/>
     </g>
     <g id="line2d_6">
      <g>
       <use style="stroke:#000000;stroke-width:0.8;" x="392.046631" xlink:href="#mdd32512a16" y="518.4"/>
      </g>
     </g>
     <g id="text_3">
      <!-- 00:00:30 -->
      <defs>
       <path d="M 40.578125 39.3125 
Q 47.65625 37.796875 51.625 33 
Q 55.609375 28.21875 55.609375 21.1875 
Q 55.609375 10.40625 48.1875 4.484375 
Q 40.765625 -1.421875 27.09375 -1.421875 
Q 22.515625 -1.421875 17.65625 -0.515625 
Q 12.796875 0.390625 7.625 2.203125 
L 7.625 11.71875 
Q 11.71875 9.328125 16.59375 8.109375 
Q 21.484375 6.890625 26.8125 6.890625 
Q 36.078125 6.890625 40.9375 10.546875 
Q 45.796875 14.203125 45.796875 21.1875 
Q 45.796875 27.640625 41.28125 31.265625 
Q 36.765625 34.90625 28.71875 34.90625 
L 20.21875 34.90625 
L 20.21875 43.015625 
L 29.109375 43.015625 
Q 36.375 43.015625 40.234375 45.921875 
Q 44.09375 48.828125 44.09375 54.296875 
Q 44.09375 59.90625 40.109375 62.90625 
Q 36.140625 65.921875 28.71875 65.921875 
Q 24.65625 65.921875 20.015625 65.03125 
Q 15.375 64.15625 9.8125 62.3125 
L 9.8125 71.09375 
Q 15.4375 72.65625 20.34375 73.4375 
Q 25.25 74.21875 29.59375 74.21875 
Q 40.828125 74.21875 47.359375 69.109375 
Q 53.90625 64.015625 53.90625 55.328125 
Q 53.90625 49.265625 50.4375 45.09375 
Q 46.96875 40.921875 40.578125 39.3125 
z
" id="DejaVuSans-51"/>
      </defs>
      <g transform="translate(352.111421 554.43669)rotate(-30)scale(0.1 -0.1)">
       <use xlink:href="#DejaVuSans-48"/>
       <use x="63.623047" xlink:href="#DejaVuSans-48"/>
       <use x="127.246094" xlink:href="#DejaVuSans-58"/>
       <use x="160.9375" xlink:href="#DejaVuSans-48"/>
       <use x="224.560547" xlink:href="#DejaVuSans-48"/>
       <use x="288.183594" xlink:href="#DejaVuSans-58"/>
       <use x="321.875" xlink:href="#DejaVuSans-51"/>
       <use x="385.498047" xlink:href="#DejaVuSans-48"/>
      </g>
     </g>
    </g>
    <g id="xtick_4">
     <g id="line2d_7">
      <path clip-path="url(#pee68aecbef)" d="M 486.744507 518.4 
L 486.744507 77.76 
" style="fill:none;stroke:#b0b0b0;stroke-linecap:square;stroke-width:0.8;"/>
     </g>
     <g id="line2d_8">
      <g>
       <use style="stroke:#000000;stroke-width:0.8;" x="486.744507" xlink:href="#mdd32512a16" y="518.4"/>
      </g>
     </g>
     <g id="text_4">
      <!-- 00:00:40 -->
      <defs>
       <path d="M 37.796875 64.3125 
L 12.890625 25.390625 
L 37.796875 25.390625 
z
M 35.203125 72.90625 
L 47.609375 72.90625 
L 47.609375 25.390625 
L 58.015625 25.390625 
L 58.015625 17.1875 
L 47.609375 17.1875 
L 47.609375 0 
L 37.796875 0 
L 37.796875 17.1875 
L 4.890625 17.1875 
L 4.890625 26.703125 
z
" id="DejaVuSans-52"/>
      </defs>
      <g transform="translate(446.809297 554.43669)rotate(-30)scale(0.1 -0.1)">
       <use xlink:href="#DejaVuSans-48"/>
       <use x="63.623047" xlink:href="#DejaVuSans-48"/>
       <use x="127.246094" xlink:href="#DejaVuSans-58"/>
       <use x="160.9375" xlink:href="#DejaVuSans-48"/>
       <use x="224.560547" xlink:href="#DejaVuSans-48"/>
       <use x="288.183594" xlink:href="#DejaVuSans-58"/>
       <use x="321.875" xlink:href="#DejaVuSans-52"/>
       <use x="385.498047" xlink:href="#DejaVuSans-48"/>
      </g>
     </g>
    </g>
    <g id="xtick_5">
     <g id="line2d_9">
      <path clip-path="url(#pee68aecbef)" d="M 581.442383 518.4 
L 581.442383 77.76 
" style="fill:none;stroke:#b0b0b0;stroke-linecap:square;stroke-width:0.8;"/>
     </g>
     <g id="line2d_10">
      <g>
       <use style="stroke:#000000;stroke-width:0.8;" x="581.442383" xlink:href="#mdd32512a16" y="518.4"/>
      </g>
     </g>
     <g id="text_5">
      <!-- 00:00:50 -->
      <defs>
       <path d="M 10.796875 72.90625 
L 49.515625 72.90625 
L 49.515625 64.59375 
L 19.828125 64.59375 
L 19.828125 46.734375 
Q 21.96875 47.46875 24.109375 47.828125 
Q 26.265625 48.1875 28.421875 48.1875 
Q 40.625 48.1875 47.75 41.5 
Q 54.890625 34.8125 54.890625 23.390625 
Q 54.890625 11.625 47.5625 5.09375 
Q 40.234375 -1.421875 26.90625 -1.421875 
Q 22.3125 -1.421875 17.546875 -0.640625 
Q 12.796875 0.140625 7.71875 1.703125 
L 7.71875 11.625 
Q 12.109375 9.234375 16.796875 8.0625 
Q 21.484375 6.890625 26.703125 6.890625 
Q 35.15625 6.890625 40.078125 11.328125 
Q 45.015625 15.765625 45.015625 23.390625 
Q 45.015625 31 40.078125 35.4375 
Q 35.15625 39.890625 26.703125 39.890625 
Q 22.75 39.890625 18.8125 39.015625 
Q 14.890625 38.140625 10.796875 36.28125 
z
" id="DejaVuSans-53"/>
      </defs>
      <g transform="translate(541.507173 554.43669)rotate(-30)scale(0.1 -0.1)">
       <use xlink:href="#DejaVuSans-48"/>
       <use x="63.623047" xlink:href="#DejaVuSans-48"/>
       <use x="127.246094" xlink:href="#DejaVuSans-58"/>
       <use x="160.9375" xlink:href="#DejaVuSans-48"/>
       <use x="224.560547" xlink:href="#DejaVuSans-48"/>
       <use x="288.183594" xlink:href="#DejaVuSans-58"/>
       <use x="321.875" xlink:href="#DejaVuSans-53"/>
       <use x="385.498047" xlink:href="#DejaVuSans-48"/>
      </g>
     </g>
    </g>
    <g id="xtick_6">
     <g id="line2d_11">
      <path clip-path="url(#pee68aecbef)" d="M 676.140137 518.4 
L 676.140137 77.76 
" style="fill:none;stroke:#b0b0b0;stroke-linecap:square;stroke-width:0.8;"/>
     </g>
     <g id="line2d_12">
      <g>
       <use style="stroke:#000000;stroke-width:0.8;" x="676.140137" xlink:href="#mdd32512a16" y="518.4"/>
      </g>
     </g>
     <g id="text_6">
      <!-- 00:01:00 -->
      <g transform="translate(636.204927 554.43669)rotate(-30)scale(0.1 -0.1)">
       <use xlink:href="#DejaVuSans-48"/>
       <use x="63.623047" xlink:href="#DejaVuSans-48"/>
       <use x="127.246094" xlink:href="#DejaVuSans-58"/>
       <use x="160.9375" xlink:href="#DejaVuSans-48"/>
       <use x="224.560547" xlink:href="#DejaVuSans-49"/>
       <use x="288.183594" xlink:href="#DejaVuSans-58"/>
       <use x="321.875" xlink:href="#DejaVuSans-48"/>
       <use x="385.498047" xlink:href="#DejaVuSans-48"/>
      </g>
     </g>
    </g>
    <g id="xtick_7">
     <g id="line2d_13">
      <path clip-path="url(#pee68aecbef)" d="M 770.838013 518.4 
L 770.838013 77.76 
" style="fill:none;stroke:#b0b0b0;stroke-linecap:square;stroke-width:0.8;"/>
     </g>
     <g id="line2d_14">
      <g>
       <use style="stroke:#000000;stroke-width:0.8;" x="770.838013" xlink:href="#mdd32512a16" y="518.4"/>
      </g>
     </g>
     <g id="text_7">
      <!-- 00:01:10 -->
      <g transform="translate(730.902803 554.43669)rotate(-30)scale(0.1 -0.1)">
       <use xlink:href="#DejaVuSans-48"/>
       <use x="63.623047" xlink:href="#DejaVuSans-48"/>
       <use x="127.246094" xlink:href="#DejaVuSans-58"/>
       <use x="160.9375" xlink:href="#DejaVuSans-48"/>
       <use x="224.560547" xlink:href="#DejaVuSans-49"/>
       <use x="288.183594" xlink:href="#DejaVuSans-58"/>
       <use x="321.875" xlink:href="#DejaVuSans-49"/>
       <use x="385.498047" xlink:href="#DejaVuSans-48"/>
      </g>
     </g>
    </g>
    <g id="text_8">
     <!-- DateTime -->
     <defs>
      <path d="M 19.671875 64.796875 
L 19.671875 8.109375 
L 31.59375 8.109375 
Q 46.6875 8.109375 53.6875 14.9375 
Q 60.6875 21.78125 60.6875 36.53125 
Q 60.6875 51.171875 53.6875 57.984375 
Q 46.6875 64.796875 31.59375 64.796875 
z
M 9.8125 72.90625 
L 30.078125 72.90625 
Q 51.265625 72.90625 61.171875 64.09375 
Q 71.09375 55.28125 71.09375 36.53125 
Q 71.09375 17.671875 61.125 8.828125 
Q 51.171875 0 30.078125 0 
L 9.8125 0 
z
" id="DejaVuSans-68"/>
      <path d="M 34.28125 27.484375 
Q 23.390625 27.484375 19.1875 25 
Q 14.984375 22.515625 14.984375 16.5 
Q 14.984375 11.71875 18.140625 8.90625 
Q 21.296875 6.109375 26.703125 6.109375 
Q 34.1875 6.109375 38.703125 11.40625 
Q 43.21875 16.703125 43.21875 25.484375 
L 43.21875 27.484375 
z
M 52.203125 31.203125 
L 52.203125 0 
L 43.21875 0 
L 43.21875 8.296875 
Q 40.140625 3.328125 35.546875 0.953125 
Q 30.953125 -1.421875 24.3125 -1.421875 
Q 15.921875 -1.421875 10.953125 3.296875 
Q 6 8.015625 6 15.921875 
Q 6 25.140625 12.171875 29.828125 
Q 18.359375 34.515625 30.609375 34.515625 
L 43.21875 34.515625 
L 43.21875 35.40625 
Q 43.21875 41.609375 39.140625 45 
Q 35.0625 48.390625 27.6875 48.390625 
Q 23 48.390625 18.546875 47.265625 
Q 14.109375 46.140625 10.015625 43.890625 
L 10.015625 52.203125 
Q 14.9375 54.109375 19.578125 55.046875 
Q 24.21875 56 28.609375 56 
Q 40.484375 56 46.34375 49.84375 
Q 52.203125 43.703125 52.203125 31.203125 
z
" id="DejaVuSans-97"/>
      <path d="M 18.3125 70.21875 
L 18.3125 54.6875 
L 36.8125 54.6875 
L 36.8125 47.703125 
L 18.3125 47.703125 
L 18.3125 18.015625 
Q 18.3125 11.328125 20.140625 9.421875 
Q 21.96875 7.515625 27.59375 7.515625 
L 36.8125 7.515625 
L 36.8125 0 
L 27.59375 0 
Q 17.1875 0 13.234375 3.875 
Q 9.28125 7.765625 9.28125 18.015625 
L 9.28125 47.703125 
L 2.6875 47.703125 
L 2.6875 54.6875 
L 9.28125 54.6875 
L 9.28125 70.21875 
z
" id="DejaVuSans-116"/>
      <path d="M 56.203125 29.59375 
L 56.203125 25.203125 
L 14.890625 25.203125 
Q 15.484375 15.921875 20.484375 11.0625 
Q 25.484375 6.203125 34.421875 6.203125 
Q 39.59375 6.203125 44.453125 7.46875 
Q 49.3125 8.734375 54.109375 11.28125 
L 54.109375 2.78125 
Q 49.265625 0.734375 44.1875 -0.34375 
Q 39.109375 -1.421875 33.890625 -1.421875 
Q 20.796875 -1.421875 13.15625 6.1875 
Q 5.515625 13.8125 5.515625 26.8125 
Q 5.515625 40.234375 12.765625 48.109375 
Q 20.015625 56 32.328125 56 
Q 43.359375 56 49.78125 48.890625 
Q 56.203125 41.796875 56.203125 29.59375 
z
M 47.21875 32.234375 
Q 47.125 39.59375 43.09375 43.984375 
Q 39.0625 48.390625 32.421875 48.390625 
Q 24.90625 48.390625 20.390625 44.140625 
Q 15.875 39.890625 15.1875 32.171875 
z
" id="DejaVuSans-101"/>
      <path d="M -0.296875 72.90625 
L 61.375 72.90625 
L 61.375 64.59375 
L 35.5 64.59375 
L 35.5 0 
L 25.59375 0 
L 25.59375 64.59375 
L -0.296875 64.59375 
z
" id="DejaVuSans-84"/>
      <path d="M 9.421875 54.6875 
L 18.40625 54.6875 
L 18.40625 0 
L 9.421875 0 
z
M 9.421875 75.984375 
L 18.40625 75.984375 
L 18.40625 64.59375 
L 9.421875 64.59375 
z
" id="DejaVuSans-105"/>
      <path d="M 52 44.1875 
Q 55.375 50.25 60.0625 53.125 
Q 64.75 56 71.09375 56 
Q 79.640625 56 84.28125 50.015625 
Q 88.921875 44.046875 88.921875 33.015625 
L 88.921875 0 
L 79.890625 0 
L 79.890625 32.71875 
Q 79.890625 40.578125 77.09375 44.375 
Q 74.3125 48.1875 68.609375 48.1875 
Q 61.625 48.1875 57.5625 43.546875 
Q 53.515625 38.921875 53.515625 30.90625 
L 53.515625 0 
L 44.484375 0 
L 44.484375 32.71875 
Q 44.484375 40.625 41.703125 44.40625 
Q 38.921875 48.1875 33.109375 48.1875 
Q 26.21875 48.1875 22.15625 43.53125 
Q 18.109375 38.875 18.109375 30.90625 
L 18.109375 0 
L 9.078125 0 
L 9.078125 54.6875 
L 18.109375 54.6875 
L 18.109375 46.1875 
Q 21.1875 51.21875 25.484375 53.609375 
Q 29.78125 56 35.6875 56 
Q 41.65625 56 45.828125 52.96875 
Q 50 49.953125 52 44.1875 
z
" id="DejaVuSans-109"/>
     </defs>
     <g transform="translate(418.615625 567.83619)scale(0.1 -0.1)">
      <use xlink:href="#DejaVuSans-68"/>
      <use x="77.001953" xlink:href="#DejaVuSans-97"/>
      <use x="138.28125" xlink:href="#DejaVuSans-116"/>
      <use x="177.490234" xlink:href="#DejaVuSans-101"/>
      <use x="239.013672" xlink:href="#DejaVuSans-84"/>
      <use x="296.972656" xlink:href="#DejaVuSans-105"/>
      <use x="324.755859" xlink:href="#DejaVuSans-109"/>
      <use x="422.167969" xlink:href="#DejaVuSans-101"/>
     </g>
    </g>
   </g>
   <g id="matplotlib.axis_2">
    <g id="ytick_1">
     <g id="line2d_15">
      <path clip-path="url(#pee68aecbef)" d="M 108 491.87175 
L 777.6 491.87175 
" style="fill:none;stroke:#b0b0b0;stroke-linecap:square;stroke-width:0.8;"/>
     </g>
     <g id="line2d_16">
      <defs>
       <path d="M 0 0 
L -3.5 0 
" id="m20d7e2bc0f" style="stroke:#000000;stroke-width:0.8;"/>
      </defs>
      <g>
       <use style="stroke:#000000;stroke-width:0.8;" x="108" xlink:href="#m20d7e2bc0f" y="491.87175"/>
      </g>
     </g>
     <g id="text_9">
      <!-- −750 -->
      <defs>
       <path d="M 10.59375 35.5 
L 73.1875 35.5 
L 73.1875 27.203125 
L 10.59375 27.203125 
z
" id="DejaVuSans-8722"/>
       <path d="M 8.203125 72.90625 
L 55.078125 72.90625 
L 55.078125 68.703125 
L 28.609375 0 
L 18.3125 0 
L 43.21875 64.59375 
L 8.203125 64.59375 
z
" id="DejaVuSans-55"/>
      </defs>
      <g transform="translate(73.532813 495.670968)scale(0.1 -0.1)">
       <use xlink:href="#DejaVuSans-8722"/>
       <use x="83.789062" xlink:href="#DejaVuSans-55"/>
       <use x="147.412109" xlink:href="#DejaVuSans-53"/>
       <use x="211.035156" xlink:href="#DejaVuSans-48"/>
      </g>
     </g>
    </g>
    <g id="ytick_2">
     <g id="line2d_17">
      <path clip-path="url(#pee68aecbef)" d="M 108 438.195177 
L 777.6 438.195177 
" style="fill:none;stroke:#b0b0b0;stroke-linecap:square;stroke-width:0.8;"/>
     </g>
     <g id="line2d_18">
      <g>
       <use style="stroke:#000000;stroke-width:0.8;" x="108" xlink:href="#m20d7e2bc0f" y="438.195177"/>
      </g>
     </g>
     <g id="text_10">
      <!-- −500 -->
      <g transform="translate(73.532813 441.994396)scale(0.1 -0.1)">
       <use xlink:href="#DejaVuSans-8722"/>
       <use x="83.789062" xlink:href="#DejaVuSans-53"/>
       <use x="147.412109" xlink:href="#DejaVuSans-48"/>
       <use x="211.035156" xlink:href="#DejaVuSans-48"/>
      </g>
     </g>
    </g>
    <g id="ytick_3">
     <g id="line2d_19">
      <path clip-path="url(#pee68aecbef)" d="M 108 384.518605 
L 777.6 384.518605 
" style="fill:none;stroke:#b0b0b0;stroke-linecap:square;stroke-width:0.8;"/>
     </g>
     <g id="line2d_20">
      <g>
       <use style="stroke:#000000;stroke-width:0.8;" x="108" xlink:href="#m20d7e2bc0f" y="384.518605"/>
      </g>
     </g>
     <g id="text_11">
      <!-- −250 -->
      <g transform="translate(73.532813 388.317824)scale(0.1 -0.1)">
       <use xlink:href="#DejaVuSans-8722"/>
       <use x="83.789062" xlink:href="#DejaVuSans-50"/>
       <use x="147.412109" xlink:href="#DejaVuSans-53"/>
       <use x="211.035156" xlink:href="#DejaVuSans-48"/>
      </g>
     </g>
    </g>
    <g id="ytick_4">
     <g id="line2d_21">
      <path clip-path="url(#pee68aecbef)" d="M 108 330.842033 
L 777.6 330.842033 
" style="fill:none;stroke:#b0b0b0;stroke-linecap:square;stroke-width:0.8;"/>
     </g>
     <g id="line2d_22">
      <g>
       <use style="stroke:#000000;stroke-width:0.8;" x="108" xlink:href="#m20d7e2bc0f" y="330.842033"/>
      </g>
     </g>
     <g id="text_12">
      <!-- 0 -->
      <g transform="translate(94.6375 334.641251)scale(0.1 -0.1)">
       <use xlink:href="#DejaVuSans-48"/>
      </g>
     </g>
    </g>
    <g id="ytick_5">
     <g id="line2d_23">
      <path clip-path="url(#pee68aecbef)" d="M 108 277.16546 
L 777.6 277.16546 
" style="fill:none;stroke:#b0b0b0;stroke-linecap:square;stroke-width:0.8;"/>
     </g>
     <g id="line2d_24">
      <g>
       <use style="stroke:#000000;stroke-width:0.8;" x="108" xlink:href="#m20d7e2bc0f" y="277.16546"/>
      </g>
     </g>
     <g id="text_13">
      <!-- 250 -->
      <g transform="translate(81.9125 280.964679)scale(0.1 -0.1)">
       <use xlink:href="#DejaVuSans-50"/>
       <use x="63.623047" xlink:href="#DejaVuSans-53"/>
       <use x="127.246094" xlink:href="#DejaVuSans-48"/>
      </g>
     </g>
    </g>
    <g id="ytick_6">
     <g id="line2d_25">
      <path clip-path="url(#pee68aecbef)" d="M 108 223.488888 
L 777.6 223.488888 
" style="fill:none;stroke:#b0b0b0;stroke-linecap:square;stroke-width:0.8;"/>
     </g>
     <g id="line2d_26">
      <g>
       <use style="stroke:#000000;stroke-width:0.8;" x="108" xlink:href="#m20d7e2bc0f" y="223.488888"/>
      </g>
     </g>
     <g id="text_14">
      <!-- 500 -->
      <g transform="translate(81.9125 227.288107)scale(0.1 -0.1)">
       <use xlink:href="#DejaVuSans-53"/>
       <use x="63.623047" xlink:href="#DejaVuSans-48"/>
       <use x="127.246094" xlink:href="#DejaVuSans-48"/>
      </g>
     </g>
    </g>
    <g id="ytick_7">
     <g id="line2d_27">
      <path clip-path="url(#pee68aecbef)" d="M 108 169.812316 
L 777.6 169.812316 
" style="fill:none;stroke:#b0b0b0;stroke-linecap:square;stroke-width:0.8;"/>
     </g>
     <g id="line2d_28">
      <g>
       <use style="stroke:#000000;stroke-width:0.8;" x="108" xlink:href="#m20d7e2bc0f" y="169.812316"/>
      </g>
     </g>
     <g id="text_15">
      <!-- 750 -->
      <g transform="translate(81.9125 173.611534)scale(0.1 -0.1)">
       <use xlink:href="#DejaVuSans-55"/>
       <use x="63.623047" xlink:href="#DejaVuSans-53"/>
       <use x="127.246094" xlink:href="#DejaVuSans-48"/>
      </g>
     </g>
    </g>
    <g id="ytick_8">
     <g id="line2d_29">
      <path clip-path="url(#pee68aecbef)" d="M 108 116.135743 
L 777.6 116.135743 
" style="fill:none;stroke:#b0b0b0;stroke-linecap:square;stroke-width:0.8;"/>
     </g>
     <g id="line2d_30">
      <g>
       <use style="stroke:#000000;stroke-width:0.8;" x="108" xlink:href="#m20d7e2bc0f" y="116.135743"/>
      </g>
     </g>
     <g id="text_16">
      <!-- 1000 -->
      <g transform="translate(75.55 119.934962)scale(0.1 -0.1)">
       <use xlink:href="#DejaVuSans-49"/>
       <use x="63.623047" xlink:href="#DejaVuSans-48"/>
       <use x="127.246094" xlink:href="#DejaVuSans-48"/>
       <use x="190.869141" xlink:href="#DejaVuSans-48"/>
      </g>
     </g>
    </g>
    <g id="text_17">
     <!-- Scaled Acc (mg) -->
     <defs>
      <path d="M 53.515625 70.515625 
L 53.515625 60.890625 
Q 47.90625 63.578125 42.921875 64.890625 
Q 37.9375 66.21875 33.296875 66.21875 
Q 25.25 66.21875 20.875 63.09375 
Q 16.5 59.96875 16.5 54.203125 
Q 16.5 49.359375 19.40625 46.890625 
Q 22.3125 44.4375 30.421875 42.921875 
L 36.375 41.703125 
Q 47.40625 39.59375 52.65625 34.296875 
Q 57.90625 29 57.90625 20.125 
Q 57.90625 9.515625 50.796875 4.046875 
Q 43.703125 -1.421875 29.984375 -1.421875 
Q 24.8125 -1.421875 18.96875 -0.25 
Q 13.140625 0.921875 6.890625 3.21875 
L 6.890625 13.375 
Q 12.890625 10.015625 18.65625 8.296875 
Q 24.421875 6.59375 29.984375 6.59375 
Q 38.421875 6.59375 43.015625 9.90625 
Q 47.609375 13.234375 47.609375 19.390625 
Q 47.609375 24.75 44.3125 27.78125 
Q 41.015625 30.8125 33.5 32.328125 
L 27.484375 33.5 
Q 16.453125 35.6875 11.515625 40.375 
Q 6.59375 45.0625 6.59375 53.421875 
Q 6.59375 63.09375 13.40625 68.65625 
Q 20.21875 74.21875 32.171875 74.21875 
Q 37.3125 74.21875 42.625 73.28125 
Q 47.953125 72.359375 53.515625 70.515625 
z
" id="DejaVuSans-83"/>
      <path d="M 48.78125 52.59375 
L 48.78125 44.1875 
Q 44.96875 46.296875 41.140625 47.34375 
Q 37.3125 48.390625 33.40625 48.390625 
Q 24.65625 48.390625 19.8125 42.84375 
Q 14.984375 37.3125 14.984375 27.296875 
Q 14.984375 17.28125 19.8125 11.734375 
Q 24.65625 6.203125 33.40625 6.203125 
Q 37.3125 6.203125 41.140625 7.25 
Q 44.96875 8.296875 48.78125 10.40625 
L 48.78125 2.09375 
Q 45.015625 0.34375 40.984375 -0.53125 
Q 36.96875 -1.421875 32.421875 -1.421875 
Q 20.0625 -1.421875 12.78125 6.34375 
Q 5.515625 14.109375 5.515625 27.296875 
Q 5.515625 40.671875 12.859375 48.328125 
Q 20.21875 56 33.015625 56 
Q 37.15625 56 41.109375 55.140625 
Q 45.0625 54.296875 48.78125 52.59375 
z
" id="DejaVuSans-99"/>
      <path d="M 9.421875 75.984375 
L 18.40625 75.984375 
L 18.40625 0 
L 9.421875 0 
z
" id="DejaVuSans-108"/>
      <path d="M 45.40625 46.390625 
L 45.40625 75.984375 
L 54.390625 75.984375 
L 54.390625 0 
L 45.40625 0 
L 45.40625 8.203125 
Q 42.578125 3.328125 38.25 0.953125 
Q 33.9375 -1.421875 27.875 -1.421875 
Q 17.96875 -1.421875 11.734375 6.484375 
Q 5.515625 14.40625 5.515625 27.296875 
Q 5.515625 40.1875 11.734375 48.09375 
Q 17.96875 56 27.875 56 
Q 33.9375 56 38.25 53.625 
Q 42.578125 51.265625 45.40625 46.390625 
z
M 14.796875 27.296875 
Q 14.796875 17.390625 18.875 11.75 
Q 22.953125 6.109375 30.078125 6.109375 
Q 37.203125 6.109375 41.296875 11.75 
Q 45.40625 17.390625 45.40625 27.296875 
Q 45.40625 37.203125 41.296875 42.84375 
Q 37.203125 48.484375 30.078125 48.484375 
Q 22.953125 48.484375 18.875 42.84375 
Q 14.796875 37.203125 14.796875 27.296875 
z
" id="DejaVuSans-100"/>
      <path id="DejaVuSans-32"/>
      <path d="M 34.1875 63.1875 
L 20.796875 26.90625 
L 47.609375 26.90625 
z
M 28.609375 72.90625 
L 39.796875 72.90625 
L 67.578125 0 
L 57.328125 0 
L 50.6875 18.703125 
L 17.828125 18.703125 
L 11.1875 0 
L 0.78125 0 
z
" id="DejaVuSans-65"/>
      <path d="M 31 75.875 
Q 24.46875 64.65625 21.28125 53.65625 
Q 18.109375 42.671875 18.109375 31.390625 
Q 18.109375 20.125 21.3125 9.0625 
Q 24.515625 -2 31 -13.1875 
L 23.1875 -13.1875 
Q 15.875 -1.703125 12.234375 9.375 
Q 8.59375 20.453125 8.59375 31.390625 
Q 8.59375 42.28125 12.203125 53.3125 
Q 15.828125 64.359375 23.1875 75.875 
z
" id="DejaVuSans-40"/>
      <path d="M 45.40625 27.984375 
Q 45.40625 37.75 41.375 43.109375 
Q 37.359375 48.484375 30.078125 48.484375 
Q 22.859375 48.484375 18.828125 43.109375 
Q 14.796875 37.75 14.796875 27.984375 
Q 14.796875 18.265625 18.828125 12.890625 
Q 22.859375 7.515625 30.078125 7.515625 
Q 37.359375 7.515625 41.375 12.890625 
Q 45.40625 18.265625 45.40625 27.984375 
z
M 54.390625 6.78125 
Q 54.390625 -7.171875 48.1875 -13.984375 
Q 42 -20.796875 29.203125 -20.796875 
Q 24.46875 -20.796875 20.265625 -20.09375 
Q 16.0625 -19.390625 12.109375 -17.921875 
L 12.109375 -9.1875 
Q 16.0625 -11.328125 19.921875 -12.34375 
Q 23.78125 -13.375 27.78125 -13.375 
Q 36.625 -13.375 41.015625 -8.765625 
Q 45.40625 -4.15625 45.40625 5.171875 
L 45.40625 9.625 
Q 42.625 4.78125 38.28125 2.390625 
Q 33.9375 0 27.875 0 
Q 17.828125 0 11.671875 7.65625 
Q 5.515625 15.328125 5.515625 27.984375 
Q 5.515625 40.671875 11.671875 48.328125 
Q 17.828125 56 27.875 56 
Q 33.9375 56 38.28125 53.609375 
Q 42.625 51.21875 45.40625 46.390625 
L 45.40625 54.6875 
L 54.390625 54.6875 
z
" id="DejaVuSans-103"/>
      <path d="M 8.015625 75.875 
L 15.828125 75.875 
Q 23.140625 64.359375 26.78125 53.3125 
Q 30.421875 42.28125 30.421875 31.390625 
Q 30.421875 20.453125 26.78125 9.375 
Q 23.140625 -1.703125 15.828125 -13.1875 
L 8.015625 -13.1875 
Q 14.5 -2 17.703125 9.0625 
Q 20.90625 20.125 20.90625 31.390625 
Q 20.90625 42.671875 17.703125 53.65625 
Q 14.5 64.65625 8.015625 75.875 
z
" id="DejaVuSans-41"/>
     </defs>
     <g transform="translate(67.453125 338.662812)rotate(-90)scale(0.1 -0.1)">
      <use xlink:href="#DejaVuSans-83"/>
      <use x="63.476562" xlink:href="#DejaVuSans-99"/>
      <use x="118.457031" xlink:href="#DejaVuSans-97"/>
      <use x="179.736328" xlink:href="#DejaVuSans-108"/>
      <use x="207.519531" xlink:href="#DejaVuSans-101"/>
      <use x="269.042969" xlink:href="#DejaVuSans-100"/>
      <use x="332.519531" xlink:href="#DejaVuSans-32"/>
      <use x="364.306641" xlink:href="#DejaVuSans-65"/>
      <use x="430.964844" xlink:href="#DejaVuSans-99"/>
      <use x="485.945312" xlink:href="#DejaVuSans-99"/>
      <use x="540.925781" xlink:href="#DejaVuSans-32"/>
      <use x="572.712891" xlink:href="#DejaVuSans-40"/>
      <use x="611.726562" xlink:href="#DejaVuSans-109"/>
      <use x="709.138672" xlink:href="#DejaVuSans-103"/>
      <use x="772.615234" xlink:href="#DejaVuSans-41"/>
     </g>
    </g>
   </g>
   <g id="line2d_31">
    <path clip-path="url(#pee68aecbef)" d="M 138.436401 333.882274 
L 153.218628 330.423355 
L 168.076782 329.68906 
L 182.991577 324.342873 
L 197.063721 237.537121 
L 211.202148 324.237667 
L 225.028076 326.543613 
L 238.977051 322.769076 
L 252.67041 330.528562 
L 266.524658 312.600586 
L 280.539917 344.574647 
L 294.47937 326.96229 
L 308.352661 325.285434 
L 322.112183 326.333201 
L 341.477905 306.938781 
L 349.394775 326.648819 
L 363.163818 332.624095 
L 377.37793 333.463596 
L 391.336426 334.824834 
L 405.351685 331.052445 
L 419.404785 328.430881 
L 433.486328 330.631621 
L 447.52063 330.842033 
L 461.677979 327.801792 
L 475.797363 328.430881 
L 489.954712 329.270383 
L 504.206787 330.947239 
L 518.250488 330.842033 
L 532.483521 329.270383 
L 546.782959 328.954764 
L 560.845581 329.270383 
L 575.069214 329.68906 
L 589.112915 328.744352 
L 603.336426 328.744352 
L 617.380127 332.310624 
L 631.518555 333.568803 
L 645.334961 334.511363 
L 659.132446 371.309874 
L 672.560547 351.494631 
L 693.943359 336.712103 
L 700.46814 336.922515 
L 717.996582 337.970281 
L 728.546021 336.083013 
L 747.163574 338.075488 
" style="fill:none;stroke:#1f77b4;stroke-linecap:square;stroke-width:1.5;"/>
    <defs>
     <path d="M 0 2.5 
C 0.663008 2.5 1.29895 2.236584 1.767767 1.767767 
C 2.236584 1.29895 2.5 0.663008 2.5 0 
C 2.5 -0.663008 2.236584 -1.29895 1.767767 -1.767767 
C 1.29895 -2.236584 0.663008 -2.5 0 -2.5 
C -0.663008 -2.5 -1.29895 -2.236584 -1.767767 -1.767767 
C -2.236584 -1.29895 -2.5 -0.663008 -2.5 0 
C -2.5 0.663008 -2.236584 1.29895 -1.767767 1.767767 
C -1.29895 2.236584 -0.663008 2.5 0 2.5 
z
" id="mea22e26db1" style="stroke:#1f77b4;"/>
    </defs>
    <g clip-path="url(#pee68aecbef)">
     <use style="fill:#1f77b4;stroke:#1f77b4;" x="138.436401" xlink:href="#mea22e26db1" y="333.882274"/>
     <use style="fill:#1f77b4;stroke:#1f77b4;" x="153.218628" xlink:href="#mea22e26db1" y="330.423355"/>
     <use style="fill:#1f77b4;stroke:#1f77b4;" x="168.076782" xlink:href="#mea22e26db1" y="329.68906"/>
     <use style="fill:#1f77b4;stroke:#1f77b4;" x="182.991577" xlink:href="#mea22e26db1" y="324.342873"/>
     <use style="fill:#1f77b4;stroke:#1f77b4;" x="197.063721" xlink:href="#mea22e26db1" y="237.537121"/>
     <use style="fill:#1f77b4;stroke:#1f77b4;" x="211.202148" xlink:href="#mea22e26db1" y="324.237667"/>
     <use style="fill:#1f77b4;stroke:#1f77b4;" x="225.028076" xlink:href="#mea22e26db1" y="326.543613"/>
     <use style="fill:#1f77b4;stroke:#1f77b4;" x="238.977051" xlink:href="#mea22e26db1" y="322.769076"/>
     <use style="fill:#1f77b4;stroke:#1f77b4;" x="252.67041" xlink:href="#mea22e26db1" y="330.528562"/>
     <use style="fill:#1f77b4;stroke:#1f77b4;" x="266.524658" xlink:href="#mea22e26db1" y="312.600586"/>
     <use style="fill:#1f77b4;stroke:#1f77b4;" x="280.539917" xlink:href="#mea22e26db1" y="344.574647"/>
     <use style="fill:#1f77b4;stroke:#1f77b4;" x="294.47937" xlink:href="#mea22e26db1" y="326.96229"/>
     <use style="fill:#1f77b4;stroke:#1f77b4;" x="308.352661" xlink:href="#mea22e26db1" y="325.285434"/>
     <use style="fill:#1f77b4;stroke:#1f77b4;" x="322.112183" xlink:href="#mea22e26db1" y="326.333201"/>
     <use style="fill:#1f77b4;stroke:#1f77b4;" x="341.477905" xlink:href="#mea22e26db1" y="306.938781"/>
     <use style="fill:#1f77b4;stroke:#1f77b4;" x="349.394775" xlink:href="#mea22e26db1" y="326.648819"/>
     <use style="fill:#1f77b4;stroke:#1f77b4;" x="363.163818" xlink:href="#mea22e26db1" y="332.624095"/>
     <use style="fill:#1f77b4;stroke:#1f77b4;" x="377.37793" xlink:href="#mea22e26db1" y="333.463596"/>
     <use style="fill:#1f77b4;stroke:#1f77b4;" x="391.336426" xlink:href="#mea22e26db1" y="334.824834"/>
     <use style="fill:#1f77b4;stroke:#1f77b4;" x="405.351685" xlink:href="#mea22e26db1" y="331.052445"/>
     <use style="fill:#1f77b4;stroke:#1f77b4;" x="419.404785" xlink:href="#mea22e26db1" y="328.430881"/>
     <use style="fill:#1f77b4;stroke:#1f77b4;" x="433.486328" xlink:href="#mea22e26db1" y="330.631621"/>
     <use style="fill:#1f77b4;stroke:#1f77b4;" x="447.52063" xlink:href="#mea22e26db1" y="330.842033"/>
     <use style="fill:#1f77b4;stroke:#1f77b4;" x="461.677979" xlink:href="#mea22e26db1" y="327.801792"/>
     <use style="fill:#1f77b4;stroke:#1f77b4;" x="475.797363" xlink:href="#mea22e26db1" y="328.430881"/>
     <use style="fill:#1f77b4;stroke:#1f77b4;" x="489.954712" xlink:href="#mea22e26db1" y="329.270383"/>
     <use style="fill:#1f77b4;stroke:#1f77b4;" x="504.206787" xlink:href="#mea22e26db1" y="330.947239"/>
     <use style="fill:#1f77b4;stroke:#1f77b4;" x="518.250488" xlink:href="#mea22e26db1" y="330.842033"/>
     <use style="fill:#1f77b4;stroke:#1f77b4;" x="532.483521" xlink:href="#mea22e26db1" y="329.270383"/>
     <use style="fill:#1f77b4;stroke:#1f77b4;" x="546.782959" xlink:href="#mea22e26db1" y="328.954764"/>
     <use style="fill:#1f77b4;stroke:#1f77b4;" x="560.845581" xlink:href="#mea22e26db1" y="329.270383"/>
     <use style="fill:#1f77b4;stroke:#1f77b4;" x="575.069214" xlink:href="#mea22e26db1" y="329.68906"/>
     <use style="fill:#1f77b4;stroke:#1f77b4;" x="589.112915" xlink:href="#mea22e26db1" y="328.744352"/>
     <use style="fill:#1f77b4;stroke:#1f77b4;" x="603.336426" xlink:href="#mea22e26db1" y="328.744352"/>
     <use style="fill:#1f77b4;stroke:#1f77b4;" x="617.380127" xlink:href="#mea22e26db1" y="332.310624"/>
     <use style="fill:#1f77b4;stroke:#1f77b4;" x="631.518555" xlink:href="#mea22e26db1" y="333.568803"/>
     <use style="fill:#1f77b4;stroke:#1f77b4;" x="645.334961" xlink:href="#mea22e26db1" y="334.511363"/>
     <use style="fill:#1f77b4;stroke:#1f77b4;" x="659.132446" xlink:href="#mea22e26db1" y="371.309874"/>
     <use style="fill:#1f77b4;stroke:#1f77b4;" x="672.560547" xlink:href="#mea22e26db1" y="351.494631"/>
     <use style="fill:#1f77b4;stroke:#1f77b4;" x="693.943359" xlink:href="#mea22e26db1" y="336.712103"/>
     <use style="fill:#1f77b4;stroke:#1f77b4;" x="700.46814" xlink:href="#mea22e26db1" y="336.922515"/>
     <use style="fill:#1f77b4;stroke:#1f77b4;" x="717.996582" xlink:href="#mea22e26db1" y="337.970281"/>
     <use style="fill:#1f77b4;stroke:#1f77b4;" x="728.546021" xlink:href="#mea22e26db1" y="336.083013"/>
     <use style="fill:#1f77b4;stroke:#1f77b4;" x="747.163574" xlink:href="#mea22e26db1" y="338.075488"/>
    </g>
   </g>
   <g id="line2d_32">
    <path clip-path="url(#pee68aecbef)" d="M 138.436401 333.147978 
L 153.218628 334.511363 
L 168.076782 336.712103 
L 182.991577 311.447614 
L 197.063721 346.777533 
L 211.202148 498.370909 
L 225.028076 322.350399 
L 238.977051 245.399665 
L 252.67041 286.496596 
L 266.524658 327.906998 
L 280.539917 368.68831 
L 294.47937 259.134426 
L 308.352661 270.455889 
L 322.112183 269.513328 
L 341.477905 377.390356 
L 349.394775 360.825766 
L 363.163818 330.631621 
L 377.37793 324.445932 
L 391.336426 335.035247 
L 405.351685 335.664336 
L 419.404785 335.979954 
L 433.486328 335.453924 
L 447.52063 333.147978 
L 461.677979 331.784593 
L 475.797363 331.681534 
L 489.954712 334.824834 
L 504.206787 333.882274 
L 518.250488 335.453924 
L 532.483521 331.155504 
L 546.782959 342.268701 
L 560.845581 339.544079 
L 575.069214 333.777068 
L 589.112915 335.664336 
L 603.336426 336.609044 
L 617.380127 333.777068 
L 631.518555 415.026222 
L 645.334961 431.799077 
L 659.132446 372.776318 
L 672.560547 382.002247 
L 693.943359 334.721775 
L 700.46814 333.35839 
L 717.996582 332.413683 
L 728.546021 334.721775 
L 747.163574 332.834507 
" style="fill:none;stroke:#ff7f0e;stroke-linecap:square;stroke-width:1.5;"/>
    <defs>
     <path d="M 0 2.5 
C 0.663008 2.5 1.29895 2.236584 1.767767 1.767767 
C 2.236584 1.29895 2.5 0.663008 2.5 0 
C 2.5 -0.663008 2.236584 -1.29895 1.767767 -1.767767 
C 1.29895 -2.236584 0.663008 -2.5 0 -2.5 
C -0.663008 -2.5 -1.29895 -2.236584 -1.767767 -1.767767 
C -2.236584 -1.29895 -2.5 -0.663008 -2.5 0 
C -2.5 0.663008 -2.236584 1.29895 -1.767767 1.767767 
C -1.29895 2.236584 -0.663008 2.5 0 2.5 
z
" id="m9fdc78ca62" style="stroke:#ff7f0e;"/>
    </defs>
    <g clip-path="url(#pee68aecbef)">
     <use style="fill:#ff7f0e;stroke:#ff7f0e;" x="138.436401" xlink:href="#m9fdc78ca62" y="333.147978"/>
     <use style="fill:#ff7f0e;stroke:#ff7f0e;" x="153.218628" xlink:href="#m9fdc78ca62" y="334.511363"/>
     <use style="fill:#ff7f0e;stroke:#ff7f0e;" x="168.076782" xlink:href="#m9fdc78ca62" y="336.712103"/>
     <use style="fill:#ff7f0e;stroke:#ff7f0e;" x="182.991577" xlink:href="#m9fdc78ca62" y="311.447614"/>
     <use style="fill:#ff7f0e;stroke:#ff7f0e;" x="197.063721" xlink:href="#m9fdc78ca62" y="346.777533"/>
     <use style="fill:#ff7f0e;stroke:#ff7f0e;" x="211.202148" xlink:href="#m9fdc78ca62" y="498.370909"/>
     <use style="fill:#ff7f0e;stroke:#ff7f0e;" x="225.028076" xlink:href="#m9fdc78ca62" y="322.350399"/>
     <use style="fill:#ff7f0e;stroke:#ff7f0e;" x="238.977051" xlink:href="#m9fdc78ca62" y="245.399665"/>
     <use style="fill:#ff7f0e;stroke:#ff7f0e;" x="252.67041" xlink:href="#m9fdc78ca62" y="286.496596"/>
     <use style="fill:#ff7f0e;stroke:#ff7f0e;" x="266.524658" xlink:href="#m9fdc78ca62" y="327.906998"/>
     <use style="fill:#ff7f0e;stroke:#ff7f0e;" x="280.539917" xlink:href="#m9fdc78ca62" y="368.68831"/>
     <use style="fill:#ff7f0e;stroke:#ff7f0e;" x="294.47937" xlink:href="#m9fdc78ca62" y="259.134426"/>
     <use style="fill:#ff7f0e;stroke:#ff7f0e;" x="308.352661" xlink:href="#m9fdc78ca62" y="270.455889"/>
     <use style="fill:#ff7f0e;stroke:#ff7f0e;" x="322.112183" xlink:href="#m9fdc78ca62" y="269.513328"/>
     <use style="fill:#ff7f0e;stroke:#ff7f0e;" x="341.477905" xlink:href="#m9fdc78ca62" y="377.390356"/>
     <use style="fill:#ff7f0e;stroke:#ff7f0e;" x="349.394775" xlink:href="#m9fdc78ca62" y="360.825766"/>
     <use style="fill:#ff7f0e;stroke:#ff7f0e;" x="363.163818" xlink:href="#m9fdc78ca62" y="330.631621"/>
     <use style="fill:#ff7f0e;stroke:#ff7f0e;" x="377.37793" xlink:href="#m9fdc78ca62" y="324.445932"/>
     <use style="fill:#ff7f0e;stroke:#ff7f0e;" x="391.336426" xlink:href="#m9fdc78ca62" y="335.035247"/>
     <use style="fill:#ff7f0e;stroke:#ff7f0e;" x="405.351685" xlink:href="#m9fdc78ca62" y="335.664336"/>
     <use style="fill:#ff7f0e;stroke:#ff7f0e;" x="419.404785" xlink:href="#m9fdc78ca62" y="335.979954"/>
     <use style="fill:#ff7f0e;stroke:#ff7f0e;" x="433.486328" xlink:href="#m9fdc78ca62" y="335.453924"/>
     <use style="fill:#ff7f0e;stroke:#ff7f0e;" x="447.52063" xlink:href="#m9fdc78ca62" y="333.147978"/>
     <use style="fill:#ff7f0e;stroke:#ff7f0e;" x="461.677979" xlink:href="#m9fdc78ca62" y="331.784593"/>
     <use style="fill:#ff7f0e;stroke:#ff7f0e;" x="475.797363" xlink:href="#m9fdc78ca62" y="331.681534"/>
     <use style="fill:#ff7f0e;stroke:#ff7f0e;" x="489.954712" xlink:href="#m9fdc78ca62" y="334.824834"/>
     <use style="fill:#ff7f0e;stroke:#ff7f0e;" x="504.206787" xlink:href="#m9fdc78ca62" y="333.882274"/>
     <use style="fill:#ff7f0e;stroke:#ff7f0e;" x="518.250488" xlink:href="#m9fdc78ca62" y="335.453924"/>
     <use style="fill:#ff7f0e;stroke:#ff7f0e;" x="532.483521" xlink:href="#m9fdc78ca62" y="331.155504"/>
     <use style="fill:#ff7f0e;stroke:#ff7f0e;" x="546.782959" xlink:href="#m9fdc78ca62" y="342.268701"/>
     <use style="fill:#ff7f0e;stroke:#ff7f0e;" x="560.845581" xlink:href="#m9fdc78ca62" y="339.544079"/>
     <use style="fill:#ff7f0e;stroke:#ff7f0e;" x="575.069214" xlink:href="#m9fdc78ca62" y="333.777068"/>
     <use style="fill:#ff7f0e;stroke:#ff7f0e;" x="589.112915" xlink:href="#m9fdc78ca62" y="335.664336"/>
     <use style="fill:#ff7f0e;stroke:#ff7f0e;" x="603.336426" xlink:href="#m9fdc78ca62" y="336.609044"/>
     <use style="fill:#ff7f0e;stroke:#ff7f0e;" x="617.380127" xlink:href="#m9fdc78ca62" y="333.777068"/>
     <use style="fill:#ff7f0e;stroke:#ff7f0e;" x="631.518555" xlink:href="#m9fdc78ca62" y="415.026222"/>
     <use style="fill:#ff7f0e;stroke:#ff7f0e;" x="645.334961" xlink:href="#m9fdc78ca62" y="431.799077"/>
     <use style="fill:#ff7f0e;stroke:#ff7f0e;" x="659.132446" xlink:href="#m9fdc78ca62" y="372.776318"/>
     <use style="fill:#ff7f0e;stroke:#ff7f0e;" x="672.560547" xlink:href="#m9fdc78ca62" y="382.002247"/>
     <use style="fill:#ff7f0e;stroke:#ff7f0e;" x="693.943359" xlink:href="#m9fdc78ca62" y="334.721775"/>
     <use style="fill:#ff7f0e;stroke:#ff7f0e;" x="700.46814" xlink:href="#m9fdc78ca62" y="333.35839"/>
     <use style="fill:#ff7f0e;stroke:#ff7f0e;" x="717.996582" xlink:href="#m9fdc78ca62" y="332.413683"/>
     <use style="fill:#ff7f0e;stroke:#ff7f0e;" x="728.546021" xlink:href="#m9fdc78ca62" y="334.721775"/>
     <use style="fill:#ff7f0e;stroke:#ff7f0e;" x="747.163574" xlink:href="#m9fdc78ca62" y="332.834507"/>
    </g>
   </g>
   <g id="line2d_33">
    <path clip-path="url(#pee68aecbef)" d="M 138.436401 115.822272 
L 153.218628 114.248475 
L 168.076782 115.717066 
L 182.991577 110.789557 
L 197.063721 134.795867 
L 211.202148 191.409621 
L 225.028076 109.739643 
L 238.977051 116.870039 
L 252.67041 117.707393 
L 266.524658 104.814281 
L 280.539917 156.287967 
L 294.47937 142.134528 
L 308.352661 136.264458 
L 322.112183 151.465663 
L 341.477905 141.926263 
L 349.394775 97.789091 
L 363.163818 103.135278 
L 377.37793 114.772358 
L 391.336426 112.047736 
L 405.351685 114.877564 
L 419.404785 113.619386 
L 433.486328 115.296242 
L 447.52063 115.401448 
L 461.677979 115.296242 
L 475.797363 117.393922 
L 489.954712 116.346155 
L 504.206787 115.087977 
L 518.250488 116.240949 
L 532.483521 117.078304 
L 546.782959 115.925331 
L 560.845581 117.078304 
L 575.069214 115.193183 
L 589.112915 117.288716 
L 603.336426 115.506654 
L 617.380127 112.676825 
L 631.518555 136.47487 
L 645.334961 133.434629 
L 659.132446 108.378405 
L 672.560547 122.950521 
L 693.943359 113.724592 
L 700.46814 113.619386 
L 717.996582 113.829798 
L 728.546021 114.248475 
L 747.163574 114.458887 
" style="fill:none;stroke:#2ca02c;stroke-linecap:square;stroke-width:1.5;"/>
    <defs>
     <path d="M 0 2.5 
C 0.663008 2.5 1.29895 2.236584 1.767767 1.767767 
C 2.236584 1.29895 2.5 0.663008 2.5 0 
C 2.5 -0.663008 2.236584 -1.29895 1.767767 -1.767767 
C 1.29895 -2.236584 0.663008 -2.5 0 -2.5 
C -0.663008 -2.5 -1.29895 -2.236584 -1.767767 -1.767767 
C -2.236584 -1.29895 -2.5 -0.663008 -2.5 0 
C -2.5 0.663008 -2.236584 1.29895 -1.767767 1.767767 
C -1.29895 2.236584 -0.663008 2.5 0 2.5 
z
" id="m90b1ee23c8" style="stroke:#2ca02c;"/>
    </defs>
    <g clip-path="url(#pee68aecbef)">
     <use style="fill:#2ca02c;stroke:#2ca02c;" x="138.436401" xlink:href="#m90b1ee23c8" y="115.822272"/>
     <use style="fill:#2ca02c;stroke:#2ca02c;" x="153.218628" xlink:href="#m90b1ee23c8" y="114.248475"/>
     <use style="fill:#2ca02c;stroke:#2ca02c;" x="168.076782" xlink:href="#m90b1ee23c8" y="115.717066"/>
     <use style="fill:#2ca02c;stroke:#2ca02c;" x="182.991577" xlink:href="#m90b1ee23c8" y="110.789557"/>
     <use style="fill:#2ca02c;stroke:#2ca02c;" x="197.063721" xlink:href="#m90b1ee23c8" y="134.795867"/>
     <use style="fill:#2ca02c;stroke:#2ca02c;" x="211.202148" xlink:href="#m90b1ee23c8" y="191.409621"/>
     <use style="fill:#2ca02c;stroke:#2ca02c;" x="225.028076" xlink:href="#m90b1ee23c8" y="109.739643"/>
     <use style="fill:#2ca02c;stroke:#2ca02c;" x="238.977051" xlink:href="#m90b1ee23c8" y="116.870039"/>
     <use style="fill:#2ca02c;stroke:#2ca02c;" x="252.67041" xlink:href="#m90b1ee23c8" y="117.707393"/>
     <use style="fill:#2ca02c;stroke:#2ca02c;" x="266.524658" xlink:href="#m90b1ee23c8" y="104.814281"/>
     <use style="fill:#2ca02c;stroke:#2ca02c;" x="280.539917" xlink:href="#m90b1ee23c8" y="156.287967"/>
     <use style="fill:#2ca02c;stroke:#2ca02c;" x="294.47937" xlink:href="#m90b1ee23c8" y="142.134528"/>
     <use style="fill:#2ca02c;stroke:#2ca02c;" x="308.352661" xlink:href="#m90b1ee23c8" y="136.264458"/>
     <use style="fill:#2ca02c;stroke:#2ca02c;" x="322.112183" xlink:href="#m90b1ee23c8" y="151.465663"/>
     <use style="fill:#2ca02c;stroke:#2ca02c;" x="341.477905" xlink:href="#m90b1ee23c8" y="141.926263"/>
     <use style="fill:#2ca02c;stroke:#2ca02c;" x="349.394775" xlink:href="#m90b1ee23c8" y="97.789091"/>
     <use style="fill:#2ca02c;stroke:#2ca02c;" x="363.163818" xlink:href="#m90b1ee23c8" y="103.135278"/>
     <use style="fill:#2ca02c;stroke:#2ca02c;" x="377.37793" xlink:href="#m90b1ee23c8" y="114.772358"/>
     <use style="fill:#2ca02c;stroke:#2ca02c;" x="391.336426" xlink:href="#m90b1ee23c8" y="112.047736"/>
     <use style="fill:#2ca02c;stroke:#2ca02c;" x="405.351685" xlink:href="#m90b1ee23c8" y="114.877564"/>
     <use style="fill:#2ca02c;stroke:#2ca02c;" x="419.404785" xlink:href="#m90b1ee23c8" y="113.619386"/>
     <use style="fill:#2ca02c;stroke:#2ca02c;" x="433.486328" xlink:href="#m90b1ee23c8" y="115.296242"/>
     <use style="fill:#2ca02c;stroke:#2ca02c;" x="447.52063" xlink:href="#m90b1ee23c8" y="115.401448"/>
     <use style="fill:#2ca02c;stroke:#2ca02c;" x="461.677979" xlink:href="#m90b1ee23c8" y="115.296242"/>
     <use style="fill:#2ca02c;stroke:#2ca02c;" x="475.797363" xlink:href="#m90b1ee23c8" y="117.393922"/>
     <use style="fill:#2ca02c;stroke:#2ca02c;" x="489.954712" xlink:href="#m90b1ee23c8" y="116.346155"/>
     <use style="fill:#2ca02c;stroke:#2ca02c;" x="504.206787" xlink:href="#m90b1ee23c8" y="115.087977"/>
     <use style="fill:#2ca02c;stroke:#2ca02c;" x="518.250488" xlink:href="#m90b1ee23c8" y="116.240949"/>
     <use style="fill:#2ca02c;stroke:#2ca02c;" x="532.483521" xlink:href="#m90b1ee23c8" y="117.078304"/>
     <use style="fill:#2ca02c;stroke:#2ca02c;" x="546.782959" xlink:href="#m90b1ee23c8" y="115.925331"/>
     <use style="fill:#2ca02c;stroke:#2ca02c;" x="560.845581" xlink:href="#m90b1ee23c8" y="117.078304"/>
     <use style="fill:#2ca02c;stroke:#2ca02c;" x="575.069214" xlink:href="#m90b1ee23c8" y="115.193183"/>
     <use style="fill:#2ca02c;stroke:#2ca02c;" x="589.112915" xlink:href="#m90b1ee23c8" y="117.288716"/>
     <use style="fill:#2ca02c;stroke:#2ca02c;" x="603.336426" xlink:href="#m90b1ee23c8" y="115.506654"/>
     <use style="fill:#2ca02c;stroke:#2ca02c;" x="617.380127" xlink:href="#m90b1ee23c8" y="112.676825"/>
     <use style="fill:#2ca02c;stroke:#2ca02c;" x="631.518555" xlink:href="#m90b1ee23c8" y="136.47487"/>
     <use style="fill:#2ca02c;stroke:#2ca02c;" x="645.334961" xlink:href="#m90b1ee23c8" y="133.434629"/>
     <use style="fill:#2ca02c;stroke:#2ca02c;" x="659.132446" xlink:href="#m90b1ee23c8" y="108.378405"/>
     <use style="fill:#2ca02c;stroke:#2ca02c;" x="672.560547" xlink:href="#m90b1ee23c8" y="122.950521"/>
     <use style="fill:#2ca02c;stroke:#2ca02c;" x="693.943359" xlink:href="#m90b1ee23c8" y="113.724592"/>
     <use style="fill:#2ca02c;stroke:#2ca02c;" x="700.46814" xlink:href="#m90b1ee23c8" y="113.619386"/>
     <use style="fill:#2ca02c;stroke:#2ca02c;" x="717.996582" xlink:href="#m90b1ee23c8" y="113.829798"/>
     <use style="fill:#2ca02c;stroke:#2ca02c;" x="728.546021" xlink:href="#m90b1ee23c8" y="114.248475"/>
     <use style="fill:#2ca02c;stroke:#2ca02c;" x="747.163574" xlink:href="#m90b1ee23c8" y="114.458887"/>
    </g>
   </g>
   <g id="patch_3">
    <path d="M 108 518.4 
L 108 77.76 
" style="fill:none;stroke:#000000;stroke-linecap:square;stroke-linejoin:miter;stroke-width:0.8;"/>
   </g>
   <g id="patch_4">
    <path d="M 777.6 518.4 
L 777.6 77.76 
" style="fill:none;stroke:#000000;stroke-linecap:square;stroke-linejoin:miter;stroke-width:0.8;"/>
   </g>
   <g id="patch_5">
    <path d="M 108 518.4 
L 777.599976 518.4 
" style="fill:none;stroke:#000000;stroke-linecap:square;stroke-linejoin:miter;stroke-width:0.8;"/>
   </g>
   <g id="patch_6">
    <path d="M 108 77.76 
L 777.599976 77.76 
" style="fill:none;stroke:#000000;stroke-linecap:square;stroke-linejoin:miter;stroke-width:0.8;"/>
   </g>
   <g id="text_18">
    <!-- IMU Scaled Acc (mg) -->
    <defs>
     <path d="M 9.8125 72.90625 
L 19.671875 72.90625 
L 19.671875 0 
L 9.8125 0 
z
" id="DejaVuSans-73"/>
     <path d="M 9.8125 72.90625 
L 24.515625 72.90625 
L 43.109375 23.296875 
L 61.8125 72.90625 
L 76.515625 72.90625 
L 76.515625 0 
L 66.890625 0 
L 66.890625 64.015625 
L 48.09375 14.015625 
L 38.1875 14.015625 
L 19.390625 64.015625 
L 19.390625 0 
L 9.8125 0 
z
" id="DejaVuSans-77"/>
     <path d="M 8.6875 72.90625 
L 18.609375 72.90625 
L 18.609375 28.609375 
Q 18.609375 16.890625 22.84375 11.734375 
Q 27.09375 6.59375 36.625 6.59375 
Q 46.09375 6.59375 50.34375 11.734375 
Q 54.59375 16.890625 54.59375 28.609375 
L 54.59375 72.90625 
L 64.5 72.90625 
L 64.5 27.390625 
Q 64.5 13.140625 57.4375 5.859375 
Q 50.390625 -1.421875 36.625 -1.421875 
Q 22.796875 -1.421875 15.734375 5.859375 
Q 8.6875 13.140625 8.6875 27.390625 
z
" id="DejaVuSans-85"/>
    </defs>
    <g transform="translate(380.855625 71.76)scale(0.12 -0.12)">
     <use xlink:href="#DejaVuSans-73"/>
     <use x="29.492188" xlink:href="#DejaVuSans-77"/>
     <use x="115.771484" xlink:href="#DejaVuSans-85"/>
     <use x="188.964844" xlink:href="#DejaVuSans-32"/>
     <use x="220.751953" xlink:href="#DejaVuSans-83"/>
     <use x="284.228516" xlink:href="#DejaVuSans-99"/>
     <use x="339.208984" xlink:href="#DejaVuSans-97"/>
     <use x="400.488281" xlink:href="#DejaVuSans-108"/>
     <use x="428.271484" xlink:href="#DejaVuSans-101"/>
     <use x="489.794922" xlink:href="#DejaVuSans-100"/>
     <use x="553.271484" xlink:href="#DejaVuSans-32"/>
     <use x="585.058594" xlink:href="#DejaVuSans-65"/>
     <use x="651.716797" xlink:href="#DejaVuSans-99"/>
     <use x="706.697266" xlink:href="#DejaVuSans-99"/>
     <use x="761.677734" xlink:href="#DejaVuSans-32"/>
     <use x="793.464844" xlink:href="#DejaVuSans-40"/>
     <use x="832.478516" xlink:href="#DejaVuSans-109"/>
     <use x="929.890625" xlink:href="#DejaVuSans-103"/>
     <use x="993.367188" xlink:href="#DejaVuSans-41"/>
    </g>
   </g>
   <g id="legend_1">
    <g id="patch_7">
     <path d="M 641.940625 513.4 
L 770.6 513.4 
Q 772.6 513.4 772.6 511.4 
L 772.6 467.53125 
Q 772.6 465.53125 770.6 465.53125 
L 641.940625 465.53125 
Q 639.940625 465.53125 639.940625 467.53125 
L 639.940625 511.4 
Q 639.940625 513.4 641.940625 513.4 
z
" style="fill:#ffffff;opacity:0.8;stroke:#cccccc;stroke-linejoin:miter;"/>
    </g>
    <g id="line2d_34">
     <path d="M 643.940625 473.629687 
L 663.940625 473.629687 
" style="fill:none;stroke:#1f77b4;stroke-linecap:square;stroke-width:1.5;"/>
    </g>
    <g id="line2d_35">
     <g>
      <use style="fill:#1f77b4;stroke:#1f77b4;" x="653.940625" xlink:href="#mea22e26db1" y="473.629687"/>
     </g>
    </g>
    <g id="text_19">
     <!-- Scaled_Acc_X_(mg) -->
     <defs>
      <path d="M 50.984375 -16.609375 
L 50.984375 -23.578125 
L -0.984375 -23.578125 
L -0.984375 -16.609375 
z
" id="DejaVuSans-95"/>
      <path d="M 6.296875 72.90625 
L 16.890625 72.90625 
L 35.015625 45.796875 
L 53.21875 72.90625 
L 63.8125 72.90625 
L 40.375 37.890625 
L 65.375 0 
L 54.78125 0 
L 34.28125 31 
L 13.625 0 
L 2.984375 0 
L 29 38.921875 
z
" id="DejaVuSans-88"/>
     </defs>
     <g transform="translate(671.940625 477.129687)scale(0.1 -0.1)">
      <use xlink:href="#DejaVuSans-83"/>
      <use x="63.476562" xlink:href="#DejaVuSans-99"/>
      <use x="118.457031" xlink:href="#DejaVuSans-97"/>
      <use x="179.736328" xlink:href="#DejaVuSans-108"/>
      <use x="207.519531" xlink:href="#DejaVuSans-101"/>
      <use x="269.042969" xlink:href="#DejaVuSans-100"/>
      <use x="332.519531" xlink:href="#DejaVuSans-95"/>
      <use x="382.519531" xlink:href="#DejaVuSans-65"/>
      <use x="449.177734" xlink:href="#DejaVuSans-99"/>
      <use x="504.158203" xlink:href="#DejaVuSans-99"/>
      <use x="559.138672" xlink:href="#DejaVuSans-95"/>
      <use x="609.138672" xlink:href="#DejaVuSans-88"/>
      <use x="677.644531" xlink:href="#DejaVuSans-95"/>
      <use x="727.644531" xlink:href="#DejaVuSans-40"/>
      <use x="766.658203" xlink:href="#DejaVuSans-109"/>
      <use x="864.070312" xlink:href="#DejaVuSans-103"/>
      <use x="927.546875" xlink:href="#DejaVuSans-41"/>
     </g>
    </g>
    <g id="line2d_36">
     <path d="M 643.940625 488.585937 
L 663.940625 488.585937 
" style="fill:none;stroke:#ff7f0e;stroke-linecap:square;stroke-width:1.5;"/>
    </g>
    <g id="line2d_37">
     <g>
      <use style="fill:#ff7f0e;stroke:#ff7f0e;" x="653.940625" xlink:href="#m9fdc78ca62" y="488.585937"/>
     </g>
    </g>
    <g id="text_20">
     <!-- Scaled_Acc_Y_(mg) -->
     <defs>
      <path d="M -0.203125 72.90625 
L 10.40625 72.90625 
L 30.609375 42.921875 
L 50.6875 72.90625 
L 61.28125 72.90625 
L 35.5 34.71875 
L 35.5 0 
L 25.59375 0 
L 25.59375 34.71875 
z
" id="DejaVuSans-89"/>
     </defs>
     <g transform="translate(671.940625 492.085937)scale(0.1 -0.1)">
      <use xlink:href="#DejaVuSans-83"/>
      <use x="63.476562" xlink:href="#DejaVuSans-99"/>
      <use x="118.457031" xlink:href="#DejaVuSans-97"/>
      <use x="179.736328" xlink:href="#DejaVuSans-108"/>
      <use x="207.519531" xlink:href="#DejaVuSans-101"/>
      <use x="269.042969" xlink:href="#DejaVuSans-100"/>
      <use x="332.519531" xlink:href="#DejaVuSans-95"/>
      <use x="382.519531" xlink:href="#DejaVuSans-65"/>
      <use x="449.177734" xlink:href="#DejaVuSans-99"/>
      <use x="504.158203" xlink:href="#DejaVuSans-99"/>
      <use x="559.138672" xlink:href="#DejaVuSans-95"/>
      <use x="609.138672" xlink:href="#DejaVuSans-89"/>
      <use x="670.222656" xlink:href="#DejaVuSans-95"/>
      <use x="720.222656" xlink:href="#DejaVuSans-40"/>
      <use x="759.236328" xlink:href="#DejaVuSans-109"/>
      <use x="856.648438" xlink:href="#DejaVuSans-103"/>
      <use x="920.125" xlink:href="#DejaVuSans-41"/>
     </g>
    </g>
    <g id="line2d_38">
     <path d="M 643.940625 503.542187 
L 663.940625 503.542187 
" style="fill:none;stroke:#2ca02c;stroke-linecap:square;stroke-width:1.5;"/>
    </g>
    <g id="line2d_39">
     <g>
      <use style="fill:#2ca02c;stroke:#2ca02c;" x="653.940625" xlink:href="#m90b1ee23c8" y="503.542187"/>
     </g>
    </g>
    <g id="text_21">
     <!-- Scaled_Acc_Z_(mg) -->
     <defs>
      <path d="M 5.609375 72.90625 
L 62.890625 72.90625 
L 62.890625 65.375 
L 16.796875 8.296875 
L 64.015625 8.296875 
L 64.015625 0 
L 4.5 0 
L 4.5 7.515625 
L 50.59375 64.59375 
L 5.609375 64.59375 
z
" id="DejaVuSans-90"/>
     </defs>
     <g transform="translate(671.940625 507.042187)scale(0.1 -0.1)">
      <use xlink:href="#DejaVuSans-83"/>
      <use x="63.476562" xlink:href="#DejaVuSans-99"/>
      <use x="118.457031" xlink:href="#DejaVuSans-97"/>
      <use x="179.736328" xlink:href="#DejaVuSans-108"/>
      <use x="207.519531" xlink:href="#DejaVuSans-101"/>
      <use x="269.042969" xlink:href="#DejaVuSans-100"/>
      <use x="332.519531" xlink:href="#DejaVuSans-95"/>
      <use x="382.519531" xlink:href="#DejaVuSans-65"/>
      <use x="449.177734" xlink:href="#DejaVuSans-99"/>
      <use x="504.158203" xlink:href="#DejaVuSans-99"/>
      <use x="559.138672" xlink:href="#DejaVuSans-95"/>
      <use x="609.138672" xlink:href="#DejaVuSans-90"/>
      <use x="677.644531" xlink:href="#DejaVuSans-95"/>
      <use x="727.644531" xlink:href="#DejaVuSans-40"/>
      <use x="766.658203" xlink:href="#DejaVuSans-109"/>
      <use x="864.070312" xlink:href="#DejaVuSans-103"/>
      <use x="927.546875" xlink:href="#DejaVuSans-41"/>
     </g>
    </g>
   </g>
  </g>
 </g>
 <defs>
  <clipPath id="pee68aecbef">
   <rect height="440.64" width="669.6" x="108" y="77.76"/>
  </clipPath>
 </defs>
</svg>
