<?xml version="1.0" encoding="utf-8" standalone="no"?>
<!DOCTYPE svg PUBLIC "-//W3C//DTD SVG 1.1//EN"
  "http://www.w3.org/Graphics/SVG/1.1/DTD/svg11.dtd">
<!-- Created with matplotlib (https://matplotlib.org/) -->
<svg height="648pt" version="1.1" viewBox="0 0 864 648" width="864pt" xmlns="http://www.w3.org/2000/svg" xmlns:xlink="http://www.w3.org/1999/xlink">
 <defs>
  <style type="text/css">
*{stroke-linecap:butt;stroke-linejoin:round;}
  </style>
 </defs>
 <g id="figure_1">
  <g id="patch_1">
   <path d="M 0 648 
L 864 648 
L 864 0 
L 0 0 
z
" style="fill:#ffffff;"/>
  </g>
  <g id="axes_1">
   <g id="patch_2">
    <path d="M 108 518.4 
L 777.6 518.4 
L 777.6 77.76 
L 108 77.76 
z
" style="fill:#ffffff;"/>
   </g>
   <g id="matplotlib.axis_1">
    <g id="xtick_1">
     <g id="line2d_1">
      <path clip-path="url(#pead16363f1)" d="M 117.37085 518.4 
L 117.37085 77.76 
" style="fill:none;stroke:#b0b0b0;stroke-linecap:square;stroke-width:0.8;"/>
     </g>
     <g id="line2d_2">
      <defs>
       <path d="M 0 0 
L 0 3.5 
" id="mc2de2334e7" style="stroke:#000000;stroke-width:0.8;"/>
      </defs>
      <g>
       <use style="stroke:#000000;stroke-width:0.8;" x="117.37085" xlink:href="#mc2de2334e7" y="518.4"/>
      </g>
     </g>
     <g id="text_1">
      <!-- 00:00:00 -->
      <defs>
       <path d="M 31.78125 66.40625 
Q 24.171875 66.40625 20.328125 58.90625 
Q 16.5 51.421875 16.5 36.375 
Q 16.5 21.390625 20.328125 13.890625 
Q 24.171875 6.390625 31.78125 6.390625 
Q 39.453125 6.390625 43.28125 13.890625 
Q 47.125 21.390625 47.125 36.375 
Q 47.125 51.421875 43.28125 58.90625 
Q 39.453125 66.40625 31.78125 66.40625 
z
M 31.78125 74.21875 
Q 44.046875 74.21875 50.515625 64.515625 
Q 56.984375 54.828125 56.984375 36.375 
Q 56.984375 17.96875 50.515625 8.265625 
Q 44.046875 -1.421875 31.78125 -1.421875 
Q 19.53125 -1.421875 13.0625 8.265625 
Q 6.59375 17.96875 6.59375 36.375 
Q 6.59375 54.828125 13.0625 64.515625 
Q 19.53125 74.21875 31.78125 74.21875 
z
" id="DejaVuSans-48"/>
       <path d="M 11.71875 12.40625 
L 22.015625 12.40625 
L 22.015625 0 
L 11.71875 0 
z
M 11.71875 51.703125 
L 22.015625 51.703125 
L 22.015625 39.3125 
L 11.71875 39.3125 
z
" id="DejaVuSans-58"/>
      </defs>
      <g transform="translate(77.43564 554.43669)rotate(-30)scale(0.1 -0.1)">
       <use xlink:href="#DejaVuSans-48"/>
       <use x="63.623047" xlink:href="#DejaVuSans-48"/>
       <use x="127.246094" xlink:href="#DejaVuSans-58"/>
       <use x="160.9375" xlink:href="#DejaVuSans-48"/>
       <use x="224.560547" xlink:href="#DejaVuSans-48"/>
       <use x="288.183594" xlink:href="#DejaVuSans-58"/>
       <use x="321.875" xlink:href="#DejaVuSans-48"/>
       <use x="385.498047" xlink:href="#DejaVuSans-48"/>
      </g>
     </g>
    </g>
    <g id="xtick_2">
     <g id="line2d_3">
      <path clip-path="url(#pead16363f1)" d="M 207.897339 518.4 
L 207.897339 77.76 
" style="fill:none;stroke:#b0b0b0;stroke-linecap:square;stroke-width:0.8;"/>
     </g>
     <g id="line2d_4">
      <g>
       <use style="stroke:#000000;stroke-width:0.8;" x="207.897339" xlink:href="#mc2de2334e7" y="518.4"/>
      </g>
     </g>
     <g id="text_2">
      <!-- 00:00:10 -->
      <defs>
       <path d="M 12.40625 8.296875 
L 28.515625 8.296875 
L 28.515625 63.921875 
L 10.984375 60.40625 
L 10.984375 69.390625 
L 28.421875 72.90625 
L 38.28125 72.90625 
L 38.28125 8.296875 
L 54.390625 8.296875 
L 54.390625 0 
L 12.40625 0 
z
" id="DejaVuSans-49"/>
      </defs>
      <g transform="translate(167.962129 554.43669)rotate(-30)scale(0.1 -0.1)">
       <use xlink:href="#DejaVuSans-48"/>
       <use x="63.623047" xlink:href="#DejaVuSans-48"/>
       <use x="127.246094" xlink:href="#DejaVuSans-58"/>
       <use x="160.9375" xlink:href="#DejaVuSans-48"/>
       <use x="224.560547" xlink:href="#DejaVuSans-48"/>
       <use x="288.183594" xlink:href="#DejaVuSans-58"/>
       <use x="321.875" xlink:href="#DejaVuSans-49"/>
       <use x="385.498047" xlink:href="#DejaVuSans-48"/>
      </g>
     </g>
    </g>
    <g id="xtick_3">
     <g id="line2d_5">
      <path clip-path="url(#pead16363f1)" d="M 298.423828 518.4 
L 298.423828 77.76 
" style="fill:none;stroke:#b0b0b0;stroke-linecap:square;stroke-width:0.8;"/>
     </g>
     <g id="line2d_6">
      <g>
       <use style="stroke:#000000;stroke-width:0.8;" x="298.423828" xlink:href="#mc2de2334e7" y="518.4"/>
      </g>
     </g>
     <g id="text_3">
      <!-- 00:00:20 -->
      <defs>
       <path d="M 19.1875 8.296875 
L 53.609375 8.296875 
L 53.609375 0 
L 7.328125 0 
L 7.328125 8.296875 
Q 12.9375 14.109375 22.625 23.890625 
Q 32.328125 33.6875 34.8125 36.53125 
Q 39.546875 41.84375 41.421875 45.53125 
Q 43.3125 49.21875 43.3125 52.78125 
Q 43.3125 58.59375 39.234375 62.25 
Q 35.15625 65.921875 28.609375 65.921875 
Q 23.96875 65.921875 18.8125 64.3125 
Q 13.671875 62.703125 7.8125 59.421875 
L 7.8125 69.390625 
Q 13.765625 71.78125 18.9375 73 
Q 24.125 74.21875 28.421875 74.21875 
Q 39.75 74.21875 46.484375 68.546875 
Q 53.21875 62.890625 53.21875 53.421875 
Q 53.21875 48.921875 51.53125 44.890625 
Q 49.859375 40.875 45.40625 35.40625 
Q 44.1875 33.984375 37.640625 27.21875 
Q 31.109375 20.453125 19.1875 8.296875 
z
" id="DejaVuSans-50"/>
      </defs>
      <g transform="translate(258.488618 554.43669)rotate(-30)scale(0.1 -0.1)">
       <use xlink:href="#DejaVuSans-48"/>
       <use x="63.623047" xlink:href="#DejaVuSans-48"/>
       <use x="127.246094" xlink:href="#DejaVuSans-58"/>
       <use x="160.9375" xlink:href="#DejaVuSans-48"/>
       <use x="224.560547" xlink:href="#DejaVuSans-48"/>
       <use x="288.183594" xlink:href="#DejaVuSans-58"/>
       <use x="321.875" xlink:href="#DejaVuSans-50"/>
       <use x="385.498047" xlink:href="#DejaVuSans-48"/>
      </g>
     </g>
    </g>
    <g id="xtick_4">
     <g id="line2d_7">
      <path clip-path="url(#pead16363f1)" d="M 388.950317 518.4 
L 388.950317 77.76 
" style="fill:none;stroke:#b0b0b0;stroke-linecap:square;stroke-width:0.8;"/>
     </g>
     <g id="line2d_8">
      <g>
       <use style="stroke:#000000;stroke-width:0.8;" x="388.950317" xlink:href="#mc2de2334e7" y="518.4"/>
      </g>
     </g>
     <g id="text_4">
      <!-- 00:00:30 -->
      <defs>
       <path d="M 40.578125 39.3125 
Q 47.65625 37.796875 51.625 33 
Q 55.609375 28.21875 55.609375 21.1875 
Q 55.609375 10.40625 48.1875 4.484375 
Q 40.765625 -1.421875 27.09375 -1.421875 
Q 22.515625 -1.421875 17.65625 -0.515625 
Q 12.796875 0.390625 7.625 2.203125 
L 7.625 11.71875 
Q 11.71875 9.328125 16.59375 8.109375 
Q 21.484375 6.890625 26.8125 6.890625 
Q 36.078125 6.890625 40.9375 10.546875 
Q 45.796875 14.203125 45.796875 21.1875 
Q 45.796875 27.640625 41.28125 31.265625 
Q 36.765625 34.90625 28.71875 34.90625 
L 20.21875 34.90625 
L 20.21875 43.015625 
L 29.109375 43.015625 
Q 36.375 43.015625 40.234375 45.921875 
Q 44.09375 48.828125 44.09375 54.296875 
Q 44.09375 59.90625 40.109375 62.90625 
Q 36.140625 65.921875 28.71875 65.921875 
Q 24.65625 65.921875 20.015625 65.03125 
Q 15.375 64.15625 9.8125 62.3125 
L 9.8125 71.09375 
Q 15.4375 72.65625 20.34375 73.4375 
Q 25.25 74.21875 29.59375 74.21875 
Q 40.828125 74.21875 47.359375 69.109375 
Q 53.90625 64.015625 53.90625 55.328125 
Q 53.90625 49.265625 50.4375 45.09375 
Q 46.96875 40.921875 40.578125 39.3125 
z
" id="DejaVuSans-51"/>
      </defs>
      <g transform="translate(349.015108 554.43669)rotate(-30)scale(0.1 -0.1)">
       <use xlink:href="#DejaVuSans-48"/>
       <use x="63.623047" xlink:href="#DejaVuSans-48"/>
       <use x="127.246094" xlink:href="#DejaVuSans-58"/>
       <use x="160.9375" xlink:href="#DejaVuSans-48"/>
       <use x="224.560547" xlink:href="#DejaVuSans-48"/>
       <use x="288.183594" xlink:href="#DejaVuSans-58"/>
       <use x="321.875" xlink:href="#DejaVuSans-51"/>
       <use x="385.498047" xlink:href="#DejaVuSans-48"/>
      </g>
     </g>
    </g>
    <g id="xtick_5">
     <g id="line2d_9">
      <path clip-path="url(#pead16363f1)" d="M 479.476807 518.4 
L 479.476807 77.76 
" style="fill:none;stroke:#b0b0b0;stroke-linecap:square;stroke-width:0.8;"/>
     </g>
     <g id="line2d_10">
      <g>
       <use style="stroke:#000000;stroke-width:0.8;" x="479.476807" xlink:href="#mc2de2334e7" y="518.4"/>
      </g>
     </g>
     <g id="text_5">
      <!-- 00:00:40 -->
      <defs>
       <path d="M 37.796875 64.3125 
L 12.890625 25.390625 
L 37.796875 25.390625 
z
M 35.203125 72.90625 
L 47.609375 72.90625 
L 47.609375 25.390625 
L 58.015625 25.390625 
L 58.015625 17.1875 
L 47.609375 17.1875 
L 47.609375 0 
L 37.796875 0 
L 37.796875 17.1875 
L 4.890625 17.1875 
L 4.890625 26.703125 
z
" id="DejaVuSans-52"/>
      </defs>
      <g transform="translate(439.541597 554.43669)rotate(-30)scale(0.1 -0.1)">
       <use xlink:href="#DejaVuSans-48"/>
       <use x="63.623047" xlink:href="#DejaVuSans-48"/>
       <use x="127.246094" xlink:href="#DejaVuSans-58"/>
       <use x="160.9375" xlink:href="#DejaVuSans-48"/>
       <use x="224.560547" xlink:href="#DejaVuSans-48"/>
       <use x="288.183594" xlink:href="#DejaVuSans-58"/>
       <use x="321.875" xlink:href="#DejaVuSans-52"/>
       <use x="385.498047" xlink:href="#DejaVuSans-48"/>
      </g>
     </g>
    </g>
    <g id="xtick_6">
     <g id="line2d_11">
      <path clip-path="url(#pead16363f1)" d="M 570.003296 518.4 
L 570.003296 77.76 
" style="fill:none;stroke:#b0b0b0;stroke-linecap:square;stroke-width:0.8;"/>
     </g>
     <g id="line2d_12">
      <g>
       <use style="stroke:#000000;stroke-width:0.8;" x="570.003296" xlink:href="#mc2de2334e7" y="518.4"/>
      </g>
     </g>
     <g id="text_6">
      <!-- 00:00:50 -->
      <defs>
       <path d="M 10.796875 72.90625 
L 49.515625 72.90625 
L 49.515625 64.59375 
L 19.828125 64.59375 
L 19.828125 46.734375 
Q 21.96875 47.46875 24.109375 47.828125 
Q 26.265625 48.1875 28.421875 48.1875 
Q 40.625 48.1875 47.75 41.5 
Q 54.890625 34.8125 54.890625 23.390625 
Q 54.890625 11.625 47.5625 5.09375 
Q 40.234375 -1.421875 26.90625 -1.421875 
Q 22.3125 -1.421875 17.546875 -0.640625 
Q 12.796875 0.140625 7.71875 1.703125 
L 7.71875 11.625 
Q 12.109375 9.234375 16.796875 8.0625 
Q 21.484375 6.890625 26.703125 6.890625 
Q 35.15625 6.890625 40.078125 11.328125 
Q 45.015625 15.765625 45.015625 23.390625 
Q 45.015625 31 40.078125 35.4375 
Q 35.15625 39.890625 26.703125 39.890625 
Q 22.75 39.890625 18.8125 39.015625 
Q 14.890625 38.140625 10.796875 36.28125 
z
" id="DejaVuSans-53"/>
      </defs>
      <g transform="translate(530.068086 554.43669)rotate(-30)scale(0.1 -0.1)">
       <use xlink:href="#DejaVuSans-48"/>
       <use x="63.623047" xlink:href="#DejaVuSans-48"/>
       <use x="127.246094" xlink:href="#DejaVuSans-58"/>
       <use x="160.9375" xlink:href="#DejaVuSans-48"/>
       <use x="224.560547" xlink:href="#DejaVuSans-48"/>
       <use x="288.183594" xlink:href="#DejaVuSans-58"/>
       <use x="321.875" xlink:href="#DejaVuSans-53"/>
       <use x="385.498047" xlink:href="#DejaVuSans-48"/>
      </g>
     </g>
    </g>
    <g id="xtick_7">
     <g id="line2d_13">
      <path clip-path="url(#pead16363f1)" d="M 660.529785 518.4 
L 660.529785 77.76 
" style="fill:none;stroke:#b0b0b0;stroke-linecap:square;stroke-width:0.8;"/>
     </g>
     <g id="line2d_14">
      <g>
       <use style="stroke:#000000;stroke-width:0.8;" x="660.529785" xlink:href="#mc2de2334e7" y="518.4"/>
      </g>
     </g>
     <g id="text_7">
      <!-- 00:01:00 -->
      <g transform="translate(620.594575 554.43669)rotate(-30)scale(0.1 -0.1)">
       <use xlink:href="#DejaVuSans-48"/>
       <use x="63.623047" xlink:href="#DejaVuSans-48"/>
       <use x="127.246094" xlink:href="#DejaVuSans-58"/>
       <use x="160.9375" xlink:href="#DejaVuSans-48"/>
       <use x="224.560547" xlink:href="#DejaVuSans-49"/>
       <use x="288.183594" xlink:href="#DejaVuSans-58"/>
       <use x="321.875" xlink:href="#DejaVuSans-48"/>
       <use x="385.498047" xlink:href="#DejaVuSans-48"/>
      </g>
     </g>
    </g>
    <g id="xtick_8">
     <g id="line2d_15">
      <path clip-path="url(#pead16363f1)" d="M 751.056274 518.4 
L 751.056274 77.76 
" style="fill:none;stroke:#b0b0b0;stroke-linecap:square;stroke-width:0.8;"/>
     </g>
     <g id="line2d_16">
      <g>
       <use style="stroke:#000000;stroke-width:0.8;" x="751.056274" xlink:href="#mc2de2334e7" y="518.4"/>
      </g>
     </g>
     <g id="text_8">
      <!-- 00:01:10 -->
      <g transform="translate(711.121065 554.43669)rotate(-30)scale(0.1 -0.1)">
       <use xlink:href="#DejaVuSans-48"/>
       <use x="63.623047" xlink:href="#DejaVuSans-48"/>
       <use x="127.246094" xlink:href="#DejaVuSans-58"/>
       <use x="160.9375" xlink:href="#DejaVuSans-48"/>
       <use x="224.560547" xlink:href="#DejaVuSans-49"/>
       <use x="288.183594" xlink:href="#DejaVuSans-58"/>
       <use x="321.875" xlink:href="#DejaVuSans-49"/>
       <use x="385.498047" xlink:href="#DejaVuSans-48"/>
      </g>
     </g>
    </g>
    <g id="text_9">
     <!-- DateTime -->
     <defs>
      <path d="M 19.671875 64.796875 
L 19.671875 8.109375 
L 31.59375 8.109375 
Q 46.6875 8.109375 53.6875 14.9375 
Q 60.6875 21.78125 60.6875 36.53125 
Q 60.6875 51.171875 53.6875 57.984375 
Q 46.6875 64.796875 31.59375 64.796875 
z
M 9.8125 72.90625 
L 30.078125 72.90625 
Q 51.265625 72.90625 61.171875 64.09375 
Q 71.09375 55.28125 71.09375 36.53125 
Q 71.09375 17.671875 61.125 8.828125 
Q 51.171875 0 30.078125 0 
L 9.8125 0 
z
" id="DejaVuSans-68"/>
      <path d="M 34.28125 27.484375 
Q 23.390625 27.484375 19.1875 25 
Q 14.984375 22.515625 14.984375 16.5 
Q 14.984375 11.71875 18.140625 8.90625 
Q 21.296875 6.109375 26.703125 6.109375 
Q 34.1875 6.109375 38.703125 11.40625 
Q 43.21875 16.703125 43.21875 25.484375 
L 43.21875 27.484375 
z
M 52.203125 31.203125 
L 52.203125 0 
L 43.21875 0 
L 43.21875 8.296875 
Q 40.140625 3.328125 35.546875 0.953125 
Q 30.953125 -1.421875 24.3125 -1.421875 
Q 15.921875 -1.421875 10.953125 3.296875 
Q 6 8.015625 6 15.921875 
Q 6 25.140625 12.171875 29.828125 
Q 18.359375 34.515625 30.609375 34.515625 
L 43.21875 34.515625 
L 43.21875 35.40625 
Q 43.21875 41.609375 39.140625 45 
Q 35.0625 48.390625 27.6875 48.390625 
Q 23 48.390625 18.546875 47.265625 
Q 14.109375 46.140625 10.015625 43.890625 
L 10.015625 52.203125 
Q 14.9375 54.109375 19.578125 55.046875 
Q 24.21875 56 28.609375 56 
Q 40.484375 56 46.34375 49.84375 
Q 52.203125 43.703125 52.203125 31.203125 
z
" id="DejaVuSans-97"/>
      <path d="M 18.3125 70.21875 
L 18.3125 54.6875 
L 36.8125 54.6875 
L 36.8125 47.703125 
L 18.3125 47.703125 
L 18.3125 18.015625 
Q 18.3125 11.328125 20.140625 9.421875 
Q 21.96875 7.515625 27.59375 7.515625 
L 36.8125 7.515625 
L 36.8125 0 
L 27.59375 0 
Q 17.1875 0 13.234375 3.875 
Q 9.28125 7.765625 9.28125 18.015625 
L 9.28125 47.703125 
L 2.6875 47.703125 
L 2.6875 54.6875 
L 9.28125 54.6875 
L 9.28125 70.21875 
z
" id="DejaVuSans-116"/>
      <path d="M 56.203125 29.59375 
L 56.203125 25.203125 
L 14.890625 25.203125 
Q 15.484375 15.921875 20.484375 11.0625 
Q 25.484375 6.203125 34.421875 6.203125 
Q 39.59375 6.203125 44.453125 7.46875 
Q 49.3125 8.734375 54.109375 11.28125 
L 54.109375 2.78125 
Q 49.265625 0.734375 44.1875 -0.34375 
Q 39.109375 -1.421875 33.890625 -1.421875 
Q 20.796875 -1.421875 13.15625 6.1875 
Q 5.515625 13.8125 5.515625 26.8125 
Q 5.515625 40.234375 12.765625 48.109375 
Q 20.015625 56 32.328125 56 
Q 43.359375 56 49.78125 48.890625 
Q 56.203125 41.796875 56.203125 29.59375 
z
M 47.21875 32.234375 
Q 47.125 39.59375 43.09375 43.984375 
Q 39.0625 48.390625 32.421875 48.390625 
Q 24.90625 48.390625 20.390625 44.140625 
Q 15.875 39.890625 15.1875 32.171875 
z
" id="DejaVuSans-101"/>
      <path d="M -0.296875 72.90625 
L 61.375 72.90625 
L 61.375 64.59375 
L 35.5 64.59375 
L 35.5 0 
L 25.59375 0 
L 25.59375 64.59375 
L -0.296875 64.59375 
z
" id="DejaVuSans-84"/>
      <path d="M 9.421875 54.6875 
L 18.40625 54.6875 
L 18.40625 0 
L 9.421875 0 
z
M 9.421875 75.984375 
L 18.40625 75.984375 
L 18.40625 64.59375 
L 9.421875 64.59375 
z
" id="DejaVuSans-105"/>
      <path d="M 52 44.1875 
Q 55.375 50.25 60.0625 53.125 
Q 64.75 56 71.09375 56 
Q 79.640625 56 84.28125 50.015625 
Q 88.921875 44.046875 88.921875 33.015625 
L 88.921875 0 
L 79.890625 0 
L 79.890625 32.71875 
Q 79.890625 40.578125 77.09375 44.375 
Q 74.3125 48.1875 68.609375 48.1875 
Q 61.625 48.1875 57.5625 43.546875 
Q 53.515625 38.921875 53.515625 30.90625 
L 53.515625 0 
L 44.484375 0 
L 44.484375 32.71875 
Q 44.484375 40.625 41.703125 44.40625 
Q 38.921875 48.1875 33.109375 48.1875 
Q 26.21875 48.1875 22.15625 43.53125 
Q 18.109375 38.875 18.109375 30.90625 
L 18.109375 0 
L 9.078125 0 
L 9.078125 54.6875 
L 18.109375 54.6875 
L 18.109375 46.1875 
Q 21.1875 51.21875 25.484375 53.609375 
Q 29.78125 56 35.6875 56 
Q 41.65625 56 45.828125 52.96875 
Q 50 49.953125 52 44.1875 
z
" id="DejaVuSans-109"/>
     </defs>
     <g transform="translate(418.615625 567.83619)scale(0.1 -0.1)">
      <use xlink:href="#DejaVuSans-68"/>
      <use x="77.001953" xlink:href="#DejaVuSans-97"/>
      <use x="138.28125" xlink:href="#DejaVuSans-116"/>
      <use x="177.490234" xlink:href="#DejaVuSans-101"/>
      <use x="239.013672" xlink:href="#DejaVuSans-84"/>
      <use x="296.972656" xlink:href="#DejaVuSans-105"/>
      <use x="324.755859" xlink:href="#DejaVuSans-109"/>
      <use x="422.167969" xlink:href="#DejaVuSans-101"/>
     </g>
    </g>
   </g>
   <g id="matplotlib.axis_2">
    <g id="ytick_1">
     <g id="line2d_17">
      <path clip-path="url(#pead16363f1)" d="M 108 501.062138 
L 777.6 501.062138 
" style="fill:none;stroke:#b0b0b0;stroke-linecap:square;stroke-width:0.8;"/>
     </g>
     <g id="line2d_18">
      <defs>
       <path d="M 0 0 
L -3.5 0 
" id="mec8ffcdca0" style="stroke:#000000;stroke-width:0.8;"/>
      </defs>
      <g>
       <use style="stroke:#000000;stroke-width:0.8;" x="108" xlink:href="#mec8ffcdca0" y="501.062138"/>
      </g>
     </g>
     <g id="text_10">
      <!-- −1000 -->
      <defs>
       <path d="M 10.59375 35.5 
L 73.1875 35.5 
L 73.1875 27.203125 
L 10.59375 27.203125 
z
" id="DejaVuSans-8722"/>
      </defs>
      <g transform="translate(67.170312 504.861357)scale(0.1 -0.1)">
       <use xlink:href="#DejaVuSans-8722"/>
       <use x="83.789062" xlink:href="#DejaVuSans-49"/>
       <use x="147.412109" xlink:href="#DejaVuSans-48"/>
       <use x="211.035156" xlink:href="#DejaVuSans-48"/>
       <use x="274.658203" xlink:href="#DejaVuSans-48"/>
      </g>
     </g>
    </g>
    <g id="ytick_2">
     <g id="line2d_19">
      <path clip-path="url(#pead16363f1)" d="M 108 433.84862 
L 777.6 433.84862 
" style="fill:none;stroke:#b0b0b0;stroke-linecap:square;stroke-width:0.8;"/>
     </g>
     <g id="line2d_20">
      <g>
       <use style="stroke:#000000;stroke-width:0.8;" x="108" xlink:href="#mec8ffcdca0" y="433.84862"/>
      </g>
     </g>
     <g id="text_11">
      <!-- −500 -->
      <g transform="translate(73.532813 437.647838)scale(0.1 -0.1)">
       <use xlink:href="#DejaVuSans-8722"/>
       <use x="83.789062" xlink:href="#DejaVuSans-53"/>
       <use x="147.412109" xlink:href="#DejaVuSans-48"/>
       <use x="211.035156" xlink:href="#DejaVuSans-48"/>
      </g>
     </g>
    </g>
    <g id="ytick_3">
     <g id="line2d_21">
      <path clip-path="url(#pead16363f1)" d="M 108 366.635101 
L 777.6 366.635101 
" style="fill:none;stroke:#b0b0b0;stroke-linecap:square;stroke-width:0.8;"/>
     </g>
     <g id="line2d_22">
      <g>
       <use style="stroke:#000000;stroke-width:0.8;" x="108" xlink:href="#mec8ffcdca0" y="366.635101"/>
      </g>
     </g>
     <g id="text_12">
      <!-- 0 -->
      <g transform="translate(94.6375 370.434319)scale(0.1 -0.1)">
       <use xlink:href="#DejaVuSans-48"/>
      </g>
     </g>
    </g>
    <g id="ytick_4">
     <g id="line2d_23">
      <path clip-path="url(#pead16363f1)" d="M 108 299.421582 
L 777.6 299.421582 
" style="fill:none;stroke:#b0b0b0;stroke-linecap:square;stroke-width:0.8;"/>
     </g>
     <g id="line2d_24">
      <g>
       <use style="stroke:#000000;stroke-width:0.8;" x="108" xlink:href="#mec8ffcdca0" y="299.421582"/>
      </g>
     </g>
     <g id="text_13">
      <!-- 500 -->
      <g transform="translate(81.9125 303.220801)scale(0.1 -0.1)">
       <use xlink:href="#DejaVuSans-53"/>
       <use x="63.623047" xlink:href="#DejaVuSans-48"/>
       <use x="127.246094" xlink:href="#DejaVuSans-48"/>
      </g>
     </g>
    </g>
    <g id="ytick_5">
     <g id="line2d_25">
      <path clip-path="url(#pead16363f1)" d="M 108 232.208063 
L 777.6 232.208063 
" style="fill:none;stroke:#b0b0b0;stroke-linecap:square;stroke-width:0.8;"/>
     </g>
     <g id="line2d_26">
      <g>
       <use style="stroke:#000000;stroke-width:0.8;" x="108" xlink:href="#mec8ffcdca0" y="232.208063"/>
      </g>
     </g>
     <g id="text_14">
      <!-- 1000 -->
      <g transform="translate(75.55 236.007282)scale(0.1 -0.1)">
       <use xlink:href="#DejaVuSans-49"/>
       <use x="63.623047" xlink:href="#DejaVuSans-48"/>
       <use x="127.246094" xlink:href="#DejaVuSans-48"/>
       <use x="190.869141" xlink:href="#DejaVuSans-48"/>
      </g>
     </g>
    </g>
    <g id="ytick_6">
     <g id="line2d_27">
      <path clip-path="url(#pead16363f1)" d="M 108 164.994544 
L 777.6 164.994544 
" style="fill:none;stroke:#b0b0b0;stroke-linecap:square;stroke-width:0.8;"/>
     </g>
     <g id="line2d_28">
      <g>
       <use style="stroke:#000000;stroke-width:0.8;" x="108" xlink:href="#mec8ffcdca0" y="164.994544"/>
      </g>
     </g>
     <g id="text_15">
      <!-- 1500 -->
      <g transform="translate(75.55 168.793763)scale(0.1 -0.1)">
       <use xlink:href="#DejaVuSans-49"/>
       <use x="63.623047" xlink:href="#DejaVuSans-53"/>
       <use x="127.246094" xlink:href="#DejaVuSans-48"/>
       <use x="190.869141" xlink:href="#DejaVuSans-48"/>
      </g>
     </g>
    </g>
    <g id="ytick_7">
     <g id="line2d_29">
      <path clip-path="url(#pead16363f1)" d="M 108 97.781025 
L 777.6 97.781025 
" style="fill:none;stroke:#b0b0b0;stroke-linecap:square;stroke-width:0.8;"/>
     </g>
     <g id="line2d_30">
      <g>
       <use style="stroke:#000000;stroke-width:0.8;" x="108" xlink:href="#mec8ffcdca0" y="97.781025"/>
      </g>
     </g>
     <g id="text_16">
      <!-- 2000 -->
      <g transform="translate(75.55 101.580244)scale(0.1 -0.1)">
       <use xlink:href="#DejaVuSans-50"/>
       <use x="63.623047" xlink:href="#DejaVuSans-48"/>
       <use x="127.246094" xlink:href="#DejaVuSans-48"/>
       <use x="190.869141" xlink:href="#DejaVuSans-48"/>
      </g>
     </g>
    </g>
    <g id="text_17">
     <!-- Scaled Acc (mg) -->
     <defs>
      <path d="M 53.515625 70.515625 
L 53.515625 60.890625 
Q 47.90625 63.578125 42.921875 64.890625 
Q 37.9375 66.21875 33.296875 66.21875 
Q 25.25 66.21875 20.875 63.09375 
Q 16.5 59.96875 16.5 54.203125 
Q 16.5 49.359375 19.40625 46.890625 
Q 22.3125 44.4375 30.421875 42.921875 
L 36.375 41.703125 
Q 47.40625 39.59375 52.65625 34.296875 
Q 57.90625 29 57.90625 20.125 
Q 57.90625 9.515625 50.796875 4.046875 
Q 43.703125 -1.421875 29.984375 -1.421875 
Q 24.8125 -1.421875 18.96875 -0.25 
Q 13.140625 0.921875 6.890625 3.21875 
L 6.890625 13.375 
Q 12.890625 10.015625 18.65625 8.296875 
Q 24.421875 6.59375 29.984375 6.59375 
Q 38.421875 6.59375 43.015625 9.90625 
Q 47.609375 13.234375 47.609375 19.390625 
Q 47.609375 24.75 44.3125 27.78125 
Q 41.015625 30.8125 33.5 32.328125 
L 27.484375 33.5 
Q 16.453125 35.6875 11.515625 40.375 
Q 6.59375 45.0625 6.59375 53.421875 
Q 6.59375 63.09375 13.40625 68.65625 
Q 20.21875 74.21875 32.171875 74.21875 
Q 37.3125 74.21875 42.625 73.28125 
Q 47.953125 72.359375 53.515625 70.515625 
z
" id="DejaVuSans-83"/>
      <path d="M 48.78125 52.59375 
L 48.78125 44.1875 
Q 44.96875 46.296875 41.140625 47.34375 
Q 37.3125 48.390625 33.40625 48.390625 
Q 24.65625 48.390625 19.8125 42.84375 
Q 14.984375 37.3125 14.984375 27.296875 
Q 14.984375 17.28125 19.8125 11.734375 
Q 24.65625 6.203125 33.40625 6.203125 
Q 37.3125 6.203125 41.140625 7.25 
Q 44.96875 8.296875 48.78125 10.40625 
L 48.78125 2.09375 
Q 45.015625 0.34375 40.984375 -0.53125 
Q 36.96875 -1.421875 32.421875 -1.421875 
Q 20.0625 -1.421875 12.78125 6.34375 
Q 5.515625 14.109375 5.515625 27.296875 
Q 5.515625 40.671875 12.859375 48.328125 
Q 20.21875 56 33.015625 56 
Q 37.15625 56 41.109375 55.140625 
Q 45.0625 54.296875 48.78125 52.59375 
z
" id="DejaVuSans-99"/>
      <path d="M 9.421875 75.984375 
L 18.40625 75.984375 
L 18.40625 0 
L 9.421875 0 
z
" id="DejaVuSans-108"/>
      <path d="M 45.40625 46.390625 
L 45.40625 75.984375 
L 54.390625 75.984375 
L 54.390625 0 
L 45.40625 0 
L 45.40625 8.203125 
Q 42.578125 3.328125 38.25 0.953125 
Q 33.9375 -1.421875 27.875 -1.421875 
Q 17.96875 -1.421875 11.734375 6.484375 
Q 5.515625 14.40625 5.515625 27.296875 
Q 5.515625 40.1875 11.734375 48.09375 
Q 17.96875 56 27.875 56 
Q 33.9375 56 38.25 53.625 
Q 42.578125 51.265625 45.40625 46.390625 
z
M 14.796875 27.296875 
Q 14.796875 17.390625 18.875 11.75 
Q 22.953125 6.109375 30.078125 6.109375 
Q 37.203125 6.109375 41.296875 11.75 
Q 45.40625 17.390625 45.40625 27.296875 
Q 45.40625 37.203125 41.296875 42.84375 
Q 37.203125 48.484375 30.078125 48.484375 
Q 22.953125 48.484375 18.875 42.84375 
Q 14.796875 37.203125 14.796875 27.296875 
z
" id="DejaVuSans-100"/>
      <path id="DejaVuSans-32"/>
      <path d="M 34.1875 63.1875 
L 20.796875 26.90625 
L 47.609375 26.90625 
z
M 28.609375 72.90625 
L 39.796875 72.90625 
L 67.578125 0 
L 57.328125 0 
L 50.6875 18.703125 
L 17.828125 18.703125 
L 11.1875 0 
L 0.78125 0 
z
" id="DejaVuSans-65"/>
      <path d="M 31 75.875 
Q 24.46875 64.65625 21.28125 53.65625 
Q 18.109375 42.671875 18.109375 31.390625 
Q 18.109375 20.125 21.3125 9.0625 
Q 24.515625 -2 31 -13.1875 
L 23.1875 -13.1875 
Q 15.875 -1.703125 12.234375 9.375 
Q 8.59375 20.453125 8.59375 31.390625 
Q 8.59375 42.28125 12.203125 53.3125 
Q 15.828125 64.359375 23.1875 75.875 
z
" id="DejaVuSans-40"/>
      <path d="M 45.40625 27.984375 
Q 45.40625 37.75 41.375 43.109375 
Q 37.359375 48.484375 30.078125 48.484375 
Q 22.859375 48.484375 18.828125 43.109375 
Q 14.796875 37.75 14.796875 27.984375 
Q 14.796875 18.265625 18.828125 12.890625 
Q 22.859375 7.515625 30.078125 7.515625 
Q 37.359375 7.515625 41.375 12.890625 
Q 45.40625 18.265625 45.40625 27.984375 
z
M 54.390625 6.78125 
Q 54.390625 -7.171875 48.1875 -13.984375 
Q 42 -20.796875 29.203125 -20.796875 
Q 24.46875 -20.796875 20.265625 -20.09375 
Q 16.0625 -19.390625 12.109375 -17.921875 
L 12.109375 -9.1875 
Q 16.0625 -11.328125 19.921875 -12.34375 
Q 23.78125 -13.375 27.78125 -13.375 
Q 36.625 -13.375 41.015625 -8.765625 
Q 45.40625 -4.15625 45.40625 5.171875 
L 45.40625 9.625 
Q 42.625 4.78125 38.28125 2.390625 
Q 33.9375 0 27.875 0 
Q 17.828125 0 11.671875 7.65625 
Q 5.515625 15.328125 5.515625 27.984375 
Q 5.515625 40.671875 11.671875 48.328125 
Q 17.828125 56 27.875 56 
Q 33.9375 56 38.28125 53.609375 
Q 42.625 51.21875 45.40625 46.390625 
L 45.40625 54.6875 
L 54.390625 54.6875 
z
" id="DejaVuSans-103"/>
      <path d="M 8.015625 75.875 
L 15.828125 75.875 
Q 23.140625 64.359375 26.78125 53.3125 
Q 30.421875 42.28125 30.421875 31.390625 
Q 30.421875 20.453125 26.78125 9.375 
Q 23.140625 -1.703125 15.828125 -13.1875 
L 8.015625 -13.1875 
Q 14.5 -2 17.703125 9.0625 
Q 20.90625 20.125 20.90625 31.390625 
Q 20.90625 42.671875 17.703125 53.65625 
Q 14.5 64.65625 8.015625 75.875 
z
" id="DejaVuSans-41"/>
     </defs>
     <g transform="translate(61.090625 338.662812)rotate(-90)scale(0.1 -0.1)">
      <use xlink:href="#DejaVuSans-83"/>
      <use x="63.476562" xlink:href="#DejaVuSans-99"/>
      <use x="118.457031" xlink:href="#DejaVuSans-97"/>
      <use x="179.736328" xlink:href="#DejaVuSans-108"/>
      <use x="207.519531" xlink:href="#DejaVuSans-101"/>
      <use x="269.042969" xlink:href="#DejaVuSans-100"/>
      <use x="332.519531" xlink:href="#DejaVuSans-32"/>
      <use x="364.306641" xlink:href="#DejaVuSans-65"/>
      <use x="430.964844" xlink:href="#DejaVuSans-99"/>
      <use x="485.945312" xlink:href="#DejaVuSans-99"/>
      <use x="540.925781" xlink:href="#DejaVuSans-32"/>
      <use x="572.712891" xlink:href="#DejaVuSans-40"/>
      <use x="611.726562" xlink:href="#DejaVuSans-109"/>
      <use x="709.138672" xlink:href="#DejaVuSans-103"/>
      <use x="772.615234" xlink:href="#DejaVuSans-41"/>
     </g>
    </g>
   </g>
   <g id="line2d_31">
    <path clip-path="url(#pead16363f1)" d="M 138.436401 368.144716 
L 143.12561 369.064197 
L 147.814819 367.816714 
L 152.50415 368.406849 
L 157.238647 367.225235 
L 162.127075 356.723795 
L 166.816406 354.622701 
L 171.505737 368.538588 
L 176.194946 362.434256 
L 180.884277 363.02439 
L 185.673096 379.631507 
L 190.362427 358.365149 
L 195.051636 347.27223 
L 199.740845 354.098435 
L 204.430176 369.32633 
L 209.218994 353.770433 
L 213.890259 427.940551 
L 218.579468 485.11237 
L 223.268677 491.544704 
L 227.958008 491.938575 
L 232.737793 492.134839 
L 237.526611 489.313215 
L 242.215942 329.089629 
L 246.905151 274.020249 
L 251.793701 257.675265 
L 256.48291 258.200875 
L 261.172119 258.856879 
L 265.86145 269.096186 
L 270.550659 308.807278 
L 275.339478 356.789664 
L 280.028809 354.228829 
L 284.71814 355.21418 
L 289.733276 374.774658 
L 294.09668 399.78212 
L 298.985107 370.901815 
L 303.674438 350.027984 
L 308.363647 347.206361 
L 313.052856 343.137254 
L 317.742188 387.835589 
L 327.193115 384.620094 
L 331.882446 360.92464 
L 336.571655 370.770076 
L 341.559692 363.943871 
L 346.230835 355.870184 
L 350.920044 368.604457 
L 355.609375 367.291105 
L 360.298706 367.422843 
L 365.087524 369.982334 
L 369.758667 368.078847 
L 374.447876 369.85194 
L 379.137207 368.998328 
L 383.826538 371.098078 
L 388.714966 372.673563 
L 393.404175 369.458068 
L 398.093506 372.93704 
L 402.782715 367.225235 
L 407.472046 368.734851 
L 412.260864 369.85194 
L 421.612183 368.078847 
L 426.301514 369.458068 
L 431.189941 369.32633 
L 435.879272 369.720201 
L 440.568481 371.229817 
L 445.257812 369.78607 
L 449.947021 370.835946 
L 454.835449 368.86659 
L 459.470459 369.78607 
L 464.159668 370.704207 
L 468.848999 369.128722 
L 473.529175 371.557819 
L 478.318115 367.816714 
L 483.007324 370.114072 
L 487.696533 368.998328 
L 492.376831 369.458068 
L 497.066162 368.538588 
L 501.95459 367.816714 
L 506.72522 369.522593 
L 516.013306 369.654332 
L 520.702637 370.573813 
L 525.373779 370.310336 
L 530.053955 366.897233 
L 534.743164 366.307099 
L 539.432495 353.442431 
L 544.320923 358.233411 
L 548.992065 369.522593 
L 553.780884 345.171136 
L 558.569824 370.573813 
L 563.25 368.734851 
L 568.03894 368.80072 
L 572.710083 371.163948 
L 577.399292 370.704207 
L 582.079468 369.32633 
L 586.768799 369.85194 
L 591.657227 371.098078 
L 596.346558 369.78607 
L 601.026733 369.916465 
L 610.405273 370.114072 
L 615.076416 372.543169 
L 619.756592 369.85194 
L 624.445923 369.982334 
L 629.135132 369.654332 
L 633.92395 371.229817 
L 638.613281 371.098078 
L 643.302612 369.260461 
L 647.991821 370.442074 
L 652.681152 369.85194 
L 657.460938 368.80072 
L 662.231689 369.588463 
L 667.020508 369.982334 
L 671.709839 371.49195 
L 676.390015 370.114072 
L 681.178955 370.114072 
L 685.859131 370.442074 
L 690.54834 369.064197 
L 695.228516 370.901815 
L 704.588989 368.538588 
L 709.368774 370.376205 
L 714.058105 369.982334 
L 718.747314 369.522593 
L 723.635742 368.80072 
L 728.307007 367.684976 
L 733.403564 368.734851 
L 737.685547 371.49195 
L 742.374756 368.472718 
L 747.163574 368.538588 
" style="fill:none;stroke:#1f77b4;stroke-linecap:square;stroke-width:1.5;"/>
    <defs>
     <path d="M 0 2.5 
C 0.663008 2.5 1.29895 2.236584 1.767767 1.767767 
C 2.236584 1.29895 2.5 0.663008 2.5 0 
C 2.5 -0.663008 2.236584 -1.29895 1.767767 -1.767767 
C 1.29895 -2.236584 0.663008 -2.5 0 -2.5 
C -0.663008 -2.5 -1.29895 -2.236584 -1.767767 -1.767767 
C -2.236584 -1.29895 -2.5 -0.663008 -2.5 0 
C -2.5 0.663008 -2.236584 1.29895 -1.767767 1.767767 
C -1.29895 2.236584 -0.663008 2.5 0 2.5 
z
" id="m49af82264a" style="stroke:#1f77b4;"/>
    </defs>
    <g clip-path="url(#pead16363f1)">
     <use style="fill:#1f77b4;stroke:#1f77b4;" x="138.436401" xlink:href="#m49af82264a" y="368.144716"/>
     <use style="fill:#1f77b4;stroke:#1f77b4;" x="143.12561" xlink:href="#m49af82264a" y="369.064197"/>
     <use style="fill:#1f77b4;stroke:#1f77b4;" x="147.814819" xlink:href="#m49af82264a" y="367.816714"/>
     <use style="fill:#1f77b4;stroke:#1f77b4;" x="152.50415" xlink:href="#m49af82264a" y="368.406849"/>
     <use style="fill:#1f77b4;stroke:#1f77b4;" x="157.238647" xlink:href="#m49af82264a" y="367.225235"/>
     <use style="fill:#1f77b4;stroke:#1f77b4;" x="162.127075" xlink:href="#m49af82264a" y="356.723795"/>
     <use style="fill:#1f77b4;stroke:#1f77b4;" x="166.816406" xlink:href="#m49af82264a" y="354.622701"/>
     <use style="fill:#1f77b4;stroke:#1f77b4;" x="171.505737" xlink:href="#m49af82264a" y="368.538588"/>
     <use style="fill:#1f77b4;stroke:#1f77b4;" x="176.194946" xlink:href="#m49af82264a" y="362.434256"/>
     <use style="fill:#1f77b4;stroke:#1f77b4;" x="180.884277" xlink:href="#m49af82264a" y="363.02439"/>
     <use style="fill:#1f77b4;stroke:#1f77b4;" x="185.673096" xlink:href="#m49af82264a" y="379.631507"/>
     <use style="fill:#1f77b4;stroke:#1f77b4;" x="190.362427" xlink:href="#m49af82264a" y="358.365149"/>
     <use style="fill:#1f77b4;stroke:#1f77b4;" x="195.051636" xlink:href="#m49af82264a" y="347.27223"/>
     <use style="fill:#1f77b4;stroke:#1f77b4;" x="199.740845" xlink:href="#m49af82264a" y="354.098435"/>
     <use style="fill:#1f77b4;stroke:#1f77b4;" x="204.430176" xlink:href="#m49af82264a" y="369.32633"/>
     <use style="fill:#1f77b4;stroke:#1f77b4;" x="209.218994" xlink:href="#m49af82264a" y="353.770433"/>
     <use style="fill:#1f77b4;stroke:#1f77b4;" x="213.890259" xlink:href="#m49af82264a" y="427.940551"/>
     <use style="fill:#1f77b4;stroke:#1f77b4;" x="218.579468" xlink:href="#m49af82264a" y="485.11237"/>
     <use style="fill:#1f77b4;stroke:#1f77b4;" x="223.268677" xlink:href="#m49af82264a" y="491.544704"/>
     <use style="fill:#1f77b4;stroke:#1f77b4;" x="227.958008" xlink:href="#m49af82264a" y="491.938575"/>
     <use style="fill:#1f77b4;stroke:#1f77b4;" x="232.737793" xlink:href="#m49af82264a" y="492.134839"/>
     <use style="fill:#1f77b4;stroke:#1f77b4;" x="237.526611" xlink:href="#m49af82264a" y="489.313215"/>
     <use style="fill:#1f77b4;stroke:#1f77b4;" x="242.215942" xlink:href="#m49af82264a" y="329.089629"/>
     <use style="fill:#1f77b4;stroke:#1f77b4;" x="246.905151" xlink:href="#m49af82264a" y="274.020249"/>
     <use style="fill:#1f77b4;stroke:#1f77b4;" x="251.793701" xlink:href="#m49af82264a" y="257.675265"/>
     <use style="fill:#1f77b4;stroke:#1f77b4;" x="256.48291" xlink:href="#m49af82264a" y="258.200875"/>
     <use style="fill:#1f77b4;stroke:#1f77b4;" x="261.172119" xlink:href="#m49af82264a" y="258.856879"/>
     <use style="fill:#1f77b4;stroke:#1f77b4;" x="265.86145" xlink:href="#m49af82264a" y="269.096186"/>
     <use style="fill:#1f77b4;stroke:#1f77b4;" x="270.550659" xlink:href="#m49af82264a" y="308.807278"/>
     <use style="fill:#1f77b4;stroke:#1f77b4;" x="275.339478" xlink:href="#m49af82264a" y="356.789664"/>
     <use style="fill:#1f77b4;stroke:#1f77b4;" x="280.028809" xlink:href="#m49af82264a" y="354.228829"/>
     <use style="fill:#1f77b4;stroke:#1f77b4;" x="284.71814" xlink:href="#m49af82264a" y="355.21418"/>
     <use style="fill:#1f77b4;stroke:#1f77b4;" x="289.733276" xlink:href="#m49af82264a" y="374.774658"/>
     <use style="fill:#1f77b4;stroke:#1f77b4;" x="294.09668" xlink:href="#m49af82264a" y="399.78212"/>
     <use style="fill:#1f77b4;stroke:#1f77b4;" x="298.985107" xlink:href="#m49af82264a" y="370.901815"/>
     <use style="fill:#1f77b4;stroke:#1f77b4;" x="303.674438" xlink:href="#m49af82264a" y="350.027984"/>
     <use style="fill:#1f77b4;stroke:#1f77b4;" x="308.363647" xlink:href="#m49af82264a" y="347.206361"/>
     <use style="fill:#1f77b4;stroke:#1f77b4;" x="313.052856" xlink:href="#m49af82264a" y="343.137254"/>
     <use style="fill:#1f77b4;stroke:#1f77b4;" x="317.742188" xlink:href="#m49af82264a" y="387.835589"/>
     <use style="fill:#1f77b4;stroke:#1f77b4;" x="327.193115" xlink:href="#m49af82264a" y="384.620094"/>
     <use style="fill:#1f77b4;stroke:#1f77b4;" x="331.882446" xlink:href="#m49af82264a" y="360.92464"/>
     <use style="fill:#1f77b4;stroke:#1f77b4;" x="336.571655" xlink:href="#m49af82264a" y="370.770076"/>
     <use style="fill:#1f77b4;stroke:#1f77b4;" x="341.559692" xlink:href="#m49af82264a" y="363.943871"/>
     <use style="fill:#1f77b4;stroke:#1f77b4;" x="346.230835" xlink:href="#m49af82264a" y="355.870184"/>
     <use style="fill:#1f77b4;stroke:#1f77b4;" x="350.920044" xlink:href="#m49af82264a" y="368.604457"/>
     <use style="fill:#1f77b4;stroke:#1f77b4;" x="355.609375" xlink:href="#m49af82264a" y="367.291105"/>
     <use style="fill:#1f77b4;stroke:#1f77b4;" x="360.298706" xlink:href="#m49af82264a" y="367.422843"/>
     <use style="fill:#1f77b4;stroke:#1f77b4;" x="365.087524" xlink:href="#m49af82264a" y="369.982334"/>
     <use style="fill:#1f77b4;stroke:#1f77b4;" x="369.758667" xlink:href="#m49af82264a" y="368.078847"/>
     <use style="fill:#1f77b4;stroke:#1f77b4;" x="374.447876" xlink:href="#m49af82264a" y="369.85194"/>
     <use style="fill:#1f77b4;stroke:#1f77b4;" x="379.137207" xlink:href="#m49af82264a" y="368.998328"/>
     <use style="fill:#1f77b4;stroke:#1f77b4;" x="383.826538" xlink:href="#m49af82264a" y="371.098078"/>
     <use style="fill:#1f77b4;stroke:#1f77b4;" x="388.714966" xlink:href="#m49af82264a" y="372.673563"/>
     <use style="fill:#1f77b4;stroke:#1f77b4;" x="393.404175" xlink:href="#m49af82264a" y="369.458068"/>
     <use style="fill:#1f77b4;stroke:#1f77b4;" x="398.093506" xlink:href="#m49af82264a" y="372.93704"/>
     <use style="fill:#1f77b4;stroke:#1f77b4;" x="402.782715" xlink:href="#m49af82264a" y="367.225235"/>
     <use style="fill:#1f77b4;stroke:#1f77b4;" x="407.472046" xlink:href="#m49af82264a" y="368.734851"/>
     <use style="fill:#1f77b4;stroke:#1f77b4;" x="412.260864" xlink:href="#m49af82264a" y="369.85194"/>
     <use style="fill:#1f77b4;stroke:#1f77b4;" x="421.612183" xlink:href="#m49af82264a" y="368.078847"/>
     <use style="fill:#1f77b4;stroke:#1f77b4;" x="426.301514" xlink:href="#m49af82264a" y="369.458068"/>
     <use style="fill:#1f77b4;stroke:#1f77b4;" x="431.189941" xlink:href="#m49af82264a" y="369.32633"/>
     <use style="fill:#1f77b4;stroke:#1f77b4;" x="435.879272" xlink:href="#m49af82264a" y="369.720201"/>
     <use style="fill:#1f77b4;stroke:#1f77b4;" x="440.568481" xlink:href="#m49af82264a" y="371.229817"/>
     <use style="fill:#1f77b4;stroke:#1f77b4;" x="445.257812" xlink:href="#m49af82264a" y="369.78607"/>
     <use style="fill:#1f77b4;stroke:#1f77b4;" x="449.947021" xlink:href="#m49af82264a" y="370.835946"/>
     <use style="fill:#1f77b4;stroke:#1f77b4;" x="454.835449" xlink:href="#m49af82264a" y="368.86659"/>
     <use style="fill:#1f77b4;stroke:#1f77b4;" x="459.470459" xlink:href="#m49af82264a" y="369.78607"/>
     <use style="fill:#1f77b4;stroke:#1f77b4;" x="464.159668" xlink:href="#m49af82264a" y="370.704207"/>
     <use style="fill:#1f77b4;stroke:#1f77b4;" x="468.848999" xlink:href="#m49af82264a" y="369.128722"/>
     <use style="fill:#1f77b4;stroke:#1f77b4;" x="473.529175" xlink:href="#m49af82264a" y="371.557819"/>
     <use style="fill:#1f77b4;stroke:#1f77b4;" x="478.318115" xlink:href="#m49af82264a" y="367.816714"/>
     <use style="fill:#1f77b4;stroke:#1f77b4;" x="483.007324" xlink:href="#m49af82264a" y="370.114072"/>
     <use style="fill:#1f77b4;stroke:#1f77b4;" x="487.696533" xlink:href="#m49af82264a" y="368.998328"/>
     <use style="fill:#1f77b4;stroke:#1f77b4;" x="492.376831" xlink:href="#m49af82264a" y="369.458068"/>
     <use style="fill:#1f77b4;stroke:#1f77b4;" x="497.066162" xlink:href="#m49af82264a" y="368.538588"/>
     <use style="fill:#1f77b4;stroke:#1f77b4;" x="501.95459" xlink:href="#m49af82264a" y="367.816714"/>
     <use style="fill:#1f77b4;stroke:#1f77b4;" x="506.72522" xlink:href="#m49af82264a" y="369.522593"/>
     <use style="fill:#1f77b4;stroke:#1f77b4;" x="516.013306" xlink:href="#m49af82264a" y="369.654332"/>
     <use style="fill:#1f77b4;stroke:#1f77b4;" x="520.702637" xlink:href="#m49af82264a" y="370.573813"/>
     <use style="fill:#1f77b4;stroke:#1f77b4;" x="525.373779" xlink:href="#m49af82264a" y="370.310336"/>
     <use style="fill:#1f77b4;stroke:#1f77b4;" x="530.053955" xlink:href="#m49af82264a" y="366.897233"/>
     <use style="fill:#1f77b4;stroke:#1f77b4;" x="534.743164" xlink:href="#m49af82264a" y="366.307099"/>
     <use style="fill:#1f77b4;stroke:#1f77b4;" x="539.432495" xlink:href="#m49af82264a" y="353.442431"/>
     <use style="fill:#1f77b4;stroke:#1f77b4;" x="544.320923" xlink:href="#m49af82264a" y="358.233411"/>
     <use style="fill:#1f77b4;stroke:#1f77b4;" x="548.992065" xlink:href="#m49af82264a" y="369.522593"/>
     <use style="fill:#1f77b4;stroke:#1f77b4;" x="553.780884" xlink:href="#m49af82264a" y="345.171136"/>
     <use style="fill:#1f77b4;stroke:#1f77b4;" x="558.569824" xlink:href="#m49af82264a" y="370.573813"/>
     <use style="fill:#1f77b4;stroke:#1f77b4;" x="563.25" xlink:href="#m49af82264a" y="368.734851"/>
     <use style="fill:#1f77b4;stroke:#1f77b4;" x="568.03894" xlink:href="#m49af82264a" y="368.80072"/>
     <use style="fill:#1f77b4;stroke:#1f77b4;" x="572.710083" xlink:href="#m49af82264a" y="371.163948"/>
     <use style="fill:#1f77b4;stroke:#1f77b4;" x="577.399292" xlink:href="#m49af82264a" y="370.704207"/>
     <use style="fill:#1f77b4;stroke:#1f77b4;" x="582.079468" xlink:href="#m49af82264a" y="369.32633"/>
     <use style="fill:#1f77b4;stroke:#1f77b4;" x="586.768799" xlink:href="#m49af82264a" y="369.85194"/>
     <use style="fill:#1f77b4;stroke:#1f77b4;" x="591.657227" xlink:href="#m49af82264a" y="371.098078"/>
     <use style="fill:#1f77b4;stroke:#1f77b4;" x="596.346558" xlink:href="#m49af82264a" y="369.78607"/>
     <use style="fill:#1f77b4;stroke:#1f77b4;" x="601.026733" xlink:href="#m49af82264a" y="369.916465"/>
     <use style="fill:#1f77b4;stroke:#1f77b4;" x="610.405273" xlink:href="#m49af82264a" y="370.114072"/>
     <use style="fill:#1f77b4;stroke:#1f77b4;" x="615.076416" xlink:href="#m49af82264a" y="372.543169"/>
     <use style="fill:#1f77b4;stroke:#1f77b4;" x="619.756592" xlink:href="#m49af82264a" y="369.85194"/>
     <use style="fill:#1f77b4;stroke:#1f77b4;" x="624.445923" xlink:href="#m49af82264a" y="369.982334"/>
     <use style="fill:#1f77b4;stroke:#1f77b4;" x="629.135132" xlink:href="#m49af82264a" y="369.654332"/>
     <use style="fill:#1f77b4;stroke:#1f77b4;" x="633.92395" xlink:href="#m49af82264a" y="371.229817"/>
     <use style="fill:#1f77b4;stroke:#1f77b4;" x="638.613281" xlink:href="#m49af82264a" y="371.098078"/>
     <use style="fill:#1f77b4;stroke:#1f77b4;" x="643.302612" xlink:href="#m49af82264a" y="369.260461"/>
     <use style="fill:#1f77b4;stroke:#1f77b4;" x="647.991821" xlink:href="#m49af82264a" y="370.442074"/>
     <use style="fill:#1f77b4;stroke:#1f77b4;" x="652.681152" xlink:href="#m49af82264a" y="369.85194"/>
     <use style="fill:#1f77b4;stroke:#1f77b4;" x="657.460938" xlink:href="#m49af82264a" y="368.80072"/>
     <use style="fill:#1f77b4;stroke:#1f77b4;" x="662.231689" xlink:href="#m49af82264a" y="369.588463"/>
     <use style="fill:#1f77b4;stroke:#1f77b4;" x="667.020508" xlink:href="#m49af82264a" y="369.982334"/>
     <use style="fill:#1f77b4;stroke:#1f77b4;" x="671.709839" xlink:href="#m49af82264a" y="371.49195"/>
     <use style="fill:#1f77b4;stroke:#1f77b4;" x="676.390015" xlink:href="#m49af82264a" y="370.114072"/>
     <use style="fill:#1f77b4;stroke:#1f77b4;" x="681.178955" xlink:href="#m49af82264a" y="370.114072"/>
     <use style="fill:#1f77b4;stroke:#1f77b4;" x="685.859131" xlink:href="#m49af82264a" y="370.442074"/>
     <use style="fill:#1f77b4;stroke:#1f77b4;" x="690.54834" xlink:href="#m49af82264a" y="369.064197"/>
     <use style="fill:#1f77b4;stroke:#1f77b4;" x="695.228516" xlink:href="#m49af82264a" y="370.901815"/>
     <use style="fill:#1f77b4;stroke:#1f77b4;" x="704.588989" xlink:href="#m49af82264a" y="368.538588"/>
     <use style="fill:#1f77b4;stroke:#1f77b4;" x="709.368774" xlink:href="#m49af82264a" y="370.376205"/>
     <use style="fill:#1f77b4;stroke:#1f77b4;" x="714.058105" xlink:href="#m49af82264a" y="369.982334"/>
     <use style="fill:#1f77b4;stroke:#1f77b4;" x="718.747314" xlink:href="#m49af82264a" y="369.522593"/>
     <use style="fill:#1f77b4;stroke:#1f77b4;" x="723.635742" xlink:href="#m49af82264a" y="368.80072"/>
     <use style="fill:#1f77b4;stroke:#1f77b4;" x="728.307007" xlink:href="#m49af82264a" y="367.684976"/>
     <use style="fill:#1f77b4;stroke:#1f77b4;" x="733.403564" xlink:href="#m49af82264a" y="368.734851"/>
     <use style="fill:#1f77b4;stroke:#1f77b4;" x="737.685547" xlink:href="#m49af82264a" y="371.49195"/>
     <use style="fill:#1f77b4;stroke:#1f77b4;" x="742.374756" xlink:href="#m49af82264a" y="368.472718"/>
     <use style="fill:#1f77b4;stroke:#1f77b4;" x="747.163574" xlink:href="#m49af82264a" y="368.538588"/>
    </g>
   </g>
   <g id="line2d_32">
    <path clip-path="url(#pead16363f1)" d="M 138.436401 370.835946 
L 143.12561 371.755427 
L 147.814819 370.639682 
L 152.50415 370.901815 
L 157.238647 372.41143 
L 162.127075 387.377193 
L 166.816406 400.24186 
L 171.505737 395.45088 
L 176.194946 395.385011 
L 180.884277 373.986915 
L 185.673096 399.322379 
L 190.362427 397.944502 
L 195.051636 402.801351 
L 199.740845 391.774301 
L 204.430176 366.569231 
L 209.218994 391.90604 
L 213.890259 376.744014 
L 218.579468 357.445668 
L 223.268677 356.723795 
L 227.958008 357.511538 
L 232.737793 358.167542 
L 237.526611 360.792902 
L 242.215942 408.249679 
L 246.905151 386.58945 
L 251.793701 396.369017 
L 256.48291 397.944502 
L 261.172119 404.902446 
L 265.86145 404.836576 
L 270.550659 444.153796 
L 275.339478 498.370909 
L 280.028809 496.993032 
L 284.71814 494.891937 
L 289.733276 460.103564 
L 294.09668 388.295329 
L 298.985107 277.301613 
L 303.674438 258.594746 
L 308.363647 254.52564 
L 313.052856 252.096543 
L 317.742188 349.503719 
L 327.193115 391.774301 
L 331.882446 411.400649 
L 336.571655 399.519987 
L 341.559692 357.905409 
L 346.230835 385.801708 
L 350.920044 412.582262 
L 355.609375 362.959865 
L 360.298706 380.419249 
L 365.087524 368.670326 
L 369.758667 366.17536 
L 374.447876 368.144716 
L 379.137207 368.604457 
L 383.826538 369.064197 
L 388.714966 370.835946 
L 393.404175 367.16071 
L 398.093506 370.507944 
L 402.782715 369.720201 
L 407.472046 367.488712 
L 412.260864 368.342324 
L 421.612183 366.109491 
L 426.301514 366.963103 
L 431.189941 367.619107 
L 435.879272 366.17536 
L 440.568481 369.588463 
L 445.257812 369.32633 
L 449.947021 366.569231 
L 454.835449 368.012978 
L 459.470459 366.17536 
L 464.159668 368.670326 
L 468.848999 369.982334 
L 473.529175 368.406849 
L 478.318115 368.604457 
L 483.007324 366.307099 
L 487.696533 366.766839 
L 492.376831 367.684976 
L 497.066162 367.356974 
L 501.95459 368.276455 
L 506.72522 366.241229 
L 516.013306 365.059616 
L 520.702637 367.291105 
L 525.373779 381.272861 
L 530.053955 379.697376 
L 534.743164 379.237635 
L 539.432495 401.949083 
L 544.320923 386.58945 
L 548.992065 367.291105 
L 553.780884 397.484762 
L 558.569824 369.392199 
L 563.25 378.384024 
L 568.03894 368.86659 
L 572.710083 367.948453 
L 577.399292 366.963103 
L 582.079468 367.684976 
L 586.768799 369.916465 
L 591.657227 369.128722 
L 596.346558 369.260461 
L 601.026733 367.816714 
L 610.405273 369.654332 
L 615.076416 366.70097 
L 619.756592 368.604457 
L 624.445923 369.32633 
L 629.135132 368.276455 
L 633.92395 368.276455 
L 638.613281 369.392199 
L 643.302612 368.472718 
L 647.991821 367.948453 
L 652.681152 367.619107 
L 657.460938 367.488712 
L 662.231689 370.507944 
L 667.020508 366.503362 
L 671.709839 368.734851 
L 676.390015 369.85194 
L 681.178955 367.028972 
L 685.859131 367.750845 
L 690.54834 369.654332 
L 695.228516 367.750845 
L 704.588989 368.012978 
L 709.368774 368.078847 
L 714.058105 368.604457 
L 718.747314 368.472718 
L 723.635742 367.356974 
L 728.307007 370.704207 
L 733.403564 368.932459 
L 737.685547 369.260461 
L 742.374756 362.237992 
L 747.163574 369.720201 
" style="fill:none;stroke:#ff7f0e;stroke-linecap:square;stroke-width:1.5;"/>
    <defs>
     <path d="M 0 2.5 
C 0.663008 2.5 1.29895 2.236584 1.767767 1.767767 
C 2.236584 1.29895 2.5 0.663008 2.5 0 
C 2.5 -0.663008 2.236584 -1.29895 1.767767 -1.767767 
C 1.29895 -2.236584 0.663008 -2.5 0 -2.5 
C -0.663008 -2.5 -1.29895 -2.236584 -1.767767 -1.767767 
C -2.236584 -1.29895 -2.5 -0.663008 -2.5 0 
C -2.5 0.663008 -2.236584 1.29895 -1.767767 1.767767 
C -1.29895 2.236584 -0.663008 2.5 0 2.5 
z
" id="me13795da72" style="stroke:#ff7f0e;"/>
    </defs>
    <g clip-path="url(#pead16363f1)">
     <use style="fill:#ff7f0e;stroke:#ff7f0e;" x="138.436401" xlink:href="#me13795da72" y="370.835946"/>
     <use style="fill:#ff7f0e;stroke:#ff7f0e;" x="143.12561" xlink:href="#me13795da72" y="371.755427"/>
     <use style="fill:#ff7f0e;stroke:#ff7f0e;" x="147.814819" xlink:href="#me13795da72" y="370.639682"/>
     <use style="fill:#ff7f0e;stroke:#ff7f0e;" x="152.50415" xlink:href="#me13795da72" y="370.901815"/>
     <use style="fill:#ff7f0e;stroke:#ff7f0e;" x="157.238647" xlink:href="#me13795da72" y="372.41143"/>
     <use style="fill:#ff7f0e;stroke:#ff7f0e;" x="162.127075" xlink:href="#me13795da72" y="387.377193"/>
     <use style="fill:#ff7f0e;stroke:#ff7f0e;" x="166.816406" xlink:href="#me13795da72" y="400.24186"/>
     <use style="fill:#ff7f0e;stroke:#ff7f0e;" x="171.505737" xlink:href="#me13795da72" y="395.45088"/>
     <use style="fill:#ff7f0e;stroke:#ff7f0e;" x="176.194946" xlink:href="#me13795da72" y="395.385011"/>
     <use style="fill:#ff7f0e;stroke:#ff7f0e;" x="180.884277" xlink:href="#me13795da72" y="373.986915"/>
     <use style="fill:#ff7f0e;stroke:#ff7f0e;" x="185.673096" xlink:href="#me13795da72" y="399.322379"/>
     <use style="fill:#ff7f0e;stroke:#ff7f0e;" x="190.362427" xlink:href="#me13795da72" y="397.944502"/>
     <use style="fill:#ff7f0e;stroke:#ff7f0e;" x="195.051636" xlink:href="#me13795da72" y="402.801351"/>
     <use style="fill:#ff7f0e;stroke:#ff7f0e;" x="199.740845" xlink:href="#me13795da72" y="391.774301"/>
     <use style="fill:#ff7f0e;stroke:#ff7f0e;" x="204.430176" xlink:href="#me13795da72" y="366.569231"/>
     <use style="fill:#ff7f0e;stroke:#ff7f0e;" x="209.218994" xlink:href="#me13795da72" y="391.90604"/>
     <use style="fill:#ff7f0e;stroke:#ff7f0e;" x="213.890259" xlink:href="#me13795da72" y="376.744014"/>
     <use style="fill:#ff7f0e;stroke:#ff7f0e;" x="218.579468" xlink:href="#me13795da72" y="357.445668"/>
     <use style="fill:#ff7f0e;stroke:#ff7f0e;" x="223.268677" xlink:href="#me13795da72" y="356.723795"/>
     <use style="fill:#ff7f0e;stroke:#ff7f0e;" x="227.958008" xlink:href="#me13795da72" y="357.511538"/>
     <use style="fill:#ff7f0e;stroke:#ff7f0e;" x="232.737793" xlink:href="#me13795da72" y="358.167542"/>
     <use style="fill:#ff7f0e;stroke:#ff7f0e;" x="237.526611" xlink:href="#me13795da72" y="360.792902"/>
     <use style="fill:#ff7f0e;stroke:#ff7f0e;" x="242.215942" xlink:href="#me13795da72" y="408.249679"/>
     <use style="fill:#ff7f0e;stroke:#ff7f0e;" x="246.905151" xlink:href="#me13795da72" y="386.58945"/>
     <use style="fill:#ff7f0e;stroke:#ff7f0e;" x="251.793701" xlink:href="#me13795da72" y="396.369017"/>
     <use style="fill:#ff7f0e;stroke:#ff7f0e;" x="256.48291" xlink:href="#me13795da72" y="397.944502"/>
     <use style="fill:#ff7f0e;stroke:#ff7f0e;" x="261.172119" xlink:href="#me13795da72" y="404.902446"/>
     <use style="fill:#ff7f0e;stroke:#ff7f0e;" x="265.86145" xlink:href="#me13795da72" y="404.836576"/>
     <use style="fill:#ff7f0e;stroke:#ff7f0e;" x="270.550659" xlink:href="#me13795da72" y="444.153796"/>
     <use style="fill:#ff7f0e;stroke:#ff7f0e;" x="275.339478" xlink:href="#me13795da72" y="498.370909"/>
     <use style="fill:#ff7f0e;stroke:#ff7f0e;" x="280.028809" xlink:href="#me13795da72" y="496.993032"/>
     <use style="fill:#ff7f0e;stroke:#ff7f0e;" x="284.71814" xlink:href="#me13795da72" y="494.891937"/>
     <use style="fill:#ff7f0e;stroke:#ff7f0e;" x="289.733276" xlink:href="#me13795da72" y="460.103564"/>
     <use style="fill:#ff7f0e;stroke:#ff7f0e;" x="294.09668" xlink:href="#me13795da72" y="388.295329"/>
     <use style="fill:#ff7f0e;stroke:#ff7f0e;" x="298.985107" xlink:href="#me13795da72" y="277.301613"/>
     <use style="fill:#ff7f0e;stroke:#ff7f0e;" x="303.674438" xlink:href="#me13795da72" y="258.594746"/>
     <use style="fill:#ff7f0e;stroke:#ff7f0e;" x="308.363647" xlink:href="#me13795da72" y="254.52564"/>
     <use style="fill:#ff7f0e;stroke:#ff7f0e;" x="313.052856" xlink:href="#me13795da72" y="252.096543"/>
     <use style="fill:#ff7f0e;stroke:#ff7f0e;" x="317.742188" xlink:href="#me13795da72" y="349.503719"/>
     <use style="fill:#ff7f0e;stroke:#ff7f0e;" x="327.193115" xlink:href="#me13795da72" y="391.774301"/>
     <use style="fill:#ff7f0e;stroke:#ff7f0e;" x="331.882446" xlink:href="#me13795da72" y="411.400649"/>
     <use style="fill:#ff7f0e;stroke:#ff7f0e;" x="336.571655" xlink:href="#me13795da72" y="399.519987"/>
     <use style="fill:#ff7f0e;stroke:#ff7f0e;" x="341.559692" xlink:href="#me13795da72" y="357.905409"/>
     <use style="fill:#ff7f0e;stroke:#ff7f0e;" x="346.230835" xlink:href="#me13795da72" y="385.801708"/>
     <use style="fill:#ff7f0e;stroke:#ff7f0e;" x="350.920044" xlink:href="#me13795da72" y="412.582262"/>
     <use style="fill:#ff7f0e;stroke:#ff7f0e;" x="355.609375" xlink:href="#me13795da72" y="362.959865"/>
     <use style="fill:#ff7f0e;stroke:#ff7f0e;" x="360.298706" xlink:href="#me13795da72" y="380.419249"/>
     <use style="fill:#ff7f0e;stroke:#ff7f0e;" x="365.087524" xlink:href="#me13795da72" y="368.670326"/>
     <use style="fill:#ff7f0e;stroke:#ff7f0e;" x="369.758667" xlink:href="#me13795da72" y="366.17536"/>
     <use style="fill:#ff7f0e;stroke:#ff7f0e;" x="374.447876" xlink:href="#me13795da72" y="368.144716"/>
     <use style="fill:#ff7f0e;stroke:#ff7f0e;" x="379.137207" xlink:href="#me13795da72" y="368.604457"/>
     <use style="fill:#ff7f0e;stroke:#ff7f0e;" x="383.826538" xlink:href="#me13795da72" y="369.064197"/>
     <use style="fill:#ff7f0e;stroke:#ff7f0e;" x="388.714966" xlink:href="#me13795da72" y="370.835946"/>
     <use style="fill:#ff7f0e;stroke:#ff7f0e;" x="393.404175" xlink:href="#me13795da72" y="367.16071"/>
     <use style="fill:#ff7f0e;stroke:#ff7f0e;" x="398.093506" xlink:href="#me13795da72" y="370.507944"/>
     <use style="fill:#ff7f0e;stroke:#ff7f0e;" x="402.782715" xlink:href="#me13795da72" y="369.720201"/>
     <use style="fill:#ff7f0e;stroke:#ff7f0e;" x="407.472046" xlink:href="#me13795da72" y="367.488712"/>
     <use style="fill:#ff7f0e;stroke:#ff7f0e;" x="412.260864" xlink:href="#me13795da72" y="368.342324"/>
     <use style="fill:#ff7f0e;stroke:#ff7f0e;" x="421.612183" xlink:href="#me13795da72" y="366.109491"/>
     <use style="fill:#ff7f0e;stroke:#ff7f0e;" x="426.301514" xlink:href="#me13795da72" y="366.963103"/>
     <use style="fill:#ff7f0e;stroke:#ff7f0e;" x="431.189941" xlink:href="#me13795da72" y="367.619107"/>
     <use style="fill:#ff7f0e;stroke:#ff7f0e;" x="435.879272" xlink:href="#me13795da72" y="366.17536"/>
     <use style="fill:#ff7f0e;stroke:#ff7f0e;" x="440.568481" xlink:href="#me13795da72" y="369.588463"/>
     <use style="fill:#ff7f0e;stroke:#ff7f0e;" x="445.257812" xlink:href="#me13795da72" y="369.32633"/>
     <use style="fill:#ff7f0e;stroke:#ff7f0e;" x="449.947021" xlink:href="#me13795da72" y="366.569231"/>
     <use style="fill:#ff7f0e;stroke:#ff7f0e;" x="454.835449" xlink:href="#me13795da72" y="368.012978"/>
     <use style="fill:#ff7f0e;stroke:#ff7f0e;" x="459.470459" xlink:href="#me13795da72" y="366.17536"/>
     <use style="fill:#ff7f0e;stroke:#ff7f0e;" x="464.159668" xlink:href="#me13795da72" y="368.670326"/>
     <use style="fill:#ff7f0e;stroke:#ff7f0e;" x="468.848999" xlink:href="#me13795da72" y="369.982334"/>
     <use style="fill:#ff7f0e;stroke:#ff7f0e;" x="473.529175" xlink:href="#me13795da72" y="368.406849"/>
     <use style="fill:#ff7f0e;stroke:#ff7f0e;" x="478.318115" xlink:href="#me13795da72" y="368.604457"/>
     <use style="fill:#ff7f0e;stroke:#ff7f0e;" x="483.007324" xlink:href="#me13795da72" y="366.307099"/>
     <use style="fill:#ff7f0e;stroke:#ff7f0e;" x="487.696533" xlink:href="#me13795da72" y="366.766839"/>
     <use style="fill:#ff7f0e;stroke:#ff7f0e;" x="492.376831" xlink:href="#me13795da72" y="367.684976"/>
     <use style="fill:#ff7f0e;stroke:#ff7f0e;" x="497.066162" xlink:href="#me13795da72" y="367.356974"/>
     <use style="fill:#ff7f0e;stroke:#ff7f0e;" x="501.95459" xlink:href="#me13795da72" y="368.276455"/>
     <use style="fill:#ff7f0e;stroke:#ff7f0e;" x="506.72522" xlink:href="#me13795da72" y="366.241229"/>
     <use style="fill:#ff7f0e;stroke:#ff7f0e;" x="516.013306" xlink:href="#me13795da72" y="365.059616"/>
     <use style="fill:#ff7f0e;stroke:#ff7f0e;" x="520.702637" xlink:href="#me13795da72" y="367.291105"/>
     <use style="fill:#ff7f0e;stroke:#ff7f0e;" x="525.373779" xlink:href="#me13795da72" y="381.272861"/>
     <use style="fill:#ff7f0e;stroke:#ff7f0e;" x="530.053955" xlink:href="#me13795da72" y="379.697376"/>
     <use style="fill:#ff7f0e;stroke:#ff7f0e;" x="534.743164" xlink:href="#me13795da72" y="379.237635"/>
     <use style="fill:#ff7f0e;stroke:#ff7f0e;" x="539.432495" xlink:href="#me13795da72" y="401.949083"/>
     <use style="fill:#ff7f0e;stroke:#ff7f0e;" x="544.320923" xlink:href="#me13795da72" y="386.58945"/>
     <use style="fill:#ff7f0e;stroke:#ff7f0e;" x="548.992065" xlink:href="#me13795da72" y="367.291105"/>
     <use style="fill:#ff7f0e;stroke:#ff7f0e;" x="553.780884" xlink:href="#me13795da72" y="397.484762"/>
     <use style="fill:#ff7f0e;stroke:#ff7f0e;" x="558.569824" xlink:href="#me13795da72" y="369.392199"/>
     <use style="fill:#ff7f0e;stroke:#ff7f0e;" x="563.25" xlink:href="#me13795da72" y="378.384024"/>
     <use style="fill:#ff7f0e;stroke:#ff7f0e;" x="568.03894" xlink:href="#me13795da72" y="368.86659"/>
     <use style="fill:#ff7f0e;stroke:#ff7f0e;" x="572.710083" xlink:href="#me13795da72" y="367.948453"/>
     <use style="fill:#ff7f0e;stroke:#ff7f0e;" x="577.399292" xlink:href="#me13795da72" y="366.963103"/>
     <use style="fill:#ff7f0e;stroke:#ff7f0e;" x="582.079468" xlink:href="#me13795da72" y="367.684976"/>
     <use style="fill:#ff7f0e;stroke:#ff7f0e;" x="586.768799" xlink:href="#me13795da72" y="369.916465"/>
     <use style="fill:#ff7f0e;stroke:#ff7f0e;" x="591.657227" xlink:href="#me13795da72" y="369.128722"/>
     <use style="fill:#ff7f0e;stroke:#ff7f0e;" x="596.346558" xlink:href="#me13795da72" y="369.260461"/>
     <use style="fill:#ff7f0e;stroke:#ff7f0e;" x="601.026733" xlink:href="#me13795da72" y="367.816714"/>
     <use style="fill:#ff7f0e;stroke:#ff7f0e;" x="610.405273" xlink:href="#me13795da72" y="369.654332"/>
     <use style="fill:#ff7f0e;stroke:#ff7f0e;" x="615.076416" xlink:href="#me13795da72" y="366.70097"/>
     <use style="fill:#ff7f0e;stroke:#ff7f0e;" x="619.756592" xlink:href="#me13795da72" y="368.604457"/>
     <use style="fill:#ff7f0e;stroke:#ff7f0e;" x="624.445923" xlink:href="#me13795da72" y="369.32633"/>
     <use style="fill:#ff7f0e;stroke:#ff7f0e;" x="629.135132" xlink:href="#me13795da72" y="368.276455"/>
     <use style="fill:#ff7f0e;stroke:#ff7f0e;" x="633.92395" xlink:href="#me13795da72" y="368.276455"/>
     <use style="fill:#ff7f0e;stroke:#ff7f0e;" x="638.613281" xlink:href="#me13795da72" y="369.392199"/>
     <use style="fill:#ff7f0e;stroke:#ff7f0e;" x="643.302612" xlink:href="#me13795da72" y="368.472718"/>
     <use style="fill:#ff7f0e;stroke:#ff7f0e;" x="647.991821" xlink:href="#me13795da72" y="367.948453"/>
     <use style="fill:#ff7f0e;stroke:#ff7f0e;" x="652.681152" xlink:href="#me13795da72" y="367.619107"/>
     <use style="fill:#ff7f0e;stroke:#ff7f0e;" x="657.460938" xlink:href="#me13795da72" y="367.488712"/>
     <use style="fill:#ff7f0e;stroke:#ff7f0e;" x="662.231689" xlink:href="#me13795da72" y="370.507944"/>
     <use style="fill:#ff7f0e;stroke:#ff7f0e;" x="667.020508" xlink:href="#me13795da72" y="366.503362"/>
     <use style="fill:#ff7f0e;stroke:#ff7f0e;" x="671.709839" xlink:href="#me13795da72" y="368.734851"/>
     <use style="fill:#ff7f0e;stroke:#ff7f0e;" x="676.390015" xlink:href="#me13795da72" y="369.85194"/>
     <use style="fill:#ff7f0e;stroke:#ff7f0e;" x="681.178955" xlink:href="#me13795da72" y="367.028972"/>
     <use style="fill:#ff7f0e;stroke:#ff7f0e;" x="685.859131" xlink:href="#me13795da72" y="367.750845"/>
     <use style="fill:#ff7f0e;stroke:#ff7f0e;" x="690.54834" xlink:href="#me13795da72" y="369.654332"/>
     <use style="fill:#ff7f0e;stroke:#ff7f0e;" x="695.228516" xlink:href="#me13795da72" y="367.750845"/>
     <use style="fill:#ff7f0e;stroke:#ff7f0e;" x="704.588989" xlink:href="#me13795da72" y="368.012978"/>
     <use style="fill:#ff7f0e;stroke:#ff7f0e;" x="709.368774" xlink:href="#me13795da72" y="368.078847"/>
     <use style="fill:#ff7f0e;stroke:#ff7f0e;" x="714.058105" xlink:href="#me13795da72" y="368.604457"/>
     <use style="fill:#ff7f0e;stroke:#ff7f0e;" x="718.747314" xlink:href="#me13795da72" y="368.472718"/>
     <use style="fill:#ff7f0e;stroke:#ff7f0e;" x="723.635742" xlink:href="#me13795da72" y="367.356974"/>
     <use style="fill:#ff7f0e;stroke:#ff7f0e;" x="728.307007" xlink:href="#me13795da72" y="370.704207"/>
     <use style="fill:#ff7f0e;stroke:#ff7f0e;" x="733.403564" xlink:href="#me13795da72" y="368.932459"/>
     <use style="fill:#ff7f0e;stroke:#ff7f0e;" x="737.685547" xlink:href="#me13795da72" y="369.260461"/>
     <use style="fill:#ff7f0e;stroke:#ff7f0e;" x="742.374756" xlink:href="#me13795da72" y="362.237992"/>
     <use style="fill:#ff7f0e;stroke:#ff7f0e;" x="747.163574" xlink:href="#me13795da72" y="369.720201"/>
    </g>
   </g>
   <g id="line2d_33">
    <path clip-path="url(#pead16363f1)" d="M 138.436401 231.880061 
L 143.12561 231.748323 
L 147.814819 232.208063 
L 152.50415 231.288582 
L 157.238647 231.158188 
L 162.127075 224.594116 
L 166.816406 234.505421 
L 171.505737 238.838004 
L 176.194946 239.953749 
L 180.884277 244.942336 
L 185.673096 237.590522 
L 190.362427 255.509646 
L 195.051636 192.890843 
L 199.740845 169.261258 
L 204.430176 323.904778 
L 209.218994 257.741135 
L 213.890259 253.54029 
L 218.579468 309.004885 
L 223.268677 315.503088 
L 227.958008 313.073992 
L 232.737793 312.22038 
L 237.526611 301.128805 
L 242.215942 234.11155 
L 246.905151 282.749941 
L 251.793701 292.595377 
L 256.48291 291.939373 
L 261.172119 288.262793 
L 265.86145 286.819047 
L 270.550659 267.324438 
L 275.339478 318.916191 
L 280.028809 326.661877 
L 284.71814 326.85814 
L 289.733276 264.173468 
L 294.09668 247.435958 
L 298.985107 284.587558 
L 303.674438 296.270612 
L 308.363647 303.096817 
L 313.052856 310.842503 
L 317.742188 241.069493 
L 327.193115 226.1696 
L 331.882446 97.789091 
L 336.571655 242.381501 
L 341.559692 338.279061 
L 346.230835 245.794604 
L 350.920044 152.785881 
L 355.609375 279.336838 
L 360.298706 249.733316 
L 365.087524 232.339801 
L 369.758667 233.783548 
L 374.447876 230.698447 
L 379.137207 232.404326 
L 383.826538 233.257938 
L 388.714966 217.30817 
L 393.404175 232.667803 
L 398.093506 230.698447 
L 402.782715 231.94593 
L 407.472046 233.192069 
L 412.260864 230.304576 
L 421.612183 230.304576 
L 426.301514 229.976574 
L 431.189941 231.682453 
L 435.879272 231.158188 
L 440.568481 232.142194 
L 445.257812 233.849417 
L 449.947021 231.48619 
L 454.835449 230.96058 
L 459.470459 234.307813 
L 464.159668 229.385095 
L 468.848999 230.172838 
L 473.529175 230.172838 
L 478.318115 230.830186 
L 483.007324 213.632935 
L 487.696533 230.436315 
L 492.376831 231.158188 
L 497.066162 230.50084 
L 501.95459 231.092319 
L 506.72522 231.880061 
L 516.013306 231.48619 
L 520.702637 231.94593 
L 525.373779 227.351214 
L 530.053955 228.79496 
L 534.743164 266.404957 
L 539.432495 203.327758 
L 544.320923 217.30817 
L 548.992065 289.576146 
L 553.780884 223.54424 
L 558.569824 237.590522 
L 563.25 294.826866 
L 568.03894 231.48619 
L 572.710083 231.880061 
L 577.399292 232.536065 
L 582.079468 230.894711 
L 586.768799 231.617928 
L 591.657227 231.748323 
L 596.346558 236.343039 
L 601.026733 232.0118 
L 610.405273 231.552059 
L 615.076416 231.092319 
L 619.756592 230.238707 
L 624.445923 232.798198 
L 629.135132 231.158188 
L 633.92395 230.894711 
L 638.613281 231.94593 
L 643.302612 231.354451 
L 647.991821 232.601934 
L 652.681152 233.192069 
L 657.460938 231.552059 
L 662.231689 231.94593 
L 667.020508 230.108313 
L 671.709839 231.026449 
L 676.390015 232.142194 
L 681.178955 231.94593 
L 685.859131 232.142194 
L 690.54834 230.764317 
L 695.228516 232.0118 
L 704.588989 233.257938 
L 709.368774 230.370445 
L 714.058105 231.617928 
L 718.747314 231.420321 
L 723.635742 231.354451 
L 728.307007 233.127544 
L 733.403564 230.894711 
L 737.685547 232.864067 
L 742.374756 228.33522 
L 747.163574 231.48619 
" style="fill:none;stroke:#2ca02c;stroke-linecap:square;stroke-width:1.5;"/>
    <defs>
     <path d="M 0 2.5 
C 0.663008 2.5 1.29895 2.236584 1.767767 1.767767 
C 2.236584 1.29895 2.5 0.663008 2.5 0 
C 2.5 -0.663008 2.236584 -1.29895 1.767767 -1.767767 
C 1.29895 -2.236584 0.663008 -2.5 0 -2.5 
C -0.663008 -2.5 -1.29895 -2.236584 -1.767767 -1.767767 
C -2.236584 -1.29895 -2.5 -0.663008 -2.5 0 
C -2.5 0.663008 -2.236584 1.29895 -1.767767 1.767767 
C -1.29895 2.236584 -0.663008 2.5 0 2.5 
z
" id="m7166235d00" style="stroke:#2ca02c;"/>
    </defs>
    <g clip-path="url(#pead16363f1)">
     <use style="fill:#2ca02c;stroke:#2ca02c;" x="138.436401" xlink:href="#m7166235d00" y="231.880061"/>
     <use style="fill:#2ca02c;stroke:#2ca02c;" x="143.12561" xlink:href="#m7166235d00" y="231.748323"/>
     <use style="fill:#2ca02c;stroke:#2ca02c;" x="147.814819" xlink:href="#m7166235d00" y="232.208063"/>
     <use style="fill:#2ca02c;stroke:#2ca02c;" x="152.50415" xlink:href="#m7166235d00" y="231.288582"/>
     <use style="fill:#2ca02c;stroke:#2ca02c;" x="157.238647" xlink:href="#m7166235d00" y="231.158188"/>
     <use style="fill:#2ca02c;stroke:#2ca02c;" x="162.127075" xlink:href="#m7166235d00" y="224.594116"/>
     <use style="fill:#2ca02c;stroke:#2ca02c;" x="166.816406" xlink:href="#m7166235d00" y="234.505421"/>
     <use style="fill:#2ca02c;stroke:#2ca02c;" x="171.505737" xlink:href="#m7166235d00" y="238.838004"/>
     <use style="fill:#2ca02c;stroke:#2ca02c;" x="176.194946" xlink:href="#m7166235d00" y="239.953749"/>
     <use style="fill:#2ca02c;stroke:#2ca02c;" x="180.884277" xlink:href="#m7166235d00" y="244.942336"/>
     <use style="fill:#2ca02c;stroke:#2ca02c;" x="185.673096" xlink:href="#m7166235d00" y="237.590522"/>
     <use style="fill:#2ca02c;stroke:#2ca02c;" x="190.362427" xlink:href="#m7166235d00" y="255.509646"/>
     <use style="fill:#2ca02c;stroke:#2ca02c;" x="195.051636" xlink:href="#m7166235d00" y="192.890843"/>
     <use style="fill:#2ca02c;stroke:#2ca02c;" x="199.740845" xlink:href="#m7166235d00" y="169.261258"/>
     <use style="fill:#2ca02c;stroke:#2ca02c;" x="204.430176" xlink:href="#m7166235d00" y="323.904778"/>
     <use style="fill:#2ca02c;stroke:#2ca02c;" x="209.218994" xlink:href="#m7166235d00" y="257.741135"/>
     <use style="fill:#2ca02c;stroke:#2ca02c;" x="213.890259" xlink:href="#m7166235d00" y="253.54029"/>
     <use style="fill:#2ca02c;stroke:#2ca02c;" x="218.579468" xlink:href="#m7166235d00" y="309.004885"/>
     <use style="fill:#2ca02c;stroke:#2ca02c;" x="223.268677" xlink:href="#m7166235d00" y="315.503088"/>
     <use style="fill:#2ca02c;stroke:#2ca02c;" x="227.958008" xlink:href="#m7166235d00" y="313.073992"/>
     <use style="fill:#2ca02c;stroke:#2ca02c;" x="232.737793" xlink:href="#m7166235d00" y="312.22038"/>
     <use style="fill:#2ca02c;stroke:#2ca02c;" x="237.526611" xlink:href="#m7166235d00" y="301.128805"/>
     <use style="fill:#2ca02c;stroke:#2ca02c;" x="242.215942" xlink:href="#m7166235d00" y="234.11155"/>
     <use style="fill:#2ca02c;stroke:#2ca02c;" x="246.905151" xlink:href="#m7166235d00" y="282.749941"/>
     <use style="fill:#2ca02c;stroke:#2ca02c;" x="251.793701" xlink:href="#m7166235d00" y="292.595377"/>
     <use style="fill:#2ca02c;stroke:#2ca02c;" x="256.48291" xlink:href="#m7166235d00" y="291.939373"/>
     <use style="fill:#2ca02c;stroke:#2ca02c;" x="261.172119" xlink:href="#m7166235d00" y="288.262793"/>
     <use style="fill:#2ca02c;stroke:#2ca02c;" x="265.86145" xlink:href="#m7166235d00" y="286.819047"/>
     <use style="fill:#2ca02c;stroke:#2ca02c;" x="270.550659" xlink:href="#m7166235d00" y="267.324438"/>
     <use style="fill:#2ca02c;stroke:#2ca02c;" x="275.339478" xlink:href="#m7166235d00" y="318.916191"/>
     <use style="fill:#2ca02c;stroke:#2ca02c;" x="280.028809" xlink:href="#m7166235d00" y="326.661877"/>
     <use style="fill:#2ca02c;stroke:#2ca02c;" x="284.71814" xlink:href="#m7166235d00" y="326.85814"/>
     <use style="fill:#2ca02c;stroke:#2ca02c;" x="289.733276" xlink:href="#m7166235d00" y="264.173468"/>
     <use style="fill:#2ca02c;stroke:#2ca02c;" x="294.09668" xlink:href="#m7166235d00" y="247.435958"/>
     <use style="fill:#2ca02c;stroke:#2ca02c;" x="298.985107" xlink:href="#m7166235d00" y="284.587558"/>
     <use style="fill:#2ca02c;stroke:#2ca02c;" x="303.674438" xlink:href="#m7166235d00" y="296.270612"/>
     <use style="fill:#2ca02c;stroke:#2ca02c;" x="308.363647" xlink:href="#m7166235d00" y="303.096817"/>
     <use style="fill:#2ca02c;stroke:#2ca02c;" x="313.052856" xlink:href="#m7166235d00" y="310.842503"/>
     <use style="fill:#2ca02c;stroke:#2ca02c;" x="317.742188" xlink:href="#m7166235d00" y="241.069493"/>
     <use style="fill:#2ca02c;stroke:#2ca02c;" x="327.193115" xlink:href="#m7166235d00" y="226.1696"/>
     <use style="fill:#2ca02c;stroke:#2ca02c;" x="331.882446" xlink:href="#m7166235d00" y="97.789091"/>
     <use style="fill:#2ca02c;stroke:#2ca02c;" x="336.571655" xlink:href="#m7166235d00" y="242.381501"/>
     <use style="fill:#2ca02c;stroke:#2ca02c;" x="341.559692" xlink:href="#m7166235d00" y="338.279061"/>
     <use style="fill:#2ca02c;stroke:#2ca02c;" x="346.230835" xlink:href="#m7166235d00" y="245.794604"/>
     <use style="fill:#2ca02c;stroke:#2ca02c;" x="350.920044" xlink:href="#m7166235d00" y="152.785881"/>
     <use style="fill:#2ca02c;stroke:#2ca02c;" x="355.609375" xlink:href="#m7166235d00" y="279.336838"/>
     <use style="fill:#2ca02c;stroke:#2ca02c;" x="360.298706" xlink:href="#m7166235d00" y="249.733316"/>
     <use style="fill:#2ca02c;stroke:#2ca02c;" x="365.087524" xlink:href="#m7166235d00" y="232.339801"/>
     <use style="fill:#2ca02c;stroke:#2ca02c;" x="369.758667" xlink:href="#m7166235d00" y="233.783548"/>
     <use style="fill:#2ca02c;stroke:#2ca02c;" x="374.447876" xlink:href="#m7166235d00" y="230.698447"/>
     <use style="fill:#2ca02c;stroke:#2ca02c;" x="379.137207" xlink:href="#m7166235d00" y="232.404326"/>
     <use style="fill:#2ca02c;stroke:#2ca02c;" x="383.826538" xlink:href="#m7166235d00" y="233.257938"/>
     <use style="fill:#2ca02c;stroke:#2ca02c;" x="388.714966" xlink:href="#m7166235d00" y="217.30817"/>
     <use style="fill:#2ca02c;stroke:#2ca02c;" x="393.404175" xlink:href="#m7166235d00" y="232.667803"/>
     <use style="fill:#2ca02c;stroke:#2ca02c;" x="398.093506" xlink:href="#m7166235d00" y="230.698447"/>
     <use style="fill:#2ca02c;stroke:#2ca02c;" x="402.782715" xlink:href="#m7166235d00" y="231.94593"/>
     <use style="fill:#2ca02c;stroke:#2ca02c;" x="407.472046" xlink:href="#m7166235d00" y="233.192069"/>
     <use style="fill:#2ca02c;stroke:#2ca02c;" x="412.260864" xlink:href="#m7166235d00" y="230.304576"/>
     <use style="fill:#2ca02c;stroke:#2ca02c;" x="421.612183" xlink:href="#m7166235d00" y="230.304576"/>
     <use style="fill:#2ca02c;stroke:#2ca02c;" x="426.301514" xlink:href="#m7166235d00" y="229.976574"/>
     <use style="fill:#2ca02c;stroke:#2ca02c;" x="431.189941" xlink:href="#m7166235d00" y="231.682453"/>
     <use style="fill:#2ca02c;stroke:#2ca02c;" x="435.879272" xlink:href="#m7166235d00" y="231.158188"/>
     <use style="fill:#2ca02c;stroke:#2ca02c;" x="440.568481" xlink:href="#m7166235d00" y="232.142194"/>
     <use style="fill:#2ca02c;stroke:#2ca02c;" x="445.257812" xlink:href="#m7166235d00" y="233.849417"/>
     <use style="fill:#2ca02c;stroke:#2ca02c;" x="449.947021" xlink:href="#m7166235d00" y="231.48619"/>
     <use style="fill:#2ca02c;stroke:#2ca02c;" x="454.835449" xlink:href="#m7166235d00" y="230.96058"/>
     <use style="fill:#2ca02c;stroke:#2ca02c;" x="459.470459" xlink:href="#m7166235d00" y="234.307813"/>
     <use style="fill:#2ca02c;stroke:#2ca02c;" x="464.159668" xlink:href="#m7166235d00" y="229.385095"/>
     <use style="fill:#2ca02c;stroke:#2ca02c;" x="468.848999" xlink:href="#m7166235d00" y="230.172838"/>
     <use style="fill:#2ca02c;stroke:#2ca02c;" x="473.529175" xlink:href="#m7166235d00" y="230.172838"/>
     <use style="fill:#2ca02c;stroke:#2ca02c;" x="478.318115" xlink:href="#m7166235d00" y="230.830186"/>
     <use style="fill:#2ca02c;stroke:#2ca02c;" x="483.007324" xlink:href="#m7166235d00" y="213.632935"/>
     <use style="fill:#2ca02c;stroke:#2ca02c;" x="487.696533" xlink:href="#m7166235d00" y="230.436315"/>
     <use style="fill:#2ca02c;stroke:#2ca02c;" x="492.376831" xlink:href="#m7166235d00" y="231.158188"/>
     <use style="fill:#2ca02c;stroke:#2ca02c;" x="497.066162" xlink:href="#m7166235d00" y="230.50084"/>
     <use style="fill:#2ca02c;stroke:#2ca02c;" x="501.95459" xlink:href="#m7166235d00" y="231.092319"/>
     <use style="fill:#2ca02c;stroke:#2ca02c;" x="506.72522" xlink:href="#m7166235d00" y="231.880061"/>
     <use style="fill:#2ca02c;stroke:#2ca02c;" x="516.013306" xlink:href="#m7166235d00" y="231.48619"/>
     <use style="fill:#2ca02c;stroke:#2ca02c;" x="520.702637" xlink:href="#m7166235d00" y="231.94593"/>
     <use style="fill:#2ca02c;stroke:#2ca02c;" x="525.373779" xlink:href="#m7166235d00" y="227.351214"/>
     <use style="fill:#2ca02c;stroke:#2ca02c;" x="530.053955" xlink:href="#m7166235d00" y="228.79496"/>
     <use style="fill:#2ca02c;stroke:#2ca02c;" x="534.743164" xlink:href="#m7166235d00" y="266.404957"/>
     <use style="fill:#2ca02c;stroke:#2ca02c;" x="539.432495" xlink:href="#m7166235d00" y="203.327758"/>
     <use style="fill:#2ca02c;stroke:#2ca02c;" x="544.320923" xlink:href="#m7166235d00" y="217.30817"/>
     <use style="fill:#2ca02c;stroke:#2ca02c;" x="548.992065" xlink:href="#m7166235d00" y="289.576146"/>
     <use style="fill:#2ca02c;stroke:#2ca02c;" x="553.780884" xlink:href="#m7166235d00" y="223.54424"/>
     <use style="fill:#2ca02c;stroke:#2ca02c;" x="558.569824" xlink:href="#m7166235d00" y="237.590522"/>
     <use style="fill:#2ca02c;stroke:#2ca02c;" x="563.25" xlink:href="#m7166235d00" y="294.826866"/>
     <use style="fill:#2ca02c;stroke:#2ca02c;" x="568.03894" xlink:href="#m7166235d00" y="231.48619"/>
     <use style="fill:#2ca02c;stroke:#2ca02c;" x="572.710083" xlink:href="#m7166235d00" y="231.880061"/>
     <use style="fill:#2ca02c;stroke:#2ca02c;" x="577.399292" xlink:href="#m7166235d00" y="232.536065"/>
     <use style="fill:#2ca02c;stroke:#2ca02c;" x="582.079468" xlink:href="#m7166235d00" y="230.894711"/>
     <use style="fill:#2ca02c;stroke:#2ca02c;" x="586.768799" xlink:href="#m7166235d00" y="231.617928"/>
     <use style="fill:#2ca02c;stroke:#2ca02c;" x="591.657227" xlink:href="#m7166235d00" y="231.748323"/>
     <use style="fill:#2ca02c;stroke:#2ca02c;" x="596.346558" xlink:href="#m7166235d00" y="236.343039"/>
     <use style="fill:#2ca02c;stroke:#2ca02c;" x="601.026733" xlink:href="#m7166235d00" y="232.0118"/>
     <use style="fill:#2ca02c;stroke:#2ca02c;" x="610.405273" xlink:href="#m7166235d00" y="231.552059"/>
     <use style="fill:#2ca02c;stroke:#2ca02c;" x="615.076416" xlink:href="#m7166235d00" y="231.092319"/>
     <use style="fill:#2ca02c;stroke:#2ca02c;" x="619.756592" xlink:href="#m7166235d00" y="230.238707"/>
     <use style="fill:#2ca02c;stroke:#2ca02c;" x="624.445923" xlink:href="#m7166235d00" y="232.798198"/>
     <use style="fill:#2ca02c;stroke:#2ca02c;" x="629.135132" xlink:href="#m7166235d00" y="231.158188"/>
     <use style="fill:#2ca02c;stroke:#2ca02c;" x="633.92395" xlink:href="#m7166235d00" y="230.894711"/>
     <use style="fill:#2ca02c;stroke:#2ca02c;" x="638.613281" xlink:href="#m7166235d00" y="231.94593"/>
     <use style="fill:#2ca02c;stroke:#2ca02c;" x="643.302612" xlink:href="#m7166235d00" y="231.354451"/>
     <use style="fill:#2ca02c;stroke:#2ca02c;" x="647.991821" xlink:href="#m7166235d00" y="232.601934"/>
     <use style="fill:#2ca02c;stroke:#2ca02c;" x="652.681152" xlink:href="#m7166235d00" y="233.192069"/>
     <use style="fill:#2ca02c;stroke:#2ca02c;" x="657.460938" xlink:href="#m7166235d00" y="231.552059"/>
     <use style="fill:#2ca02c;stroke:#2ca02c;" x="662.231689" xlink:href="#m7166235d00" y="231.94593"/>
     <use style="fill:#2ca02c;stroke:#2ca02c;" x="667.020508" xlink:href="#m7166235d00" y="230.108313"/>
     <use style="fill:#2ca02c;stroke:#2ca02c;" x="671.709839" xlink:href="#m7166235d00" y="231.026449"/>
     <use style="fill:#2ca02c;stroke:#2ca02c;" x="676.390015" xlink:href="#m7166235d00" y="232.142194"/>
     <use style="fill:#2ca02c;stroke:#2ca02c;" x="681.178955" xlink:href="#m7166235d00" y="231.94593"/>
     <use style="fill:#2ca02c;stroke:#2ca02c;" x="685.859131" xlink:href="#m7166235d00" y="232.142194"/>
     <use style="fill:#2ca02c;stroke:#2ca02c;" x="690.54834" xlink:href="#m7166235d00" y="230.764317"/>
     <use style="fill:#2ca02c;stroke:#2ca02c;" x="695.228516" xlink:href="#m7166235d00" y="232.0118"/>
     <use style="fill:#2ca02c;stroke:#2ca02c;" x="704.588989" xlink:href="#m7166235d00" y="233.257938"/>
     <use style="fill:#2ca02c;stroke:#2ca02c;" x="709.368774" xlink:href="#m7166235d00" y="230.370445"/>
     <use style="fill:#2ca02c;stroke:#2ca02c;" x="714.058105" xlink:href="#m7166235d00" y="231.617928"/>
     <use style="fill:#2ca02c;stroke:#2ca02c;" x="718.747314" xlink:href="#m7166235d00" y="231.420321"/>
     <use style="fill:#2ca02c;stroke:#2ca02c;" x="723.635742" xlink:href="#m7166235d00" y="231.354451"/>
     <use style="fill:#2ca02c;stroke:#2ca02c;" x="728.307007" xlink:href="#m7166235d00" y="233.127544"/>
     <use style="fill:#2ca02c;stroke:#2ca02c;" x="733.403564" xlink:href="#m7166235d00" y="230.894711"/>
     <use style="fill:#2ca02c;stroke:#2ca02c;" x="737.685547" xlink:href="#m7166235d00" y="232.864067"/>
     <use style="fill:#2ca02c;stroke:#2ca02c;" x="742.374756" xlink:href="#m7166235d00" y="228.33522"/>
     <use style="fill:#2ca02c;stroke:#2ca02c;" x="747.163574" xlink:href="#m7166235d00" y="231.48619"/>
    </g>
   </g>
   <g id="patch_3">
    <path d="M 108 518.4 
L 108 77.76 
" style="fill:none;stroke:#000000;stroke-linecap:square;stroke-linejoin:miter;stroke-width:0.8;"/>
   </g>
   <g id="patch_4">
    <path d="M 777.6 518.4 
L 777.6 77.76 
" style="fill:none;stroke:#000000;stroke-linecap:square;stroke-linejoin:miter;stroke-width:0.8;"/>
   </g>
   <g id="patch_5">
    <path d="M 108 518.4 
L 777.599976 518.4 
" style="fill:none;stroke:#000000;stroke-linecap:square;stroke-linejoin:miter;stroke-width:0.8;"/>
   </g>
   <g id="patch_6">
    <path d="M 108 77.76 
L 777.599976 77.76 
" style="fill:none;stroke:#000000;stroke-linecap:square;stroke-linejoin:miter;stroke-width:0.8;"/>
   </g>
   <g id="text_18">
    <!-- IMU Scaled Acc (mg) -->
    <defs>
     <path d="M 9.8125 72.90625 
L 19.671875 72.90625 
L 19.671875 0 
L 9.8125 0 
z
" id="DejaVuSans-73"/>
     <path d="M 9.8125 72.90625 
L 24.515625 72.90625 
L 43.109375 23.296875 
L 61.8125 72.90625 
L 76.515625 72.90625 
L 76.515625 0 
L 66.890625 0 
L 66.890625 64.015625 
L 48.09375 14.015625 
L 38.1875 14.015625 
L 19.390625 64.015625 
L 19.390625 0 
L 9.8125 0 
z
" id="DejaVuSans-77"/>
     <path d="M 8.6875 72.90625 
L 18.609375 72.90625 
L 18.609375 28.609375 
Q 18.609375 16.890625 22.84375 11.734375 
Q 27.09375 6.59375 36.625 6.59375 
Q 46.09375 6.59375 50.34375 11.734375 
Q 54.59375 16.890625 54.59375 28.609375 
L 54.59375 72.90625 
L 64.5 72.90625 
L 64.5 27.390625 
Q 64.5 13.140625 57.4375 5.859375 
Q 50.390625 -1.421875 36.625 -1.421875 
Q 22.796875 -1.421875 15.734375 5.859375 
Q 8.6875 13.140625 8.6875 27.390625 
z
" id="DejaVuSans-85"/>
    </defs>
    <g transform="translate(380.855625 71.76)scale(0.12 -0.12)">
     <use xlink:href="#DejaVuSans-73"/>
     <use x="29.492188" xlink:href="#DejaVuSans-77"/>
     <use x="115.771484" xlink:href="#DejaVuSans-85"/>
     <use x="188.964844" xlink:href="#DejaVuSans-32"/>
     <use x="220.751953" xlink:href="#DejaVuSans-83"/>
     <use x="284.228516" xlink:href="#DejaVuSans-99"/>
     <use x="339.208984" xlink:href="#DejaVuSans-97"/>
     <use x="400.488281" xlink:href="#DejaVuSans-108"/>
     <use x="428.271484" xlink:href="#DejaVuSans-101"/>
     <use x="489.794922" xlink:href="#DejaVuSans-100"/>
     <use x="553.271484" xlink:href="#DejaVuSans-32"/>
     <use x="585.058594" xlink:href="#DejaVuSans-65"/>
     <use x="651.716797" xlink:href="#DejaVuSans-99"/>
     <use x="706.697266" xlink:href="#DejaVuSans-99"/>
     <use x="761.677734" xlink:href="#DejaVuSans-32"/>
     <use x="793.464844" xlink:href="#DejaVuSans-40"/>
     <use x="832.478516" xlink:href="#DejaVuSans-109"/>
     <use x="929.890625" xlink:href="#DejaVuSans-103"/>
     <use x="993.367188" xlink:href="#DejaVuSans-41"/>
    </g>
   </g>
   <g id="legend_1">
    <g id="patch_7">
     <path d="M 641.940625 130.62875 
L 770.6 130.62875 
Q 772.6 130.62875 772.6 128.62875 
L 772.6 84.76 
Q 772.6 82.76 770.6 82.76 
L 641.940625 82.76 
Q 639.940625 82.76 639.940625 84.76 
L 639.940625 128.62875 
Q 639.940625 130.62875 641.940625 130.62875 
z
" style="fill:#ffffff;opacity:0.8;stroke:#cccccc;stroke-linejoin:miter;"/>
    </g>
    <g id="line2d_34">
     <path d="M 643.940625 90.858437 
L 663.940625 90.858437 
" style="fill:none;stroke:#1f77b4;stroke-linecap:square;stroke-width:1.5;"/>
    </g>
    <g id="line2d_35">
     <g>
      <use style="fill:#1f77b4;stroke:#1f77b4;" x="653.940625" xlink:href="#m49af82264a" y="90.858437"/>
     </g>
    </g>
    <g id="text_19">
     <!-- Scaled_Acc_X_(mg) -->
     <defs>
      <path d="M 50.984375 -16.609375 
L 50.984375 -23.578125 
L -0.984375 -23.578125 
L -0.984375 -16.609375 
z
" id="DejaVuSans-95"/>
      <path d="M 6.296875 72.90625 
L 16.890625 72.90625 
L 35.015625 45.796875 
L 53.21875 72.90625 
L 63.8125 72.90625 
L 40.375 37.890625 
L 65.375 0 
L 54.78125 0 
L 34.28125 31 
L 13.625 0 
L 2.984375 0 
L 29 38.921875 
z
" id="DejaVuSans-88"/>
     </defs>
     <g transform="translate(671.940625 94.358437)scale(0.1 -0.1)">
      <use xlink:href="#DejaVuSans-83"/>
      <use x="63.476562" xlink:href="#DejaVuSans-99"/>
      <use x="118.457031" xlink:href="#DejaVuSans-97"/>
      <use x="179.736328" xlink:href="#DejaVuSans-108"/>
      <use x="207.519531" xlink:href="#DejaVuSans-101"/>
      <use x="269.042969" xlink:href="#DejaVuSans-100"/>
      <use x="332.519531" xlink:href="#DejaVuSans-95"/>
      <use x="382.519531" xlink:href="#DejaVuSans-65"/>
      <use x="449.177734" xlink:href="#DejaVuSans-99"/>
      <use x="504.158203" xlink:href="#DejaVuSans-99"/>
      <use x="559.138672" xlink:href="#DejaVuSans-95"/>
      <use x="609.138672" xlink:href="#DejaVuSans-88"/>
      <use x="677.644531" xlink:href="#DejaVuSans-95"/>
      <use x="727.644531" xlink:href="#DejaVuSans-40"/>
      <use x="766.658203" xlink:href="#DejaVuSans-109"/>
      <use x="864.070312" xlink:href="#DejaVuSans-103"/>
      <use x="927.546875" xlink:href="#DejaVuSans-41"/>
     </g>
    </g>
    <g id="line2d_36">
     <path d="M 643.940625 105.814687 
L 663.940625 105.814687 
" style="fill:none;stroke:#ff7f0e;stroke-linecap:square;stroke-width:1.5;"/>
    </g>
    <g id="line2d_37">
     <g>
      <use style="fill:#ff7f0e;stroke:#ff7f0e;" x="653.940625" xlink:href="#me13795da72" y="105.814687"/>
     </g>
    </g>
    <g id="text_20">
     <!-- Scaled_Acc_Y_(mg) -->
     <defs>
      <path d="M -0.203125 72.90625 
L 10.40625 72.90625 
L 30.609375 42.921875 
L 50.6875 72.90625 
L 61.28125 72.90625 
L 35.5 34.71875 
L 35.5 0 
L 25.59375 0 
L 25.59375 34.71875 
z
" id="DejaVuSans-89"/>
     </defs>
     <g transform="translate(671.940625 109.314687)scale(0.1 -0.1)">
      <use xlink:href="#DejaVuSans-83"/>
      <use x="63.476562" xlink:href="#DejaVuSans-99"/>
      <use x="118.457031" xlink:href="#DejaVuSans-97"/>
      <use x="179.736328" xlink:href="#DejaVuSans-108"/>
      <use x="207.519531" xlink:href="#DejaVuSans-101"/>
      <use x="269.042969" xlink:href="#DejaVuSans-100"/>
      <use x="332.519531" xlink:href="#DejaVuSans-95"/>
      <use x="382.519531" xlink:href="#DejaVuSans-65"/>
      <use x="449.177734" xlink:href="#DejaVuSans-99"/>
      <use x="504.158203" xlink:href="#DejaVuSans-99"/>
      <use x="559.138672" xlink:href="#DejaVuSans-95"/>
      <use x="609.138672" xlink:href="#DejaVuSans-89"/>
      <use x="670.222656" xlink:href="#DejaVuSans-95"/>
      <use x="720.222656" xlink:href="#DejaVuSans-40"/>
      <use x="759.236328" xlink:href="#DejaVuSans-109"/>
      <use x="856.648438" xlink:href="#DejaVuSans-103"/>
      <use x="920.125" xlink:href="#DejaVuSans-41"/>
     </g>
    </g>
    <g id="line2d_38">
     <path d="M 643.940625 120.770937 
L 663.940625 120.770937 
" style="fill:none;stroke:#2ca02c;stroke-linecap:square;stroke-width:1.5;"/>
    </g>
    <g id="line2d_39">
     <g>
      <use style="fill:#2ca02c;stroke:#2ca02c;" x="653.940625" xlink:href="#m7166235d00" y="120.770937"/>
     </g>
    </g>
    <g id="text_21">
     <!-- Scaled_Acc_Z_(mg) -->
     <defs>
      <path d="M 5.609375 72.90625 
L 62.890625 72.90625 
L 62.890625 65.375 
L 16.796875 8.296875 
L 64.015625 8.296875 
L 64.015625 0 
L 4.5 0 
L 4.5 7.515625 
L 50.59375 64.59375 
L 5.609375 64.59375 
z
" id="DejaVuSans-90"/>
     </defs>
     <g transform="translate(671.940625 124.270937)scale(0.1 -0.1)">
      <use xlink:href="#DejaVuSans-83"/>
      <use x="63.476562" xlink:href="#DejaVuSans-99"/>
      <use x="118.457031" xlink:href="#DejaVuSans-97"/>
      <use x="179.736328" xlink:href="#DejaVuSans-108"/>
      <use x="207.519531" xlink:href="#DejaVuSans-101"/>
      <use x="269.042969" xlink:href="#DejaVuSans-100"/>
      <use x="332.519531" xlink:href="#DejaVuSans-95"/>
      <use x="382.519531" xlink:href="#DejaVuSans-65"/>
      <use x="449.177734" xlink:href="#DejaVuSans-99"/>
      <use x="504.158203" xlink:href="#DejaVuSans-99"/>
      <use x="559.138672" xlink:href="#DejaVuSans-95"/>
      <use x="609.138672" xlink:href="#DejaVuSans-90"/>
      <use x="677.644531" xlink:href="#DejaVuSans-95"/>
      <use x="727.644531" xlink:href="#DejaVuSans-40"/>
      <use x="766.658203" xlink:href="#DejaVuSans-109"/>
      <use x="864.070312" xlink:href="#DejaVuSans-103"/>
      <use x="927.546875" xlink:href="#DejaVuSans-41"/>
     </g>
    </g>
   </g>
  </g>
 </g>
 <defs>
  <clipPath id="pead16363f1">
   <rect height="440.64" width="669.6" x="108" y="77.76"/>
  </clipPath>
 </defs>
</svg>
