<?xml version="1.0" encoding="utf-8" standalone="no"?>
<!DOCTYPE svg PUBLIC "-//W3C//DTD SVG 1.1//EN"
  "http://www.w3.org/Graphics/SVG/1.1/DTD/svg11.dtd">
<!-- Created with matplotlib (https://matplotlib.org/) -->
<svg height="648pt" version="1.1" viewBox="0 0 864 648" width="864pt" xmlns="http://www.w3.org/2000/svg" xmlns:xlink="http://www.w3.org/1999/xlink">
 <defs>
  <style type="text/css">
*{stroke-linecap:butt;stroke-linejoin:round;}
  </style>
 </defs>
 <g id="figure_1">
  <g id="patch_1">
   <path d="M 0 648 
L 864 648 
L 864 0 
L 0 0 
z
" style="fill:#ffffff;"/>
  </g>
  <g id="axes_1">
   <g id="patch_2">
    <path d="M 108 518.4 
L 777.6 518.4 
L 777.6 77.76 
L 108 77.76 
z
" style="fill:#ffffff;"/>
   </g>
   <g id="matplotlib.axis_1">
    <g id="xtick_1">
     <g id="line2d_1">
      <path clip-path="url(#pebafc2a7b4)" d="M 117.37085 518.4 
L 117.37085 77.76 
" style="fill:none;stroke:#b0b0b0;stroke-linecap:square;stroke-width:0.8;"/>
     </g>
     <g id="line2d_2">
      <defs>
       <path d="M 0 0 
L 0 3.5 
" id="mbf53347915" style="stroke:#000000;stroke-width:0.8;"/>
      </defs>
      <g>
       <use style="stroke:#000000;stroke-width:0.8;" x="117.37085" xlink:href="#mbf53347915" y="518.4"/>
      </g>
     </g>
     <g id="text_1">
      <!-- 00:00:00 -->
      <defs>
       <path d="M 31.78125 66.40625 
Q 24.171875 66.40625 20.328125 58.90625 
Q 16.5 51.421875 16.5 36.375 
Q 16.5 21.390625 20.328125 13.890625 
Q 24.171875 6.390625 31.78125 6.390625 
Q 39.453125 6.390625 43.28125 13.890625 
Q 47.125 21.390625 47.125 36.375 
Q 47.125 51.421875 43.28125 58.90625 
Q 39.453125 66.40625 31.78125 66.40625 
z
M 31.78125 74.21875 
Q 44.046875 74.21875 50.515625 64.515625 
Q 56.984375 54.828125 56.984375 36.375 
Q 56.984375 17.96875 50.515625 8.265625 
Q 44.046875 -1.421875 31.78125 -1.421875 
Q 19.53125 -1.421875 13.0625 8.265625 
Q 6.59375 17.96875 6.59375 36.375 
Q 6.59375 54.828125 13.0625 64.515625 
Q 19.53125 74.21875 31.78125 74.21875 
z
" id="DejaVuSans-48"/>
       <path d="M 11.71875 12.40625 
L 22.015625 12.40625 
L 22.015625 0 
L 11.71875 0 
z
M 11.71875 51.703125 
L 22.015625 51.703125 
L 22.015625 39.3125 
L 11.71875 39.3125 
z
" id="DejaVuSans-58"/>
      </defs>
      <g transform="translate(77.43564 554.43669)rotate(-30)scale(0.1 -0.1)">
       <use xlink:href="#DejaVuSans-48"/>
       <use x="63.623047" xlink:href="#DejaVuSans-48"/>
       <use x="127.246094" xlink:href="#DejaVuSans-58"/>
       <use x="160.9375" xlink:href="#DejaVuSans-48"/>
       <use x="224.560547" xlink:href="#DejaVuSans-48"/>
       <use x="288.183594" xlink:href="#DejaVuSans-58"/>
       <use x="321.875" xlink:href="#DejaVuSans-48"/>
       <use x="385.498047" xlink:href="#DejaVuSans-48"/>
      </g>
     </g>
    </g>
    <g id="xtick_2">
     <g id="line2d_3">
      <path clip-path="url(#pebafc2a7b4)" d="M 207.897339 518.4 
L 207.897339 77.76 
" style="fill:none;stroke:#b0b0b0;stroke-linecap:square;stroke-width:0.8;"/>
     </g>
     <g id="line2d_4">
      <g>
       <use style="stroke:#000000;stroke-width:0.8;" x="207.897339" xlink:href="#mbf53347915" y="518.4"/>
      </g>
     </g>
     <g id="text_2">
      <!-- 00:00:10 -->
      <defs>
       <path d="M 12.40625 8.296875 
L 28.515625 8.296875 
L 28.515625 63.921875 
L 10.984375 60.40625 
L 10.984375 69.390625 
L 28.421875 72.90625 
L 38.28125 72.90625 
L 38.28125 8.296875 
L 54.390625 8.296875 
L 54.390625 0 
L 12.40625 0 
z
" id="DejaVuSans-49"/>
      </defs>
      <g transform="translate(167.962129 554.43669)rotate(-30)scale(0.1 -0.1)">
       <use xlink:href="#DejaVuSans-48"/>
       <use x="63.623047" xlink:href="#DejaVuSans-48"/>
       <use x="127.246094" xlink:href="#DejaVuSans-58"/>
       <use x="160.9375" xlink:href="#DejaVuSans-48"/>
       <use x="224.560547" xlink:href="#DejaVuSans-48"/>
       <use x="288.183594" xlink:href="#DejaVuSans-58"/>
       <use x="321.875" xlink:href="#DejaVuSans-49"/>
       <use x="385.498047" xlink:href="#DejaVuSans-48"/>
      </g>
     </g>
    </g>
    <g id="xtick_3">
     <g id="line2d_5">
      <path clip-path="url(#pebafc2a7b4)" d="M 298.423828 518.4 
L 298.423828 77.76 
" style="fill:none;stroke:#b0b0b0;stroke-linecap:square;stroke-width:0.8;"/>
     </g>
     <g id="line2d_6">
      <g>
       <use style="stroke:#000000;stroke-width:0.8;" x="298.423828" xlink:href="#mbf53347915" y="518.4"/>
      </g>
     </g>
     <g id="text_3">
      <!-- 00:00:20 -->
      <defs>
       <path d="M 19.1875 8.296875 
L 53.609375 8.296875 
L 53.609375 0 
L 7.328125 0 
L 7.328125 8.296875 
Q 12.9375 14.109375 22.625 23.890625 
Q 32.328125 33.6875 34.8125 36.53125 
Q 39.546875 41.84375 41.421875 45.53125 
Q 43.3125 49.21875 43.3125 52.78125 
Q 43.3125 58.59375 39.234375 62.25 
Q 35.15625 65.921875 28.609375 65.921875 
Q 23.96875 65.921875 18.8125 64.3125 
Q 13.671875 62.703125 7.8125 59.421875 
L 7.8125 69.390625 
Q 13.765625 71.78125 18.9375 73 
Q 24.125 74.21875 28.421875 74.21875 
Q 39.75 74.21875 46.484375 68.546875 
Q 53.21875 62.890625 53.21875 53.421875 
Q 53.21875 48.921875 51.53125 44.890625 
Q 49.859375 40.875 45.40625 35.40625 
Q 44.1875 33.984375 37.640625 27.21875 
Q 31.109375 20.453125 19.1875 8.296875 
z
" id="DejaVuSans-50"/>
      </defs>
      <g transform="translate(258.488618 554.43669)rotate(-30)scale(0.1 -0.1)">
       <use xlink:href="#DejaVuSans-48"/>
       <use x="63.623047" xlink:href="#DejaVuSans-48"/>
       <use x="127.246094" xlink:href="#DejaVuSans-58"/>
       <use x="160.9375" xlink:href="#DejaVuSans-48"/>
       <use x="224.560547" xlink:href="#DejaVuSans-48"/>
       <use x="288.183594" xlink:href="#DejaVuSans-58"/>
       <use x="321.875" xlink:href="#DejaVuSans-50"/>
       <use x="385.498047" xlink:href="#DejaVuSans-48"/>
      </g>
     </g>
    </g>
    <g id="xtick_4">
     <g id="line2d_7">
      <path clip-path="url(#pebafc2a7b4)" d="M 388.950317 518.4 
L 388.950317 77.76 
" style="fill:none;stroke:#b0b0b0;stroke-linecap:square;stroke-width:0.8;"/>
     </g>
     <g id="line2d_8">
      <g>
       <use style="stroke:#000000;stroke-width:0.8;" x="388.950317" xlink:href="#mbf53347915" y="518.4"/>
      </g>
     </g>
     <g id="text_4">
      <!-- 00:00:30 -->
      <defs>
       <path d="M 40.578125 39.3125 
Q 47.65625 37.796875 51.625 33 
Q 55.609375 28.21875 55.609375 21.1875 
Q 55.609375 10.40625 48.1875 4.484375 
Q 40.765625 -1.421875 27.09375 -1.421875 
Q 22.515625 -1.421875 17.65625 -0.515625 
Q 12.796875 0.390625 7.625 2.203125 
L 7.625 11.71875 
Q 11.71875 9.328125 16.59375 8.109375 
Q 21.484375 6.890625 26.8125 6.890625 
Q 36.078125 6.890625 40.9375 10.546875 
Q 45.796875 14.203125 45.796875 21.1875 
Q 45.796875 27.640625 41.28125 31.265625 
Q 36.765625 34.90625 28.71875 34.90625 
L 20.21875 34.90625 
L 20.21875 43.015625 
L 29.109375 43.015625 
Q 36.375 43.015625 40.234375 45.921875 
Q 44.09375 48.828125 44.09375 54.296875 
Q 44.09375 59.90625 40.109375 62.90625 
Q 36.140625 65.921875 28.71875 65.921875 
Q 24.65625 65.921875 20.015625 65.03125 
Q 15.375 64.15625 9.8125 62.3125 
L 9.8125 71.09375 
Q 15.4375 72.65625 20.34375 73.4375 
Q 25.25 74.21875 29.59375 74.21875 
Q 40.828125 74.21875 47.359375 69.109375 
Q 53.90625 64.015625 53.90625 55.328125 
Q 53.90625 49.265625 50.4375 45.09375 
Q 46.96875 40.921875 40.578125 39.3125 
z
" id="DejaVuSans-51"/>
      </defs>
      <g transform="translate(349.015108 554.43669)rotate(-30)scale(0.1 -0.1)">
       <use xlink:href="#DejaVuSans-48"/>
       <use x="63.623047" xlink:href="#DejaVuSans-48"/>
       <use x="127.246094" xlink:href="#DejaVuSans-58"/>
       <use x="160.9375" xlink:href="#DejaVuSans-48"/>
       <use x="224.560547" xlink:href="#DejaVuSans-48"/>
       <use x="288.183594" xlink:href="#DejaVuSans-58"/>
       <use x="321.875" xlink:href="#DejaVuSans-51"/>
       <use x="385.498047" xlink:href="#DejaVuSans-48"/>
      </g>
     </g>
    </g>
    <g id="xtick_5">
     <g id="line2d_9">
      <path clip-path="url(#pebafc2a7b4)" d="M 479.476807 518.4 
L 479.476807 77.76 
" style="fill:none;stroke:#b0b0b0;stroke-linecap:square;stroke-width:0.8;"/>
     </g>
     <g id="line2d_10">
      <g>
       <use style="stroke:#000000;stroke-width:0.8;" x="479.476807" xlink:href="#mbf53347915" y="518.4"/>
      </g>
     </g>
     <g id="text_5">
      <!-- 00:00:40 -->
      <defs>
       <path d="M 37.796875 64.3125 
L 12.890625 25.390625 
L 37.796875 25.390625 
z
M 35.203125 72.90625 
L 47.609375 72.90625 
L 47.609375 25.390625 
L 58.015625 25.390625 
L 58.015625 17.1875 
L 47.609375 17.1875 
L 47.609375 0 
L 37.796875 0 
L 37.796875 17.1875 
L 4.890625 17.1875 
L 4.890625 26.703125 
z
" id="DejaVuSans-52"/>
      </defs>
      <g transform="translate(439.541597 554.43669)rotate(-30)scale(0.1 -0.1)">
       <use xlink:href="#DejaVuSans-48"/>
       <use x="63.623047" xlink:href="#DejaVuSans-48"/>
       <use x="127.246094" xlink:href="#DejaVuSans-58"/>
       <use x="160.9375" xlink:href="#DejaVuSans-48"/>
       <use x="224.560547" xlink:href="#DejaVuSans-48"/>
       <use x="288.183594" xlink:href="#DejaVuSans-58"/>
       <use x="321.875" xlink:href="#DejaVuSans-52"/>
       <use x="385.498047" xlink:href="#DejaVuSans-48"/>
      </g>
     </g>
    </g>
    <g id="xtick_6">
     <g id="line2d_11">
      <path clip-path="url(#pebafc2a7b4)" d="M 570.003296 518.4 
L 570.003296 77.76 
" style="fill:none;stroke:#b0b0b0;stroke-linecap:square;stroke-width:0.8;"/>
     </g>
     <g id="line2d_12">
      <g>
       <use style="stroke:#000000;stroke-width:0.8;" x="570.003296" xlink:href="#mbf53347915" y="518.4"/>
      </g>
     </g>
     <g id="text_6">
      <!-- 00:00:50 -->
      <defs>
       <path d="M 10.796875 72.90625 
L 49.515625 72.90625 
L 49.515625 64.59375 
L 19.828125 64.59375 
L 19.828125 46.734375 
Q 21.96875 47.46875 24.109375 47.828125 
Q 26.265625 48.1875 28.421875 48.1875 
Q 40.625 48.1875 47.75 41.5 
Q 54.890625 34.8125 54.890625 23.390625 
Q 54.890625 11.625 47.5625 5.09375 
Q 40.234375 -1.421875 26.90625 -1.421875 
Q 22.3125 -1.421875 17.546875 -0.640625 
Q 12.796875 0.140625 7.71875 1.703125 
L 7.71875 11.625 
Q 12.109375 9.234375 16.796875 8.0625 
Q 21.484375 6.890625 26.703125 6.890625 
Q 35.15625 6.890625 40.078125 11.328125 
Q 45.015625 15.765625 45.015625 23.390625 
Q 45.015625 31 40.078125 35.4375 
Q 35.15625 39.890625 26.703125 39.890625 
Q 22.75 39.890625 18.8125 39.015625 
Q 14.890625 38.140625 10.796875 36.28125 
z
" id="DejaVuSans-53"/>
      </defs>
      <g transform="translate(530.068086 554.43669)rotate(-30)scale(0.1 -0.1)">
       <use xlink:href="#DejaVuSans-48"/>
       <use x="63.623047" xlink:href="#DejaVuSans-48"/>
       <use x="127.246094" xlink:href="#DejaVuSans-58"/>
       <use x="160.9375" xlink:href="#DejaVuSans-48"/>
       <use x="224.560547" xlink:href="#DejaVuSans-48"/>
       <use x="288.183594" xlink:href="#DejaVuSans-58"/>
       <use x="321.875" xlink:href="#DejaVuSans-53"/>
       <use x="385.498047" xlink:href="#DejaVuSans-48"/>
      </g>
     </g>
    </g>
    <g id="xtick_7">
     <g id="line2d_13">
      <path clip-path="url(#pebafc2a7b4)" d="M 660.529785 518.4 
L 660.529785 77.76 
" style="fill:none;stroke:#b0b0b0;stroke-linecap:square;stroke-width:0.8;"/>
     </g>
     <g id="line2d_14">
      <g>
       <use style="stroke:#000000;stroke-width:0.8;" x="660.529785" xlink:href="#mbf53347915" y="518.4"/>
      </g>
     </g>
     <g id="text_7">
      <!-- 00:01:00 -->
      <g transform="translate(620.594575 554.43669)rotate(-30)scale(0.1 -0.1)">
       <use xlink:href="#DejaVuSans-48"/>
       <use x="63.623047" xlink:href="#DejaVuSans-48"/>
       <use x="127.246094" xlink:href="#DejaVuSans-58"/>
       <use x="160.9375" xlink:href="#DejaVuSans-48"/>
       <use x="224.560547" xlink:href="#DejaVuSans-49"/>
       <use x="288.183594" xlink:href="#DejaVuSans-58"/>
       <use x="321.875" xlink:href="#DejaVuSans-48"/>
       <use x="385.498047" xlink:href="#DejaVuSans-48"/>
      </g>
     </g>
    </g>
    <g id="xtick_8">
     <g id="line2d_15">
      <path clip-path="url(#pebafc2a7b4)" d="M 751.056274 518.4 
L 751.056274 77.76 
" style="fill:none;stroke:#b0b0b0;stroke-linecap:square;stroke-width:0.8;"/>
     </g>
     <g id="line2d_16">
      <g>
       <use style="stroke:#000000;stroke-width:0.8;" x="751.056274" xlink:href="#mbf53347915" y="518.4"/>
      </g>
     </g>
     <g id="text_8">
      <!-- 00:01:10 -->
      <g transform="translate(711.121065 554.43669)rotate(-30)scale(0.1 -0.1)">
       <use xlink:href="#DejaVuSans-48"/>
       <use x="63.623047" xlink:href="#DejaVuSans-48"/>
       <use x="127.246094" xlink:href="#DejaVuSans-58"/>
       <use x="160.9375" xlink:href="#DejaVuSans-48"/>
       <use x="224.560547" xlink:href="#DejaVuSans-49"/>
       <use x="288.183594" xlink:href="#DejaVuSans-58"/>
       <use x="321.875" xlink:href="#DejaVuSans-49"/>
       <use x="385.498047" xlink:href="#DejaVuSans-48"/>
      </g>
     </g>
    </g>
    <g id="text_9">
     <!-- DateTime -->
     <defs>
      <path d="M 19.671875 64.796875 
L 19.671875 8.109375 
L 31.59375 8.109375 
Q 46.6875 8.109375 53.6875 14.9375 
Q 60.6875 21.78125 60.6875 36.53125 
Q 60.6875 51.171875 53.6875 57.984375 
Q 46.6875 64.796875 31.59375 64.796875 
z
M 9.8125 72.90625 
L 30.078125 72.90625 
Q 51.265625 72.90625 61.171875 64.09375 
Q 71.09375 55.28125 71.09375 36.53125 
Q 71.09375 17.671875 61.125 8.828125 
Q 51.171875 0 30.078125 0 
L 9.8125 0 
z
" id="DejaVuSans-68"/>
      <path d="M 34.28125 27.484375 
Q 23.390625 27.484375 19.1875 25 
Q 14.984375 22.515625 14.984375 16.5 
Q 14.984375 11.71875 18.140625 8.90625 
Q 21.296875 6.109375 26.703125 6.109375 
Q 34.1875 6.109375 38.703125 11.40625 
Q 43.21875 16.703125 43.21875 25.484375 
L 43.21875 27.484375 
z
M 52.203125 31.203125 
L 52.203125 0 
L 43.21875 0 
L 43.21875 8.296875 
Q 40.140625 3.328125 35.546875 0.953125 
Q 30.953125 -1.421875 24.3125 -1.421875 
Q 15.921875 -1.421875 10.953125 3.296875 
Q 6 8.015625 6 15.921875 
Q 6 25.140625 12.171875 29.828125 
Q 18.359375 34.515625 30.609375 34.515625 
L 43.21875 34.515625 
L 43.21875 35.40625 
Q 43.21875 41.609375 39.140625 45 
Q 35.0625 48.390625 27.6875 48.390625 
Q 23 48.390625 18.546875 47.265625 
Q 14.109375 46.140625 10.015625 43.890625 
L 10.015625 52.203125 
Q 14.9375 54.109375 19.578125 55.046875 
Q 24.21875 56 28.609375 56 
Q 40.484375 56 46.34375 49.84375 
Q 52.203125 43.703125 52.203125 31.203125 
z
" id="DejaVuSans-97"/>
      <path d="M 18.3125 70.21875 
L 18.3125 54.6875 
L 36.8125 54.6875 
L 36.8125 47.703125 
L 18.3125 47.703125 
L 18.3125 18.015625 
Q 18.3125 11.328125 20.140625 9.421875 
Q 21.96875 7.515625 27.59375 7.515625 
L 36.8125 7.515625 
L 36.8125 0 
L 27.59375 0 
Q 17.1875 0 13.234375 3.875 
Q 9.28125 7.765625 9.28125 18.015625 
L 9.28125 47.703125 
L 2.6875 47.703125 
L 2.6875 54.6875 
L 9.28125 54.6875 
L 9.28125 70.21875 
z
" id="DejaVuSans-116"/>
      <path d="M 56.203125 29.59375 
L 56.203125 25.203125 
L 14.890625 25.203125 
Q 15.484375 15.921875 20.484375 11.0625 
Q 25.484375 6.203125 34.421875 6.203125 
Q 39.59375 6.203125 44.453125 7.46875 
Q 49.3125 8.734375 54.109375 11.28125 
L 54.109375 2.78125 
Q 49.265625 0.734375 44.1875 -0.34375 
Q 39.109375 -1.421875 33.890625 -1.421875 
Q 20.796875 -1.421875 13.15625 6.1875 
Q 5.515625 13.8125 5.515625 26.8125 
Q 5.515625 40.234375 12.765625 48.109375 
Q 20.015625 56 32.328125 56 
Q 43.359375 56 49.78125 48.890625 
Q 56.203125 41.796875 56.203125 29.59375 
z
M 47.21875 32.234375 
Q 47.125 39.59375 43.09375 43.984375 
Q 39.0625 48.390625 32.421875 48.390625 
Q 24.90625 48.390625 20.390625 44.140625 
Q 15.875 39.890625 15.1875 32.171875 
z
" id="DejaVuSans-101"/>
      <path d="M -0.296875 72.90625 
L 61.375 72.90625 
L 61.375 64.59375 
L 35.5 64.59375 
L 35.5 0 
L 25.59375 0 
L 25.59375 64.59375 
L -0.296875 64.59375 
z
" id="DejaVuSans-84"/>
      <path d="M 9.421875 54.6875 
L 18.40625 54.6875 
L 18.40625 0 
L 9.421875 0 
z
M 9.421875 75.984375 
L 18.40625 75.984375 
L 18.40625 64.59375 
L 9.421875 64.59375 
z
" id="DejaVuSans-105"/>
      <path d="M 52 44.1875 
Q 55.375 50.25 60.0625 53.125 
Q 64.75 56 71.09375 56 
Q 79.640625 56 84.28125 50.015625 
Q 88.921875 44.046875 88.921875 33.015625 
L 88.921875 0 
L 79.890625 0 
L 79.890625 32.71875 
Q 79.890625 40.578125 77.09375 44.375 
Q 74.3125 48.1875 68.609375 48.1875 
Q 61.625 48.1875 57.5625 43.546875 
Q 53.515625 38.921875 53.515625 30.90625 
L 53.515625 0 
L 44.484375 0 
L 44.484375 32.71875 
Q 44.484375 40.625 41.703125 44.40625 
Q 38.921875 48.1875 33.109375 48.1875 
Q 26.21875 48.1875 22.15625 43.53125 
Q 18.109375 38.875 18.109375 30.90625 
L 18.109375 0 
L 9.078125 0 
L 9.078125 54.6875 
L 18.109375 54.6875 
L 18.109375 46.1875 
Q 21.1875 51.21875 25.484375 53.609375 
Q 29.78125 56 35.6875 56 
Q 41.65625 56 45.828125 52.96875 
Q 50 49.953125 52 44.1875 
z
" id="DejaVuSans-109"/>
     </defs>
     <g transform="translate(418.615625 567.83619)scale(0.1 -0.1)">
      <use xlink:href="#DejaVuSans-68"/>
      <use x="77.001953" xlink:href="#DejaVuSans-97"/>
      <use x="138.28125" xlink:href="#DejaVuSans-116"/>
      <use x="177.490234" xlink:href="#DejaVuSans-101"/>
      <use x="239.013672" xlink:href="#DejaVuSans-84"/>
      <use x="296.972656" xlink:href="#DejaVuSans-105"/>
      <use x="324.755859" xlink:href="#DejaVuSans-109"/>
      <use x="422.167969" xlink:href="#DejaVuSans-101"/>
     </g>
    </g>
   </g>
   <g id="matplotlib.axis_2">
    <g id="ytick_1">
     <g id="line2d_17">
      <path clip-path="url(#pebafc2a7b4)" d="M 108 500.492414 
L 777.6 500.492414 
" style="fill:none;stroke:#b0b0b0;stroke-linecap:square;stroke-width:0.8;"/>
     </g>
     <g id="line2d_18">
      <defs>
       <path d="M 0 0 
L -3.5 0 
" id="m2a9bd6c78c" style="stroke:#000000;stroke-width:0.8;"/>
      </defs>
      <g>
       <use style="stroke:#000000;stroke-width:0.8;" x="108" xlink:href="#m2a9bd6c78c" y="500.492414"/>
      </g>
     </g>
     <g id="text_10">
      <!-- −200 -->
      <defs>
       <path d="M 10.59375 35.5 
L 73.1875 35.5 
L 73.1875 27.203125 
L 10.59375 27.203125 
z
" id="DejaVuSans-8722"/>
      </defs>
      <g transform="translate(73.532813 504.291633)scale(0.1 -0.1)">
       <use xlink:href="#DejaVuSans-8722"/>
       <use x="83.789062" xlink:href="#DejaVuSans-50"/>
       <use x="147.412109" xlink:href="#DejaVuSans-48"/>
       <use x="211.035156" xlink:href="#DejaVuSans-48"/>
      </g>
     </g>
    </g>
    <g id="ytick_2">
     <g id="line2d_19">
      <path clip-path="url(#pebafc2a7b4)" d="M 108 442.527805 
L 777.6 442.527805 
" style="fill:none;stroke:#b0b0b0;stroke-linecap:square;stroke-width:0.8;"/>
     </g>
     <g id="line2d_20">
      <g>
       <use style="stroke:#000000;stroke-width:0.8;" x="108" xlink:href="#m2a9bd6c78c" y="442.527805"/>
      </g>
     </g>
     <g id="text_11">
      <!-- −150 -->
      <g transform="translate(73.532813 446.327024)scale(0.1 -0.1)">
       <use xlink:href="#DejaVuSans-8722"/>
       <use x="83.789062" xlink:href="#DejaVuSans-49"/>
       <use x="147.412109" xlink:href="#DejaVuSans-53"/>
       <use x="211.035156" xlink:href="#DejaVuSans-48"/>
      </g>
     </g>
    </g>
    <g id="ytick_3">
     <g id="line2d_21">
      <path clip-path="url(#pebafc2a7b4)" d="M 108 384.563196 
L 777.6 384.563196 
" style="fill:none;stroke:#b0b0b0;stroke-linecap:square;stroke-width:0.8;"/>
     </g>
     <g id="line2d_22">
      <g>
       <use style="stroke:#000000;stroke-width:0.8;" x="108" xlink:href="#m2a9bd6c78c" y="384.563196"/>
      </g>
     </g>
     <g id="text_12">
      <!-- −100 -->
      <g transform="translate(73.532813 388.362415)scale(0.1 -0.1)">
       <use xlink:href="#DejaVuSans-8722"/>
       <use x="83.789062" xlink:href="#DejaVuSans-49"/>
       <use x="147.412109" xlink:href="#DejaVuSans-48"/>
       <use x="211.035156" xlink:href="#DejaVuSans-48"/>
      </g>
     </g>
    </g>
    <g id="ytick_4">
     <g id="line2d_23">
      <path clip-path="url(#pebafc2a7b4)" d="M 108 326.598588 
L 777.6 326.598588 
" style="fill:none;stroke:#b0b0b0;stroke-linecap:square;stroke-width:0.8;"/>
     </g>
     <g id="line2d_24">
      <g>
       <use style="stroke:#000000;stroke-width:0.8;" x="108" xlink:href="#m2a9bd6c78c" y="326.598588"/>
      </g>
     </g>
     <g id="text_13">
      <!-- −50 -->
      <g transform="translate(79.895313 330.397806)scale(0.1 -0.1)">
       <use xlink:href="#DejaVuSans-8722"/>
       <use x="83.789062" xlink:href="#DejaVuSans-53"/>
       <use x="147.412109" xlink:href="#DejaVuSans-48"/>
      </g>
     </g>
    </g>
    <g id="ytick_5">
     <g id="line2d_25">
      <path clip-path="url(#pebafc2a7b4)" d="M 108 268.633979 
L 777.6 268.633979 
" style="fill:none;stroke:#b0b0b0;stroke-linecap:square;stroke-width:0.8;"/>
     </g>
     <g id="line2d_26">
      <g>
       <use style="stroke:#000000;stroke-width:0.8;" x="108" xlink:href="#m2a9bd6c78c" y="268.633979"/>
      </g>
     </g>
     <g id="text_14">
      <!-- 0 -->
      <g transform="translate(94.6375 272.433198)scale(0.1 -0.1)">
       <use xlink:href="#DejaVuSans-48"/>
      </g>
     </g>
    </g>
    <g id="ytick_6">
     <g id="line2d_27">
      <path clip-path="url(#pebafc2a7b4)" d="M 108 210.66937 
L 777.6 210.66937 
" style="fill:none;stroke:#b0b0b0;stroke-linecap:square;stroke-width:0.8;"/>
     </g>
     <g id="line2d_28">
      <g>
       <use style="stroke:#000000;stroke-width:0.8;" x="108" xlink:href="#m2a9bd6c78c" y="210.66937"/>
      </g>
     </g>
     <g id="text_15">
      <!-- 50 -->
      <g transform="translate(88.275 214.468589)scale(0.1 -0.1)">
       <use xlink:href="#DejaVuSans-53"/>
       <use x="63.623047" xlink:href="#DejaVuSans-48"/>
      </g>
     </g>
    </g>
    <g id="ytick_7">
     <g id="line2d_29">
      <path clip-path="url(#pebafc2a7b4)" d="M 108 152.704761 
L 777.6 152.704761 
" style="fill:none;stroke:#b0b0b0;stroke-linecap:square;stroke-width:0.8;"/>
     </g>
     <g id="line2d_30">
      <g>
       <use style="stroke:#000000;stroke-width:0.8;" x="108" xlink:href="#m2a9bd6c78c" y="152.704761"/>
      </g>
     </g>
     <g id="text_16">
      <!-- 100 -->
      <g transform="translate(81.9125 156.50398)scale(0.1 -0.1)">
       <use xlink:href="#DejaVuSans-49"/>
       <use x="63.623047" xlink:href="#DejaVuSans-48"/>
       <use x="127.246094" xlink:href="#DejaVuSans-48"/>
      </g>
     </g>
    </g>
    <g id="ytick_8">
     <g id="line2d_31">
      <path clip-path="url(#pebafc2a7b4)" d="M 108 94.740152 
L 777.6 94.740152 
" style="fill:none;stroke:#b0b0b0;stroke-linecap:square;stroke-width:0.8;"/>
     </g>
     <g id="line2d_32">
      <g>
       <use style="stroke:#000000;stroke-width:0.8;" x="108" xlink:href="#m2a9bd6c78c" y="94.740152"/>
      </g>
     </g>
     <g id="text_17">
      <!-- 150 -->
      <g transform="translate(81.9125 98.539371)scale(0.1 -0.1)">
       <use xlink:href="#DejaVuSans-49"/>
       <use x="63.623047" xlink:href="#DejaVuSans-53"/>
       <use x="127.246094" xlink:href="#DejaVuSans-48"/>
      </g>
     </g>
    </g>
    <g id="text_18">
     <!-- Gyr (DPS) -->
     <defs>
      <path d="M 59.515625 10.40625 
L 59.515625 29.984375 
L 43.40625 29.984375 
L 43.40625 38.09375 
L 69.28125 38.09375 
L 69.28125 6.78125 
Q 63.578125 2.734375 56.6875 0.65625 
Q 49.8125 -1.421875 42 -1.421875 
Q 24.90625 -1.421875 15.25 8.5625 
Q 5.609375 18.5625 5.609375 36.375 
Q 5.609375 54.25 15.25 64.234375 
Q 24.90625 74.21875 42 74.21875 
Q 49.125 74.21875 55.546875 72.453125 
Q 61.96875 70.703125 67.390625 67.28125 
L 67.390625 56.78125 
Q 61.921875 61.421875 55.765625 63.765625 
Q 49.609375 66.109375 42.828125 66.109375 
Q 29.4375 66.109375 22.71875 58.640625 
Q 16.015625 51.171875 16.015625 36.375 
Q 16.015625 21.625 22.71875 14.15625 
Q 29.4375 6.6875 42.828125 6.6875 
Q 48.046875 6.6875 52.140625 7.59375 
Q 56.25 8.5 59.515625 10.40625 
z
" id="DejaVuSans-71"/>
      <path d="M 32.171875 -5.078125 
Q 28.375 -14.84375 24.75 -17.8125 
Q 21.140625 -20.796875 15.09375 -20.796875 
L 7.90625 -20.796875 
L 7.90625 -13.28125 
L 13.1875 -13.28125 
Q 16.890625 -13.28125 18.9375 -11.515625 
Q 21 -9.765625 23.484375 -3.21875 
L 25.09375 0.875 
L 2.984375 54.6875 
L 12.5 54.6875 
L 29.59375 11.921875 
L 46.6875 54.6875 
L 56.203125 54.6875 
z
" id="DejaVuSans-121"/>
      <path d="M 41.109375 46.296875 
Q 39.59375 47.171875 37.8125 47.578125 
Q 36.03125 48 33.890625 48 
Q 26.265625 48 22.1875 43.046875 
Q 18.109375 38.09375 18.109375 28.8125 
L 18.109375 0 
L 9.078125 0 
L 9.078125 54.6875 
L 18.109375 54.6875 
L 18.109375 46.1875 
Q 20.953125 51.171875 25.484375 53.578125 
Q 30.03125 56 36.53125 56 
Q 37.453125 56 38.578125 55.875 
Q 39.703125 55.765625 41.0625 55.515625 
z
" id="DejaVuSans-114"/>
      <path id="DejaVuSans-32"/>
      <path d="M 31 75.875 
Q 24.46875 64.65625 21.28125 53.65625 
Q 18.109375 42.671875 18.109375 31.390625 
Q 18.109375 20.125 21.3125 9.0625 
Q 24.515625 -2 31 -13.1875 
L 23.1875 -13.1875 
Q 15.875 -1.703125 12.234375 9.375 
Q 8.59375 20.453125 8.59375 31.390625 
Q 8.59375 42.28125 12.203125 53.3125 
Q 15.828125 64.359375 23.1875 75.875 
z
" id="DejaVuSans-40"/>
      <path d="M 19.671875 64.796875 
L 19.671875 37.40625 
L 32.078125 37.40625 
Q 38.96875 37.40625 42.71875 40.96875 
Q 46.484375 44.53125 46.484375 51.125 
Q 46.484375 57.671875 42.71875 61.234375 
Q 38.96875 64.796875 32.078125 64.796875 
z
M 9.8125 72.90625 
L 32.078125 72.90625 
Q 44.34375 72.90625 50.609375 67.359375 
Q 56.890625 61.8125 56.890625 51.125 
Q 56.890625 40.328125 50.609375 34.8125 
Q 44.34375 29.296875 32.078125 29.296875 
L 19.671875 29.296875 
L 19.671875 0 
L 9.8125 0 
z
" id="DejaVuSans-80"/>
      <path d="M 53.515625 70.515625 
L 53.515625 60.890625 
Q 47.90625 63.578125 42.921875 64.890625 
Q 37.9375 66.21875 33.296875 66.21875 
Q 25.25 66.21875 20.875 63.09375 
Q 16.5 59.96875 16.5 54.203125 
Q 16.5 49.359375 19.40625 46.890625 
Q 22.3125 44.4375 30.421875 42.921875 
L 36.375 41.703125 
Q 47.40625 39.59375 52.65625 34.296875 
Q 57.90625 29 57.90625 20.125 
Q 57.90625 9.515625 50.796875 4.046875 
Q 43.703125 -1.421875 29.984375 -1.421875 
Q 24.8125 -1.421875 18.96875 -0.25 
Q 13.140625 0.921875 6.890625 3.21875 
L 6.890625 13.375 
Q 12.890625 10.015625 18.65625 8.296875 
Q 24.421875 6.59375 29.984375 6.59375 
Q 38.421875 6.59375 43.015625 9.90625 
Q 47.609375 13.234375 47.609375 19.390625 
Q 47.609375 24.75 44.3125 27.78125 
Q 41.015625 30.8125 33.5 32.328125 
L 27.484375 33.5 
Q 16.453125 35.6875 11.515625 40.375 
Q 6.59375 45.0625 6.59375 53.421875 
Q 6.59375 63.09375 13.40625 68.65625 
Q 20.21875 74.21875 32.171875 74.21875 
Q 37.3125 74.21875 42.625 73.28125 
Q 47.953125 72.359375 53.515625 70.515625 
z
" id="DejaVuSans-83"/>
      <path d="M 8.015625 75.875 
L 15.828125 75.875 
Q 23.140625 64.359375 26.78125 53.3125 
Q 30.421875 42.28125 30.421875 31.390625 
Q 30.421875 20.453125 26.78125 9.375 
Q 23.140625 -1.703125 15.828125 -13.1875 
L 8.015625 -13.1875 
Q 14.5 -2 17.703125 9.0625 
Q 20.90625 20.125 20.90625 31.390625 
Q 20.90625 42.671875 17.703125 53.65625 
Q 14.5 64.65625 8.015625 75.875 
z
" id="DejaVuSans-41"/>
     </defs>
     <g transform="translate(67.453125 322.49875)rotate(-90)scale(0.1 -0.1)">
      <use xlink:href="#DejaVuSans-71"/>
      <use x="77.490234" xlink:href="#DejaVuSans-121"/>
      <use x="136.669922" xlink:href="#DejaVuSans-114"/>
      <use x="177.783203" xlink:href="#DejaVuSans-32"/>
      <use x="209.570312" xlink:href="#DejaVuSans-40"/>
      <use x="248.583984" xlink:href="#DejaVuSans-68"/>
      <use x="325.585938" xlink:href="#DejaVuSans-80"/>
      <use x="385.888672" xlink:href="#DejaVuSans-83"/>
      <use x="449.365234" xlink:href="#DejaVuSans-41"/>
     </g>
    </g>
   </g>
   <g id="line2d_33">
    <path clip-path="url(#pebafc2a7b4)" d="M 138.436401 271.810439 
L 143.12561 270.407696 
L 147.814819 267.208049 
L 152.50415 268.460085 
L 157.238647 269.967165 
L 162.127075 304.931417 
L 166.816406 264.924244 
L 171.505737 278.63867 
L 176.194946 262.478137 
L 180.884277 259.000261 
L 185.673096 334.191951 
L 190.362427 242.793356 
L 195.051636 244.567073 
L 199.740845 320.987613 
L 204.430176 218.44822 
L 209.218994 251.708313 
L 213.890259 250.444685 
L 218.579468 274.31451 
L 223.268677 272.320528 
L 227.958008 266.002386 
L 232.737793 268.993359 
L 237.526611 295.320885 
L 242.215942 312.385665 
L 246.905151 295.413628 
L 251.793701 271.984333 
L 256.48291 266.06035 
L 261.172119 277.479378 
L 265.86145 279.716812 
L 270.550659 346.619563 
L 275.339478 272.621944 
L 280.028809 267.312386 
L 284.71814 266.095129 
L 289.733276 175.47326 
L 294.09668 176.319543 
L 298.985107 271.566988 
L 303.674438 251.070702 
L 308.363647 248.902826 
L 313.052856 272.691501 
L 317.742188 456.416125 
L 327.193115 284.27283 
L 331.882446 148.229893 
L 336.571655 242.364418 
L 341.559692 281.316635 
L 346.230835 202.994856 
L 350.920044 317.822746 
L 355.609375 286.556636 
L 360.298706 195.610165 
L 365.087524 268.842651 
L 369.758667 267.474687 
L 374.447876 271.045306 
L 379.137207 268.019554 
L 383.826538 270.546811 
L 388.714966 270.778669 
L 393.404175 266.141501 
L 398.093506 266.303801 
L 402.782715 269.43389 
L 407.472046 268.205041 
L 412.260864 268.842651 
L 421.612183 271.126457 
L 426.301514 267.451501 
L 431.189941 269.9092 
L 435.879272 271.346722 
L 440.568481 269.062917 
L 445.257812 271.161236 
L 449.947021 272.088669 
L 454.835449 272.297342 
L 459.470459 267.84566 
L 464.159668 274.70867 
L 468.848999 268.610793 
L 473.529175 271.555395 
L 478.318115 269.109289 
L 483.007324 270.430882 
L 487.696533 266.524067 
L 492.376831 269.874421 
L 497.066162 267.602209 
L 501.95459 267.416722 
L 506.72522 267.034156 
L 516.013306 267.231235 
L 520.702637 267.903625 
L 525.373779 284.296016 
L 530.053955 296.410619 
L 534.743164 249.273799 
L 539.432495 252.612561 
L 544.320923 319.921065 
L 548.992065 203.736803 
L 553.780884 250.212826 
L 558.569824 297.674248 
L 563.25 97.789091 
L 568.03894 272.934953 
L 572.710083 269.15566 
L 577.399292 270.709112 
L 582.079468 269.213625 
L 586.768799 271.532209 
L 591.657227 268.170262 
L 596.346558 270.036722 
L 601.026733 268.807873 
L 610.405273 270.639554 
L 615.076416 268.031147 
L 619.756592 267.219642 
L 624.445923 270.442475 
L 629.135132 270.917784 
L 633.92395 268.181855 
L 638.613281 269.07451 
L 643.302612 271.49743 
L 647.991821 270.314952 
L 652.681152 268.564421 
L 657.460938 267.463094 
L 662.231689 269.375926 
L 667.020508 267.115306 
L 671.709839 268.946988 
L 676.390015 268.216634 
L 681.178955 268.089111 
L 685.859131 269.71212 
L 690.54834 266.837076 
L 695.228516 270.523625 
L 704.588989 268.506457 
L 709.368774 267.718138 
L 714.058105 268.251412 
L 718.747314 267.300793 
L 723.635742 267.103713 
L 728.307007 268.506457 
L 733.403564 271.103271 
L 737.685547 273.039289 
L 742.374756 268.158669 
L 747.163574 268.576014 
" style="fill:none;stroke:#1f77b4;stroke-linecap:square;stroke-width:1.5;"/>
    <defs>
     <path d="M 0 2.5 
C 0.663008 2.5 1.29895 2.236584 1.767767 1.767767 
C 2.236584 1.29895 2.5 0.663008 2.5 0 
C 2.5 -0.663008 2.236584 -1.29895 1.767767 -1.767767 
C 1.29895 -2.236584 0.663008 -2.5 0 -2.5 
C -0.663008 -2.5 -1.29895 -2.236584 -1.767767 -1.767767 
C -2.236584 -1.29895 -2.5 -0.663008 -2.5 0 
C -2.5 0.663008 -2.236584 1.29895 -1.767767 1.767767 
C -1.29895 2.236584 -0.663008 2.5 0 2.5 
z
" id="m1be9854a77" style="stroke:#1f77b4;"/>
    </defs>
    <g clip-path="url(#pebafc2a7b4)">
     <use style="fill:#1f77b4;stroke:#1f77b4;" x="138.436401" xlink:href="#m1be9854a77" y="271.810439"/>
     <use style="fill:#1f77b4;stroke:#1f77b4;" x="143.12561" xlink:href="#m1be9854a77" y="270.407696"/>
     <use style="fill:#1f77b4;stroke:#1f77b4;" x="147.814819" xlink:href="#m1be9854a77" y="267.208049"/>
     <use style="fill:#1f77b4;stroke:#1f77b4;" x="152.50415" xlink:href="#m1be9854a77" y="268.460085"/>
     <use style="fill:#1f77b4;stroke:#1f77b4;" x="157.238647" xlink:href="#m1be9854a77" y="269.967165"/>
     <use style="fill:#1f77b4;stroke:#1f77b4;" x="162.127075" xlink:href="#m1be9854a77" y="304.931417"/>
     <use style="fill:#1f77b4;stroke:#1f77b4;" x="166.816406" xlink:href="#m1be9854a77" y="264.924244"/>
     <use style="fill:#1f77b4;stroke:#1f77b4;" x="171.505737" xlink:href="#m1be9854a77" y="278.63867"/>
     <use style="fill:#1f77b4;stroke:#1f77b4;" x="176.194946" xlink:href="#m1be9854a77" y="262.478137"/>
     <use style="fill:#1f77b4;stroke:#1f77b4;" x="180.884277" xlink:href="#m1be9854a77" y="259.000261"/>
     <use style="fill:#1f77b4;stroke:#1f77b4;" x="185.673096" xlink:href="#m1be9854a77" y="334.191951"/>
     <use style="fill:#1f77b4;stroke:#1f77b4;" x="190.362427" xlink:href="#m1be9854a77" y="242.793356"/>
     <use style="fill:#1f77b4;stroke:#1f77b4;" x="195.051636" xlink:href="#m1be9854a77" y="244.567073"/>
     <use style="fill:#1f77b4;stroke:#1f77b4;" x="199.740845" xlink:href="#m1be9854a77" y="320.987613"/>
     <use style="fill:#1f77b4;stroke:#1f77b4;" x="204.430176" xlink:href="#m1be9854a77" y="218.44822"/>
     <use style="fill:#1f77b4;stroke:#1f77b4;" x="209.218994" xlink:href="#m1be9854a77" y="251.708313"/>
     <use style="fill:#1f77b4;stroke:#1f77b4;" x="213.890259" xlink:href="#m1be9854a77" y="250.444685"/>
     <use style="fill:#1f77b4;stroke:#1f77b4;" x="218.579468" xlink:href="#m1be9854a77" y="274.31451"/>
     <use style="fill:#1f77b4;stroke:#1f77b4;" x="223.268677" xlink:href="#m1be9854a77" y="272.320528"/>
     <use style="fill:#1f77b4;stroke:#1f77b4;" x="227.958008" xlink:href="#m1be9854a77" y="266.002386"/>
     <use style="fill:#1f77b4;stroke:#1f77b4;" x="232.737793" xlink:href="#m1be9854a77" y="268.993359"/>
     <use style="fill:#1f77b4;stroke:#1f77b4;" x="237.526611" xlink:href="#m1be9854a77" y="295.320885"/>
     <use style="fill:#1f77b4;stroke:#1f77b4;" x="242.215942" xlink:href="#m1be9854a77" y="312.385665"/>
     <use style="fill:#1f77b4;stroke:#1f77b4;" x="246.905151" xlink:href="#m1be9854a77" y="295.413628"/>
     <use style="fill:#1f77b4;stroke:#1f77b4;" x="251.793701" xlink:href="#m1be9854a77" y="271.984333"/>
     <use style="fill:#1f77b4;stroke:#1f77b4;" x="256.48291" xlink:href="#m1be9854a77" y="266.06035"/>
     <use style="fill:#1f77b4;stroke:#1f77b4;" x="261.172119" xlink:href="#m1be9854a77" y="277.479378"/>
     <use style="fill:#1f77b4;stroke:#1f77b4;" x="265.86145" xlink:href="#m1be9854a77" y="279.716812"/>
     <use style="fill:#1f77b4;stroke:#1f77b4;" x="270.550659" xlink:href="#m1be9854a77" y="346.619563"/>
     <use style="fill:#1f77b4;stroke:#1f77b4;" x="275.339478" xlink:href="#m1be9854a77" y="272.621944"/>
     <use style="fill:#1f77b4;stroke:#1f77b4;" x="280.028809" xlink:href="#m1be9854a77" y="267.312386"/>
     <use style="fill:#1f77b4;stroke:#1f77b4;" x="284.71814" xlink:href="#m1be9854a77" y="266.095129"/>
     <use style="fill:#1f77b4;stroke:#1f77b4;" x="289.733276" xlink:href="#m1be9854a77" y="175.47326"/>
     <use style="fill:#1f77b4;stroke:#1f77b4;" x="294.09668" xlink:href="#m1be9854a77" y="176.319543"/>
     <use style="fill:#1f77b4;stroke:#1f77b4;" x="298.985107" xlink:href="#m1be9854a77" y="271.566988"/>
     <use style="fill:#1f77b4;stroke:#1f77b4;" x="303.674438" xlink:href="#m1be9854a77" y="251.070702"/>
     <use style="fill:#1f77b4;stroke:#1f77b4;" x="308.363647" xlink:href="#m1be9854a77" y="248.902826"/>
     <use style="fill:#1f77b4;stroke:#1f77b4;" x="313.052856" xlink:href="#m1be9854a77" y="272.691501"/>
     <use style="fill:#1f77b4;stroke:#1f77b4;" x="317.742188" xlink:href="#m1be9854a77" y="456.416125"/>
     <use style="fill:#1f77b4;stroke:#1f77b4;" x="327.193115" xlink:href="#m1be9854a77" y="284.27283"/>
     <use style="fill:#1f77b4;stroke:#1f77b4;" x="331.882446" xlink:href="#m1be9854a77" y="148.229893"/>
     <use style="fill:#1f77b4;stroke:#1f77b4;" x="336.571655" xlink:href="#m1be9854a77" y="242.364418"/>
     <use style="fill:#1f77b4;stroke:#1f77b4;" x="341.559692" xlink:href="#m1be9854a77" y="281.316635"/>
     <use style="fill:#1f77b4;stroke:#1f77b4;" x="346.230835" xlink:href="#m1be9854a77" y="202.994856"/>
     <use style="fill:#1f77b4;stroke:#1f77b4;" x="350.920044" xlink:href="#m1be9854a77" y="317.822746"/>
     <use style="fill:#1f77b4;stroke:#1f77b4;" x="355.609375" xlink:href="#m1be9854a77" y="286.556636"/>
     <use style="fill:#1f77b4;stroke:#1f77b4;" x="360.298706" xlink:href="#m1be9854a77" y="195.610165"/>
     <use style="fill:#1f77b4;stroke:#1f77b4;" x="365.087524" xlink:href="#m1be9854a77" y="268.842651"/>
     <use style="fill:#1f77b4;stroke:#1f77b4;" x="369.758667" xlink:href="#m1be9854a77" y="267.474687"/>
     <use style="fill:#1f77b4;stroke:#1f77b4;" x="374.447876" xlink:href="#m1be9854a77" y="271.045306"/>
     <use style="fill:#1f77b4;stroke:#1f77b4;" x="379.137207" xlink:href="#m1be9854a77" y="268.019554"/>
     <use style="fill:#1f77b4;stroke:#1f77b4;" x="383.826538" xlink:href="#m1be9854a77" y="270.546811"/>
     <use style="fill:#1f77b4;stroke:#1f77b4;" x="388.714966" xlink:href="#m1be9854a77" y="270.778669"/>
     <use style="fill:#1f77b4;stroke:#1f77b4;" x="393.404175" xlink:href="#m1be9854a77" y="266.141501"/>
     <use style="fill:#1f77b4;stroke:#1f77b4;" x="398.093506" xlink:href="#m1be9854a77" y="266.303801"/>
     <use style="fill:#1f77b4;stroke:#1f77b4;" x="402.782715" xlink:href="#m1be9854a77" y="269.43389"/>
     <use style="fill:#1f77b4;stroke:#1f77b4;" x="407.472046" xlink:href="#m1be9854a77" y="268.205041"/>
     <use style="fill:#1f77b4;stroke:#1f77b4;" x="412.260864" xlink:href="#m1be9854a77" y="268.842651"/>
     <use style="fill:#1f77b4;stroke:#1f77b4;" x="421.612183" xlink:href="#m1be9854a77" y="271.126457"/>
     <use style="fill:#1f77b4;stroke:#1f77b4;" x="426.301514" xlink:href="#m1be9854a77" y="267.451501"/>
     <use style="fill:#1f77b4;stroke:#1f77b4;" x="431.189941" xlink:href="#m1be9854a77" y="269.9092"/>
     <use style="fill:#1f77b4;stroke:#1f77b4;" x="435.879272" xlink:href="#m1be9854a77" y="271.346722"/>
     <use style="fill:#1f77b4;stroke:#1f77b4;" x="440.568481" xlink:href="#m1be9854a77" y="269.062917"/>
     <use style="fill:#1f77b4;stroke:#1f77b4;" x="445.257812" xlink:href="#m1be9854a77" y="271.161236"/>
     <use style="fill:#1f77b4;stroke:#1f77b4;" x="449.947021" xlink:href="#m1be9854a77" y="272.088669"/>
     <use style="fill:#1f77b4;stroke:#1f77b4;" x="454.835449" xlink:href="#m1be9854a77" y="272.297342"/>
     <use style="fill:#1f77b4;stroke:#1f77b4;" x="459.470459" xlink:href="#m1be9854a77" y="267.84566"/>
     <use style="fill:#1f77b4;stroke:#1f77b4;" x="464.159668" xlink:href="#m1be9854a77" y="274.70867"/>
     <use style="fill:#1f77b4;stroke:#1f77b4;" x="468.848999" xlink:href="#m1be9854a77" y="268.610793"/>
     <use style="fill:#1f77b4;stroke:#1f77b4;" x="473.529175" xlink:href="#m1be9854a77" y="271.555395"/>
     <use style="fill:#1f77b4;stroke:#1f77b4;" x="478.318115" xlink:href="#m1be9854a77" y="269.109289"/>
     <use style="fill:#1f77b4;stroke:#1f77b4;" x="483.007324" xlink:href="#m1be9854a77" y="270.430882"/>
     <use style="fill:#1f77b4;stroke:#1f77b4;" x="487.696533" xlink:href="#m1be9854a77" y="266.524067"/>
     <use style="fill:#1f77b4;stroke:#1f77b4;" x="492.376831" xlink:href="#m1be9854a77" y="269.874421"/>
     <use style="fill:#1f77b4;stroke:#1f77b4;" x="497.066162" xlink:href="#m1be9854a77" y="267.602209"/>
     <use style="fill:#1f77b4;stroke:#1f77b4;" x="501.95459" xlink:href="#m1be9854a77" y="267.416722"/>
     <use style="fill:#1f77b4;stroke:#1f77b4;" x="506.72522" xlink:href="#m1be9854a77" y="267.034156"/>
     <use style="fill:#1f77b4;stroke:#1f77b4;" x="516.013306" xlink:href="#m1be9854a77" y="267.231235"/>
     <use style="fill:#1f77b4;stroke:#1f77b4;" x="520.702637" xlink:href="#m1be9854a77" y="267.903625"/>
     <use style="fill:#1f77b4;stroke:#1f77b4;" x="525.373779" xlink:href="#m1be9854a77" y="284.296016"/>
     <use style="fill:#1f77b4;stroke:#1f77b4;" x="530.053955" xlink:href="#m1be9854a77" y="296.410619"/>
     <use style="fill:#1f77b4;stroke:#1f77b4;" x="534.743164" xlink:href="#m1be9854a77" y="249.273799"/>
     <use style="fill:#1f77b4;stroke:#1f77b4;" x="539.432495" xlink:href="#m1be9854a77" y="252.612561"/>
     <use style="fill:#1f77b4;stroke:#1f77b4;" x="544.320923" xlink:href="#m1be9854a77" y="319.921065"/>
     <use style="fill:#1f77b4;stroke:#1f77b4;" x="548.992065" xlink:href="#m1be9854a77" y="203.736803"/>
     <use style="fill:#1f77b4;stroke:#1f77b4;" x="553.780884" xlink:href="#m1be9854a77" y="250.212826"/>
     <use style="fill:#1f77b4;stroke:#1f77b4;" x="558.569824" xlink:href="#m1be9854a77" y="297.674248"/>
     <use style="fill:#1f77b4;stroke:#1f77b4;" x="563.25" xlink:href="#m1be9854a77" y="97.789091"/>
     <use style="fill:#1f77b4;stroke:#1f77b4;" x="568.03894" xlink:href="#m1be9854a77" y="272.934953"/>
     <use style="fill:#1f77b4;stroke:#1f77b4;" x="572.710083" xlink:href="#m1be9854a77" y="269.15566"/>
     <use style="fill:#1f77b4;stroke:#1f77b4;" x="577.399292" xlink:href="#m1be9854a77" y="270.709112"/>
     <use style="fill:#1f77b4;stroke:#1f77b4;" x="582.079468" xlink:href="#m1be9854a77" y="269.213625"/>
     <use style="fill:#1f77b4;stroke:#1f77b4;" x="586.768799" xlink:href="#m1be9854a77" y="271.532209"/>
     <use style="fill:#1f77b4;stroke:#1f77b4;" x="591.657227" xlink:href="#m1be9854a77" y="268.170262"/>
     <use style="fill:#1f77b4;stroke:#1f77b4;" x="596.346558" xlink:href="#m1be9854a77" y="270.036722"/>
     <use style="fill:#1f77b4;stroke:#1f77b4;" x="601.026733" xlink:href="#m1be9854a77" y="268.807873"/>
     <use style="fill:#1f77b4;stroke:#1f77b4;" x="610.405273" xlink:href="#m1be9854a77" y="270.639554"/>
     <use style="fill:#1f77b4;stroke:#1f77b4;" x="615.076416" xlink:href="#m1be9854a77" y="268.031147"/>
     <use style="fill:#1f77b4;stroke:#1f77b4;" x="619.756592" xlink:href="#m1be9854a77" y="267.219642"/>
     <use style="fill:#1f77b4;stroke:#1f77b4;" x="624.445923" xlink:href="#m1be9854a77" y="270.442475"/>
     <use style="fill:#1f77b4;stroke:#1f77b4;" x="629.135132" xlink:href="#m1be9854a77" y="270.917784"/>
     <use style="fill:#1f77b4;stroke:#1f77b4;" x="633.92395" xlink:href="#m1be9854a77" y="268.181855"/>
     <use style="fill:#1f77b4;stroke:#1f77b4;" x="638.613281" xlink:href="#m1be9854a77" y="269.07451"/>
     <use style="fill:#1f77b4;stroke:#1f77b4;" x="643.302612" xlink:href="#m1be9854a77" y="271.49743"/>
     <use style="fill:#1f77b4;stroke:#1f77b4;" x="647.991821" xlink:href="#m1be9854a77" y="270.314952"/>
     <use style="fill:#1f77b4;stroke:#1f77b4;" x="652.681152" xlink:href="#m1be9854a77" y="268.564421"/>
     <use style="fill:#1f77b4;stroke:#1f77b4;" x="657.460938" xlink:href="#m1be9854a77" y="267.463094"/>
     <use style="fill:#1f77b4;stroke:#1f77b4;" x="662.231689" xlink:href="#m1be9854a77" y="269.375926"/>
     <use style="fill:#1f77b4;stroke:#1f77b4;" x="667.020508" xlink:href="#m1be9854a77" y="267.115306"/>
     <use style="fill:#1f77b4;stroke:#1f77b4;" x="671.709839" xlink:href="#m1be9854a77" y="268.946988"/>
     <use style="fill:#1f77b4;stroke:#1f77b4;" x="676.390015" xlink:href="#m1be9854a77" y="268.216634"/>
     <use style="fill:#1f77b4;stroke:#1f77b4;" x="681.178955" xlink:href="#m1be9854a77" y="268.089111"/>
     <use style="fill:#1f77b4;stroke:#1f77b4;" x="685.859131" xlink:href="#m1be9854a77" y="269.71212"/>
     <use style="fill:#1f77b4;stroke:#1f77b4;" x="690.54834" xlink:href="#m1be9854a77" y="266.837076"/>
     <use style="fill:#1f77b4;stroke:#1f77b4;" x="695.228516" xlink:href="#m1be9854a77" y="270.523625"/>
     <use style="fill:#1f77b4;stroke:#1f77b4;" x="704.588989" xlink:href="#m1be9854a77" y="268.506457"/>
     <use style="fill:#1f77b4;stroke:#1f77b4;" x="709.368774" xlink:href="#m1be9854a77" y="267.718138"/>
     <use style="fill:#1f77b4;stroke:#1f77b4;" x="714.058105" xlink:href="#m1be9854a77" y="268.251412"/>
     <use style="fill:#1f77b4;stroke:#1f77b4;" x="718.747314" xlink:href="#m1be9854a77" y="267.300793"/>
     <use style="fill:#1f77b4;stroke:#1f77b4;" x="723.635742" xlink:href="#m1be9854a77" y="267.103713"/>
     <use style="fill:#1f77b4;stroke:#1f77b4;" x="728.307007" xlink:href="#m1be9854a77" y="268.506457"/>
     <use style="fill:#1f77b4;stroke:#1f77b4;" x="733.403564" xlink:href="#m1be9854a77" y="271.103271"/>
     <use style="fill:#1f77b4;stroke:#1f77b4;" x="737.685547" xlink:href="#m1be9854a77" y="273.039289"/>
     <use style="fill:#1f77b4;stroke:#1f77b4;" x="742.374756" xlink:href="#m1be9854a77" y="268.158669"/>
     <use style="fill:#1f77b4;stroke:#1f77b4;" x="747.163574" xlink:href="#m1be9854a77" y="268.576014"/>
    </g>
   </g>
   <g id="line2d_34">
    <path clip-path="url(#pebafc2a7b4)" d="M 138.436401 267.64858 
L 143.12561 268.089111 
L 147.814819 267.416722 
L 152.50415 267.671766 
L 157.238647 266.953005 
L 162.127075 277.88513 
L 166.816406 240.892117 
L 171.505737 266.871855 
L 176.194946 271.729289 
L 180.884277 273.827608 
L 185.673096 280.134157 
L 190.362427 206.009015 
L 195.051636 356.067795 
L 199.740845 373.851337 
L 204.430176 242.77017 
L 209.218994 201.244325 
L 213.890259 154.490071 
L 218.579468 229.681762 
L 223.268677 275.54336 
L 227.958008 268.147076 
L 232.737793 275.520174 
L 237.526611 352.902927 
L 242.215942 498.370909 
L 246.905151 268.5992 
L 251.793701 270.430882 
L 256.48291 262.76796 
L 261.172119 260.611677 
L 265.86145 245.297427 
L 270.550659 292.492212 
L 275.339478 262.837518 
L 280.028809 266.095129 
L 284.71814 267.938403 
L 289.733276 234.898576 
L 294.09668 247.395746 
L 298.985107 287.855043 
L 303.674438 270.303359 
L 308.363647 277.548936 
L 313.052856 272.262563 
L 317.742188 284.133715 
L 327.193115 239.709639 
L 331.882446 329.612747 
L 336.571655 256.194774 
L 341.559692 277.293891 
L 346.230835 231.478665 
L 350.920044 316.164958 
L 355.609375 322.019383 
L 360.298706 277.119997 
L 365.087524 273.085661 
L 369.758667 269.955572 
L 374.447876 265.86327 
L 379.137207 267.532651 
L 383.826538 265.596633 
L 388.714966 265.886456 
L 393.404175 272.517608 
L 398.093506 269.897607 
L 402.782715 269.457076 
L 407.472046 267.080527 
L 412.260864 270.18743 
L 421.612183 270.013536 
L 426.301514 272.911767 
L 431.189941 267.138492 
L 435.879272 271.033714 
L 440.568481 271.648138 
L 445.257812 264.796722 
L 449.947021 267.416722 
L 454.835449 269.329554 
L 459.470459 270.674333 
L 464.159668 264.6692 
L 468.848999 266.547253 
L 473.529175 267.694952 
L 478.318115 271.740882 
L 483.007324 263.602651 
L 487.696533 271.172829 
L 492.376831 268.135483 
L 497.066162 271.532209 
L 501.95459 270.697519 
L 506.72522 269.9092 
L 516.013306 270.743891 
L 520.702637 269.955572 
L 525.373779 273.352298 
L 530.053955 261.469553 
L 534.743164 235.142028 
L 539.432495 243.651232 
L 544.320923 341.912837 
L 548.992065 214.634149 
L 553.780884 171.856268 
L 558.569824 302.867877 
L 563.25 339.907262 
L 568.03894 267.347164 
L 572.710083 269.746899 
L 577.399292 266.802297 
L 582.079468 266.81389 
L 586.768799 264.309819 
L 591.657227 267.915218 
L 596.346558 267.915218 
L 601.026733 274.778227 
L 610.405273 267.868846 
L 615.076416 267.787695 
L 619.756592 270.848227 
L 624.445923 266.964598 
L 629.135132 267.868846 
L 633.92395 268.32097 
L 638.613281 268.274598 
L 643.302612 267.555837 
L 647.991821 270.059908 
L 652.681152 268.5992 
L 657.460938 268.726722 
L 662.231689 269.770085 
L 667.020508 269.016545 
L 671.709839 270.523625 
L 676.390015 266.106722 
L 681.178955 268.471678 
L 685.859131 269.202032 
L 690.54834 268.494864 
L 695.228516 270.825041 
L 704.588989 268.019554 
L 709.368774 270.256988 
L 714.058105 270.558404 
L 718.747314 268.135483 
L 723.635742 268.332563 
L 728.307007 270.778669 
L 733.403564 266.408138 
L 737.685547 266.326987 
L 742.374756 264.390969 
L 747.163574 268.089111 
" style="fill:none;stroke:#ff7f0e;stroke-linecap:square;stroke-width:1.5;"/>
    <defs>
     <path d="M 0 2.5 
C 0.663008 2.5 1.29895 2.236584 1.767767 1.767767 
C 2.236584 1.29895 2.5 0.663008 2.5 0 
C 2.5 -0.663008 2.236584 -1.29895 1.767767 -1.767767 
C 1.29895 -2.236584 0.663008 -2.5 0 -2.5 
C -0.663008 -2.5 -1.29895 -2.236584 -1.767767 -1.767767 
C -2.236584 -1.29895 -2.5 -0.663008 -2.5 0 
C -2.5 0.663008 -2.236584 1.29895 -1.767767 1.767767 
C -1.29895 2.236584 -0.663008 2.5 0 2.5 
z
" id="maeb27e5953" style="stroke:#ff7f0e;"/>
    </defs>
    <g clip-path="url(#pebafc2a7b4)">
     <use style="fill:#ff7f0e;stroke:#ff7f0e;" x="138.436401" xlink:href="#maeb27e5953" y="267.64858"/>
     <use style="fill:#ff7f0e;stroke:#ff7f0e;" x="143.12561" xlink:href="#maeb27e5953" y="268.089111"/>
     <use style="fill:#ff7f0e;stroke:#ff7f0e;" x="147.814819" xlink:href="#maeb27e5953" y="267.416722"/>
     <use style="fill:#ff7f0e;stroke:#ff7f0e;" x="152.50415" xlink:href="#maeb27e5953" y="267.671766"/>
     <use style="fill:#ff7f0e;stroke:#ff7f0e;" x="157.238647" xlink:href="#maeb27e5953" y="266.953005"/>
     <use style="fill:#ff7f0e;stroke:#ff7f0e;" x="162.127075" xlink:href="#maeb27e5953" y="277.88513"/>
     <use style="fill:#ff7f0e;stroke:#ff7f0e;" x="166.816406" xlink:href="#maeb27e5953" y="240.892117"/>
     <use style="fill:#ff7f0e;stroke:#ff7f0e;" x="171.505737" xlink:href="#maeb27e5953" y="266.871855"/>
     <use style="fill:#ff7f0e;stroke:#ff7f0e;" x="176.194946" xlink:href="#maeb27e5953" y="271.729289"/>
     <use style="fill:#ff7f0e;stroke:#ff7f0e;" x="180.884277" xlink:href="#maeb27e5953" y="273.827608"/>
     <use style="fill:#ff7f0e;stroke:#ff7f0e;" x="185.673096" xlink:href="#maeb27e5953" y="280.134157"/>
     <use style="fill:#ff7f0e;stroke:#ff7f0e;" x="190.362427" xlink:href="#maeb27e5953" y="206.009015"/>
     <use style="fill:#ff7f0e;stroke:#ff7f0e;" x="195.051636" xlink:href="#maeb27e5953" y="356.067795"/>
     <use style="fill:#ff7f0e;stroke:#ff7f0e;" x="199.740845" xlink:href="#maeb27e5953" y="373.851337"/>
     <use style="fill:#ff7f0e;stroke:#ff7f0e;" x="204.430176" xlink:href="#maeb27e5953" y="242.77017"/>
     <use style="fill:#ff7f0e;stroke:#ff7f0e;" x="209.218994" xlink:href="#maeb27e5953" y="201.244325"/>
     <use style="fill:#ff7f0e;stroke:#ff7f0e;" x="213.890259" xlink:href="#maeb27e5953" y="154.490071"/>
     <use style="fill:#ff7f0e;stroke:#ff7f0e;" x="218.579468" xlink:href="#maeb27e5953" y="229.681762"/>
     <use style="fill:#ff7f0e;stroke:#ff7f0e;" x="223.268677" xlink:href="#maeb27e5953" y="275.54336"/>
     <use style="fill:#ff7f0e;stroke:#ff7f0e;" x="227.958008" xlink:href="#maeb27e5953" y="268.147076"/>
     <use style="fill:#ff7f0e;stroke:#ff7f0e;" x="232.737793" xlink:href="#maeb27e5953" y="275.520174"/>
     <use style="fill:#ff7f0e;stroke:#ff7f0e;" x="237.526611" xlink:href="#maeb27e5953" y="352.902927"/>
     <use style="fill:#ff7f0e;stroke:#ff7f0e;" x="242.215942" xlink:href="#maeb27e5953" y="498.370909"/>
     <use style="fill:#ff7f0e;stroke:#ff7f0e;" x="246.905151" xlink:href="#maeb27e5953" y="268.5992"/>
     <use style="fill:#ff7f0e;stroke:#ff7f0e;" x="251.793701" xlink:href="#maeb27e5953" y="270.430882"/>
     <use style="fill:#ff7f0e;stroke:#ff7f0e;" x="256.48291" xlink:href="#maeb27e5953" y="262.76796"/>
     <use style="fill:#ff7f0e;stroke:#ff7f0e;" x="261.172119" xlink:href="#maeb27e5953" y="260.611677"/>
     <use style="fill:#ff7f0e;stroke:#ff7f0e;" x="265.86145" xlink:href="#maeb27e5953" y="245.297427"/>
     <use style="fill:#ff7f0e;stroke:#ff7f0e;" x="270.550659" xlink:href="#maeb27e5953" y="292.492212"/>
     <use style="fill:#ff7f0e;stroke:#ff7f0e;" x="275.339478" xlink:href="#maeb27e5953" y="262.837518"/>
     <use style="fill:#ff7f0e;stroke:#ff7f0e;" x="280.028809" xlink:href="#maeb27e5953" y="266.095129"/>
     <use style="fill:#ff7f0e;stroke:#ff7f0e;" x="284.71814" xlink:href="#maeb27e5953" y="267.938403"/>
     <use style="fill:#ff7f0e;stroke:#ff7f0e;" x="289.733276" xlink:href="#maeb27e5953" y="234.898576"/>
     <use style="fill:#ff7f0e;stroke:#ff7f0e;" x="294.09668" xlink:href="#maeb27e5953" y="247.395746"/>
     <use style="fill:#ff7f0e;stroke:#ff7f0e;" x="298.985107" xlink:href="#maeb27e5953" y="287.855043"/>
     <use style="fill:#ff7f0e;stroke:#ff7f0e;" x="303.674438" xlink:href="#maeb27e5953" y="270.303359"/>
     <use style="fill:#ff7f0e;stroke:#ff7f0e;" x="308.363647" xlink:href="#maeb27e5953" y="277.548936"/>
     <use style="fill:#ff7f0e;stroke:#ff7f0e;" x="313.052856" xlink:href="#maeb27e5953" y="272.262563"/>
     <use style="fill:#ff7f0e;stroke:#ff7f0e;" x="317.742188" xlink:href="#maeb27e5953" y="284.133715"/>
     <use style="fill:#ff7f0e;stroke:#ff7f0e;" x="327.193115" xlink:href="#maeb27e5953" y="239.709639"/>
     <use style="fill:#ff7f0e;stroke:#ff7f0e;" x="331.882446" xlink:href="#maeb27e5953" y="329.612747"/>
     <use style="fill:#ff7f0e;stroke:#ff7f0e;" x="336.571655" xlink:href="#maeb27e5953" y="256.194774"/>
     <use style="fill:#ff7f0e;stroke:#ff7f0e;" x="341.559692" xlink:href="#maeb27e5953" y="277.293891"/>
     <use style="fill:#ff7f0e;stroke:#ff7f0e;" x="346.230835" xlink:href="#maeb27e5953" y="231.478665"/>
     <use style="fill:#ff7f0e;stroke:#ff7f0e;" x="350.920044" xlink:href="#maeb27e5953" y="316.164958"/>
     <use style="fill:#ff7f0e;stroke:#ff7f0e;" x="355.609375" xlink:href="#maeb27e5953" y="322.019383"/>
     <use style="fill:#ff7f0e;stroke:#ff7f0e;" x="360.298706" xlink:href="#maeb27e5953" y="277.119997"/>
     <use style="fill:#ff7f0e;stroke:#ff7f0e;" x="365.087524" xlink:href="#maeb27e5953" y="273.085661"/>
     <use style="fill:#ff7f0e;stroke:#ff7f0e;" x="369.758667" xlink:href="#maeb27e5953" y="269.955572"/>
     <use style="fill:#ff7f0e;stroke:#ff7f0e;" x="374.447876" xlink:href="#maeb27e5953" y="265.86327"/>
     <use style="fill:#ff7f0e;stroke:#ff7f0e;" x="379.137207" xlink:href="#maeb27e5953" y="267.532651"/>
     <use style="fill:#ff7f0e;stroke:#ff7f0e;" x="383.826538" xlink:href="#maeb27e5953" y="265.596633"/>
     <use style="fill:#ff7f0e;stroke:#ff7f0e;" x="388.714966" xlink:href="#maeb27e5953" y="265.886456"/>
     <use style="fill:#ff7f0e;stroke:#ff7f0e;" x="393.404175" xlink:href="#maeb27e5953" y="272.517608"/>
     <use style="fill:#ff7f0e;stroke:#ff7f0e;" x="398.093506" xlink:href="#maeb27e5953" y="269.897607"/>
     <use style="fill:#ff7f0e;stroke:#ff7f0e;" x="402.782715" xlink:href="#maeb27e5953" y="269.457076"/>
     <use style="fill:#ff7f0e;stroke:#ff7f0e;" x="407.472046" xlink:href="#maeb27e5953" y="267.080527"/>
     <use style="fill:#ff7f0e;stroke:#ff7f0e;" x="412.260864" xlink:href="#maeb27e5953" y="270.18743"/>
     <use style="fill:#ff7f0e;stroke:#ff7f0e;" x="421.612183" xlink:href="#maeb27e5953" y="270.013536"/>
     <use style="fill:#ff7f0e;stroke:#ff7f0e;" x="426.301514" xlink:href="#maeb27e5953" y="272.911767"/>
     <use style="fill:#ff7f0e;stroke:#ff7f0e;" x="431.189941" xlink:href="#maeb27e5953" y="267.138492"/>
     <use style="fill:#ff7f0e;stroke:#ff7f0e;" x="435.879272" xlink:href="#maeb27e5953" y="271.033714"/>
     <use style="fill:#ff7f0e;stroke:#ff7f0e;" x="440.568481" xlink:href="#maeb27e5953" y="271.648138"/>
     <use style="fill:#ff7f0e;stroke:#ff7f0e;" x="445.257812" xlink:href="#maeb27e5953" y="264.796722"/>
     <use style="fill:#ff7f0e;stroke:#ff7f0e;" x="449.947021" xlink:href="#maeb27e5953" y="267.416722"/>
     <use style="fill:#ff7f0e;stroke:#ff7f0e;" x="454.835449" xlink:href="#maeb27e5953" y="269.329554"/>
     <use style="fill:#ff7f0e;stroke:#ff7f0e;" x="459.470459" xlink:href="#maeb27e5953" y="270.674333"/>
     <use style="fill:#ff7f0e;stroke:#ff7f0e;" x="464.159668" xlink:href="#maeb27e5953" y="264.6692"/>
     <use style="fill:#ff7f0e;stroke:#ff7f0e;" x="468.848999" xlink:href="#maeb27e5953" y="266.547253"/>
     <use style="fill:#ff7f0e;stroke:#ff7f0e;" x="473.529175" xlink:href="#maeb27e5953" y="267.694952"/>
     <use style="fill:#ff7f0e;stroke:#ff7f0e;" x="478.318115" xlink:href="#maeb27e5953" y="271.740882"/>
     <use style="fill:#ff7f0e;stroke:#ff7f0e;" x="483.007324" xlink:href="#maeb27e5953" y="263.602651"/>
     <use style="fill:#ff7f0e;stroke:#ff7f0e;" x="487.696533" xlink:href="#maeb27e5953" y="271.172829"/>
     <use style="fill:#ff7f0e;stroke:#ff7f0e;" x="492.376831" xlink:href="#maeb27e5953" y="268.135483"/>
     <use style="fill:#ff7f0e;stroke:#ff7f0e;" x="497.066162" xlink:href="#maeb27e5953" y="271.532209"/>
     <use style="fill:#ff7f0e;stroke:#ff7f0e;" x="501.95459" xlink:href="#maeb27e5953" y="270.697519"/>
     <use style="fill:#ff7f0e;stroke:#ff7f0e;" x="506.72522" xlink:href="#maeb27e5953" y="269.9092"/>
     <use style="fill:#ff7f0e;stroke:#ff7f0e;" x="516.013306" xlink:href="#maeb27e5953" y="270.743891"/>
     <use style="fill:#ff7f0e;stroke:#ff7f0e;" x="520.702637" xlink:href="#maeb27e5953" y="269.955572"/>
     <use style="fill:#ff7f0e;stroke:#ff7f0e;" x="525.373779" xlink:href="#maeb27e5953" y="273.352298"/>
     <use style="fill:#ff7f0e;stroke:#ff7f0e;" x="530.053955" xlink:href="#maeb27e5953" y="261.469553"/>
     <use style="fill:#ff7f0e;stroke:#ff7f0e;" x="534.743164" xlink:href="#maeb27e5953" y="235.142028"/>
     <use style="fill:#ff7f0e;stroke:#ff7f0e;" x="539.432495" xlink:href="#maeb27e5953" y="243.651232"/>
     <use style="fill:#ff7f0e;stroke:#ff7f0e;" x="544.320923" xlink:href="#maeb27e5953" y="341.912837"/>
     <use style="fill:#ff7f0e;stroke:#ff7f0e;" x="548.992065" xlink:href="#maeb27e5953" y="214.634149"/>
     <use style="fill:#ff7f0e;stroke:#ff7f0e;" x="553.780884" xlink:href="#maeb27e5953" y="171.856268"/>
     <use style="fill:#ff7f0e;stroke:#ff7f0e;" x="558.569824" xlink:href="#maeb27e5953" y="302.867877"/>
     <use style="fill:#ff7f0e;stroke:#ff7f0e;" x="563.25" xlink:href="#maeb27e5953" y="339.907262"/>
     <use style="fill:#ff7f0e;stroke:#ff7f0e;" x="568.03894" xlink:href="#maeb27e5953" y="267.347164"/>
     <use style="fill:#ff7f0e;stroke:#ff7f0e;" x="572.710083" xlink:href="#maeb27e5953" y="269.746899"/>
     <use style="fill:#ff7f0e;stroke:#ff7f0e;" x="577.399292" xlink:href="#maeb27e5953" y="266.802297"/>
     <use style="fill:#ff7f0e;stroke:#ff7f0e;" x="582.079468" xlink:href="#maeb27e5953" y="266.81389"/>
     <use style="fill:#ff7f0e;stroke:#ff7f0e;" x="586.768799" xlink:href="#maeb27e5953" y="264.309819"/>
     <use style="fill:#ff7f0e;stroke:#ff7f0e;" x="591.657227" xlink:href="#maeb27e5953" y="267.915218"/>
     <use style="fill:#ff7f0e;stroke:#ff7f0e;" x="596.346558" xlink:href="#maeb27e5953" y="267.915218"/>
     <use style="fill:#ff7f0e;stroke:#ff7f0e;" x="601.026733" xlink:href="#maeb27e5953" y="274.778227"/>
     <use style="fill:#ff7f0e;stroke:#ff7f0e;" x="610.405273" xlink:href="#maeb27e5953" y="267.868846"/>
     <use style="fill:#ff7f0e;stroke:#ff7f0e;" x="615.076416" xlink:href="#maeb27e5953" y="267.787695"/>
     <use style="fill:#ff7f0e;stroke:#ff7f0e;" x="619.756592" xlink:href="#maeb27e5953" y="270.848227"/>
     <use style="fill:#ff7f0e;stroke:#ff7f0e;" x="624.445923" xlink:href="#maeb27e5953" y="266.964598"/>
     <use style="fill:#ff7f0e;stroke:#ff7f0e;" x="629.135132" xlink:href="#maeb27e5953" y="267.868846"/>
     <use style="fill:#ff7f0e;stroke:#ff7f0e;" x="633.92395" xlink:href="#maeb27e5953" y="268.32097"/>
     <use style="fill:#ff7f0e;stroke:#ff7f0e;" x="638.613281" xlink:href="#maeb27e5953" y="268.274598"/>
     <use style="fill:#ff7f0e;stroke:#ff7f0e;" x="643.302612" xlink:href="#maeb27e5953" y="267.555837"/>
     <use style="fill:#ff7f0e;stroke:#ff7f0e;" x="647.991821" xlink:href="#maeb27e5953" y="270.059908"/>
     <use style="fill:#ff7f0e;stroke:#ff7f0e;" x="652.681152" xlink:href="#maeb27e5953" y="268.5992"/>
     <use style="fill:#ff7f0e;stroke:#ff7f0e;" x="657.460938" xlink:href="#maeb27e5953" y="268.726722"/>
     <use style="fill:#ff7f0e;stroke:#ff7f0e;" x="662.231689" xlink:href="#maeb27e5953" y="269.770085"/>
     <use style="fill:#ff7f0e;stroke:#ff7f0e;" x="667.020508" xlink:href="#maeb27e5953" y="269.016545"/>
     <use style="fill:#ff7f0e;stroke:#ff7f0e;" x="671.709839" xlink:href="#maeb27e5953" y="270.523625"/>
     <use style="fill:#ff7f0e;stroke:#ff7f0e;" x="676.390015" xlink:href="#maeb27e5953" y="266.106722"/>
     <use style="fill:#ff7f0e;stroke:#ff7f0e;" x="681.178955" xlink:href="#maeb27e5953" y="268.471678"/>
     <use style="fill:#ff7f0e;stroke:#ff7f0e;" x="685.859131" xlink:href="#maeb27e5953" y="269.202032"/>
     <use style="fill:#ff7f0e;stroke:#ff7f0e;" x="690.54834" xlink:href="#maeb27e5953" y="268.494864"/>
     <use style="fill:#ff7f0e;stroke:#ff7f0e;" x="695.228516" xlink:href="#maeb27e5953" y="270.825041"/>
     <use style="fill:#ff7f0e;stroke:#ff7f0e;" x="704.588989" xlink:href="#maeb27e5953" y="268.019554"/>
     <use style="fill:#ff7f0e;stroke:#ff7f0e;" x="709.368774" xlink:href="#maeb27e5953" y="270.256988"/>
     <use style="fill:#ff7f0e;stroke:#ff7f0e;" x="714.058105" xlink:href="#maeb27e5953" y="270.558404"/>
     <use style="fill:#ff7f0e;stroke:#ff7f0e;" x="718.747314" xlink:href="#maeb27e5953" y="268.135483"/>
     <use style="fill:#ff7f0e;stroke:#ff7f0e;" x="723.635742" xlink:href="#maeb27e5953" y="268.332563"/>
     <use style="fill:#ff7f0e;stroke:#ff7f0e;" x="728.307007" xlink:href="#maeb27e5953" y="270.778669"/>
     <use style="fill:#ff7f0e;stroke:#ff7f0e;" x="733.403564" xlink:href="#maeb27e5953" y="266.408138"/>
     <use style="fill:#ff7f0e;stroke:#ff7f0e;" x="737.685547" xlink:href="#maeb27e5953" y="266.326987"/>
     <use style="fill:#ff7f0e;stroke:#ff7f0e;" x="742.374756" xlink:href="#maeb27e5953" y="264.390969"/>
     <use style="fill:#ff7f0e;stroke:#ff7f0e;" x="747.163574" xlink:href="#maeb27e5953" y="268.089111"/>
    </g>
   </g>
   <g id="line2d_35">
    <path clip-path="url(#pebafc2a7b4)" d="M 138.436401 272.517608 
L 143.12561 271.033714 
L 147.814819 265.956014 
L 152.50415 266.187872 
L 157.238647 267.057341 
L 162.127075 280.62106 
L 166.816406 263.451943 
L 171.505737 266.280616 
L 176.194946 265.886456 
L 180.884277 266.187872 
L 185.673096 271.61336 
L 190.362427 264.077961 
L 195.051636 279.415396 
L 199.740845 287.797078 
L 204.430176 262.721589 
L 209.218994 269.596191 
L 213.890259 255.081853 
L 218.579468 269.283182 
L 223.268677 274.268139 
L 227.958008 263.99681 
L 232.737793 268.205041 
L 237.526611 285.663981 
L 242.215942 338.307438 
L 246.905151 285.768317 
L 251.793701 263.788137 
L 256.48291 262.96504 
L 261.172119 265.445925 
L 265.86145 257.33088 
L 270.550659 193.29158 
L 275.339478 271.903183 
L 280.028809 268.089111 
L 284.71814 268.274598 
L 289.733276 256.658491 
L 294.09668 213.300963 
L 298.985107 252.577782 
L 303.674438 258.942296 
L 308.363647 263.938845 
L 313.052856 269.851236 
L 317.742188 342.75912 
L 327.193115 256.646898 
L 331.882446 253.389287 
L 336.571655 271.833625 
L 341.559692 289.141857 
L 346.230835 267.602209 
L 350.920044 285.50168 
L 355.609375 273.6769 
L 360.298706 268.610793 
L 365.087524 267.486279 
L 369.758667 266.686368 
L 374.447876 269.688935 
L 379.137207 266.593625 
L 383.826538 270.709112 
L 388.714966 269.480262 
L 393.404175 266.639996 
L 398.093506 257.469995 
L 402.782715 267.741324 
L 407.472046 267.602209 
L 412.260864 270.488846 
L 421.612183 270.512032 
L 426.301514 264.425748 
L 431.189941 266.524067 
L 435.879272 264.460527 
L 440.568481 265.341589 
L 445.257812 270.674333 
L 449.947021 268.807873 
L 454.835449 269.920793 
L 459.470459 266.141501 
L 464.159668 268.239819 
L 468.848999 269.978758 
L 473.529175 267.01097 
L 478.318115 268.147076 
L 483.007324 268.158669 
L 487.696533 268.019554 
L 492.376831 267.451501 
L 497.066162 268.007961 
L 501.95459 267.161678 
L 506.72522 267.231235 
L 516.013306 265.283624 
L 520.702637 267.173271 
L 525.373779 262.663624 
L 530.053955 260.646456 
L 534.743164 269.283182 
L 539.432495 254.815216 
L 544.320923 286.266813 
L 548.992065 258.884332 
L 553.780884 250.073711 
L 558.569824 272.320528 
L 563.25 277.896723 
L 568.03894 268.135483 
L 572.710083 267.532651 
L 577.399292 271.636545 
L 582.079468 268.065926 
L 586.768799 268.193448 
L 591.657227 264.634421 
L 596.346558 265.58504 
L 601.026733 268.239819 
L 610.405273 270.604775 
L 615.076416 269.943979 
L 619.756592 261.492739 
L 624.445923 267.266014 
L 629.135132 271.555395 
L 633.92395 269.109289 
L 638.613281 272.679908 
L 643.302612 271.41628 
L 647.991821 268.633979 
L 652.681152 269.54982 
L 657.460938 264.843093 
L 662.231689 268.04274 
L 667.020508 268.935395 
L 671.709839 269.062917 
L 676.390015 269.086103 
L 681.178955 269.43389 
L 685.859131 268.831058 
L 690.54834 267.208049 
L 695.228516 267.880439 
L 704.588989 266.918226 
L 709.368774 265.909642 
L 714.058105 265.886456 
L 718.747314 266.199465 
L 723.635742 267.555837 
L 728.307007 266.199465 
L 733.403564 270.512032 
L 737.685547 268.506457 
L 742.374756 268.923802 
L 747.163574 266.431324 
" style="fill:none;stroke:#2ca02c;stroke-linecap:square;stroke-width:1.5;"/>
    <defs>
     <path d="M 0 2.5 
C 0.663008 2.5 1.29895 2.236584 1.767767 1.767767 
C 2.236584 1.29895 2.5 0.663008 2.5 0 
C 2.5 -0.663008 2.236584 -1.29895 1.767767 -1.767767 
C 1.29895 -2.236584 0.663008 -2.5 0 -2.5 
C -0.663008 -2.5 -1.29895 -2.236584 -1.767767 -1.767767 
C -2.236584 -1.29895 -2.5 -0.663008 -2.5 0 
C -2.5 0.663008 -2.236584 1.29895 -1.767767 1.767767 
C -1.29895 2.236584 -0.663008 2.5 0 2.5 
z
" id="m1f7d914a2d" style="stroke:#2ca02c;"/>
    </defs>
    <g clip-path="url(#pebafc2a7b4)">
     <use style="fill:#2ca02c;stroke:#2ca02c;" x="138.436401" xlink:href="#m1f7d914a2d" y="272.517608"/>
     <use style="fill:#2ca02c;stroke:#2ca02c;" x="143.12561" xlink:href="#m1f7d914a2d" y="271.033714"/>
     <use style="fill:#2ca02c;stroke:#2ca02c;" x="147.814819" xlink:href="#m1f7d914a2d" y="265.956014"/>
     <use style="fill:#2ca02c;stroke:#2ca02c;" x="152.50415" xlink:href="#m1f7d914a2d" y="266.187872"/>
     <use style="fill:#2ca02c;stroke:#2ca02c;" x="157.238647" xlink:href="#m1f7d914a2d" y="267.057341"/>
     <use style="fill:#2ca02c;stroke:#2ca02c;" x="162.127075" xlink:href="#m1f7d914a2d" y="280.62106"/>
     <use style="fill:#2ca02c;stroke:#2ca02c;" x="166.816406" xlink:href="#m1f7d914a2d" y="263.451943"/>
     <use style="fill:#2ca02c;stroke:#2ca02c;" x="171.505737" xlink:href="#m1f7d914a2d" y="266.280616"/>
     <use style="fill:#2ca02c;stroke:#2ca02c;" x="176.194946" xlink:href="#m1f7d914a2d" y="265.886456"/>
     <use style="fill:#2ca02c;stroke:#2ca02c;" x="180.884277" xlink:href="#m1f7d914a2d" y="266.187872"/>
     <use style="fill:#2ca02c;stroke:#2ca02c;" x="185.673096" xlink:href="#m1f7d914a2d" y="271.61336"/>
     <use style="fill:#2ca02c;stroke:#2ca02c;" x="190.362427" xlink:href="#m1f7d914a2d" y="264.077961"/>
     <use style="fill:#2ca02c;stroke:#2ca02c;" x="195.051636" xlink:href="#m1f7d914a2d" y="279.415396"/>
     <use style="fill:#2ca02c;stroke:#2ca02c;" x="199.740845" xlink:href="#m1f7d914a2d" y="287.797078"/>
     <use style="fill:#2ca02c;stroke:#2ca02c;" x="204.430176" xlink:href="#m1f7d914a2d" y="262.721589"/>
     <use style="fill:#2ca02c;stroke:#2ca02c;" x="209.218994" xlink:href="#m1f7d914a2d" y="269.596191"/>
     <use style="fill:#2ca02c;stroke:#2ca02c;" x="213.890259" xlink:href="#m1f7d914a2d" y="255.081853"/>
     <use style="fill:#2ca02c;stroke:#2ca02c;" x="218.579468" xlink:href="#m1f7d914a2d" y="269.283182"/>
     <use style="fill:#2ca02c;stroke:#2ca02c;" x="223.268677" xlink:href="#m1f7d914a2d" y="274.268139"/>
     <use style="fill:#2ca02c;stroke:#2ca02c;" x="227.958008" xlink:href="#m1f7d914a2d" y="263.99681"/>
     <use style="fill:#2ca02c;stroke:#2ca02c;" x="232.737793" xlink:href="#m1f7d914a2d" y="268.205041"/>
     <use style="fill:#2ca02c;stroke:#2ca02c;" x="237.526611" xlink:href="#m1f7d914a2d" y="285.663981"/>
     <use style="fill:#2ca02c;stroke:#2ca02c;" x="242.215942" xlink:href="#m1f7d914a2d" y="338.307438"/>
     <use style="fill:#2ca02c;stroke:#2ca02c;" x="246.905151" xlink:href="#m1f7d914a2d" y="285.768317"/>
     <use style="fill:#2ca02c;stroke:#2ca02c;" x="251.793701" xlink:href="#m1f7d914a2d" y="263.788137"/>
     <use style="fill:#2ca02c;stroke:#2ca02c;" x="256.48291" xlink:href="#m1f7d914a2d" y="262.96504"/>
     <use style="fill:#2ca02c;stroke:#2ca02c;" x="261.172119" xlink:href="#m1f7d914a2d" y="265.445925"/>
     <use style="fill:#2ca02c;stroke:#2ca02c;" x="265.86145" xlink:href="#m1f7d914a2d" y="257.33088"/>
     <use style="fill:#2ca02c;stroke:#2ca02c;" x="270.550659" xlink:href="#m1f7d914a2d" y="193.29158"/>
     <use style="fill:#2ca02c;stroke:#2ca02c;" x="275.339478" xlink:href="#m1f7d914a2d" y="271.903183"/>
     <use style="fill:#2ca02c;stroke:#2ca02c;" x="280.028809" xlink:href="#m1f7d914a2d" y="268.089111"/>
     <use style="fill:#2ca02c;stroke:#2ca02c;" x="284.71814" xlink:href="#m1f7d914a2d" y="268.274598"/>
     <use style="fill:#2ca02c;stroke:#2ca02c;" x="289.733276" xlink:href="#m1f7d914a2d" y="256.658491"/>
     <use style="fill:#2ca02c;stroke:#2ca02c;" x="294.09668" xlink:href="#m1f7d914a2d" y="213.300963"/>
     <use style="fill:#2ca02c;stroke:#2ca02c;" x="298.985107" xlink:href="#m1f7d914a2d" y="252.577782"/>
     <use style="fill:#2ca02c;stroke:#2ca02c;" x="303.674438" xlink:href="#m1f7d914a2d" y="258.942296"/>
     <use style="fill:#2ca02c;stroke:#2ca02c;" x="308.363647" xlink:href="#m1f7d914a2d" y="263.938845"/>
     <use style="fill:#2ca02c;stroke:#2ca02c;" x="313.052856" xlink:href="#m1f7d914a2d" y="269.851236"/>
     <use style="fill:#2ca02c;stroke:#2ca02c;" x="317.742188" xlink:href="#m1f7d914a2d" y="342.75912"/>
     <use style="fill:#2ca02c;stroke:#2ca02c;" x="327.193115" xlink:href="#m1f7d914a2d" y="256.646898"/>
     <use style="fill:#2ca02c;stroke:#2ca02c;" x="331.882446" xlink:href="#m1f7d914a2d" y="253.389287"/>
     <use style="fill:#2ca02c;stroke:#2ca02c;" x="336.571655" xlink:href="#m1f7d914a2d" y="271.833625"/>
     <use style="fill:#2ca02c;stroke:#2ca02c;" x="341.559692" xlink:href="#m1f7d914a2d" y="289.141857"/>
     <use style="fill:#2ca02c;stroke:#2ca02c;" x="346.230835" xlink:href="#m1f7d914a2d" y="267.602209"/>
     <use style="fill:#2ca02c;stroke:#2ca02c;" x="350.920044" xlink:href="#m1f7d914a2d" y="285.50168"/>
     <use style="fill:#2ca02c;stroke:#2ca02c;" x="355.609375" xlink:href="#m1f7d914a2d" y="273.6769"/>
     <use style="fill:#2ca02c;stroke:#2ca02c;" x="360.298706" xlink:href="#m1f7d914a2d" y="268.610793"/>
     <use style="fill:#2ca02c;stroke:#2ca02c;" x="365.087524" xlink:href="#m1f7d914a2d" y="267.486279"/>
     <use style="fill:#2ca02c;stroke:#2ca02c;" x="369.758667" xlink:href="#m1f7d914a2d" y="266.686368"/>
     <use style="fill:#2ca02c;stroke:#2ca02c;" x="374.447876" xlink:href="#m1f7d914a2d" y="269.688935"/>
     <use style="fill:#2ca02c;stroke:#2ca02c;" x="379.137207" xlink:href="#m1f7d914a2d" y="266.593625"/>
     <use style="fill:#2ca02c;stroke:#2ca02c;" x="383.826538" xlink:href="#m1f7d914a2d" y="270.709112"/>
     <use style="fill:#2ca02c;stroke:#2ca02c;" x="388.714966" xlink:href="#m1f7d914a2d" y="269.480262"/>
     <use style="fill:#2ca02c;stroke:#2ca02c;" x="393.404175" xlink:href="#m1f7d914a2d" y="266.639996"/>
     <use style="fill:#2ca02c;stroke:#2ca02c;" x="398.093506" xlink:href="#m1f7d914a2d" y="257.469995"/>
     <use style="fill:#2ca02c;stroke:#2ca02c;" x="402.782715" xlink:href="#m1f7d914a2d" y="267.741324"/>
     <use style="fill:#2ca02c;stroke:#2ca02c;" x="407.472046" xlink:href="#m1f7d914a2d" y="267.602209"/>
     <use style="fill:#2ca02c;stroke:#2ca02c;" x="412.260864" xlink:href="#m1f7d914a2d" y="270.488846"/>
     <use style="fill:#2ca02c;stroke:#2ca02c;" x="421.612183" xlink:href="#m1f7d914a2d" y="270.512032"/>
     <use style="fill:#2ca02c;stroke:#2ca02c;" x="426.301514" xlink:href="#m1f7d914a2d" y="264.425748"/>
     <use style="fill:#2ca02c;stroke:#2ca02c;" x="431.189941" xlink:href="#m1f7d914a2d" y="266.524067"/>
     <use style="fill:#2ca02c;stroke:#2ca02c;" x="435.879272" xlink:href="#m1f7d914a2d" y="264.460527"/>
     <use style="fill:#2ca02c;stroke:#2ca02c;" x="440.568481" xlink:href="#m1f7d914a2d" y="265.341589"/>
     <use style="fill:#2ca02c;stroke:#2ca02c;" x="445.257812" xlink:href="#m1f7d914a2d" y="270.674333"/>
     <use style="fill:#2ca02c;stroke:#2ca02c;" x="449.947021" xlink:href="#m1f7d914a2d" y="268.807873"/>
     <use style="fill:#2ca02c;stroke:#2ca02c;" x="454.835449" xlink:href="#m1f7d914a2d" y="269.920793"/>
     <use style="fill:#2ca02c;stroke:#2ca02c;" x="459.470459" xlink:href="#m1f7d914a2d" y="266.141501"/>
     <use style="fill:#2ca02c;stroke:#2ca02c;" x="464.159668" xlink:href="#m1f7d914a2d" y="268.239819"/>
     <use style="fill:#2ca02c;stroke:#2ca02c;" x="468.848999" xlink:href="#m1f7d914a2d" y="269.978758"/>
     <use style="fill:#2ca02c;stroke:#2ca02c;" x="473.529175" xlink:href="#m1f7d914a2d" y="267.01097"/>
     <use style="fill:#2ca02c;stroke:#2ca02c;" x="478.318115" xlink:href="#m1f7d914a2d" y="268.147076"/>
     <use style="fill:#2ca02c;stroke:#2ca02c;" x="483.007324" xlink:href="#m1f7d914a2d" y="268.158669"/>
     <use style="fill:#2ca02c;stroke:#2ca02c;" x="487.696533" xlink:href="#m1f7d914a2d" y="268.019554"/>
     <use style="fill:#2ca02c;stroke:#2ca02c;" x="492.376831" xlink:href="#m1f7d914a2d" y="267.451501"/>
     <use style="fill:#2ca02c;stroke:#2ca02c;" x="497.066162" xlink:href="#m1f7d914a2d" y="268.007961"/>
     <use style="fill:#2ca02c;stroke:#2ca02c;" x="501.95459" xlink:href="#m1f7d914a2d" y="267.161678"/>
     <use style="fill:#2ca02c;stroke:#2ca02c;" x="506.72522" xlink:href="#m1f7d914a2d" y="267.231235"/>
     <use style="fill:#2ca02c;stroke:#2ca02c;" x="516.013306" xlink:href="#m1f7d914a2d" y="265.283624"/>
     <use style="fill:#2ca02c;stroke:#2ca02c;" x="520.702637" xlink:href="#m1f7d914a2d" y="267.173271"/>
     <use style="fill:#2ca02c;stroke:#2ca02c;" x="525.373779" xlink:href="#m1f7d914a2d" y="262.663624"/>
     <use style="fill:#2ca02c;stroke:#2ca02c;" x="530.053955" xlink:href="#m1f7d914a2d" y="260.646456"/>
     <use style="fill:#2ca02c;stroke:#2ca02c;" x="534.743164" xlink:href="#m1f7d914a2d" y="269.283182"/>
     <use style="fill:#2ca02c;stroke:#2ca02c;" x="539.432495" xlink:href="#m1f7d914a2d" y="254.815216"/>
     <use style="fill:#2ca02c;stroke:#2ca02c;" x="544.320923" xlink:href="#m1f7d914a2d" y="286.266813"/>
     <use style="fill:#2ca02c;stroke:#2ca02c;" x="548.992065" xlink:href="#m1f7d914a2d" y="258.884332"/>
     <use style="fill:#2ca02c;stroke:#2ca02c;" x="553.780884" xlink:href="#m1f7d914a2d" y="250.073711"/>
     <use style="fill:#2ca02c;stroke:#2ca02c;" x="558.569824" xlink:href="#m1f7d914a2d" y="272.320528"/>
     <use style="fill:#2ca02c;stroke:#2ca02c;" x="563.25" xlink:href="#m1f7d914a2d" y="277.896723"/>
     <use style="fill:#2ca02c;stroke:#2ca02c;" x="568.03894" xlink:href="#m1f7d914a2d" y="268.135483"/>
     <use style="fill:#2ca02c;stroke:#2ca02c;" x="572.710083" xlink:href="#m1f7d914a2d" y="267.532651"/>
     <use style="fill:#2ca02c;stroke:#2ca02c;" x="577.399292" xlink:href="#m1f7d914a2d" y="271.636545"/>
     <use style="fill:#2ca02c;stroke:#2ca02c;" x="582.079468" xlink:href="#m1f7d914a2d" y="268.065926"/>
     <use style="fill:#2ca02c;stroke:#2ca02c;" x="586.768799" xlink:href="#m1f7d914a2d" y="268.193448"/>
     <use style="fill:#2ca02c;stroke:#2ca02c;" x="591.657227" xlink:href="#m1f7d914a2d" y="264.634421"/>
     <use style="fill:#2ca02c;stroke:#2ca02c;" x="596.346558" xlink:href="#m1f7d914a2d" y="265.58504"/>
     <use style="fill:#2ca02c;stroke:#2ca02c;" x="601.026733" xlink:href="#m1f7d914a2d" y="268.239819"/>
     <use style="fill:#2ca02c;stroke:#2ca02c;" x="610.405273" xlink:href="#m1f7d914a2d" y="270.604775"/>
     <use style="fill:#2ca02c;stroke:#2ca02c;" x="615.076416" xlink:href="#m1f7d914a2d" y="269.943979"/>
     <use style="fill:#2ca02c;stroke:#2ca02c;" x="619.756592" xlink:href="#m1f7d914a2d" y="261.492739"/>
     <use style="fill:#2ca02c;stroke:#2ca02c;" x="624.445923" xlink:href="#m1f7d914a2d" y="267.266014"/>
     <use style="fill:#2ca02c;stroke:#2ca02c;" x="629.135132" xlink:href="#m1f7d914a2d" y="271.555395"/>
     <use style="fill:#2ca02c;stroke:#2ca02c;" x="633.92395" xlink:href="#m1f7d914a2d" y="269.109289"/>
     <use style="fill:#2ca02c;stroke:#2ca02c;" x="638.613281" xlink:href="#m1f7d914a2d" y="272.679908"/>
     <use style="fill:#2ca02c;stroke:#2ca02c;" x="643.302612" xlink:href="#m1f7d914a2d" y="271.41628"/>
     <use style="fill:#2ca02c;stroke:#2ca02c;" x="647.991821" xlink:href="#m1f7d914a2d" y="268.633979"/>
     <use style="fill:#2ca02c;stroke:#2ca02c;" x="652.681152" xlink:href="#m1f7d914a2d" y="269.54982"/>
     <use style="fill:#2ca02c;stroke:#2ca02c;" x="657.460938" xlink:href="#m1f7d914a2d" y="264.843093"/>
     <use style="fill:#2ca02c;stroke:#2ca02c;" x="662.231689" xlink:href="#m1f7d914a2d" y="268.04274"/>
     <use style="fill:#2ca02c;stroke:#2ca02c;" x="667.020508" xlink:href="#m1f7d914a2d" y="268.935395"/>
     <use style="fill:#2ca02c;stroke:#2ca02c;" x="671.709839" xlink:href="#m1f7d914a2d" y="269.062917"/>
     <use style="fill:#2ca02c;stroke:#2ca02c;" x="676.390015" xlink:href="#m1f7d914a2d" y="269.086103"/>
     <use style="fill:#2ca02c;stroke:#2ca02c;" x="681.178955" xlink:href="#m1f7d914a2d" y="269.43389"/>
     <use style="fill:#2ca02c;stroke:#2ca02c;" x="685.859131" xlink:href="#m1f7d914a2d" y="268.831058"/>
     <use style="fill:#2ca02c;stroke:#2ca02c;" x="690.54834" xlink:href="#m1f7d914a2d" y="267.208049"/>
     <use style="fill:#2ca02c;stroke:#2ca02c;" x="695.228516" xlink:href="#m1f7d914a2d" y="267.880439"/>
     <use style="fill:#2ca02c;stroke:#2ca02c;" x="704.588989" xlink:href="#m1f7d914a2d" y="266.918226"/>
     <use style="fill:#2ca02c;stroke:#2ca02c;" x="709.368774" xlink:href="#m1f7d914a2d" y="265.909642"/>
     <use style="fill:#2ca02c;stroke:#2ca02c;" x="714.058105" xlink:href="#m1f7d914a2d" y="265.886456"/>
     <use style="fill:#2ca02c;stroke:#2ca02c;" x="718.747314" xlink:href="#m1f7d914a2d" y="266.199465"/>
     <use style="fill:#2ca02c;stroke:#2ca02c;" x="723.635742" xlink:href="#m1f7d914a2d" y="267.555837"/>
     <use style="fill:#2ca02c;stroke:#2ca02c;" x="728.307007" xlink:href="#m1f7d914a2d" y="266.199465"/>
     <use style="fill:#2ca02c;stroke:#2ca02c;" x="733.403564" xlink:href="#m1f7d914a2d" y="270.512032"/>
     <use style="fill:#2ca02c;stroke:#2ca02c;" x="737.685547" xlink:href="#m1f7d914a2d" y="268.506457"/>
     <use style="fill:#2ca02c;stroke:#2ca02c;" x="742.374756" xlink:href="#m1f7d914a2d" y="268.923802"/>
     <use style="fill:#2ca02c;stroke:#2ca02c;" x="747.163574" xlink:href="#m1f7d914a2d" y="266.431324"/>
    </g>
   </g>
   <g id="patch_3">
    <path d="M 108 518.4 
L 108 77.76 
" style="fill:none;stroke:#000000;stroke-linecap:square;stroke-linejoin:miter;stroke-width:0.8;"/>
   </g>
   <g id="patch_4">
    <path d="M 777.6 518.4 
L 777.6 77.76 
" style="fill:none;stroke:#000000;stroke-linecap:square;stroke-linejoin:miter;stroke-width:0.8;"/>
   </g>
   <g id="patch_5">
    <path d="M 108 518.4 
L 777.599976 518.4 
" style="fill:none;stroke:#000000;stroke-linecap:square;stroke-linejoin:miter;stroke-width:0.8;"/>
   </g>
   <g id="patch_6">
    <path d="M 108 77.76 
L 777.599976 77.76 
" style="fill:none;stroke:#000000;stroke-linecap:square;stroke-linejoin:miter;stroke-width:0.8;"/>
   </g>
   <g id="text_19">
    <!-- IMU Gyr (DPS) -->
    <defs>
     <path d="M 9.8125 72.90625 
L 19.671875 72.90625 
L 19.671875 0 
L 9.8125 0 
z
" id="DejaVuSans-73"/>
     <path d="M 9.8125 72.90625 
L 24.515625 72.90625 
L 43.109375 23.296875 
L 61.8125 72.90625 
L 76.515625 72.90625 
L 76.515625 0 
L 66.890625 0 
L 66.890625 64.015625 
L 48.09375 14.015625 
L 38.1875 14.015625 
L 19.390625 64.015625 
L 19.390625 0 
L 9.8125 0 
z
" id="DejaVuSans-77"/>
     <path d="M 8.6875 72.90625 
L 18.609375 72.90625 
L 18.609375 28.609375 
Q 18.609375 16.890625 22.84375 11.734375 
Q 27.09375 6.59375 36.625 6.59375 
Q 46.09375 6.59375 50.34375 11.734375 
Q 54.59375 16.890625 54.59375 28.609375 
L 54.59375 72.90625 
L 64.5 72.90625 
L 64.5 27.390625 
Q 64.5 13.140625 57.4375 5.859375 
Q 50.390625 -1.421875 36.625 -1.421875 
Q 22.796875 -1.421875 15.734375 5.859375 
Q 8.6875 13.140625 8.6875 27.390625 
z
" id="DejaVuSans-85"/>
    </defs>
    <g transform="translate(400.2525 71.76)scale(0.12 -0.12)">
     <use xlink:href="#DejaVuSans-73"/>
     <use x="29.492188" xlink:href="#DejaVuSans-77"/>
     <use x="115.771484" xlink:href="#DejaVuSans-85"/>
     <use x="188.964844" xlink:href="#DejaVuSans-32"/>
     <use x="220.751953" xlink:href="#DejaVuSans-71"/>
     <use x="298.242188" xlink:href="#DejaVuSans-121"/>
     <use x="357.421875" xlink:href="#DejaVuSans-114"/>
     <use x="398.535156" xlink:href="#DejaVuSans-32"/>
     <use x="430.322266" xlink:href="#DejaVuSans-40"/>
     <use x="469.335938" xlink:href="#DejaVuSans-68"/>
     <use x="546.337891" xlink:href="#DejaVuSans-80"/>
     <use x="606.640625" xlink:href="#DejaVuSans-83"/>
     <use x="670.117188" xlink:href="#DejaVuSans-41"/>
    </g>
   </g>
   <g id="legend_1">
    <g id="patch_7">
     <path d="M 676.090625 130.62875 
L 770.6 130.62875 
Q 772.6 130.62875 772.6 128.62875 
L 772.6 84.76 
Q 772.6 82.76 770.6 82.76 
L 676.090625 82.76 
Q 674.090625 82.76 674.090625 84.76 
L 674.090625 128.62875 
Q 674.090625 130.62875 676.090625 130.62875 
z
" style="fill:#ffffff;opacity:0.8;stroke:#cccccc;stroke-linejoin:miter;"/>
    </g>
    <g id="line2d_36">
     <path d="M 678.090625 90.858437 
L 698.090625 90.858437 
" style="fill:none;stroke:#1f77b4;stroke-linecap:square;stroke-width:1.5;"/>
    </g>
    <g id="line2d_37">
     <g>
      <use style="fill:#1f77b4;stroke:#1f77b4;" x="688.090625" xlink:href="#m1be9854a77" y="90.858437"/>
     </g>
    </g>
    <g id="text_20">
     <!-- Gyr_X_(DPS) -->
     <defs>
      <path d="M 50.984375 -16.609375 
L 50.984375 -23.578125 
L -0.984375 -23.578125 
L -0.984375 -16.609375 
z
" id="DejaVuSans-95"/>
      <path d="M 6.296875 72.90625 
L 16.890625 72.90625 
L 35.015625 45.796875 
L 53.21875 72.90625 
L 63.8125 72.90625 
L 40.375 37.890625 
L 65.375 0 
L 54.78125 0 
L 34.28125 31 
L 13.625 0 
L 2.984375 0 
L 29 38.921875 
z
" id="DejaVuSans-88"/>
     </defs>
     <g transform="translate(706.090625 94.358437)scale(0.1 -0.1)">
      <use xlink:href="#DejaVuSans-71"/>
      <use x="77.490234" xlink:href="#DejaVuSans-121"/>
      <use x="136.669922" xlink:href="#DejaVuSans-114"/>
      <use x="177.783203" xlink:href="#DejaVuSans-95"/>
      <use x="227.783203" xlink:href="#DejaVuSans-88"/>
      <use x="296.289062" xlink:href="#DejaVuSans-95"/>
      <use x="346.289062" xlink:href="#DejaVuSans-40"/>
      <use x="385.302734" xlink:href="#DejaVuSans-68"/>
      <use x="462.304688" xlink:href="#DejaVuSans-80"/>
      <use x="522.607422" xlink:href="#DejaVuSans-83"/>
      <use x="586.083984" xlink:href="#DejaVuSans-41"/>
     </g>
    </g>
    <g id="line2d_38">
     <path d="M 678.090625 105.814687 
L 698.090625 105.814687 
" style="fill:none;stroke:#ff7f0e;stroke-linecap:square;stroke-width:1.5;"/>
    </g>
    <g id="line2d_39">
     <g>
      <use style="fill:#ff7f0e;stroke:#ff7f0e;" x="688.090625" xlink:href="#maeb27e5953" y="105.814687"/>
     </g>
    </g>
    <g id="text_21">
     <!-- Gyr_Y_(DPS) -->
     <defs>
      <path d="M -0.203125 72.90625 
L 10.40625 72.90625 
L 30.609375 42.921875 
L 50.6875 72.90625 
L 61.28125 72.90625 
L 35.5 34.71875 
L 35.5 0 
L 25.59375 0 
L 25.59375 34.71875 
z
" id="DejaVuSans-89"/>
     </defs>
     <g transform="translate(706.090625 109.314687)scale(0.1 -0.1)">
      <use xlink:href="#DejaVuSans-71"/>
      <use x="77.490234" xlink:href="#DejaVuSans-121"/>
      <use x="136.669922" xlink:href="#DejaVuSans-114"/>
      <use x="177.783203" xlink:href="#DejaVuSans-95"/>
      <use x="227.783203" xlink:href="#DejaVuSans-89"/>
      <use x="288.867188" xlink:href="#DejaVuSans-95"/>
      <use x="338.867188" xlink:href="#DejaVuSans-40"/>
      <use x="377.880859" xlink:href="#DejaVuSans-68"/>
      <use x="454.882812" xlink:href="#DejaVuSans-80"/>
      <use x="515.185547" xlink:href="#DejaVuSans-83"/>
      <use x="578.662109" xlink:href="#DejaVuSans-41"/>
     </g>
    </g>
    <g id="line2d_40">
     <path d="M 678.090625 120.770937 
L 698.090625 120.770937 
" style="fill:none;stroke:#2ca02c;stroke-linecap:square;stroke-width:1.5;"/>
    </g>
    <g id="line2d_41">
     <g>
      <use style="fill:#2ca02c;stroke:#2ca02c;" x="688.090625" xlink:href="#m1f7d914a2d" y="120.770937"/>
     </g>
    </g>
    <g id="text_22">
     <!-- Gyr_Z_(DPS) -->
     <defs>
      <path d="M 5.609375 72.90625 
L 62.890625 72.90625 
L 62.890625 65.375 
L 16.796875 8.296875 
L 64.015625 8.296875 
L 64.015625 0 
L 4.5 0 
L 4.5 7.515625 
L 50.59375 64.59375 
L 5.609375 64.59375 
z
" id="DejaVuSans-90"/>
     </defs>
     <g transform="translate(706.090625 124.270937)scale(0.1 -0.1)">
      <use xlink:href="#DejaVuSans-71"/>
      <use x="77.490234" xlink:href="#DejaVuSans-121"/>
      <use x="136.669922" xlink:href="#DejaVuSans-114"/>
      <use x="177.783203" xlink:href="#DejaVuSans-95"/>
      <use x="227.783203" xlink:href="#DejaVuSans-90"/>
      <use x="296.289062" xlink:href="#DejaVuSans-95"/>
      <use x="346.289062" xlink:href="#DejaVuSans-40"/>
      <use x="385.302734" xlink:href="#DejaVuSans-68"/>
      <use x="462.304688" xlink:href="#DejaVuSans-80"/>
      <use x="522.607422" xlink:href="#DejaVuSans-83"/>
      <use x="586.083984" xlink:href="#DejaVuSans-41"/>
     </g>
    </g>
   </g>
  </g>
 </g>
 <defs>
  <clipPath id="pebafc2a7b4">
   <rect height="440.64" width="669.6" x="108" y="77.76"/>
  </clipPath>
 </defs>
</svg>
