<?xml version="1.0" encoding="utf-8" standalone="no"?>
<!DOCTYPE svg PUBLIC "-//W3C//DTD SVG 1.1//EN"
  "http://www.w3.org/Graphics/SVG/1.1/DTD/svg11.dtd">
<!-- Created with matplotlib (https://matplotlib.org/) -->
<svg height="648pt" version="1.1" viewBox="0 0 864 648" width="864pt" xmlns="http://www.w3.org/2000/svg" xmlns:xlink="http://www.w3.org/1999/xlink">
 <defs>
  <style type="text/css">
*{stroke-linecap:butt;stroke-linejoin:round;}
  </style>
 </defs>
 <g id="figure_1">
  <g id="patch_1">
   <path d="M 0 648 
L 864 648 
L 864 0 
L 0 0 
z
" style="fill:#ffffff;"/>
  </g>
  <g id="axes_1">
   <g id="patch_2">
    <path d="M 108 518.4 
L 777.6 518.4 
L 777.6 77.76 
L 108 77.76 
z
" style="fill:#ffffff;"/>
   </g>
   <g id="matplotlib.axis_1">
    <g id="xtick_1">
     <g id="line2d_1">
      <path clip-path="url(#p668113f97a)" d="M 200.377686 518.4 
L 200.377686 77.76 
" style="fill:none;stroke:#b0b0b0;stroke-linecap:square;stroke-width:0.8;"/>
     </g>
     <g id="line2d_2">
      <defs>
       <path d="M 0 0 
L 0 3.5 
" id="mce646a208c" style="stroke:#000000;stroke-width:0.8;"/>
      </defs>
      <g>
       <use style="stroke:#000000;stroke-width:0.8;" x="200.377686" xlink:href="#mce646a208c" y="518.4"/>
      </g>
     </g>
     <g id="text_1">
      <!-- 00:00:15 -->
      <defs>
       <path d="M 31.78125 66.40625 
Q 24.171875 66.40625 20.328125 58.90625 
Q 16.5 51.421875 16.5 36.375 
Q 16.5 21.390625 20.328125 13.890625 
Q 24.171875 6.390625 31.78125 6.390625 
Q 39.453125 6.390625 43.28125 13.890625 
Q 47.125 21.390625 47.125 36.375 
Q 47.125 51.421875 43.28125 58.90625 
Q 39.453125 66.40625 31.78125 66.40625 
z
M 31.78125 74.21875 
Q 44.046875 74.21875 50.515625 64.515625 
Q 56.984375 54.828125 56.984375 36.375 
Q 56.984375 17.96875 50.515625 8.265625 
Q 44.046875 -1.421875 31.78125 -1.421875 
Q 19.53125 -1.421875 13.0625 8.265625 
Q 6.59375 17.96875 6.59375 36.375 
Q 6.59375 54.828125 13.0625 64.515625 
Q 19.53125 74.21875 31.78125 74.21875 
z
" id="DejaVuSans-48"/>
       <path d="M 11.71875 12.40625 
L 22.015625 12.40625 
L 22.015625 0 
L 11.71875 0 
z
M 11.71875 51.703125 
L 22.015625 51.703125 
L 22.015625 39.3125 
L 11.71875 39.3125 
z
" id="DejaVuSans-58"/>
       <path d="M 12.40625 8.296875 
L 28.515625 8.296875 
L 28.515625 63.921875 
L 10.984375 60.40625 
L 10.984375 69.390625 
L 28.421875 72.90625 
L 38.28125 72.90625 
L 38.28125 8.296875 
L 54.390625 8.296875 
L 54.390625 0 
L 12.40625 0 
z
" id="DejaVuSans-49"/>
       <path d="M 10.796875 72.90625 
L 49.515625 72.90625 
L 49.515625 64.59375 
L 19.828125 64.59375 
L 19.828125 46.734375 
Q 21.96875 47.46875 24.109375 47.828125 
Q 26.265625 48.1875 28.421875 48.1875 
Q 40.625 48.1875 47.75 41.5 
Q 54.890625 34.8125 54.890625 23.390625 
Q 54.890625 11.625 47.5625 5.09375 
Q 40.234375 -1.421875 26.90625 -1.421875 
Q 22.3125 -1.421875 17.546875 -0.640625 
Q 12.796875 0.140625 7.71875 1.703125 
L 7.71875 11.625 
Q 12.109375 9.234375 16.796875 8.0625 
Q 21.484375 6.890625 26.703125 6.890625 
Q 35.15625 6.890625 40.078125 11.328125 
Q 45.015625 15.765625 45.015625 23.390625 
Q 45.015625 31 40.078125 35.4375 
Q 35.15625 39.890625 26.703125 39.890625 
Q 22.75 39.890625 18.8125 39.015625 
Q 14.890625 38.140625 10.796875 36.28125 
z
" id="DejaVuSans-53"/>
      </defs>
      <g transform="translate(160.442476 554.43669)rotate(-30)scale(0.1 -0.1)">
       <use xlink:href="#DejaVuSans-48"/>
       <use x="63.623047" xlink:href="#DejaVuSans-48"/>
       <use x="127.246094" xlink:href="#DejaVuSans-58"/>
       <use x="160.9375" xlink:href="#DejaVuSans-48"/>
       <use x="224.560547" xlink:href="#DejaVuSans-48"/>
       <use x="288.183594" xlink:href="#DejaVuSans-58"/>
       <use x="321.875" xlink:href="#DejaVuSans-49"/>
       <use x="385.498047" xlink:href="#DejaVuSans-53"/>
      </g>
     </g>
    </g>
    <g id="xtick_2">
     <g id="line2d_3">
      <path clip-path="url(#p668113f97a)" d="M 307.993164 518.4 
L 307.993164 77.76 
" style="fill:none;stroke:#b0b0b0;stroke-linecap:square;stroke-width:0.8;"/>
     </g>
     <g id="line2d_4">
      <g>
       <use style="stroke:#000000;stroke-width:0.8;" x="307.993164" xlink:href="#mce646a208c" y="518.4"/>
      </g>
     </g>
     <g id="text_2">
      <!-- 00:00:20 -->
      <defs>
       <path d="M 19.1875 8.296875 
L 53.609375 8.296875 
L 53.609375 0 
L 7.328125 0 
L 7.328125 8.296875 
Q 12.9375 14.109375 22.625 23.890625 
Q 32.328125 33.6875 34.8125 36.53125 
Q 39.546875 41.84375 41.421875 45.53125 
Q 43.3125 49.21875 43.3125 52.78125 
Q 43.3125 58.59375 39.234375 62.25 
Q 35.15625 65.921875 28.609375 65.921875 
Q 23.96875 65.921875 18.8125 64.3125 
Q 13.671875 62.703125 7.8125 59.421875 
L 7.8125 69.390625 
Q 13.765625 71.78125 18.9375 73 
Q 24.125 74.21875 28.421875 74.21875 
Q 39.75 74.21875 46.484375 68.546875 
Q 53.21875 62.890625 53.21875 53.421875 
Q 53.21875 48.921875 51.53125 44.890625 
Q 49.859375 40.875 45.40625 35.40625 
Q 44.1875 33.984375 37.640625 27.21875 
Q 31.109375 20.453125 19.1875 8.296875 
z
" id="DejaVuSans-50"/>
      </defs>
      <g transform="translate(268.057954 554.43669)rotate(-30)scale(0.1 -0.1)">
       <use xlink:href="#DejaVuSans-48"/>
       <use x="63.623047" xlink:href="#DejaVuSans-48"/>
       <use x="127.246094" xlink:href="#DejaVuSans-58"/>
       <use x="160.9375" xlink:href="#DejaVuSans-48"/>
       <use x="224.560547" xlink:href="#DejaVuSans-48"/>
       <use x="288.183594" xlink:href="#DejaVuSans-58"/>
       <use x="321.875" xlink:href="#DejaVuSans-50"/>
       <use x="385.498047" xlink:href="#DejaVuSans-48"/>
      </g>
     </g>
    </g>
    <g id="xtick_3">
     <g id="line2d_5">
      <path clip-path="url(#p668113f97a)" d="M 415.608154 518.4 
L 415.608154 77.76 
" style="fill:none;stroke:#b0b0b0;stroke-linecap:square;stroke-width:0.8;"/>
     </g>
     <g id="line2d_6">
      <g>
       <use style="stroke:#000000;stroke-width:0.8;" x="415.608154" xlink:href="#mce646a208c" y="518.4"/>
      </g>
     </g>
     <g id="text_3">
      <!-- 00:00:25 -->
      <g transform="translate(375.672945 554.43669)rotate(-30)scale(0.1 -0.1)">
       <use xlink:href="#DejaVuSans-48"/>
       <use x="63.623047" xlink:href="#DejaVuSans-48"/>
       <use x="127.246094" xlink:href="#DejaVuSans-58"/>
       <use x="160.9375" xlink:href="#DejaVuSans-48"/>
       <use x="224.560547" xlink:href="#DejaVuSans-48"/>
       <use x="288.183594" xlink:href="#DejaVuSans-58"/>
       <use x="321.875" xlink:href="#DejaVuSans-50"/>
       <use x="385.498047" xlink:href="#DejaVuSans-53"/>
      </g>
     </g>
    </g>
    <g id="xtick_4">
     <g id="line2d_7">
      <path clip-path="url(#p668113f97a)" d="M 523.223633 518.4 
L 523.223633 77.76 
" style="fill:none;stroke:#b0b0b0;stroke-linecap:square;stroke-width:0.8;"/>
     </g>
     <g id="line2d_8">
      <g>
       <use style="stroke:#000000;stroke-width:0.8;" x="523.223633" xlink:href="#mce646a208c" y="518.4"/>
      </g>
     </g>
     <g id="text_4">
      <!-- 00:00:30 -->
      <defs>
       <path d="M 40.578125 39.3125 
Q 47.65625 37.796875 51.625 33 
Q 55.609375 28.21875 55.609375 21.1875 
Q 55.609375 10.40625 48.1875 4.484375 
Q 40.765625 -1.421875 27.09375 -1.421875 
Q 22.515625 -1.421875 17.65625 -0.515625 
Q 12.796875 0.390625 7.625 2.203125 
L 7.625 11.71875 
Q 11.71875 9.328125 16.59375 8.109375 
Q 21.484375 6.890625 26.8125 6.890625 
Q 36.078125 6.890625 40.9375 10.546875 
Q 45.796875 14.203125 45.796875 21.1875 
Q 45.796875 27.640625 41.28125 31.265625 
Q 36.765625 34.90625 28.71875 34.90625 
L 20.21875 34.90625 
L 20.21875 43.015625 
L 29.109375 43.015625 
Q 36.375 43.015625 40.234375 45.921875 
Q 44.09375 48.828125 44.09375 54.296875 
Q 44.09375 59.90625 40.109375 62.90625 
Q 36.140625 65.921875 28.71875 65.921875 
Q 24.65625 65.921875 20.015625 65.03125 
Q 15.375 64.15625 9.8125 62.3125 
L 9.8125 71.09375 
Q 15.4375 72.65625 20.34375 73.4375 
Q 25.25 74.21875 29.59375 74.21875 
Q 40.828125 74.21875 47.359375 69.109375 
Q 53.90625 64.015625 53.90625 55.328125 
Q 53.90625 49.265625 50.4375 45.09375 
Q 46.96875 40.921875 40.578125 39.3125 
z
" id="DejaVuSans-51"/>
      </defs>
      <g transform="translate(483.288423 554.43669)rotate(-30)scale(0.1 -0.1)">
       <use xlink:href="#DejaVuSans-48"/>
       <use x="63.623047" xlink:href="#DejaVuSans-48"/>
       <use x="127.246094" xlink:href="#DejaVuSans-58"/>
       <use x="160.9375" xlink:href="#DejaVuSans-48"/>
       <use x="224.560547" xlink:href="#DejaVuSans-48"/>
       <use x="288.183594" xlink:href="#DejaVuSans-58"/>
       <use x="321.875" xlink:href="#DejaVuSans-51"/>
       <use x="385.498047" xlink:href="#DejaVuSans-48"/>
      </g>
     </g>
    </g>
    <g id="xtick_5">
     <g id="line2d_9">
      <path clip-path="url(#p668113f97a)" d="M 630.838867 518.4 
L 630.838867 77.76 
" style="fill:none;stroke:#b0b0b0;stroke-linecap:square;stroke-width:0.8;"/>
     </g>
     <g id="line2d_10">
      <g>
       <use style="stroke:#000000;stroke-width:0.8;" x="630.838867" xlink:href="#mce646a208c" y="518.4"/>
      </g>
     </g>
     <g id="text_5">
      <!-- 00:00:35 -->
      <g transform="translate(590.903657 554.43669)rotate(-30)scale(0.1 -0.1)">
       <use xlink:href="#DejaVuSans-48"/>
       <use x="63.623047" xlink:href="#DejaVuSans-48"/>
       <use x="127.246094" xlink:href="#DejaVuSans-58"/>
       <use x="160.9375" xlink:href="#DejaVuSans-48"/>
       <use x="224.560547" xlink:href="#DejaVuSans-48"/>
       <use x="288.183594" xlink:href="#DejaVuSans-58"/>
       <use x="321.875" xlink:href="#DejaVuSans-51"/>
       <use x="385.498047" xlink:href="#DejaVuSans-53"/>
      </g>
     </g>
    </g>
    <g id="xtick_6">
     <g id="line2d_11">
      <path clip-path="url(#p668113f97a)" d="M 738.454346 518.4 
L 738.454346 77.76 
" style="fill:none;stroke:#b0b0b0;stroke-linecap:square;stroke-width:0.8;"/>
     </g>
     <g id="line2d_12">
      <g>
       <use style="stroke:#000000;stroke-width:0.8;" x="738.454346" xlink:href="#mce646a208c" y="518.4"/>
      </g>
     </g>
     <g id="text_6">
      <!-- 00:00:40 -->
      <defs>
       <path d="M 37.796875 64.3125 
L 12.890625 25.390625 
L 37.796875 25.390625 
z
M 35.203125 72.90625 
L 47.609375 72.90625 
L 47.609375 25.390625 
L 58.015625 25.390625 
L 58.015625 17.1875 
L 47.609375 17.1875 
L 47.609375 0 
L 37.796875 0 
L 37.796875 17.1875 
L 4.890625 17.1875 
L 4.890625 26.703125 
z
" id="DejaVuSans-52"/>
      </defs>
      <g transform="translate(698.519136 554.43669)rotate(-30)scale(0.1 -0.1)">
       <use xlink:href="#DejaVuSans-48"/>
       <use x="63.623047" xlink:href="#DejaVuSans-48"/>
       <use x="127.246094" xlink:href="#DejaVuSans-58"/>
       <use x="160.9375" xlink:href="#DejaVuSans-48"/>
       <use x="224.560547" xlink:href="#DejaVuSans-48"/>
       <use x="288.183594" xlink:href="#DejaVuSans-58"/>
       <use x="321.875" xlink:href="#DejaVuSans-52"/>
       <use x="385.498047" xlink:href="#DejaVuSans-48"/>
      </g>
     </g>
    </g>
    <g id="text_7">
     <!-- DateTime -->
     <defs>
      <path d="M 19.671875 64.796875 
L 19.671875 8.109375 
L 31.59375 8.109375 
Q 46.6875 8.109375 53.6875 14.9375 
Q 60.6875 21.78125 60.6875 36.53125 
Q 60.6875 51.171875 53.6875 57.984375 
Q 46.6875 64.796875 31.59375 64.796875 
z
M 9.8125 72.90625 
L 30.078125 72.90625 
Q 51.265625 72.90625 61.171875 64.09375 
Q 71.09375 55.28125 71.09375 36.53125 
Q 71.09375 17.671875 61.125 8.828125 
Q 51.171875 0 30.078125 0 
L 9.8125 0 
z
" id="DejaVuSans-68"/>
      <path d="M 34.28125 27.484375 
Q 23.390625 27.484375 19.1875 25 
Q 14.984375 22.515625 14.984375 16.5 
Q 14.984375 11.71875 18.140625 8.90625 
Q 21.296875 6.109375 26.703125 6.109375 
Q 34.1875 6.109375 38.703125 11.40625 
Q 43.21875 16.703125 43.21875 25.484375 
L 43.21875 27.484375 
z
M 52.203125 31.203125 
L 52.203125 0 
L 43.21875 0 
L 43.21875 8.296875 
Q 40.140625 3.328125 35.546875 0.953125 
Q 30.953125 -1.421875 24.3125 -1.421875 
Q 15.921875 -1.421875 10.953125 3.296875 
Q 6 8.015625 6 15.921875 
Q 6 25.140625 12.171875 29.828125 
Q 18.359375 34.515625 30.609375 34.515625 
L 43.21875 34.515625 
L 43.21875 35.40625 
Q 43.21875 41.609375 39.140625 45 
Q 35.0625 48.390625 27.6875 48.390625 
Q 23 48.390625 18.546875 47.265625 
Q 14.109375 46.140625 10.015625 43.890625 
L 10.015625 52.203125 
Q 14.9375 54.109375 19.578125 55.046875 
Q 24.21875 56 28.609375 56 
Q 40.484375 56 46.34375 49.84375 
Q 52.203125 43.703125 52.203125 31.203125 
z
" id="DejaVuSans-97"/>
      <path d="M 18.3125 70.21875 
L 18.3125 54.6875 
L 36.8125 54.6875 
L 36.8125 47.703125 
L 18.3125 47.703125 
L 18.3125 18.015625 
Q 18.3125 11.328125 20.140625 9.421875 
Q 21.96875 7.515625 27.59375 7.515625 
L 36.8125 7.515625 
L 36.8125 0 
L 27.59375 0 
Q 17.1875 0 13.234375 3.875 
Q 9.28125 7.765625 9.28125 18.015625 
L 9.28125 47.703125 
L 2.6875 47.703125 
L 2.6875 54.6875 
L 9.28125 54.6875 
L 9.28125 70.21875 
z
" id="DejaVuSans-116"/>
      <path d="M 56.203125 29.59375 
L 56.203125 25.203125 
L 14.890625 25.203125 
Q 15.484375 15.921875 20.484375 11.0625 
Q 25.484375 6.203125 34.421875 6.203125 
Q 39.59375 6.203125 44.453125 7.46875 
Q 49.3125 8.734375 54.109375 11.28125 
L 54.109375 2.78125 
Q 49.265625 0.734375 44.1875 -0.34375 
Q 39.109375 -1.421875 33.890625 -1.421875 
Q 20.796875 -1.421875 13.15625 6.1875 
Q 5.515625 13.8125 5.515625 26.8125 
Q 5.515625 40.234375 12.765625 48.109375 
Q 20.015625 56 32.328125 56 
Q 43.359375 56 49.78125 48.890625 
Q 56.203125 41.796875 56.203125 29.59375 
z
M 47.21875 32.234375 
Q 47.125 39.59375 43.09375 43.984375 
Q 39.0625 48.390625 32.421875 48.390625 
Q 24.90625 48.390625 20.390625 44.140625 
Q 15.875 39.890625 15.1875 32.171875 
z
" id="DejaVuSans-101"/>
      <path d="M -0.296875 72.90625 
L 61.375 72.90625 
L 61.375 64.59375 
L 35.5 64.59375 
L 35.5 0 
L 25.59375 0 
L 25.59375 64.59375 
L -0.296875 64.59375 
z
" id="DejaVuSans-84"/>
      <path d="M 9.421875 54.6875 
L 18.40625 54.6875 
L 18.40625 0 
L 9.421875 0 
z
M 9.421875 75.984375 
L 18.40625 75.984375 
L 18.40625 64.59375 
L 9.421875 64.59375 
z
" id="DejaVuSans-105"/>
      <path d="M 52 44.1875 
Q 55.375 50.25 60.0625 53.125 
Q 64.75 56 71.09375 56 
Q 79.640625 56 84.28125 50.015625 
Q 88.921875 44.046875 88.921875 33.015625 
L 88.921875 0 
L 79.890625 0 
L 79.890625 32.71875 
Q 79.890625 40.578125 77.09375 44.375 
Q 74.3125 48.1875 68.609375 48.1875 
Q 61.625 48.1875 57.5625 43.546875 
Q 53.515625 38.921875 53.515625 30.90625 
L 53.515625 0 
L 44.484375 0 
L 44.484375 32.71875 
Q 44.484375 40.625 41.703125 44.40625 
Q 38.921875 48.1875 33.109375 48.1875 
Q 26.21875 48.1875 22.15625 43.53125 
Q 18.109375 38.875 18.109375 30.90625 
L 18.109375 0 
L 9.078125 0 
L 9.078125 54.6875 
L 18.109375 54.6875 
L 18.109375 46.1875 
Q 21.1875 51.21875 25.484375 53.609375 
Q 29.78125 56 35.6875 56 
Q 41.65625 56 45.828125 52.96875 
Q 50 49.953125 52 44.1875 
z
" id="DejaVuSans-109"/>
     </defs>
     <g transform="translate(418.615625 567.83619)scale(0.1 -0.1)">
      <use xlink:href="#DejaVuSans-68"/>
      <use x="77.001953" xlink:href="#DejaVuSans-97"/>
      <use x="138.28125" xlink:href="#DejaVuSans-116"/>
      <use x="177.490234" xlink:href="#DejaVuSans-101"/>
      <use x="239.013672" xlink:href="#DejaVuSans-84"/>
      <use x="296.972656" xlink:href="#DejaVuSans-105"/>
      <use x="324.755859" xlink:href="#DejaVuSans-109"/>
      <use x="422.167969" xlink:href="#DejaVuSans-101"/>
     </g>
    </g>
   </g>
   <g id="matplotlib.axis_2">
    <g id="ytick_1">
     <g id="line2d_13">
      <path clip-path="url(#p668113f97a)" d="M 108 430.223898 
L 777.6 430.223898 
" style="fill:none;stroke:#b0b0b0;stroke-linecap:square;stroke-width:0.8;"/>
     </g>
     <g id="line2d_14">
      <defs>
       <path d="M 0 0 
L -3.5 0 
" id="m2d6dda6442" style="stroke:#000000;stroke-width:0.8;"/>
      </defs>
      <g>
       <use style="stroke:#000000;stroke-width:0.8;" x="108" xlink:href="#m2d6dda6442" y="430.223898"/>
      </g>
     </g>
     <g id="text_8">
      <!-- −500 -->
      <defs>
       <path d="M 10.59375 35.5 
L 73.1875 35.5 
L 73.1875 27.203125 
L 10.59375 27.203125 
z
" id="DejaVuSans-8722"/>
      </defs>
      <g transform="translate(73.532813 434.023117)scale(0.1 -0.1)">
       <use xlink:href="#DejaVuSans-8722"/>
       <use x="83.789062" xlink:href="#DejaVuSans-53"/>
       <use x="147.412109" xlink:href="#DejaVuSans-48"/>
       <use x="211.035156" xlink:href="#DejaVuSans-48"/>
      </g>
     </g>
    </g>
    <g id="ytick_2">
     <g id="line2d_15">
      <path clip-path="url(#p668113f97a)" d="M 108 335.795605 
L 777.6 335.795605 
" style="fill:none;stroke:#b0b0b0;stroke-linecap:square;stroke-width:0.8;"/>
     </g>
     <g id="line2d_16">
      <g>
       <use style="stroke:#000000;stroke-width:0.8;" x="108" xlink:href="#m2d6dda6442" y="335.795605"/>
      </g>
     </g>
     <g id="text_9">
      <!-- 0 -->
      <g transform="translate(94.6375 339.594823)scale(0.1 -0.1)">
       <use xlink:href="#DejaVuSans-48"/>
      </g>
     </g>
    </g>
    <g id="ytick_3">
     <g id="line2d_17">
      <path clip-path="url(#p668113f97a)" d="M 108 241.367311 
L 777.6 241.367311 
" style="fill:none;stroke:#b0b0b0;stroke-linecap:square;stroke-width:0.8;"/>
     </g>
     <g id="line2d_18">
      <g>
       <use style="stroke:#000000;stroke-width:0.8;" x="108" xlink:href="#m2d6dda6442" y="241.367311"/>
      </g>
     </g>
     <g id="text_10">
      <!-- 500 -->
      <g transform="translate(81.9125 245.16653)scale(0.1 -0.1)">
       <use xlink:href="#DejaVuSans-53"/>
       <use x="63.623047" xlink:href="#DejaVuSans-48"/>
       <use x="127.246094" xlink:href="#DejaVuSans-48"/>
      </g>
     </g>
    </g>
    <g id="ytick_4">
     <g id="line2d_19">
      <path clip-path="url(#p668113f97a)" d="M 108 146.939018 
L 777.6 146.939018 
" style="fill:none;stroke:#b0b0b0;stroke-linecap:square;stroke-width:0.8;"/>
     </g>
     <g id="line2d_20">
      <g>
       <use style="stroke:#000000;stroke-width:0.8;" x="108" xlink:href="#m2d6dda6442" y="146.939018"/>
      </g>
     </g>
     <g id="text_11">
      <!-- 1000 -->
      <g transform="translate(75.55 150.738236)scale(0.1 -0.1)">
       <use xlink:href="#DejaVuSans-49"/>
       <use x="63.623047" xlink:href="#DejaVuSans-48"/>
       <use x="127.246094" xlink:href="#DejaVuSans-48"/>
       <use x="190.869141" xlink:href="#DejaVuSans-48"/>
      </g>
     </g>
    </g>
    <g id="text_12">
     <!-- Scaled Acc (mg) -->
     <defs>
      <path d="M 53.515625 70.515625 
L 53.515625 60.890625 
Q 47.90625 63.578125 42.921875 64.890625 
Q 37.9375 66.21875 33.296875 66.21875 
Q 25.25 66.21875 20.875 63.09375 
Q 16.5 59.96875 16.5 54.203125 
Q 16.5 49.359375 19.40625 46.890625 
Q 22.3125 44.4375 30.421875 42.921875 
L 36.375 41.703125 
Q 47.40625 39.59375 52.65625 34.296875 
Q 57.90625 29 57.90625 20.125 
Q 57.90625 9.515625 50.796875 4.046875 
Q 43.703125 -1.421875 29.984375 -1.421875 
Q 24.8125 -1.421875 18.96875 -0.25 
Q 13.140625 0.921875 6.890625 3.21875 
L 6.890625 13.375 
Q 12.890625 10.015625 18.65625 8.296875 
Q 24.421875 6.59375 29.984375 6.59375 
Q 38.421875 6.59375 43.015625 9.90625 
Q 47.609375 13.234375 47.609375 19.390625 
Q 47.609375 24.75 44.3125 27.78125 
Q 41.015625 30.8125 33.5 32.328125 
L 27.484375 33.5 
Q 16.453125 35.6875 11.515625 40.375 
Q 6.59375 45.0625 6.59375 53.421875 
Q 6.59375 63.09375 13.40625 68.65625 
Q 20.21875 74.21875 32.171875 74.21875 
Q 37.3125 74.21875 42.625 73.28125 
Q 47.953125 72.359375 53.515625 70.515625 
z
" id="DejaVuSans-83"/>
      <path d="M 48.78125 52.59375 
L 48.78125 44.1875 
Q 44.96875 46.296875 41.140625 47.34375 
Q 37.3125 48.390625 33.40625 48.390625 
Q 24.65625 48.390625 19.8125 42.84375 
Q 14.984375 37.3125 14.984375 27.296875 
Q 14.984375 17.28125 19.8125 11.734375 
Q 24.65625 6.203125 33.40625 6.203125 
Q 37.3125 6.203125 41.140625 7.25 
Q 44.96875 8.296875 48.78125 10.40625 
L 48.78125 2.09375 
Q 45.015625 0.34375 40.984375 -0.53125 
Q 36.96875 -1.421875 32.421875 -1.421875 
Q 20.0625 -1.421875 12.78125 6.34375 
Q 5.515625 14.109375 5.515625 27.296875 
Q 5.515625 40.671875 12.859375 48.328125 
Q 20.21875 56 33.015625 56 
Q 37.15625 56 41.109375 55.140625 
Q 45.0625 54.296875 48.78125 52.59375 
z
" id="DejaVuSans-99"/>
      <path d="M 9.421875 75.984375 
L 18.40625 75.984375 
L 18.40625 0 
L 9.421875 0 
z
" id="DejaVuSans-108"/>
      <path d="M 45.40625 46.390625 
L 45.40625 75.984375 
L 54.390625 75.984375 
L 54.390625 0 
L 45.40625 0 
L 45.40625 8.203125 
Q 42.578125 3.328125 38.25 0.953125 
Q 33.9375 -1.421875 27.875 -1.421875 
Q 17.96875 -1.421875 11.734375 6.484375 
Q 5.515625 14.40625 5.515625 27.296875 
Q 5.515625 40.1875 11.734375 48.09375 
Q 17.96875 56 27.875 56 
Q 33.9375 56 38.25 53.625 
Q 42.578125 51.265625 45.40625 46.390625 
z
M 14.796875 27.296875 
Q 14.796875 17.390625 18.875 11.75 
Q 22.953125 6.109375 30.078125 6.109375 
Q 37.203125 6.109375 41.296875 11.75 
Q 45.40625 17.390625 45.40625 27.296875 
Q 45.40625 37.203125 41.296875 42.84375 
Q 37.203125 48.484375 30.078125 48.484375 
Q 22.953125 48.484375 18.875 42.84375 
Q 14.796875 37.203125 14.796875 27.296875 
z
" id="DejaVuSans-100"/>
      <path id="DejaVuSans-32"/>
      <path d="M 34.1875 63.1875 
L 20.796875 26.90625 
L 47.609375 26.90625 
z
M 28.609375 72.90625 
L 39.796875 72.90625 
L 67.578125 0 
L 57.328125 0 
L 50.6875 18.703125 
L 17.828125 18.703125 
L 11.1875 0 
L 0.78125 0 
z
" id="DejaVuSans-65"/>
      <path d="M 31 75.875 
Q 24.46875 64.65625 21.28125 53.65625 
Q 18.109375 42.671875 18.109375 31.390625 
Q 18.109375 20.125 21.3125 9.0625 
Q 24.515625 -2 31 -13.1875 
L 23.1875 -13.1875 
Q 15.875 -1.703125 12.234375 9.375 
Q 8.59375 20.453125 8.59375 31.390625 
Q 8.59375 42.28125 12.203125 53.3125 
Q 15.828125 64.359375 23.1875 75.875 
z
" id="DejaVuSans-40"/>
      <path d="M 45.40625 27.984375 
Q 45.40625 37.75 41.375 43.109375 
Q 37.359375 48.484375 30.078125 48.484375 
Q 22.859375 48.484375 18.828125 43.109375 
Q 14.796875 37.75 14.796875 27.984375 
Q 14.796875 18.265625 18.828125 12.890625 
Q 22.859375 7.515625 30.078125 7.515625 
Q 37.359375 7.515625 41.375 12.890625 
Q 45.40625 18.265625 45.40625 27.984375 
z
M 54.390625 6.78125 
Q 54.390625 -7.171875 48.1875 -13.984375 
Q 42 -20.796875 29.203125 -20.796875 
Q 24.46875 -20.796875 20.265625 -20.09375 
Q 16.0625 -19.390625 12.109375 -17.921875 
L 12.109375 -9.1875 
Q 16.0625 -11.328125 19.921875 -12.34375 
Q 23.78125 -13.375 27.78125 -13.375 
Q 36.625 -13.375 41.015625 -8.765625 
Q 45.40625 -4.15625 45.40625 5.171875 
L 45.40625 9.625 
Q 42.625 4.78125 38.28125 2.390625 
Q 33.9375 0 27.875 0 
Q 17.828125 0 11.671875 7.65625 
Q 5.515625 15.328125 5.515625 27.984375 
Q 5.515625 40.671875 11.671875 48.328125 
Q 17.828125 56 27.875 56 
Q 33.9375 56 38.28125 53.609375 
Q 42.625 51.21875 45.40625 46.390625 
L 45.40625 54.6875 
L 54.390625 54.6875 
z
" id="DejaVuSans-103"/>
      <path d="M 8.015625 75.875 
L 15.828125 75.875 
Q 23.140625 64.359375 26.78125 53.3125 
Q 30.421875 42.28125 30.421875 31.390625 
Q 30.421875 20.453125 26.78125 9.375 
Q 23.140625 -1.703125 15.828125 -13.1875 
L 8.015625 -13.1875 
Q 14.5 -2 17.703125 9.0625 
Q 20.90625 20.125 20.90625 31.390625 
Q 20.90625 42.671875 17.703125 53.65625 
Q 14.5 64.65625 8.015625 75.875 
z
" id="DejaVuSans-41"/>
     </defs>
     <g transform="translate(67.453125 338.662812)rotate(-90)scale(0.1 -0.1)">
      <use xlink:href="#DejaVuSans-83"/>
      <use x="63.476562" xlink:href="#DejaVuSans-99"/>
      <use x="118.457031" xlink:href="#DejaVuSans-97"/>
      <use x="179.736328" xlink:href="#DejaVuSans-108"/>
      <use x="207.519531" xlink:href="#DejaVuSans-101"/>
      <use x="269.042969" xlink:href="#DejaVuSans-100"/>
      <use x="332.519531" xlink:href="#DejaVuSans-32"/>
      <use x="364.306641" xlink:href="#DejaVuSans-65"/>
      <use x="430.964844" xlink:href="#DejaVuSans-99"/>
      <use x="485.945312" xlink:href="#DejaVuSans-99"/>
      <use x="540.925781" xlink:href="#DejaVuSans-32"/>
      <use x="572.712891" xlink:href="#DejaVuSans-40"/>
      <use x="611.726562" xlink:href="#DejaVuSans-109"/>
      <use x="709.138672" xlink:href="#DejaVuSans-103"/>
      <use x="772.615234" xlink:href="#DejaVuSans-41"/>
     </g>
    </g>
   </g>
   <g id="line2d_21">
    <path clip-path="url(#p668113f97a)" d="M 138.436523 344.649202 
L 160.16333 340.405594 
L 181.885498 343.079803 
L 203.61084 343.357422 
L 203.798096 344.739853 
L 225.502441 382.734021 
L 247.203369 340.868293 
L 268.900879 346.770061 
L 290.632812 336.163875 
L 312.333496 346.399902 
L 312.503906 362.905968 
L 334.205322 349.259191 
L 355.909424 337.823924 
L 377.613037 354.607609 
L 399.310059 321.963748 
L 421.014404 246.06984 
L 421.194336 344.739853 
L 442.896484 482.140574 
L 464.595947 352.671829 
L 486.299316 359.678409 
L 508.003662 342.618993 
L 529.709229 342.526453 
L 529.89209 342.526453 
L 551.5979 343.725693 
L 573.301758 343.449962 
L 595.008057 344.924932 
L 616.713135 343.542502 
L 638.417725 343.264883 
L 660.125732 344.739853 
L 660.308594 343.357422 
L 682.017334 343.079803 
L 703.723389 342.711533 
L 725.429443 348.059951 
L 747.163818 345.846552 
" style="fill:none;stroke:#1f77b4;stroke-linecap:square;stroke-width:1.5;"/>
    <defs>
     <path d="M 0 2.5 
C 0.663008 2.5 1.29895 2.236584 1.767767 1.767767 
C 2.236584 1.29895 2.5 0.663008 2.5 0 
C 2.5 -0.663008 2.236584 -1.29895 1.767767 -1.767767 
C 1.29895 -2.236584 0.663008 -2.5 0 -2.5 
C -0.663008 -2.5 -1.29895 -2.236584 -1.767767 -1.767767 
C -2.236584 -1.29895 -2.5 -0.663008 -2.5 0 
C -2.5 0.663008 -2.236584 1.29895 -1.767767 1.767767 
C -1.29895 2.236584 -0.663008 2.5 0 2.5 
z
" id="m1db344c5e7" style="stroke:#1f77b4;"/>
    </defs>
    <g clip-path="url(#p668113f97a)">
     <use style="fill:#1f77b4;stroke:#1f77b4;" x="138.436523" xlink:href="#m1db344c5e7" y="344.649202"/>
     <use style="fill:#1f77b4;stroke:#1f77b4;" x="160.16333" xlink:href="#m1db344c5e7" y="340.405594"/>
     <use style="fill:#1f77b4;stroke:#1f77b4;" x="181.885498" xlink:href="#m1db344c5e7" y="343.079803"/>
     <use style="fill:#1f77b4;stroke:#1f77b4;" x="203.61084" xlink:href="#m1db344c5e7" y="343.357422"/>
     <use style="fill:#1f77b4;stroke:#1f77b4;" x="203.798096" xlink:href="#m1db344c5e7" y="344.739853"/>
     <use style="fill:#1f77b4;stroke:#1f77b4;" x="225.502441" xlink:href="#m1db344c5e7" y="382.734021"/>
     <use style="fill:#1f77b4;stroke:#1f77b4;" x="247.203369" xlink:href="#m1db344c5e7" y="340.868293"/>
     <use style="fill:#1f77b4;stroke:#1f77b4;" x="268.900879" xlink:href="#m1db344c5e7" y="346.770061"/>
     <use style="fill:#1f77b4;stroke:#1f77b4;" x="290.632812" xlink:href="#m1db344c5e7" y="336.163875"/>
     <use style="fill:#1f77b4;stroke:#1f77b4;" x="312.333496" xlink:href="#m1db344c5e7" y="346.399902"/>
     <use style="fill:#1f77b4;stroke:#1f77b4;" x="312.503906" xlink:href="#m1db344c5e7" y="362.905968"/>
     <use style="fill:#1f77b4;stroke:#1f77b4;" x="334.205322" xlink:href="#m1db344c5e7" y="349.259191"/>
     <use style="fill:#1f77b4;stroke:#1f77b4;" x="355.909424" xlink:href="#m1db344c5e7" y="337.823924"/>
     <use style="fill:#1f77b4;stroke:#1f77b4;" x="377.613037" xlink:href="#m1db344c5e7" y="354.607609"/>
     <use style="fill:#1f77b4;stroke:#1f77b4;" x="399.310059" xlink:href="#m1db344c5e7" y="321.963748"/>
     <use style="fill:#1f77b4;stroke:#1f77b4;" x="421.014404" xlink:href="#m1db344c5e7" y="246.06984"/>
     <use style="fill:#1f77b4;stroke:#1f77b4;" x="421.194336" xlink:href="#m1db344c5e7" y="344.739853"/>
     <use style="fill:#1f77b4;stroke:#1f77b4;" x="442.896484" xlink:href="#m1db344c5e7" y="482.140574"/>
     <use style="fill:#1f77b4;stroke:#1f77b4;" x="464.595947" xlink:href="#m1db344c5e7" y="352.671829"/>
     <use style="fill:#1f77b4;stroke:#1f77b4;" x="486.299316" xlink:href="#m1db344c5e7" y="359.678409"/>
     <use style="fill:#1f77b4;stroke:#1f77b4;" x="508.003662" xlink:href="#m1db344c5e7" y="342.618993"/>
     <use style="fill:#1f77b4;stroke:#1f77b4;" x="529.709229" xlink:href="#m1db344c5e7" y="342.526453"/>
     <use style="fill:#1f77b4;stroke:#1f77b4;" x="529.89209" xlink:href="#m1db344c5e7" y="342.526453"/>
     <use style="fill:#1f77b4;stroke:#1f77b4;" x="551.5979" xlink:href="#m1db344c5e7" y="343.725693"/>
     <use style="fill:#1f77b4;stroke:#1f77b4;" x="573.301758" xlink:href="#m1db344c5e7" y="343.449962"/>
     <use style="fill:#1f77b4;stroke:#1f77b4;" x="595.008057" xlink:href="#m1db344c5e7" y="344.924932"/>
     <use style="fill:#1f77b4;stroke:#1f77b4;" x="616.713135" xlink:href="#m1db344c5e7" y="343.542502"/>
     <use style="fill:#1f77b4;stroke:#1f77b4;" x="638.417725" xlink:href="#m1db344c5e7" y="343.264883"/>
     <use style="fill:#1f77b4;stroke:#1f77b4;" x="660.125732" xlink:href="#m1db344c5e7" y="344.739853"/>
     <use style="fill:#1f77b4;stroke:#1f77b4;" x="660.308594" xlink:href="#m1db344c5e7" y="343.357422"/>
     <use style="fill:#1f77b4;stroke:#1f77b4;" x="682.017334" xlink:href="#m1db344c5e7" y="343.079803"/>
     <use style="fill:#1f77b4;stroke:#1f77b4;" x="703.723389" xlink:href="#m1db344c5e7" y="342.711533"/>
     <use style="fill:#1f77b4;stroke:#1f77b4;" x="725.429443" xlink:href="#m1db344c5e7" y="348.059951"/>
     <use style="fill:#1f77b4;stroke:#1f77b4;" x="747.163818" xlink:href="#m1db344c5e7" y="345.846552"/>
    </g>
   </g>
   <g id="line2d_22">
    <path clip-path="url(#p668113f97a)" d="M 138.436523 336.624685 
L 160.16333 339.944784 
L 181.885498 339.669053 
L 203.61084 337.640734 
L 203.798096 338.377274 
L 225.502441 349.351731 
L 247.203369 301.123424 
L 268.900879 347.691681 
L 290.632812 331.093076 
L 312.333496 361.338458 
L 312.503906 380.796352 
L 334.205322 332.568046 
L 355.909424 498.370909 
L 377.613037 322.517098 
L 399.310059 312.834421 
L 421.014404 339.483974 
L 421.194336 319.47273 
L 442.896484 302.874124 
L 464.595947 318.828729 
L 486.299316 343.357422 
L 508.003662 337.916464 
L 529.709229 336.441494 
L 529.89209 339.208243 
L 551.5979 338.469814 
L 573.301758 338.194083 
L 595.008057 338.194083 
L 616.713135 340.222403 
L 638.417725 336.624685 
L 660.125732 340.590673 
L 660.308594 340.314943 
L 682.017334 341.144023 
L 703.723389 337.823924 
L 725.429443 336.163875 
L 747.163818 339.761593 
" style="fill:none;stroke:#ff7f0e;stroke-linecap:square;stroke-width:1.5;"/>
    <defs>
     <path d="M 0 2.5 
C 0.663008 2.5 1.29895 2.236584 1.767767 1.767767 
C 2.236584 1.29895 2.5 0.663008 2.5 0 
C 2.5 -0.663008 2.236584 -1.29895 1.767767 -1.767767 
C 1.29895 -2.236584 0.663008 -2.5 0 -2.5 
C -0.663008 -2.5 -1.29895 -2.236584 -1.767767 -1.767767 
C -2.236584 -1.29895 -2.5 -0.663008 -2.5 0 
C -2.5 0.663008 -2.236584 1.29895 -1.767767 1.767767 
C -1.29895 2.236584 -0.663008 2.5 0 2.5 
z
" id="m70887ad9b6" style="stroke:#ff7f0e;"/>
    </defs>
    <g clip-path="url(#p668113f97a)">
     <use style="fill:#ff7f0e;stroke:#ff7f0e;" x="138.436523" xlink:href="#m70887ad9b6" y="336.624685"/>
     <use style="fill:#ff7f0e;stroke:#ff7f0e;" x="160.16333" xlink:href="#m70887ad9b6" y="339.944784"/>
     <use style="fill:#ff7f0e;stroke:#ff7f0e;" x="181.885498" xlink:href="#m70887ad9b6" y="339.669053"/>
     <use style="fill:#ff7f0e;stroke:#ff7f0e;" x="203.61084" xlink:href="#m70887ad9b6" y="337.640734"/>
     <use style="fill:#ff7f0e;stroke:#ff7f0e;" x="203.798096" xlink:href="#m70887ad9b6" y="338.377274"/>
     <use style="fill:#ff7f0e;stroke:#ff7f0e;" x="225.502441" xlink:href="#m70887ad9b6" y="349.351731"/>
     <use style="fill:#ff7f0e;stroke:#ff7f0e;" x="247.203369" xlink:href="#m70887ad9b6" y="301.123424"/>
     <use style="fill:#ff7f0e;stroke:#ff7f0e;" x="268.900879" xlink:href="#m70887ad9b6" y="347.691681"/>
     <use style="fill:#ff7f0e;stroke:#ff7f0e;" x="290.632812" xlink:href="#m70887ad9b6" y="331.093076"/>
     <use style="fill:#ff7f0e;stroke:#ff7f0e;" x="312.333496" xlink:href="#m70887ad9b6" y="361.338458"/>
     <use style="fill:#ff7f0e;stroke:#ff7f0e;" x="312.503906" xlink:href="#m70887ad9b6" y="380.796352"/>
     <use style="fill:#ff7f0e;stroke:#ff7f0e;" x="334.205322" xlink:href="#m70887ad9b6" y="332.568046"/>
     <use style="fill:#ff7f0e;stroke:#ff7f0e;" x="355.909424" xlink:href="#m70887ad9b6" y="498.370909"/>
     <use style="fill:#ff7f0e;stroke:#ff7f0e;" x="377.613037" xlink:href="#m70887ad9b6" y="322.517098"/>
     <use style="fill:#ff7f0e;stroke:#ff7f0e;" x="399.310059" xlink:href="#m70887ad9b6" y="312.834421"/>
     <use style="fill:#ff7f0e;stroke:#ff7f0e;" x="421.014404" xlink:href="#m70887ad9b6" y="339.483974"/>
     <use style="fill:#ff7f0e;stroke:#ff7f0e;" x="421.194336" xlink:href="#m70887ad9b6" y="319.47273"/>
     <use style="fill:#ff7f0e;stroke:#ff7f0e;" x="442.896484" xlink:href="#m70887ad9b6" y="302.874124"/>
     <use style="fill:#ff7f0e;stroke:#ff7f0e;" x="464.595947" xlink:href="#m70887ad9b6" y="318.828729"/>
     <use style="fill:#ff7f0e;stroke:#ff7f0e;" x="486.299316" xlink:href="#m70887ad9b6" y="343.357422"/>
     <use style="fill:#ff7f0e;stroke:#ff7f0e;" x="508.003662" xlink:href="#m70887ad9b6" y="337.916464"/>
     <use style="fill:#ff7f0e;stroke:#ff7f0e;" x="529.709229" xlink:href="#m70887ad9b6" y="336.441494"/>
     <use style="fill:#ff7f0e;stroke:#ff7f0e;" x="529.89209" xlink:href="#m70887ad9b6" y="339.208243"/>
     <use style="fill:#ff7f0e;stroke:#ff7f0e;" x="551.5979" xlink:href="#m70887ad9b6" y="338.469814"/>
     <use style="fill:#ff7f0e;stroke:#ff7f0e;" x="573.301758" xlink:href="#m70887ad9b6" y="338.194083"/>
     <use style="fill:#ff7f0e;stroke:#ff7f0e;" x="595.008057" xlink:href="#m70887ad9b6" y="338.194083"/>
     <use style="fill:#ff7f0e;stroke:#ff7f0e;" x="616.713135" xlink:href="#m70887ad9b6" y="340.222403"/>
     <use style="fill:#ff7f0e;stroke:#ff7f0e;" x="638.417725" xlink:href="#m70887ad9b6" y="336.624685"/>
     <use style="fill:#ff7f0e;stroke:#ff7f0e;" x="660.125732" xlink:href="#m70887ad9b6" y="340.590673"/>
     <use style="fill:#ff7f0e;stroke:#ff7f0e;" x="660.308594" xlink:href="#m70887ad9b6" y="340.314943"/>
     <use style="fill:#ff7f0e;stroke:#ff7f0e;" x="682.017334" xlink:href="#m70887ad9b6" y="341.144023"/>
     <use style="fill:#ff7f0e;stroke:#ff7f0e;" x="703.723389" xlink:href="#m70887ad9b6" y="337.823924"/>
     <use style="fill:#ff7f0e;stroke:#ff7f0e;" x="725.429443" xlink:href="#m70887ad9b6" y="336.163875"/>
     <use style="fill:#ff7f0e;stroke:#ff7f0e;" x="747.163818" xlink:href="#m70887ad9b6" y="339.761593"/>
    </g>
   </g>
   <g id="line2d_23">
    <path clip-path="url(#p668113f97a)" d="M 138.436523 146.570747 
L 160.16333 146.293128 
L 181.885498 147.399828 
L 203.61084 147.307288 
L 203.798096 146.570747 
L 225.502441 110.975058 
L 247.203369 123.331944 
L 268.900879 144.633079 
L 290.632812 141.683139 
L 312.333496 145.832318 
L 312.503906 178.107909 
L 334.205322 140.29882 
L 355.909424 231.408903 
L 377.613037 117.983526 
L 399.310059 149.798306 
L 421.014404 174.23446 
L 421.194336 143.618919 
L 442.896484 214.625218 
L 464.595947 148.599067 
L 486.299316 97.789091 
L 508.003662 146.385668 
L 529.709229 145.371508 
L 529.89209 145.924858 
L 551.5979 144.264808 
L 573.301758 146.753938 
L 595.008057 143.896538 
L 616.713135 146.939018 
L 638.417725 143.711459 
L 660.125732 148.599067 
L 660.308594 147.953178 
L 682.017334 146.939018 
L 703.723389 147.584907 
L 725.429443 146.017398 
L 747.163818 145.832318 
" style="fill:none;stroke:#2ca02c;stroke-linecap:square;stroke-width:1.5;"/>
    <defs>
     <path d="M 0 2.5 
C 0.663008 2.5 1.29895 2.236584 1.767767 1.767767 
C 2.236584 1.29895 2.5 0.663008 2.5 0 
C 2.5 -0.663008 2.236584 -1.29895 1.767767 -1.767767 
C 1.29895 -2.236584 0.663008 -2.5 0 -2.5 
C -0.663008 -2.5 -1.29895 -2.236584 -1.767767 -1.767767 
C -2.236584 -1.29895 -2.5 -0.663008 -2.5 0 
C -2.5 0.663008 -2.236584 1.29895 -1.767767 1.767767 
C -1.29895 2.236584 -0.663008 2.5 0 2.5 
z
" id="mc53e255e97" style="stroke:#2ca02c;"/>
    </defs>
    <g clip-path="url(#p668113f97a)">
     <use style="fill:#2ca02c;stroke:#2ca02c;" x="138.436523" xlink:href="#mc53e255e97" y="146.570747"/>
     <use style="fill:#2ca02c;stroke:#2ca02c;" x="160.16333" xlink:href="#mc53e255e97" y="146.293128"/>
     <use style="fill:#2ca02c;stroke:#2ca02c;" x="181.885498" xlink:href="#mc53e255e97" y="147.399828"/>
     <use style="fill:#2ca02c;stroke:#2ca02c;" x="203.61084" xlink:href="#mc53e255e97" y="147.307288"/>
     <use style="fill:#2ca02c;stroke:#2ca02c;" x="203.798096" xlink:href="#mc53e255e97" y="146.570747"/>
     <use style="fill:#2ca02c;stroke:#2ca02c;" x="225.502441" xlink:href="#mc53e255e97" y="110.975058"/>
     <use style="fill:#2ca02c;stroke:#2ca02c;" x="247.203369" xlink:href="#mc53e255e97" y="123.331944"/>
     <use style="fill:#2ca02c;stroke:#2ca02c;" x="268.900879" xlink:href="#mc53e255e97" y="144.633079"/>
     <use style="fill:#2ca02c;stroke:#2ca02c;" x="290.632812" xlink:href="#mc53e255e97" y="141.683139"/>
     <use style="fill:#2ca02c;stroke:#2ca02c;" x="312.333496" xlink:href="#mc53e255e97" y="145.832318"/>
     <use style="fill:#2ca02c;stroke:#2ca02c;" x="312.503906" xlink:href="#mc53e255e97" y="178.107909"/>
     <use style="fill:#2ca02c;stroke:#2ca02c;" x="334.205322" xlink:href="#mc53e255e97" y="140.29882"/>
     <use style="fill:#2ca02c;stroke:#2ca02c;" x="355.909424" xlink:href="#mc53e255e97" y="231.408903"/>
     <use style="fill:#2ca02c;stroke:#2ca02c;" x="377.613037" xlink:href="#mc53e255e97" y="117.983526"/>
     <use style="fill:#2ca02c;stroke:#2ca02c;" x="399.310059" xlink:href="#mc53e255e97" y="149.798306"/>
     <use style="fill:#2ca02c;stroke:#2ca02c;" x="421.014404" xlink:href="#mc53e255e97" y="174.23446"/>
     <use style="fill:#2ca02c;stroke:#2ca02c;" x="421.194336" xlink:href="#mc53e255e97" y="143.618919"/>
     <use style="fill:#2ca02c;stroke:#2ca02c;" x="442.896484" xlink:href="#mc53e255e97" y="214.625218"/>
     <use style="fill:#2ca02c;stroke:#2ca02c;" x="464.595947" xlink:href="#mc53e255e97" y="148.599067"/>
     <use style="fill:#2ca02c;stroke:#2ca02c;" x="486.299316" xlink:href="#mc53e255e97" y="97.789091"/>
     <use style="fill:#2ca02c;stroke:#2ca02c;" x="508.003662" xlink:href="#mc53e255e97" y="146.385668"/>
     <use style="fill:#2ca02c;stroke:#2ca02c;" x="529.709229" xlink:href="#mc53e255e97" y="145.371508"/>
     <use style="fill:#2ca02c;stroke:#2ca02c;" x="529.89209" xlink:href="#mc53e255e97" y="145.924858"/>
     <use style="fill:#2ca02c;stroke:#2ca02c;" x="551.5979" xlink:href="#mc53e255e97" y="144.264808"/>
     <use style="fill:#2ca02c;stroke:#2ca02c;" x="573.301758" xlink:href="#mc53e255e97" y="146.753938"/>
     <use style="fill:#2ca02c;stroke:#2ca02c;" x="595.008057" xlink:href="#mc53e255e97" y="143.896538"/>
     <use style="fill:#2ca02c;stroke:#2ca02c;" x="616.713135" xlink:href="#mc53e255e97" y="146.939018"/>
     <use style="fill:#2ca02c;stroke:#2ca02c;" x="638.417725" xlink:href="#mc53e255e97" y="143.711459"/>
     <use style="fill:#2ca02c;stroke:#2ca02c;" x="660.125732" xlink:href="#mc53e255e97" y="148.599067"/>
     <use style="fill:#2ca02c;stroke:#2ca02c;" x="660.308594" xlink:href="#mc53e255e97" y="147.953178"/>
     <use style="fill:#2ca02c;stroke:#2ca02c;" x="682.017334" xlink:href="#mc53e255e97" y="146.939018"/>
     <use style="fill:#2ca02c;stroke:#2ca02c;" x="703.723389" xlink:href="#mc53e255e97" y="147.584907"/>
     <use style="fill:#2ca02c;stroke:#2ca02c;" x="725.429443" xlink:href="#mc53e255e97" y="146.017398"/>
     <use style="fill:#2ca02c;stroke:#2ca02c;" x="747.163818" xlink:href="#mc53e255e97" y="145.832318"/>
    </g>
   </g>
   <g id="patch_3">
    <path d="M 108 518.4 
L 108 77.76 
" style="fill:none;stroke:#000000;stroke-linecap:square;stroke-linejoin:miter;stroke-width:0.8;"/>
   </g>
   <g id="patch_4">
    <path d="M 777.6 518.4 
L 777.6 77.76 
" style="fill:none;stroke:#000000;stroke-linecap:square;stroke-linejoin:miter;stroke-width:0.8;"/>
   </g>
   <g id="patch_5">
    <path d="M 108.000244 518.4 
L 777.600098 518.4 
" style="fill:none;stroke:#000000;stroke-linecap:square;stroke-linejoin:miter;stroke-width:0.8;"/>
   </g>
   <g id="patch_6">
    <path d="M 108.000244 77.76 
L 777.600098 77.76 
" style="fill:none;stroke:#000000;stroke-linecap:square;stroke-linejoin:miter;stroke-width:0.8;"/>
   </g>
   <g id="text_13">
    <!-- IMU Scaled Acc (mg) -->
    <defs>
     <path d="M 9.8125 72.90625 
L 19.671875 72.90625 
L 19.671875 0 
L 9.8125 0 
z
" id="DejaVuSans-73"/>
     <path d="M 9.8125 72.90625 
L 24.515625 72.90625 
L 43.109375 23.296875 
L 61.8125 72.90625 
L 76.515625 72.90625 
L 76.515625 0 
L 66.890625 0 
L 66.890625 64.015625 
L 48.09375 14.015625 
L 38.1875 14.015625 
L 19.390625 64.015625 
L 19.390625 0 
L 9.8125 0 
z
" id="DejaVuSans-77"/>
     <path d="M 8.6875 72.90625 
L 18.609375 72.90625 
L 18.609375 28.609375 
Q 18.609375 16.890625 22.84375 11.734375 
Q 27.09375 6.59375 36.625 6.59375 
Q 46.09375 6.59375 50.34375 11.734375 
Q 54.59375 16.890625 54.59375 28.609375 
L 54.59375 72.90625 
L 64.5 72.90625 
L 64.5 27.390625 
Q 64.5 13.140625 57.4375 5.859375 
Q 50.390625 -1.421875 36.625 -1.421875 
Q 22.796875 -1.421875 15.734375 5.859375 
Q 8.6875 13.140625 8.6875 27.390625 
z
" id="DejaVuSans-85"/>
    </defs>
    <g transform="translate(380.855625 71.76)scale(0.12 -0.12)">
     <use xlink:href="#DejaVuSans-73"/>
     <use x="29.492188" xlink:href="#DejaVuSans-77"/>
     <use x="115.771484" xlink:href="#DejaVuSans-85"/>
     <use x="188.964844" xlink:href="#DejaVuSans-32"/>
     <use x="220.751953" xlink:href="#DejaVuSans-83"/>
     <use x="284.228516" xlink:href="#DejaVuSans-99"/>
     <use x="339.208984" xlink:href="#DejaVuSans-97"/>
     <use x="400.488281" xlink:href="#DejaVuSans-108"/>
     <use x="428.271484" xlink:href="#DejaVuSans-101"/>
     <use x="489.794922" xlink:href="#DejaVuSans-100"/>
     <use x="553.271484" xlink:href="#DejaVuSans-32"/>
     <use x="585.058594" xlink:href="#DejaVuSans-65"/>
     <use x="651.716797" xlink:href="#DejaVuSans-99"/>
     <use x="706.697266" xlink:href="#DejaVuSans-99"/>
     <use x="761.677734" xlink:href="#DejaVuSans-32"/>
     <use x="793.464844" xlink:href="#DejaVuSans-40"/>
     <use x="832.478516" xlink:href="#DejaVuSans-109"/>
     <use x="929.890625" xlink:href="#DejaVuSans-103"/>
     <use x="993.367188" xlink:href="#DejaVuSans-41"/>
    </g>
   </g>
   <g id="legend_1">
    <g id="patch_7">
     <path d="M 641.940625 130.62875 
L 770.6 130.62875 
Q 772.6 130.62875 772.6 128.62875 
L 772.6 84.76 
Q 772.6 82.76 770.6 82.76 
L 641.940625 82.76 
Q 639.940625 82.76 639.940625 84.76 
L 639.940625 128.62875 
Q 639.940625 130.62875 641.940625 130.62875 
z
" style="fill:#ffffff;opacity:0.8;stroke:#cccccc;stroke-linejoin:miter;"/>
    </g>
    <g id="line2d_24">
     <path d="M 643.940625 90.858437 
L 663.940625 90.858437 
" style="fill:none;stroke:#1f77b4;stroke-linecap:square;stroke-width:1.5;"/>
    </g>
    <g id="line2d_25">
     <g>
      <use style="fill:#1f77b4;stroke:#1f77b4;" x="653.940625" xlink:href="#m1db344c5e7" y="90.858437"/>
     </g>
    </g>
    <g id="text_14">
     <!-- Scaled_Acc_X_(mg) -->
     <defs>
      <path d="M 50.984375 -16.609375 
L 50.984375 -23.578125 
L -0.984375 -23.578125 
L -0.984375 -16.609375 
z
" id="DejaVuSans-95"/>
      <path d="M 6.296875 72.90625 
L 16.890625 72.90625 
L 35.015625 45.796875 
L 53.21875 72.90625 
L 63.8125 72.90625 
L 40.375 37.890625 
L 65.375 0 
L 54.78125 0 
L 34.28125 31 
L 13.625 0 
L 2.984375 0 
L 29 38.921875 
z
" id="DejaVuSans-88"/>
     </defs>
     <g transform="translate(671.940625 94.358437)scale(0.1 -0.1)">
      <use xlink:href="#DejaVuSans-83"/>
      <use x="63.476562" xlink:href="#DejaVuSans-99"/>
      <use x="118.457031" xlink:href="#DejaVuSans-97"/>
      <use x="179.736328" xlink:href="#DejaVuSans-108"/>
      <use x="207.519531" xlink:href="#DejaVuSans-101"/>
      <use x="269.042969" xlink:href="#DejaVuSans-100"/>
      <use x="332.519531" xlink:href="#DejaVuSans-95"/>
      <use x="382.519531" xlink:href="#DejaVuSans-65"/>
      <use x="449.177734" xlink:href="#DejaVuSans-99"/>
      <use x="504.158203" xlink:href="#DejaVuSans-99"/>
      <use x="559.138672" xlink:href="#DejaVuSans-95"/>
      <use x="609.138672" xlink:href="#DejaVuSans-88"/>
      <use x="677.644531" xlink:href="#DejaVuSans-95"/>
      <use x="727.644531" xlink:href="#DejaVuSans-40"/>
      <use x="766.658203" xlink:href="#DejaVuSans-109"/>
      <use x="864.070312" xlink:href="#DejaVuSans-103"/>
      <use x="927.546875" xlink:href="#DejaVuSans-41"/>
     </g>
    </g>
    <g id="line2d_26">
     <path d="M 643.940625 105.814687 
L 663.940625 105.814687 
" style="fill:none;stroke:#ff7f0e;stroke-linecap:square;stroke-width:1.5;"/>
    </g>
    <g id="line2d_27">
     <g>
      <use style="fill:#ff7f0e;stroke:#ff7f0e;" x="653.940625" xlink:href="#m70887ad9b6" y="105.814687"/>
     </g>
    </g>
    <g id="text_15">
     <!-- Scaled_Acc_Y_(mg) -->
     <defs>
      <path d="M -0.203125 72.90625 
L 10.40625 72.90625 
L 30.609375 42.921875 
L 50.6875 72.90625 
L 61.28125 72.90625 
L 35.5 34.71875 
L 35.5 0 
L 25.59375 0 
L 25.59375 34.71875 
z
" id="DejaVuSans-89"/>
     </defs>
     <g transform="translate(671.940625 109.314687)scale(0.1 -0.1)">
      <use xlink:href="#DejaVuSans-83"/>
      <use x="63.476562" xlink:href="#DejaVuSans-99"/>
      <use x="118.457031" xlink:href="#DejaVuSans-97"/>
      <use x="179.736328" xlink:href="#DejaVuSans-108"/>
      <use x="207.519531" xlink:href="#DejaVuSans-101"/>
      <use x="269.042969" xlink:href="#DejaVuSans-100"/>
      <use x="332.519531" xlink:href="#DejaVuSans-95"/>
      <use x="382.519531" xlink:href="#DejaVuSans-65"/>
      <use x="449.177734" xlink:href="#DejaVuSans-99"/>
      <use x="504.158203" xlink:href="#DejaVuSans-99"/>
      <use x="559.138672" xlink:href="#DejaVuSans-95"/>
      <use x="609.138672" xlink:href="#DejaVuSans-89"/>
      <use x="670.222656" xlink:href="#DejaVuSans-95"/>
      <use x="720.222656" xlink:href="#DejaVuSans-40"/>
      <use x="759.236328" xlink:href="#DejaVuSans-109"/>
      <use x="856.648438" xlink:href="#DejaVuSans-103"/>
      <use x="920.125" xlink:href="#DejaVuSans-41"/>
     </g>
    </g>
    <g id="line2d_28">
     <path d="M 643.940625 120.770937 
L 663.940625 120.770937 
" style="fill:none;stroke:#2ca02c;stroke-linecap:square;stroke-width:1.5;"/>
    </g>
    <g id="line2d_29">
     <g>
      <use style="fill:#2ca02c;stroke:#2ca02c;" x="653.940625" xlink:href="#mc53e255e97" y="120.770937"/>
     </g>
    </g>
    <g id="text_16">
     <!-- Scaled_Acc_Z_(mg) -->
     <defs>
      <path d="M 5.609375 72.90625 
L 62.890625 72.90625 
L 62.890625 65.375 
L 16.796875 8.296875 
L 64.015625 8.296875 
L 64.015625 0 
L 4.5 0 
L 4.5 7.515625 
L 50.59375 64.59375 
L 5.609375 64.59375 
z
" id="DejaVuSans-90"/>
     </defs>
     <g transform="translate(671.940625 124.270937)scale(0.1 -0.1)">
      <use xlink:href="#DejaVuSans-83"/>
      <use x="63.476562" xlink:href="#DejaVuSans-99"/>
      <use x="118.457031" xlink:href="#DejaVuSans-97"/>
      <use x="179.736328" xlink:href="#DejaVuSans-108"/>
      <use x="207.519531" xlink:href="#DejaVuSans-101"/>
      <use x="269.042969" xlink:href="#DejaVuSans-100"/>
      <use x="332.519531" xlink:href="#DejaVuSans-95"/>
      <use x="382.519531" xlink:href="#DejaVuSans-65"/>
      <use x="449.177734" xlink:href="#DejaVuSans-99"/>
      <use x="504.158203" xlink:href="#DejaVuSans-99"/>
      <use x="559.138672" xlink:href="#DejaVuSans-95"/>
      <use x="609.138672" xlink:href="#DejaVuSans-90"/>
      <use x="677.644531" xlink:href="#DejaVuSans-95"/>
      <use x="727.644531" xlink:href="#DejaVuSans-40"/>
      <use x="766.658203" xlink:href="#DejaVuSans-109"/>
      <use x="864.070312" xlink:href="#DejaVuSans-103"/>
      <use x="927.546875" xlink:href="#DejaVuSans-41"/>
     </g>
    </g>
   </g>
  </g>
 </g>
 <defs>
  <clipPath id="p668113f97a">
   <rect height="440.64" width="669.6" x="108" y="77.76"/>
  </clipPath>
 </defs>
</svg>
