<?xml version="1.0" encoding="utf-8" standalone="no"?>
<!DOCTYPE svg PUBLIC "-//W3C//DTD SVG 1.1//EN"
  "http://www.w3.org/Graphics/SVG/1.1/DTD/svg11.dtd">
<!-- Created with matplotlib (https://matplotlib.org/) -->
<svg height="648pt" version="1.1" viewBox="0 0 864 648" width="864pt" xmlns="http://www.w3.org/2000/svg" xmlns:xlink="http://www.w3.org/1999/xlink">
 <defs>
  <style type="text/css">
*{stroke-linecap:butt;stroke-linejoin:round;}
  </style>
 </defs>
 <g id="figure_1">
  <g id="patch_1">
   <path d="M 0 648 
L 864 648 
L 864 0 
L 0 0 
z
" style="fill:#ffffff;"/>
  </g>
  <g id="axes_1">
   <g id="patch_2">
    <path d="M 108 518.4 
L 777.6 518.4 
L 777.6 77.76 
L 108 77.76 
z
" style="fill:#ffffff;"/>
   </g>
   <g id="matplotlib.axis_1">
    <g id="xtick_1">
     <g id="line2d_1">
      <path clip-path="url(#p1f53a4dc99)" d="M 118.800049 518.4 
L 118.800049 77.76 
" style="fill:none;stroke:#b0b0b0;stroke-linecap:square;stroke-width:0.8;"/>
     </g>
     <g id="line2d_2">
      <defs>
       <path d="M 0 0 
L 0 3.5 
" id="m6e25dc256c" style="stroke:#000000;stroke-width:0.8;"/>
      </defs>
      <g>
       <use style="stroke:#000000;stroke-width:0.8;" x="118.800049" xlink:href="#m6e25dc256c" y="518.4"/>
      </g>
     </g>
     <g id="text_1">
      <!-- 00:00:15 -->
      <defs>
       <path d="M 31.78125 66.40625 
Q 24.171875 66.40625 20.328125 58.90625 
Q 16.5 51.421875 16.5 36.375 
Q 16.5 21.390625 20.328125 13.890625 
Q 24.171875 6.390625 31.78125 6.390625 
Q 39.453125 6.390625 43.28125 13.890625 
Q 47.125 21.390625 47.125 36.375 
Q 47.125 51.421875 43.28125 58.90625 
Q 39.453125 66.40625 31.78125 66.40625 
z
M 31.78125 74.21875 
Q 44.046875 74.21875 50.515625 64.515625 
Q 56.984375 54.828125 56.984375 36.375 
Q 56.984375 17.96875 50.515625 8.265625 
Q 44.046875 -1.421875 31.78125 -1.421875 
Q 19.53125 -1.421875 13.0625 8.265625 
Q 6.59375 17.96875 6.59375 36.375 
Q 6.59375 54.828125 13.0625 64.515625 
Q 19.53125 74.21875 31.78125 74.21875 
z
" id="DejaVuSans-48"/>
       <path d="M 11.71875 12.40625 
L 22.015625 12.40625 
L 22.015625 0 
L 11.71875 0 
z
M 11.71875 51.703125 
L 22.015625 51.703125 
L 22.015625 39.3125 
L 11.71875 39.3125 
z
" id="DejaVuSans-58"/>
       <path d="M 12.40625 8.296875 
L 28.515625 8.296875 
L 28.515625 63.921875 
L 10.984375 60.40625 
L 10.984375 69.390625 
L 28.421875 72.90625 
L 38.28125 72.90625 
L 38.28125 8.296875 
L 54.390625 8.296875 
L 54.390625 0 
L 12.40625 0 
z
" id="DejaVuSans-49"/>
       <path d="M 10.796875 72.90625 
L 49.515625 72.90625 
L 49.515625 64.59375 
L 19.828125 64.59375 
L 19.828125 46.734375 
Q 21.96875 47.46875 24.109375 47.828125 
Q 26.265625 48.1875 28.421875 48.1875 
Q 40.625 48.1875 47.75 41.5 
Q 54.890625 34.8125 54.890625 23.390625 
Q 54.890625 11.625 47.5625 5.09375 
Q 40.234375 -1.421875 26.90625 -1.421875 
Q 22.3125 -1.421875 17.546875 -0.640625 
Q 12.796875 0.140625 7.71875 1.703125 
L 7.71875 11.625 
Q 12.109375 9.234375 16.796875 8.0625 
Q 21.484375 6.890625 26.703125 6.890625 
Q 35.15625 6.890625 40.078125 11.328125 
Q 45.015625 15.765625 45.015625 23.390625 
Q 45.015625 31 40.078125 35.4375 
Q 35.15625 39.890625 26.703125 39.890625 
Q 22.75 39.890625 18.8125 39.015625 
Q 14.890625 38.140625 10.796875 36.28125 
z
" id="DejaVuSans-53"/>
      </defs>
      <g transform="translate(78.864839 554.43669)rotate(-30)scale(0.1 -0.1)">
       <use xlink:href="#DejaVuSans-48"/>
       <use x="63.623047" xlink:href="#DejaVuSans-48"/>
       <use x="127.246094" xlink:href="#DejaVuSans-58"/>
       <use x="160.9375" xlink:href="#DejaVuSans-48"/>
       <use x="224.560547" xlink:href="#DejaVuSans-48"/>
       <use x="288.183594" xlink:href="#DejaVuSans-58"/>
       <use x="321.875" xlink:href="#DejaVuSans-49"/>
       <use x="385.498047" xlink:href="#DejaVuSans-53"/>
      </g>
     </g>
    </g>
    <g id="xtick_2">
     <g id="line2d_3">
      <path clip-path="url(#p1f53a4dc99)" d="M 216.981934 518.4 
L 216.981934 77.76 
" style="fill:none;stroke:#b0b0b0;stroke-linecap:square;stroke-width:0.8;"/>
     </g>
     <g id="line2d_4">
      <g>
       <use style="stroke:#000000;stroke-width:0.8;" x="216.981934" xlink:href="#m6e25dc256c" y="518.4"/>
      </g>
     </g>
     <g id="text_2">
      <!-- 00:00:20 -->
      <defs>
       <path d="M 19.1875 8.296875 
L 53.609375 8.296875 
L 53.609375 0 
L 7.328125 0 
L 7.328125 8.296875 
Q 12.9375 14.109375 22.625 23.890625 
Q 32.328125 33.6875 34.8125 36.53125 
Q 39.546875 41.84375 41.421875 45.53125 
Q 43.3125 49.21875 43.3125 52.78125 
Q 43.3125 58.59375 39.234375 62.25 
Q 35.15625 65.921875 28.609375 65.921875 
Q 23.96875 65.921875 18.8125 64.3125 
Q 13.671875 62.703125 7.8125 59.421875 
L 7.8125 69.390625 
Q 13.765625 71.78125 18.9375 73 
Q 24.125 74.21875 28.421875 74.21875 
Q 39.75 74.21875 46.484375 68.546875 
Q 53.21875 62.890625 53.21875 53.421875 
Q 53.21875 48.921875 51.53125 44.890625 
Q 49.859375 40.875 45.40625 35.40625 
Q 44.1875 33.984375 37.640625 27.21875 
Q 31.109375 20.453125 19.1875 8.296875 
z
" id="DejaVuSans-50"/>
      </defs>
      <g transform="translate(177.046724 554.43669)rotate(-30)scale(0.1 -0.1)">
       <use xlink:href="#DejaVuSans-48"/>
       <use x="63.623047" xlink:href="#DejaVuSans-48"/>
       <use x="127.246094" xlink:href="#DejaVuSans-58"/>
       <use x="160.9375" xlink:href="#DejaVuSans-48"/>
       <use x="224.560547" xlink:href="#DejaVuSans-48"/>
       <use x="288.183594" xlink:href="#DejaVuSans-58"/>
       <use x="321.875" xlink:href="#DejaVuSans-50"/>
       <use x="385.498047" xlink:href="#DejaVuSans-48"/>
      </g>
     </g>
    </g>
    <g id="xtick_3">
     <g id="line2d_5">
      <path clip-path="url(#p1f53a4dc99)" d="M 315.163574 518.4 
L 315.163574 77.76 
" style="fill:none;stroke:#b0b0b0;stroke-linecap:square;stroke-width:0.8;"/>
     </g>
     <g id="line2d_6">
      <g>
       <use style="stroke:#000000;stroke-width:0.8;" x="315.163574" xlink:href="#m6e25dc256c" y="518.4"/>
      </g>
     </g>
     <g id="text_3">
      <!-- 00:00:25 -->
      <g transform="translate(275.228365 554.43669)rotate(-30)scale(0.1 -0.1)">
       <use xlink:href="#DejaVuSans-48"/>
       <use x="63.623047" xlink:href="#DejaVuSans-48"/>
       <use x="127.246094" xlink:href="#DejaVuSans-58"/>
       <use x="160.9375" xlink:href="#DejaVuSans-48"/>
       <use x="224.560547" xlink:href="#DejaVuSans-48"/>
       <use x="288.183594" xlink:href="#DejaVuSans-58"/>
       <use x="321.875" xlink:href="#DejaVuSans-50"/>
       <use x="385.498047" xlink:href="#DejaVuSans-53"/>
      </g>
     </g>
    </g>
    <g id="xtick_4">
     <g id="line2d_7">
      <path clip-path="url(#p1f53a4dc99)" d="M 413.345459 518.4 
L 413.345459 77.76 
" style="fill:none;stroke:#b0b0b0;stroke-linecap:square;stroke-width:0.8;"/>
     </g>
     <g id="line2d_8">
      <g>
       <use style="stroke:#000000;stroke-width:0.8;" x="413.345459" xlink:href="#m6e25dc256c" y="518.4"/>
      </g>
     </g>
     <g id="text_4">
      <!-- 00:00:30 -->
      <defs>
       <path d="M 40.578125 39.3125 
Q 47.65625 37.796875 51.625 33 
Q 55.609375 28.21875 55.609375 21.1875 
Q 55.609375 10.40625 48.1875 4.484375 
Q 40.765625 -1.421875 27.09375 -1.421875 
Q 22.515625 -1.421875 17.65625 -0.515625 
Q 12.796875 0.390625 7.625 2.203125 
L 7.625 11.71875 
Q 11.71875 9.328125 16.59375 8.109375 
Q 21.484375 6.890625 26.8125 6.890625 
Q 36.078125 6.890625 40.9375 10.546875 
Q 45.796875 14.203125 45.796875 21.1875 
Q 45.796875 27.640625 41.28125 31.265625 
Q 36.765625 34.90625 28.71875 34.90625 
L 20.21875 34.90625 
L 20.21875 43.015625 
L 29.109375 43.015625 
Q 36.375 43.015625 40.234375 45.921875 
Q 44.09375 48.828125 44.09375 54.296875 
Q 44.09375 59.90625 40.109375 62.90625 
Q 36.140625 65.921875 28.71875 65.921875 
Q 24.65625 65.921875 20.015625 65.03125 
Q 15.375 64.15625 9.8125 62.3125 
L 9.8125 71.09375 
Q 15.4375 72.65625 20.34375 73.4375 
Q 25.25 74.21875 29.59375 74.21875 
Q 40.828125 74.21875 47.359375 69.109375 
Q 53.90625 64.015625 53.90625 55.328125 
Q 53.90625 49.265625 50.4375 45.09375 
Q 46.96875 40.921875 40.578125 39.3125 
z
" id="DejaVuSans-51"/>
      </defs>
      <g transform="translate(373.410249 554.43669)rotate(-30)scale(0.1 -0.1)">
       <use xlink:href="#DejaVuSans-48"/>
       <use x="63.623047" xlink:href="#DejaVuSans-48"/>
       <use x="127.246094" xlink:href="#DejaVuSans-58"/>
       <use x="160.9375" xlink:href="#DejaVuSans-48"/>
       <use x="224.560547" xlink:href="#DejaVuSans-48"/>
       <use x="288.183594" xlink:href="#DejaVuSans-58"/>
       <use x="321.875" xlink:href="#DejaVuSans-51"/>
       <use x="385.498047" xlink:href="#DejaVuSans-48"/>
      </g>
     </g>
    </g>
    <g id="xtick_5">
     <g id="line2d_9">
      <path clip-path="url(#p1f53a4dc99)" d="M 511.527344 518.4 
L 511.527344 77.76 
" style="fill:none;stroke:#b0b0b0;stroke-linecap:square;stroke-width:0.8;"/>
     </g>
     <g id="line2d_10">
      <g>
       <use style="stroke:#000000;stroke-width:0.8;" x="511.527344" xlink:href="#m6e25dc256c" y="518.4"/>
      </g>
     </g>
     <g id="text_5">
      <!-- 00:00:35 -->
      <g transform="translate(471.592134 554.43669)rotate(-30)scale(0.1 -0.1)">
       <use xlink:href="#DejaVuSans-48"/>
       <use x="63.623047" xlink:href="#DejaVuSans-48"/>
       <use x="127.246094" xlink:href="#DejaVuSans-58"/>
       <use x="160.9375" xlink:href="#DejaVuSans-48"/>
       <use x="224.560547" xlink:href="#DejaVuSans-48"/>
       <use x="288.183594" xlink:href="#DejaVuSans-58"/>
       <use x="321.875" xlink:href="#DejaVuSans-51"/>
       <use x="385.498047" xlink:href="#DejaVuSans-53"/>
      </g>
     </g>
    </g>
    <g id="xtick_6">
     <g id="line2d_11">
      <path clip-path="url(#p1f53a4dc99)" d="M 609.709229 518.4 
L 609.709229 77.76 
" style="fill:none;stroke:#b0b0b0;stroke-linecap:square;stroke-width:0.8;"/>
     </g>
     <g id="line2d_12">
      <g>
       <use style="stroke:#000000;stroke-width:0.8;" x="609.709229" xlink:href="#m6e25dc256c" y="518.4"/>
      </g>
     </g>
     <g id="text_6">
      <!-- 00:00:40 -->
      <defs>
       <path d="M 37.796875 64.3125 
L 12.890625 25.390625 
L 37.796875 25.390625 
z
M 35.203125 72.90625 
L 47.609375 72.90625 
L 47.609375 25.390625 
L 58.015625 25.390625 
L 58.015625 17.1875 
L 47.609375 17.1875 
L 47.609375 0 
L 37.796875 0 
L 37.796875 17.1875 
L 4.890625 17.1875 
L 4.890625 26.703125 
z
" id="DejaVuSans-52"/>
      </defs>
      <g transform="translate(569.774019 554.43669)rotate(-30)scale(0.1 -0.1)">
       <use xlink:href="#DejaVuSans-48"/>
       <use x="63.623047" xlink:href="#DejaVuSans-48"/>
       <use x="127.246094" xlink:href="#DejaVuSans-58"/>
       <use x="160.9375" xlink:href="#DejaVuSans-48"/>
       <use x="224.560547" xlink:href="#DejaVuSans-48"/>
       <use x="288.183594" xlink:href="#DejaVuSans-58"/>
       <use x="321.875" xlink:href="#DejaVuSans-52"/>
       <use x="385.498047" xlink:href="#DejaVuSans-48"/>
      </g>
     </g>
    </g>
    <g id="xtick_7">
     <g id="line2d_13">
      <path clip-path="url(#p1f53a4dc99)" d="M 707.890869 518.4 
L 707.890869 77.76 
" style="fill:none;stroke:#b0b0b0;stroke-linecap:square;stroke-width:0.8;"/>
     </g>
     <g id="line2d_14">
      <g>
       <use style="stroke:#000000;stroke-width:0.8;" x="707.890869" xlink:href="#m6e25dc256c" y="518.4"/>
      </g>
     </g>
     <g id="text_7">
      <!-- 00:00:45 -->
      <g transform="translate(667.955659 554.43669)rotate(-30)scale(0.1 -0.1)">
       <use xlink:href="#DejaVuSans-48"/>
       <use x="63.623047" xlink:href="#DejaVuSans-48"/>
       <use x="127.246094" xlink:href="#DejaVuSans-58"/>
       <use x="160.9375" xlink:href="#DejaVuSans-48"/>
       <use x="224.560547" xlink:href="#DejaVuSans-48"/>
       <use x="288.183594" xlink:href="#DejaVuSans-58"/>
       <use x="321.875" xlink:href="#DejaVuSans-52"/>
       <use x="385.498047" xlink:href="#DejaVuSans-53"/>
      </g>
     </g>
    </g>
    <g id="text_8">
     <!-- DateTime -->
     <defs>
      <path d="M 19.671875 64.796875 
L 19.671875 8.109375 
L 31.59375 8.109375 
Q 46.6875 8.109375 53.6875 14.9375 
Q 60.6875 21.78125 60.6875 36.53125 
Q 60.6875 51.171875 53.6875 57.984375 
Q 46.6875 64.796875 31.59375 64.796875 
z
M 9.8125 72.90625 
L 30.078125 72.90625 
Q 51.265625 72.90625 61.171875 64.09375 
Q 71.09375 55.28125 71.09375 36.53125 
Q 71.09375 17.671875 61.125 8.828125 
Q 51.171875 0 30.078125 0 
L 9.8125 0 
z
" id="DejaVuSans-68"/>
      <path d="M 34.28125 27.484375 
Q 23.390625 27.484375 19.1875 25 
Q 14.984375 22.515625 14.984375 16.5 
Q 14.984375 11.71875 18.140625 8.90625 
Q 21.296875 6.109375 26.703125 6.109375 
Q 34.1875 6.109375 38.703125 11.40625 
Q 43.21875 16.703125 43.21875 25.484375 
L 43.21875 27.484375 
z
M 52.203125 31.203125 
L 52.203125 0 
L 43.21875 0 
L 43.21875 8.296875 
Q 40.140625 3.328125 35.546875 0.953125 
Q 30.953125 -1.421875 24.3125 -1.421875 
Q 15.921875 -1.421875 10.953125 3.296875 
Q 6 8.015625 6 15.921875 
Q 6 25.140625 12.171875 29.828125 
Q 18.359375 34.515625 30.609375 34.515625 
L 43.21875 34.515625 
L 43.21875 35.40625 
Q 43.21875 41.609375 39.140625 45 
Q 35.0625 48.390625 27.6875 48.390625 
Q 23 48.390625 18.546875 47.265625 
Q 14.109375 46.140625 10.015625 43.890625 
L 10.015625 52.203125 
Q 14.9375 54.109375 19.578125 55.046875 
Q 24.21875 56 28.609375 56 
Q 40.484375 56 46.34375 49.84375 
Q 52.203125 43.703125 52.203125 31.203125 
z
" id="DejaVuSans-97"/>
      <path d="M 18.3125 70.21875 
L 18.3125 54.6875 
L 36.8125 54.6875 
L 36.8125 47.703125 
L 18.3125 47.703125 
L 18.3125 18.015625 
Q 18.3125 11.328125 20.140625 9.421875 
Q 21.96875 7.515625 27.59375 7.515625 
L 36.8125 7.515625 
L 36.8125 0 
L 27.59375 0 
Q 17.1875 0 13.234375 3.875 
Q 9.28125 7.765625 9.28125 18.015625 
L 9.28125 47.703125 
L 2.6875 47.703125 
L 2.6875 54.6875 
L 9.28125 54.6875 
L 9.28125 70.21875 
z
" id="DejaVuSans-116"/>
      <path d="M 56.203125 29.59375 
L 56.203125 25.203125 
L 14.890625 25.203125 
Q 15.484375 15.921875 20.484375 11.0625 
Q 25.484375 6.203125 34.421875 6.203125 
Q 39.59375 6.203125 44.453125 7.46875 
Q 49.3125 8.734375 54.109375 11.28125 
L 54.109375 2.78125 
Q 49.265625 0.734375 44.1875 -0.34375 
Q 39.109375 -1.421875 33.890625 -1.421875 
Q 20.796875 -1.421875 13.15625 6.1875 
Q 5.515625 13.8125 5.515625 26.8125 
Q 5.515625 40.234375 12.765625 48.109375 
Q 20.015625 56 32.328125 56 
Q 43.359375 56 49.78125 48.890625 
Q 56.203125 41.796875 56.203125 29.59375 
z
M 47.21875 32.234375 
Q 47.125 39.59375 43.09375 43.984375 
Q 39.0625 48.390625 32.421875 48.390625 
Q 24.90625 48.390625 20.390625 44.140625 
Q 15.875 39.890625 15.1875 32.171875 
z
" id="DejaVuSans-101"/>
      <path d="M -0.296875 72.90625 
L 61.375 72.90625 
L 61.375 64.59375 
L 35.5 64.59375 
L 35.5 0 
L 25.59375 0 
L 25.59375 64.59375 
L -0.296875 64.59375 
z
" id="DejaVuSans-84"/>
      <path d="M 9.421875 54.6875 
L 18.40625 54.6875 
L 18.40625 0 
L 9.421875 0 
z
M 9.421875 75.984375 
L 18.40625 75.984375 
L 18.40625 64.59375 
L 9.421875 64.59375 
z
" id="DejaVuSans-105"/>
      <path d="M 52 44.1875 
Q 55.375 50.25 60.0625 53.125 
Q 64.75 56 71.09375 56 
Q 79.640625 56 84.28125 50.015625 
Q 88.921875 44.046875 88.921875 33.015625 
L 88.921875 0 
L 79.890625 0 
L 79.890625 32.71875 
Q 79.890625 40.578125 77.09375 44.375 
Q 74.3125 48.1875 68.609375 48.1875 
Q 61.625 48.1875 57.5625 43.546875 
Q 53.515625 38.921875 53.515625 30.90625 
L 53.515625 0 
L 44.484375 0 
L 44.484375 32.71875 
Q 44.484375 40.625 41.703125 44.40625 
Q 38.921875 48.1875 33.109375 48.1875 
Q 26.21875 48.1875 22.15625 43.53125 
Q 18.109375 38.875 18.109375 30.90625 
L 18.109375 0 
L 9.078125 0 
L 9.078125 54.6875 
L 18.109375 54.6875 
L 18.109375 46.1875 
Q 21.1875 51.21875 25.484375 53.609375 
Q 29.78125 56 35.6875 56 
Q 41.65625 56 45.828125 52.96875 
Q 50 49.953125 52 44.1875 
z
" id="DejaVuSans-109"/>
     </defs>
     <g transform="translate(418.615625 567.83619)scale(0.1 -0.1)">
      <use xlink:href="#DejaVuSans-68"/>
      <use x="77.001953" xlink:href="#DejaVuSans-97"/>
      <use x="138.28125" xlink:href="#DejaVuSans-116"/>
      <use x="177.490234" xlink:href="#DejaVuSans-101"/>
      <use x="239.013672" xlink:href="#DejaVuSans-84"/>
      <use x="296.972656" xlink:href="#DejaVuSans-105"/>
      <use x="324.755859" xlink:href="#DejaVuSans-109"/>
      <use x="422.167969" xlink:href="#DejaVuSans-101"/>
     </g>
    </g>
   </g>
   <g id="matplotlib.axis_2">
    <g id="ytick_1">
     <g id="line2d_15">
      <path clip-path="url(#p1f53a4dc99)" d="M 108 453.139614 
L 777.6 453.139614 
" style="fill:none;stroke:#b0b0b0;stroke-linecap:square;stroke-width:0.8;"/>
     </g>
     <g id="line2d_16">
      <defs>
       <path d="M 0 0 
L -3.5 0 
" id="mc7d255d289" style="stroke:#000000;stroke-width:0.8;"/>
      </defs>
      <g>
       <use style="stroke:#000000;stroke-width:0.8;" x="108" xlink:href="#mc7d255d289" y="453.139614"/>
      </g>
     </g>
     <g id="text_9">
      <!-- −150 -->
      <defs>
       <path d="M 10.59375 35.5 
L 73.1875 35.5 
L 73.1875 27.203125 
L 10.59375 27.203125 
z
" id="DejaVuSans-8722"/>
      </defs>
      <g transform="translate(73.532813 456.938833)scale(0.1 -0.1)">
       <use xlink:href="#DejaVuSans-8722"/>
       <use x="83.789062" xlink:href="#DejaVuSans-49"/>
       <use x="147.412109" xlink:href="#DejaVuSans-53"/>
       <use x="211.035156" xlink:href="#DejaVuSans-48"/>
      </g>
     </g>
    </g>
    <g id="ytick_2">
     <g id="line2d_17">
      <path clip-path="url(#p1f53a4dc99)" d="M 108 374.449122 
L 777.6 374.449122 
" style="fill:none;stroke:#b0b0b0;stroke-linecap:square;stroke-width:0.8;"/>
     </g>
     <g id="line2d_18">
      <g>
       <use style="stroke:#000000;stroke-width:0.8;" x="108" xlink:href="#mc7d255d289" y="374.449122"/>
      </g>
     </g>
     <g id="text_10">
      <!-- −100 -->
      <g transform="translate(73.532813 378.248341)scale(0.1 -0.1)">
       <use xlink:href="#DejaVuSans-8722"/>
       <use x="83.789062" xlink:href="#DejaVuSans-49"/>
       <use x="147.412109" xlink:href="#DejaVuSans-48"/>
       <use x="211.035156" xlink:href="#DejaVuSans-48"/>
      </g>
     </g>
    </g>
    <g id="ytick_3">
     <g id="line2d_19">
      <path clip-path="url(#p1f53a4dc99)" d="M 108 295.75863 
L 777.6 295.75863 
" style="fill:none;stroke:#b0b0b0;stroke-linecap:square;stroke-width:0.8;"/>
     </g>
     <g id="line2d_20">
      <g>
       <use style="stroke:#000000;stroke-width:0.8;" x="108" xlink:href="#mc7d255d289" y="295.75863"/>
      </g>
     </g>
     <g id="text_11">
      <!-- −50 -->
      <g transform="translate(79.895313 299.557849)scale(0.1 -0.1)">
       <use xlink:href="#DejaVuSans-8722"/>
       <use x="83.789062" xlink:href="#DejaVuSans-53"/>
       <use x="147.412109" xlink:href="#DejaVuSans-48"/>
      </g>
     </g>
    </g>
    <g id="ytick_4">
     <g id="line2d_21">
      <path clip-path="url(#p1f53a4dc99)" d="M 108 217.068139 
L 777.6 217.068139 
" style="fill:none;stroke:#b0b0b0;stroke-linecap:square;stroke-width:0.8;"/>
     </g>
     <g id="line2d_22">
      <g>
       <use style="stroke:#000000;stroke-width:0.8;" x="108" xlink:href="#mc7d255d289" y="217.068139"/>
      </g>
     </g>
     <g id="text_12">
      <!-- 0 -->
      <g transform="translate(94.6375 220.867357)scale(0.1 -0.1)">
       <use xlink:href="#DejaVuSans-48"/>
      </g>
     </g>
    </g>
    <g id="ytick_5">
     <g id="line2d_23">
      <path clip-path="url(#p1f53a4dc99)" d="M 108 138.377647 
L 777.6 138.377647 
" style="fill:none;stroke:#b0b0b0;stroke-linecap:square;stroke-width:0.8;"/>
     </g>
     <g id="line2d_24">
      <g>
       <use style="stroke:#000000;stroke-width:0.8;" x="108" xlink:href="#mc7d255d289" y="138.377647"/>
      </g>
     </g>
     <g id="text_13">
      <!-- 50 -->
      <g transform="translate(88.275 142.176865)scale(0.1 -0.1)">
       <use xlink:href="#DejaVuSans-53"/>
       <use x="63.623047" xlink:href="#DejaVuSans-48"/>
      </g>
     </g>
    </g>
    <g id="text_14">
     <!-- Gyr (DPS) -->
     <defs>
      <path d="M 59.515625 10.40625 
L 59.515625 29.984375 
L 43.40625 29.984375 
L 43.40625 38.09375 
L 69.28125 38.09375 
L 69.28125 6.78125 
Q 63.578125 2.734375 56.6875 0.65625 
Q 49.8125 -1.421875 42 -1.421875 
Q 24.90625 -1.421875 15.25 8.5625 
Q 5.609375 18.5625 5.609375 36.375 
Q 5.609375 54.25 15.25 64.234375 
Q 24.90625 74.21875 42 74.21875 
Q 49.125 74.21875 55.546875 72.453125 
Q 61.96875 70.703125 67.390625 67.28125 
L 67.390625 56.78125 
Q 61.921875 61.421875 55.765625 63.765625 
Q 49.609375 66.109375 42.828125 66.109375 
Q 29.4375 66.109375 22.71875 58.640625 
Q 16.015625 51.171875 16.015625 36.375 
Q 16.015625 21.625 22.71875 14.15625 
Q 29.4375 6.6875 42.828125 6.6875 
Q 48.046875 6.6875 52.140625 7.59375 
Q 56.25 8.5 59.515625 10.40625 
z
" id="DejaVuSans-71"/>
      <path d="M 32.171875 -5.078125 
Q 28.375 -14.84375 24.75 -17.8125 
Q 21.140625 -20.796875 15.09375 -20.796875 
L 7.90625 -20.796875 
L 7.90625 -13.28125 
L 13.1875 -13.28125 
Q 16.890625 -13.28125 18.9375 -11.515625 
Q 21 -9.765625 23.484375 -3.21875 
L 25.09375 0.875 
L 2.984375 54.6875 
L 12.5 54.6875 
L 29.59375 11.921875 
L 46.6875 54.6875 
L 56.203125 54.6875 
z
" id="DejaVuSans-121"/>
      <path d="M 41.109375 46.296875 
Q 39.59375 47.171875 37.8125 47.578125 
Q 36.03125 48 33.890625 48 
Q 26.265625 48 22.1875 43.046875 
Q 18.109375 38.09375 18.109375 28.8125 
L 18.109375 0 
L 9.078125 0 
L 9.078125 54.6875 
L 18.109375 54.6875 
L 18.109375 46.1875 
Q 20.953125 51.171875 25.484375 53.578125 
Q 30.03125 56 36.53125 56 
Q 37.453125 56 38.578125 55.875 
Q 39.703125 55.765625 41.0625 55.515625 
z
" id="DejaVuSans-114"/>
      <path id="DejaVuSans-32"/>
      <path d="M 31 75.875 
Q 24.46875 64.65625 21.28125 53.65625 
Q 18.109375 42.671875 18.109375 31.390625 
Q 18.109375 20.125 21.3125 9.0625 
Q 24.515625 -2 31 -13.1875 
L 23.1875 -13.1875 
Q 15.875 -1.703125 12.234375 9.375 
Q 8.59375 20.453125 8.59375 31.390625 
Q 8.59375 42.28125 12.203125 53.3125 
Q 15.828125 64.359375 23.1875 75.875 
z
" id="DejaVuSans-40"/>
      <path d="M 19.671875 64.796875 
L 19.671875 37.40625 
L 32.078125 37.40625 
Q 38.96875 37.40625 42.71875 40.96875 
Q 46.484375 44.53125 46.484375 51.125 
Q 46.484375 57.671875 42.71875 61.234375 
Q 38.96875 64.796875 32.078125 64.796875 
z
M 9.8125 72.90625 
L 32.078125 72.90625 
Q 44.34375 72.90625 50.609375 67.359375 
Q 56.890625 61.8125 56.890625 51.125 
Q 56.890625 40.328125 50.609375 34.8125 
Q 44.34375 29.296875 32.078125 29.296875 
L 19.671875 29.296875 
L 19.671875 0 
L 9.8125 0 
z
" id="DejaVuSans-80"/>
      <path d="M 53.515625 70.515625 
L 53.515625 60.890625 
Q 47.90625 63.578125 42.921875 64.890625 
Q 37.9375 66.21875 33.296875 66.21875 
Q 25.25 66.21875 20.875 63.09375 
Q 16.5 59.96875 16.5 54.203125 
Q 16.5 49.359375 19.40625 46.890625 
Q 22.3125 44.4375 30.421875 42.921875 
L 36.375 41.703125 
Q 47.40625 39.59375 52.65625 34.296875 
Q 57.90625 29 57.90625 20.125 
Q 57.90625 9.515625 50.796875 4.046875 
Q 43.703125 -1.421875 29.984375 -1.421875 
Q 24.8125 -1.421875 18.96875 -0.25 
Q 13.140625 0.921875 6.890625 3.21875 
L 6.890625 13.375 
Q 12.890625 10.015625 18.65625 8.296875 
Q 24.421875 6.59375 29.984375 6.59375 
Q 38.421875 6.59375 43.015625 9.90625 
Q 47.609375 13.234375 47.609375 19.390625 
Q 47.609375 24.75 44.3125 27.78125 
Q 41.015625 30.8125 33.5 32.328125 
L 27.484375 33.5 
Q 16.453125 35.6875 11.515625 40.375 
Q 6.59375 45.0625 6.59375 53.421875 
Q 6.59375 63.09375 13.40625 68.65625 
Q 20.21875 74.21875 32.171875 74.21875 
Q 37.3125 74.21875 42.625 73.28125 
Q 47.953125 72.359375 53.515625 70.515625 
z
" id="DejaVuSans-83"/>
      <path d="M 8.015625 75.875 
L 15.828125 75.875 
Q 23.140625 64.359375 26.78125 53.3125 
Q 30.421875 42.28125 30.421875 31.390625 
Q 30.421875 20.453125 26.78125 9.375 
Q 23.140625 -1.703125 15.828125 -13.1875 
L 8.015625 -13.1875 
Q 14.5 -2 17.703125 9.0625 
Q 20.90625 20.125 20.90625 31.390625 
Q 20.90625 42.671875 17.703125 53.65625 
Q 14.5 64.65625 8.015625 75.875 
z
" id="DejaVuSans-41"/>
     </defs>
     <g transform="translate(67.453125 322.49875)rotate(-90)scale(0.1 -0.1)">
      <use xlink:href="#DejaVuSans-71"/>
      <use x="77.490234" xlink:href="#DejaVuSans-121"/>
      <use x="136.669922" xlink:href="#DejaVuSans-114"/>
      <use x="177.783203" xlink:href="#DejaVuSans-32"/>
      <use x="209.570312" xlink:href="#DejaVuSans-40"/>
      <use x="248.583984" xlink:href="#DejaVuSans-68"/>
      <use x="325.585938" xlink:href="#DejaVuSans-80"/>
      <use x="385.888672" xlink:href="#DejaVuSans-83"/>
      <use x="449.365234" xlink:href="#DejaVuSans-41"/>
     </g>
    </g>
   </g>
   <g id="line2d_25">
    <path clip-path="url(#p1f53a4dc99)" d="M 138.436523 218.279972 
L 158.072754 215.714662 
L 158.072754 219.177044 
L 177.709229 219.570496 
L 197.345459 222.623687 
L 216.981934 219.696401 
L 236.618164 215.305472 
L 256.254639 219.759353 
L 275.890869 206.743946 
L 275.890869 271.333102 
L 295.527344 173.316225 
L 315.163574 97.789091 
L 334.800049 498.370909 
L 354.436523 237.008309 
L 354.436523 229.123522 
L 374.072754 211.607018 
L 393.709229 224.685378 
L 413.345459 212.629995 
L 432.981934 223.158783 
L 432.981934 217.068139 
L 452.618164 203.202874 
L 472.254639 227.439545 
L 491.890869 219.53902 
L 511.527344 217.005186 
L 511.527344 216.580258 
L 531.163574 218.673425 
L 550.800049 217.571758 
L 570.436279 218.767853 
L 590.072754 217.319948 
L 609.709229 218.641948 
L 629.345459 217.540282 
L 629.345459 217.272734 
L 648.981934 214.15659 
L 668.618164 217.807829 
L 688.254639 220.231496 
L 707.890869 215.415638 
L 727.527344 217.351424 
L 727.527344 220.593473 
L 747.163574 225.425069 
" style="fill:none;stroke:#1f77b4;stroke-linecap:square;stroke-width:1.5;"/>
    <defs>
     <path d="M 0 2.5 
C 0.663008 2.5 1.29895 2.236584 1.767767 1.767767 
C 2.236584 1.29895 2.5 0.663008 2.5 0 
C 2.5 -0.663008 2.236584 -1.29895 1.767767 -1.767767 
C 1.29895 -2.236584 0.663008 -2.5 0 -2.5 
C -0.663008 -2.5 -1.29895 -2.236584 -1.767767 -1.767767 
C -2.236584 -1.29895 -2.5 -0.663008 -2.5 0 
C -2.5 0.663008 -2.236584 1.29895 -1.767767 1.767767 
C -1.29895 2.236584 -0.663008 2.5 0 2.5 
z
" id="m632ac3f0eb" style="stroke:#1f77b4;"/>
    </defs>
    <g clip-path="url(#p1f53a4dc99)">
     <use style="fill:#1f77b4;stroke:#1f77b4;" x="138.436523" xlink:href="#m632ac3f0eb" y="218.279972"/>
     <use style="fill:#1f77b4;stroke:#1f77b4;" x="158.072754" xlink:href="#m632ac3f0eb" y="215.714662"/>
     <use style="fill:#1f77b4;stroke:#1f77b4;" x="158.072754" xlink:href="#m632ac3f0eb" y="219.177044"/>
     <use style="fill:#1f77b4;stroke:#1f77b4;" x="177.709229" xlink:href="#m632ac3f0eb" y="219.570496"/>
     <use style="fill:#1f77b4;stroke:#1f77b4;" x="197.345459" xlink:href="#m632ac3f0eb" y="222.623687"/>
     <use style="fill:#1f77b4;stroke:#1f77b4;" x="216.981934" xlink:href="#m632ac3f0eb" y="219.696401"/>
     <use style="fill:#1f77b4;stroke:#1f77b4;" x="236.618164" xlink:href="#m632ac3f0eb" y="215.305472"/>
     <use style="fill:#1f77b4;stroke:#1f77b4;" x="256.254639" xlink:href="#m632ac3f0eb" y="219.759353"/>
     <use style="fill:#1f77b4;stroke:#1f77b4;" x="275.890869" xlink:href="#m632ac3f0eb" y="206.743946"/>
     <use style="fill:#1f77b4;stroke:#1f77b4;" x="275.890869" xlink:href="#m632ac3f0eb" y="271.333102"/>
     <use style="fill:#1f77b4;stroke:#1f77b4;" x="295.527344" xlink:href="#m632ac3f0eb" y="173.316225"/>
     <use style="fill:#1f77b4;stroke:#1f77b4;" x="315.163574" xlink:href="#m632ac3f0eb" y="97.789091"/>
     <use style="fill:#1f77b4;stroke:#1f77b4;" x="334.800049" xlink:href="#m632ac3f0eb" y="498.370909"/>
     <use style="fill:#1f77b4;stroke:#1f77b4;" x="354.436523" xlink:href="#m632ac3f0eb" y="237.008309"/>
     <use style="fill:#1f77b4;stroke:#1f77b4;" x="354.436523" xlink:href="#m632ac3f0eb" y="229.123522"/>
     <use style="fill:#1f77b4;stroke:#1f77b4;" x="374.072754" xlink:href="#m632ac3f0eb" y="211.607018"/>
     <use style="fill:#1f77b4;stroke:#1f77b4;" x="393.709229" xlink:href="#m632ac3f0eb" y="224.685378"/>
     <use style="fill:#1f77b4;stroke:#1f77b4;" x="413.345459" xlink:href="#m632ac3f0eb" y="212.629995"/>
     <use style="fill:#1f77b4;stroke:#1f77b4;" x="432.981934" xlink:href="#m632ac3f0eb" y="223.158783"/>
     <use style="fill:#1f77b4;stroke:#1f77b4;" x="432.981934" xlink:href="#m632ac3f0eb" y="217.068139"/>
     <use style="fill:#1f77b4;stroke:#1f77b4;" x="452.618164" xlink:href="#m632ac3f0eb" y="203.202874"/>
     <use style="fill:#1f77b4;stroke:#1f77b4;" x="472.254639" xlink:href="#m632ac3f0eb" y="227.439545"/>
     <use style="fill:#1f77b4;stroke:#1f77b4;" x="491.890869" xlink:href="#m632ac3f0eb" y="219.53902"/>
     <use style="fill:#1f77b4;stroke:#1f77b4;" x="511.527344" xlink:href="#m632ac3f0eb" y="217.005186"/>
     <use style="fill:#1f77b4;stroke:#1f77b4;" x="511.527344" xlink:href="#m632ac3f0eb" y="216.580258"/>
     <use style="fill:#1f77b4;stroke:#1f77b4;" x="531.163574" xlink:href="#m632ac3f0eb" y="218.673425"/>
     <use style="fill:#1f77b4;stroke:#1f77b4;" x="550.800049" xlink:href="#m632ac3f0eb" y="217.571758"/>
     <use style="fill:#1f77b4;stroke:#1f77b4;" x="570.436279" xlink:href="#m632ac3f0eb" y="218.767853"/>
     <use style="fill:#1f77b4;stroke:#1f77b4;" x="590.072754" xlink:href="#m632ac3f0eb" y="217.319948"/>
     <use style="fill:#1f77b4;stroke:#1f77b4;" x="609.709229" xlink:href="#m632ac3f0eb" y="218.641948"/>
     <use style="fill:#1f77b4;stroke:#1f77b4;" x="629.345459" xlink:href="#m632ac3f0eb" y="217.540282"/>
     <use style="fill:#1f77b4;stroke:#1f77b4;" x="629.345459" xlink:href="#m632ac3f0eb" y="217.272734"/>
     <use style="fill:#1f77b4;stroke:#1f77b4;" x="648.981934" xlink:href="#m632ac3f0eb" y="214.15659"/>
     <use style="fill:#1f77b4;stroke:#1f77b4;" x="668.618164" xlink:href="#m632ac3f0eb" y="217.807829"/>
     <use style="fill:#1f77b4;stroke:#1f77b4;" x="688.254639" xlink:href="#m632ac3f0eb" y="220.231496"/>
     <use style="fill:#1f77b4;stroke:#1f77b4;" x="707.890869" xlink:href="#m632ac3f0eb" y="215.415638"/>
     <use style="fill:#1f77b4;stroke:#1f77b4;" x="727.527344" xlink:href="#m632ac3f0eb" y="217.351424"/>
     <use style="fill:#1f77b4;stroke:#1f77b4;" x="727.527344" xlink:href="#m632ac3f0eb" y="220.593473"/>
     <use style="fill:#1f77b4;stroke:#1f77b4;" x="747.163574" xlink:href="#m632ac3f0eb" y="225.425069"/>
    </g>
   </g>
   <g id="line2d_26">
    <path clip-path="url(#p1f53a4dc99)" d="M 138.436523 215.053662 
L 158.072754 223.221735 
L 158.072754 218.29571 
L 177.709229 215.258257 
L 197.345459 215.573019 
L 216.981934 216.186805 
L 236.618164 212.929019 
L 256.254639 217.823567 
L 275.890869 189.070062 
L 275.890869 232.082284 
L 295.527344 229.831736 
L 315.163574 256.885527 
L 334.800049 319.617588 
L 354.436523 211.339471 
L 354.436523 217.146829 
L 374.072754 218.720639 
L 393.709229 219.633449 
L 413.345459 199.646064 
L 432.981934 213.904781 
L 432.981934 216.249757 
L 452.618164 162.740223 
L 472.254639 320.199897 
L 491.890869 220.45183 
L 511.527344 220.78233 
L 511.527344 213.290995 
L 531.163574 218.815067 
L 550.800049 218.846544 
L 570.436279 215.635972 
L 590.072754 219.53902 
L 609.709229 214.282495 
L 629.345459 218.673425 
L 629.345459 217.146829 
L 648.981934 222.828283 
L 668.618164 217.917996 
L 688.254639 222.891235 
L 707.890869 219.413115 
L 727.527344 225.346378 
L 727.527344 217.508805 
L 747.163574 214.0779 
" style="fill:none;stroke:#ff7f0e;stroke-linecap:square;stroke-width:1.5;"/>
    <defs>
     <path d="M 0 2.5 
C 0.663008 2.5 1.29895 2.236584 1.767767 1.767767 
C 2.236584 1.29895 2.5 0.663008 2.5 0 
C 2.5 -0.663008 2.236584 -1.29895 1.767767 -1.767767 
C 1.29895 -2.236584 0.663008 -2.5 0 -2.5 
C -0.663008 -2.5 -1.29895 -2.236584 -1.767767 -1.767767 
C -2.236584 -1.29895 -2.5 -0.663008 -2.5 0 
C -2.5 0.663008 -2.236584 1.29895 -1.767767 1.767767 
C -1.29895 2.236584 -0.663008 2.5 0 2.5 
z
" id="m6e633046d5" style="stroke:#ff7f0e;"/>
    </defs>
    <g clip-path="url(#p1f53a4dc99)">
     <use style="fill:#ff7f0e;stroke:#ff7f0e;" x="138.436523" xlink:href="#m6e633046d5" y="215.053662"/>
     <use style="fill:#ff7f0e;stroke:#ff7f0e;" x="158.072754" xlink:href="#m6e633046d5" y="223.221735"/>
     <use style="fill:#ff7f0e;stroke:#ff7f0e;" x="158.072754" xlink:href="#m6e633046d5" y="218.29571"/>
     <use style="fill:#ff7f0e;stroke:#ff7f0e;" x="177.709229" xlink:href="#m6e633046d5" y="215.258257"/>
     <use style="fill:#ff7f0e;stroke:#ff7f0e;" x="197.345459" xlink:href="#m6e633046d5" y="215.573019"/>
     <use style="fill:#ff7f0e;stroke:#ff7f0e;" x="216.981934" xlink:href="#m6e633046d5" y="216.186805"/>
     <use style="fill:#ff7f0e;stroke:#ff7f0e;" x="236.618164" xlink:href="#m6e633046d5" y="212.929019"/>
     <use style="fill:#ff7f0e;stroke:#ff7f0e;" x="256.254639" xlink:href="#m6e633046d5" y="217.823567"/>
     <use style="fill:#ff7f0e;stroke:#ff7f0e;" x="275.890869" xlink:href="#m6e633046d5" y="189.070062"/>
     <use style="fill:#ff7f0e;stroke:#ff7f0e;" x="275.890869" xlink:href="#m6e633046d5" y="232.082284"/>
     <use style="fill:#ff7f0e;stroke:#ff7f0e;" x="295.527344" xlink:href="#m6e633046d5" y="229.831736"/>
     <use style="fill:#ff7f0e;stroke:#ff7f0e;" x="315.163574" xlink:href="#m6e633046d5" y="256.885527"/>
     <use style="fill:#ff7f0e;stroke:#ff7f0e;" x="334.800049" xlink:href="#m6e633046d5" y="319.617588"/>
     <use style="fill:#ff7f0e;stroke:#ff7f0e;" x="354.436523" xlink:href="#m6e633046d5" y="211.339471"/>
     <use style="fill:#ff7f0e;stroke:#ff7f0e;" x="354.436523" xlink:href="#m6e633046d5" y="217.146829"/>
     <use style="fill:#ff7f0e;stroke:#ff7f0e;" x="374.072754" xlink:href="#m6e633046d5" y="218.720639"/>
     <use style="fill:#ff7f0e;stroke:#ff7f0e;" x="393.709229" xlink:href="#m6e633046d5" y="219.633449"/>
     <use style="fill:#ff7f0e;stroke:#ff7f0e;" x="413.345459" xlink:href="#m6e633046d5" y="199.646064"/>
     <use style="fill:#ff7f0e;stroke:#ff7f0e;" x="432.981934" xlink:href="#m6e633046d5" y="213.904781"/>
     <use style="fill:#ff7f0e;stroke:#ff7f0e;" x="432.981934" xlink:href="#m6e633046d5" y="216.249757"/>
     <use style="fill:#ff7f0e;stroke:#ff7f0e;" x="452.618164" xlink:href="#m6e633046d5" y="162.740223"/>
     <use style="fill:#ff7f0e;stroke:#ff7f0e;" x="472.254639" xlink:href="#m6e633046d5" y="320.199897"/>
     <use style="fill:#ff7f0e;stroke:#ff7f0e;" x="491.890869" xlink:href="#m6e633046d5" y="220.45183"/>
     <use style="fill:#ff7f0e;stroke:#ff7f0e;" x="511.527344" xlink:href="#m6e633046d5" y="220.78233"/>
     <use style="fill:#ff7f0e;stroke:#ff7f0e;" x="511.527344" xlink:href="#m6e633046d5" y="213.290995"/>
     <use style="fill:#ff7f0e;stroke:#ff7f0e;" x="531.163574" xlink:href="#m6e633046d5" y="218.815067"/>
     <use style="fill:#ff7f0e;stroke:#ff7f0e;" x="550.800049" xlink:href="#m6e633046d5" y="218.846544"/>
     <use style="fill:#ff7f0e;stroke:#ff7f0e;" x="570.436279" xlink:href="#m6e633046d5" y="215.635972"/>
     <use style="fill:#ff7f0e;stroke:#ff7f0e;" x="590.072754" xlink:href="#m6e633046d5" y="219.53902"/>
     <use style="fill:#ff7f0e;stroke:#ff7f0e;" x="609.709229" xlink:href="#m6e633046d5" y="214.282495"/>
     <use style="fill:#ff7f0e;stroke:#ff7f0e;" x="629.345459" xlink:href="#m6e633046d5" y="218.673425"/>
     <use style="fill:#ff7f0e;stroke:#ff7f0e;" x="629.345459" xlink:href="#m6e633046d5" y="217.146829"/>
     <use style="fill:#ff7f0e;stroke:#ff7f0e;" x="648.981934" xlink:href="#m6e633046d5" y="222.828283"/>
     <use style="fill:#ff7f0e;stroke:#ff7f0e;" x="668.618164" xlink:href="#m6e633046d5" y="217.917996"/>
     <use style="fill:#ff7f0e;stroke:#ff7f0e;" x="688.254639" xlink:href="#m6e633046d5" y="222.891235"/>
     <use style="fill:#ff7f0e;stroke:#ff7f0e;" x="707.890869" xlink:href="#m6e633046d5" y="219.413115"/>
     <use style="fill:#ff7f0e;stroke:#ff7f0e;" x="727.527344" xlink:href="#m6e633046d5" y="225.346378"/>
     <use style="fill:#ff7f0e;stroke:#ff7f0e;" x="727.527344" xlink:href="#m6e633046d5" y="217.508805"/>
     <use style="fill:#ff7f0e;stroke:#ff7f0e;" x="747.163574" xlink:href="#m6e633046d5" y="214.0779"/>
    </g>
   </g>
   <g id="line2d_27">
    <path clip-path="url(#p1f53a4dc99)" d="M 138.436523 219.20852 
L 158.072754 215.211043 
L 158.072754 217.571758 
L 177.709229 217.22552 
L 197.345459 219.098353 
L 216.981934 218.059639 
L 236.618164 217.068139 
L 256.254639 200.070992 
L 275.890869 222.560735 
L 275.890869 222.828283 
L 295.527344 217.508805 
L 315.163574 169.114153 
L 334.800049 219.586234 
L 354.436523 193.744277 
L 354.436523 214.235281 
L 374.072754 215.934995 
L 393.709229 206.38197 
L 413.345459 214.707424 
L 432.981934 213.306733 
L 432.981934 221.679401 
L 452.618164 152.825221 
L 472.254639 215.667448 
L 491.890869 211.984733 
L 511.527344 216.485829 
L 511.527344 217.241258 
L 531.163574 213.542805 
L 550.800049 217.540282 
L 570.436279 216.690424 
L 590.072754 211.937518 
L 609.709229 219.633449 
L 629.345459 215.667448 
L 629.345459 211.638495 
L 648.981934 215.494329 
L 668.618164 217.099615 
L 688.254639 212.236542 
L 707.890869 215.824829 
L 727.527344 217.618972 
L 727.527344 215.7304 
L 747.163574 216.674686 
" style="fill:none;stroke:#2ca02c;stroke-linecap:square;stroke-width:1.5;"/>
    <defs>
     <path d="M 0 2.5 
C 0.663008 2.5 1.29895 2.236584 1.767767 1.767767 
C 2.236584 1.29895 2.5 0.663008 2.5 0 
C 2.5 -0.663008 2.236584 -1.29895 1.767767 -1.767767 
C 1.29895 -2.236584 0.663008 -2.5 0 -2.5 
C -0.663008 -2.5 -1.29895 -2.236584 -1.767767 -1.767767 
C -2.236584 -1.29895 -2.5 -0.663008 -2.5 0 
C -2.5 0.663008 -2.236584 1.29895 -1.767767 1.767767 
C -1.29895 2.236584 -0.663008 2.5 0 2.5 
z
" id="m73fb81220a" style="stroke:#2ca02c;"/>
    </defs>
    <g clip-path="url(#p1f53a4dc99)">
     <use style="fill:#2ca02c;stroke:#2ca02c;" x="138.436523" xlink:href="#m73fb81220a" y="219.20852"/>
     <use style="fill:#2ca02c;stroke:#2ca02c;" x="158.072754" xlink:href="#m73fb81220a" y="215.211043"/>
     <use style="fill:#2ca02c;stroke:#2ca02c;" x="158.072754" xlink:href="#m73fb81220a" y="217.571758"/>
     <use style="fill:#2ca02c;stroke:#2ca02c;" x="177.709229" xlink:href="#m73fb81220a" y="217.22552"/>
     <use style="fill:#2ca02c;stroke:#2ca02c;" x="197.345459" xlink:href="#m73fb81220a" y="219.098353"/>
     <use style="fill:#2ca02c;stroke:#2ca02c;" x="216.981934" xlink:href="#m73fb81220a" y="218.059639"/>
     <use style="fill:#2ca02c;stroke:#2ca02c;" x="236.618164" xlink:href="#m73fb81220a" y="217.068139"/>
     <use style="fill:#2ca02c;stroke:#2ca02c;" x="256.254639" xlink:href="#m73fb81220a" y="200.070992"/>
     <use style="fill:#2ca02c;stroke:#2ca02c;" x="275.890869" xlink:href="#m73fb81220a" y="222.560735"/>
     <use style="fill:#2ca02c;stroke:#2ca02c;" x="275.890869" xlink:href="#m73fb81220a" y="222.828283"/>
     <use style="fill:#2ca02c;stroke:#2ca02c;" x="295.527344" xlink:href="#m73fb81220a" y="217.508805"/>
     <use style="fill:#2ca02c;stroke:#2ca02c;" x="315.163574" xlink:href="#m73fb81220a" y="169.114153"/>
     <use style="fill:#2ca02c;stroke:#2ca02c;" x="334.800049" xlink:href="#m73fb81220a" y="219.586234"/>
     <use style="fill:#2ca02c;stroke:#2ca02c;" x="354.436523" xlink:href="#m73fb81220a" y="193.744277"/>
     <use style="fill:#2ca02c;stroke:#2ca02c;" x="354.436523" xlink:href="#m73fb81220a" y="214.235281"/>
     <use style="fill:#2ca02c;stroke:#2ca02c;" x="374.072754" xlink:href="#m73fb81220a" y="215.934995"/>
     <use style="fill:#2ca02c;stroke:#2ca02c;" x="393.709229" xlink:href="#m73fb81220a" y="206.38197"/>
     <use style="fill:#2ca02c;stroke:#2ca02c;" x="413.345459" xlink:href="#m73fb81220a" y="214.707424"/>
     <use style="fill:#2ca02c;stroke:#2ca02c;" x="432.981934" xlink:href="#m73fb81220a" y="213.306733"/>
     <use style="fill:#2ca02c;stroke:#2ca02c;" x="432.981934" xlink:href="#m73fb81220a" y="221.679401"/>
     <use style="fill:#2ca02c;stroke:#2ca02c;" x="452.618164" xlink:href="#m73fb81220a" y="152.825221"/>
     <use style="fill:#2ca02c;stroke:#2ca02c;" x="472.254639" xlink:href="#m73fb81220a" y="215.667448"/>
     <use style="fill:#2ca02c;stroke:#2ca02c;" x="491.890869" xlink:href="#m73fb81220a" y="211.984733"/>
     <use style="fill:#2ca02c;stroke:#2ca02c;" x="511.527344" xlink:href="#m73fb81220a" y="216.485829"/>
     <use style="fill:#2ca02c;stroke:#2ca02c;" x="511.527344" xlink:href="#m73fb81220a" y="217.241258"/>
     <use style="fill:#2ca02c;stroke:#2ca02c;" x="531.163574" xlink:href="#m73fb81220a" y="213.542805"/>
     <use style="fill:#2ca02c;stroke:#2ca02c;" x="550.800049" xlink:href="#m73fb81220a" y="217.540282"/>
     <use style="fill:#2ca02c;stroke:#2ca02c;" x="570.436279" xlink:href="#m73fb81220a" y="216.690424"/>
     <use style="fill:#2ca02c;stroke:#2ca02c;" x="590.072754" xlink:href="#m73fb81220a" y="211.937518"/>
     <use style="fill:#2ca02c;stroke:#2ca02c;" x="609.709229" xlink:href="#m73fb81220a" y="219.633449"/>
     <use style="fill:#2ca02c;stroke:#2ca02c;" x="629.345459" xlink:href="#m73fb81220a" y="215.667448"/>
     <use style="fill:#2ca02c;stroke:#2ca02c;" x="629.345459" xlink:href="#m73fb81220a" y="211.638495"/>
     <use style="fill:#2ca02c;stroke:#2ca02c;" x="648.981934" xlink:href="#m73fb81220a" y="215.494329"/>
     <use style="fill:#2ca02c;stroke:#2ca02c;" x="668.618164" xlink:href="#m73fb81220a" y="217.099615"/>
     <use style="fill:#2ca02c;stroke:#2ca02c;" x="688.254639" xlink:href="#m73fb81220a" y="212.236542"/>
     <use style="fill:#2ca02c;stroke:#2ca02c;" x="707.890869" xlink:href="#m73fb81220a" y="215.824829"/>
     <use style="fill:#2ca02c;stroke:#2ca02c;" x="727.527344" xlink:href="#m73fb81220a" y="217.618972"/>
     <use style="fill:#2ca02c;stroke:#2ca02c;" x="727.527344" xlink:href="#m73fb81220a" y="215.7304"/>
     <use style="fill:#2ca02c;stroke:#2ca02c;" x="747.163574" xlink:href="#m73fb81220a" y="216.674686"/>
    </g>
   </g>
   <g id="patch_3">
    <path d="M 108 518.4 
L 108 77.76 
" style="fill:none;stroke:#000000;stroke-linecap:square;stroke-linejoin:miter;stroke-width:0.8;"/>
   </g>
   <g id="patch_4">
    <path d="M 777.6 518.4 
L 777.6 77.76 
" style="fill:none;stroke:#000000;stroke-linecap:square;stroke-linejoin:miter;stroke-width:0.8;"/>
   </g>
   <g id="patch_5">
    <path d="M 108 518.4 
L 777.600098 518.4 
" style="fill:none;stroke:#000000;stroke-linecap:square;stroke-linejoin:miter;stroke-width:0.8;"/>
   </g>
   <g id="patch_6">
    <path d="M 108 77.76 
L 777.600098 77.76 
" style="fill:none;stroke:#000000;stroke-linecap:square;stroke-linejoin:miter;stroke-width:0.8;"/>
   </g>
   <g id="text_15">
    <!-- IMU Gyr (DPS) -->
    <defs>
     <path d="M 9.8125 72.90625 
L 19.671875 72.90625 
L 19.671875 0 
L 9.8125 0 
z
" id="DejaVuSans-73"/>
     <path d="M 9.8125 72.90625 
L 24.515625 72.90625 
L 43.109375 23.296875 
L 61.8125 72.90625 
L 76.515625 72.90625 
L 76.515625 0 
L 66.890625 0 
L 66.890625 64.015625 
L 48.09375 14.015625 
L 38.1875 14.015625 
L 19.390625 64.015625 
L 19.390625 0 
L 9.8125 0 
z
" id="DejaVuSans-77"/>
     <path d="M 8.6875 72.90625 
L 18.609375 72.90625 
L 18.609375 28.609375 
Q 18.609375 16.890625 22.84375 11.734375 
Q 27.09375 6.59375 36.625 6.59375 
Q 46.09375 6.59375 50.34375 11.734375 
Q 54.59375 16.890625 54.59375 28.609375 
L 54.59375 72.90625 
L 64.5 72.90625 
L 64.5 27.390625 
Q 64.5 13.140625 57.4375 5.859375 
Q 50.390625 -1.421875 36.625 -1.421875 
Q 22.796875 -1.421875 15.734375 5.859375 
Q 8.6875 13.140625 8.6875 27.390625 
z
" id="DejaVuSans-85"/>
    </defs>
    <g transform="translate(400.2525 71.76)scale(0.12 -0.12)">
     <use xlink:href="#DejaVuSans-73"/>
     <use x="29.492188" xlink:href="#DejaVuSans-77"/>
     <use x="115.771484" xlink:href="#DejaVuSans-85"/>
     <use x="188.964844" xlink:href="#DejaVuSans-32"/>
     <use x="220.751953" xlink:href="#DejaVuSans-71"/>
     <use x="298.242188" xlink:href="#DejaVuSans-121"/>
     <use x="357.421875" xlink:href="#DejaVuSans-114"/>
     <use x="398.535156" xlink:href="#DejaVuSans-32"/>
     <use x="430.322266" xlink:href="#DejaVuSans-40"/>
     <use x="469.335938" xlink:href="#DejaVuSans-68"/>
     <use x="546.337891" xlink:href="#DejaVuSans-80"/>
     <use x="606.640625" xlink:href="#DejaVuSans-83"/>
     <use x="670.117188" xlink:href="#DejaVuSans-41"/>
    </g>
   </g>
   <g id="legend_1">
    <g id="patch_7">
     <path d="M 676.090625 130.62875 
L 770.6 130.62875 
Q 772.6 130.62875 772.6 128.62875 
L 772.6 84.76 
Q 772.6 82.76 770.6 82.76 
L 676.090625 82.76 
Q 674.090625 82.76 674.090625 84.76 
L 674.090625 128.62875 
Q 674.090625 130.62875 676.090625 130.62875 
z
" style="fill:#ffffff;opacity:0.8;stroke:#cccccc;stroke-linejoin:miter;"/>
    </g>
    <g id="line2d_28">
     <path d="M 678.090625 90.858437 
L 698.090625 90.858437 
" style="fill:none;stroke:#1f77b4;stroke-linecap:square;stroke-width:1.5;"/>
    </g>
    <g id="line2d_29">
     <g>
      <use style="fill:#1f77b4;stroke:#1f77b4;" x="688.090625" xlink:href="#m632ac3f0eb" y="90.858437"/>
     </g>
    </g>
    <g id="text_16">
     <!-- Gyr_X_(DPS) -->
     <defs>
      <path d="M 50.984375 -16.609375 
L 50.984375 -23.578125 
L -0.984375 -23.578125 
L -0.984375 -16.609375 
z
" id="DejaVuSans-95"/>
      <path d="M 6.296875 72.90625 
L 16.890625 72.90625 
L 35.015625 45.796875 
L 53.21875 72.90625 
L 63.8125 72.90625 
L 40.375 37.890625 
L 65.375 0 
L 54.78125 0 
L 34.28125 31 
L 13.625 0 
L 2.984375 0 
L 29 38.921875 
z
" id="DejaVuSans-88"/>
     </defs>
     <g transform="translate(706.090625 94.358437)scale(0.1 -0.1)">
      <use xlink:href="#DejaVuSans-71"/>
      <use x="77.490234" xlink:href="#DejaVuSans-121"/>
      <use x="136.669922" xlink:href="#DejaVuSans-114"/>
      <use x="177.783203" xlink:href="#DejaVuSans-95"/>
      <use x="227.783203" xlink:href="#DejaVuSans-88"/>
      <use x="296.289062" xlink:href="#DejaVuSans-95"/>
      <use x="346.289062" xlink:href="#DejaVuSans-40"/>
      <use x="385.302734" xlink:href="#DejaVuSans-68"/>
      <use x="462.304688" xlink:href="#DejaVuSans-80"/>
      <use x="522.607422" xlink:href="#DejaVuSans-83"/>
      <use x="586.083984" xlink:href="#DejaVuSans-41"/>
     </g>
    </g>
    <g id="line2d_30">
     <path d="M 678.090625 105.814687 
L 698.090625 105.814687 
" style="fill:none;stroke:#ff7f0e;stroke-linecap:square;stroke-width:1.5;"/>
    </g>
    <g id="line2d_31">
     <g>
      <use style="fill:#ff7f0e;stroke:#ff7f0e;" x="688.090625" xlink:href="#m6e633046d5" y="105.814687"/>
     </g>
    </g>
    <g id="text_17">
     <!-- Gyr_Y_(DPS) -->
     <defs>
      <path d="M -0.203125 72.90625 
L 10.40625 72.90625 
L 30.609375 42.921875 
L 50.6875 72.90625 
L 61.28125 72.90625 
L 35.5 34.71875 
L 35.5 0 
L 25.59375 0 
L 25.59375 34.71875 
z
" id="DejaVuSans-89"/>
     </defs>
     <g transform="translate(706.090625 109.314687)scale(0.1 -0.1)">
      <use xlink:href="#DejaVuSans-71"/>
      <use x="77.490234" xlink:href="#DejaVuSans-121"/>
      <use x="136.669922" xlink:href="#DejaVuSans-114"/>
      <use x="177.783203" xlink:href="#DejaVuSans-95"/>
      <use x="227.783203" xlink:href="#DejaVuSans-89"/>
      <use x="288.867188" xlink:href="#DejaVuSans-95"/>
      <use x="338.867188" xlink:href="#DejaVuSans-40"/>
      <use x="377.880859" xlink:href="#DejaVuSans-68"/>
      <use x="454.882812" xlink:href="#DejaVuSans-80"/>
      <use x="515.185547" xlink:href="#DejaVuSans-83"/>
      <use x="578.662109" xlink:href="#DejaVuSans-41"/>
     </g>
    </g>
    <g id="line2d_32">
     <path d="M 678.090625 120.770937 
L 698.090625 120.770937 
" style="fill:none;stroke:#2ca02c;stroke-linecap:square;stroke-width:1.5;"/>
    </g>
    <g id="line2d_33">
     <g>
      <use style="fill:#2ca02c;stroke:#2ca02c;" x="688.090625" xlink:href="#m73fb81220a" y="120.770937"/>
     </g>
    </g>
    <g id="text_18">
     <!-- Gyr_Z_(DPS) -->
     <defs>
      <path d="M 5.609375 72.90625 
L 62.890625 72.90625 
L 62.890625 65.375 
L 16.796875 8.296875 
L 64.015625 8.296875 
L 64.015625 0 
L 4.5 0 
L 4.5 7.515625 
L 50.59375 64.59375 
L 5.609375 64.59375 
z
" id="DejaVuSans-90"/>
     </defs>
     <g transform="translate(706.090625 124.270937)scale(0.1 -0.1)">
      <use xlink:href="#DejaVuSans-71"/>
      <use x="77.490234" xlink:href="#DejaVuSans-121"/>
      <use x="136.669922" xlink:href="#DejaVuSans-114"/>
      <use x="177.783203" xlink:href="#DejaVuSans-95"/>
      <use x="227.783203" xlink:href="#DejaVuSans-90"/>
      <use x="296.289062" xlink:href="#DejaVuSans-95"/>
      <use x="346.289062" xlink:href="#DejaVuSans-40"/>
      <use x="385.302734" xlink:href="#DejaVuSans-68"/>
      <use x="462.304688" xlink:href="#DejaVuSans-80"/>
      <use x="522.607422" xlink:href="#DejaVuSans-83"/>
      <use x="586.083984" xlink:href="#DejaVuSans-41"/>
     </g>
    </g>
   </g>
  </g>
 </g>
 <defs>
  <clipPath id="p1f53a4dc99">
   <rect height="440.64" width="669.6" x="108" y="77.76"/>
  </clipPath>
 </defs>
</svg>
