<?xml version="1.0" encoding="utf-8" standalone="no"?>
<!DOCTYPE svg PUBLIC "-//W3C//DTD SVG 1.1//EN"
  "http://www.w3.org/Graphics/SVG/1.1/DTD/svg11.dtd">
<!-- Created with matplotlib (https://matplotlib.org/) -->
<svg height="648pt" version="1.1" viewBox="0 0 864 648" width="864pt" xmlns="http://www.w3.org/2000/svg" xmlns:xlink="http://www.w3.org/1999/xlink">
 <defs>
  <style type="text/css">
*{stroke-linecap:butt;stroke-linejoin:round;}
  </style>
 </defs>
 <g id="figure_1">
  <g id="patch_1">
   <path d="M 0 648 
L 864 648 
L 864 0 
L 0 0 
z
" style="fill:#ffffff;"/>
  </g>
  <g id="axes_1">
   <g id="patch_2">
    <path d="M 108 518.4 
L 777.6 518.4 
L 777.6 77.76 
L 108 77.76 
z
" style="fill:#ffffff;"/>
   </g>
   <g id="matplotlib.axis_1">
    <g id="xtick_1">
     <g id="line2d_1">
      <path clip-path="url(#pf2ca99593b)" d="M 118.800049 518.4 
L 118.800049 77.76 
" style="fill:none;stroke:#b0b0b0;stroke-linecap:square;stroke-width:0.8;"/>
     </g>
     <g id="line2d_2">
      <defs>
       <path d="M 0 0 
L 0 3.5 
" id="m6e554bbb05" style="stroke:#000000;stroke-width:0.8;"/>
      </defs>
      <g>
       <use style="stroke:#000000;stroke-width:0.8;" x="118.800049" xlink:href="#m6e554bbb05" y="518.4"/>
      </g>
     </g>
     <g id="text_1">
      <!-- 00:00:15 -->
      <defs>
       <path d="M 31.78125 66.40625 
Q 24.171875 66.40625 20.328125 58.90625 
Q 16.5 51.421875 16.5 36.375 
Q 16.5 21.390625 20.328125 13.890625 
Q 24.171875 6.390625 31.78125 6.390625 
Q 39.453125 6.390625 43.28125 13.890625 
Q 47.125 21.390625 47.125 36.375 
Q 47.125 51.421875 43.28125 58.90625 
Q 39.453125 66.40625 31.78125 66.40625 
z
M 31.78125 74.21875 
Q 44.046875 74.21875 50.515625 64.515625 
Q 56.984375 54.828125 56.984375 36.375 
Q 56.984375 17.96875 50.515625 8.265625 
Q 44.046875 -1.421875 31.78125 -1.421875 
Q 19.53125 -1.421875 13.0625 8.265625 
Q 6.59375 17.96875 6.59375 36.375 
Q 6.59375 54.828125 13.0625 64.515625 
Q 19.53125 74.21875 31.78125 74.21875 
z
" id="DejaVuSans-48"/>
       <path d="M 11.71875 12.40625 
L 22.015625 12.40625 
L 22.015625 0 
L 11.71875 0 
z
M 11.71875 51.703125 
L 22.015625 51.703125 
L 22.015625 39.3125 
L 11.71875 39.3125 
z
" id="DejaVuSans-58"/>
       <path d="M 12.40625 8.296875 
L 28.515625 8.296875 
L 28.515625 63.921875 
L 10.984375 60.40625 
L 10.984375 69.390625 
L 28.421875 72.90625 
L 38.28125 72.90625 
L 38.28125 8.296875 
L 54.390625 8.296875 
L 54.390625 0 
L 12.40625 0 
z
" id="DejaVuSans-49"/>
       <path d="M 10.796875 72.90625 
L 49.515625 72.90625 
L 49.515625 64.59375 
L 19.828125 64.59375 
L 19.828125 46.734375 
Q 21.96875 47.46875 24.109375 47.828125 
Q 26.265625 48.1875 28.421875 48.1875 
Q 40.625 48.1875 47.75 41.5 
Q 54.890625 34.8125 54.890625 23.390625 
Q 54.890625 11.625 47.5625 5.09375 
Q 40.234375 -1.421875 26.90625 -1.421875 
Q 22.3125 -1.421875 17.546875 -0.640625 
Q 12.796875 0.140625 7.71875 1.703125 
L 7.71875 11.625 
Q 12.109375 9.234375 16.796875 8.0625 
Q 21.484375 6.890625 26.703125 6.890625 
Q 35.15625 6.890625 40.078125 11.328125 
Q 45.015625 15.765625 45.015625 23.390625 
Q 45.015625 31 40.078125 35.4375 
Q 35.15625 39.890625 26.703125 39.890625 
Q 22.75 39.890625 18.8125 39.015625 
Q 14.890625 38.140625 10.796875 36.28125 
z
" id="DejaVuSans-53"/>
      </defs>
      <g transform="translate(78.864839 554.43669)rotate(-30)scale(0.1 -0.1)">
       <use xlink:href="#DejaVuSans-48"/>
       <use x="63.623047" xlink:href="#DejaVuSans-48"/>
       <use x="127.246094" xlink:href="#DejaVuSans-58"/>
       <use x="160.9375" xlink:href="#DejaVuSans-48"/>
       <use x="224.560547" xlink:href="#DejaVuSans-48"/>
       <use x="288.183594" xlink:href="#DejaVuSans-58"/>
       <use x="321.875" xlink:href="#DejaVuSans-49"/>
       <use x="385.498047" xlink:href="#DejaVuSans-53"/>
      </g>
     </g>
    </g>
    <g id="xtick_2">
     <g id="line2d_3">
      <path clip-path="url(#pf2ca99593b)" d="M 216.981934 518.4 
L 216.981934 77.76 
" style="fill:none;stroke:#b0b0b0;stroke-linecap:square;stroke-width:0.8;"/>
     </g>
     <g id="line2d_4">
      <g>
       <use style="stroke:#000000;stroke-width:0.8;" x="216.981934" xlink:href="#m6e554bbb05" y="518.4"/>
      </g>
     </g>
     <g id="text_2">
      <!-- 00:00:20 -->
      <defs>
       <path d="M 19.1875 8.296875 
L 53.609375 8.296875 
L 53.609375 0 
L 7.328125 0 
L 7.328125 8.296875 
Q 12.9375 14.109375 22.625 23.890625 
Q 32.328125 33.6875 34.8125 36.53125 
Q 39.546875 41.84375 41.421875 45.53125 
Q 43.3125 49.21875 43.3125 52.78125 
Q 43.3125 58.59375 39.234375 62.25 
Q 35.15625 65.921875 28.609375 65.921875 
Q 23.96875 65.921875 18.8125 64.3125 
Q 13.671875 62.703125 7.8125 59.421875 
L 7.8125 69.390625 
Q 13.765625 71.78125 18.9375 73 
Q 24.125 74.21875 28.421875 74.21875 
Q 39.75 74.21875 46.484375 68.546875 
Q 53.21875 62.890625 53.21875 53.421875 
Q 53.21875 48.921875 51.53125 44.890625 
Q 49.859375 40.875 45.40625 35.40625 
Q 44.1875 33.984375 37.640625 27.21875 
Q 31.109375 20.453125 19.1875 8.296875 
z
" id="DejaVuSans-50"/>
      </defs>
      <g transform="translate(177.046724 554.43669)rotate(-30)scale(0.1 -0.1)">
       <use xlink:href="#DejaVuSans-48"/>
       <use x="63.623047" xlink:href="#DejaVuSans-48"/>
       <use x="127.246094" xlink:href="#DejaVuSans-58"/>
       <use x="160.9375" xlink:href="#DejaVuSans-48"/>
       <use x="224.560547" xlink:href="#DejaVuSans-48"/>
       <use x="288.183594" xlink:href="#DejaVuSans-58"/>
       <use x="321.875" xlink:href="#DejaVuSans-50"/>
       <use x="385.498047" xlink:href="#DejaVuSans-48"/>
      </g>
     </g>
    </g>
    <g id="xtick_3">
     <g id="line2d_5">
      <path clip-path="url(#pf2ca99593b)" d="M 315.163574 518.4 
L 315.163574 77.76 
" style="fill:none;stroke:#b0b0b0;stroke-linecap:square;stroke-width:0.8;"/>
     </g>
     <g id="line2d_6">
      <g>
       <use style="stroke:#000000;stroke-width:0.8;" x="315.163574" xlink:href="#m6e554bbb05" y="518.4"/>
      </g>
     </g>
     <g id="text_3">
      <!-- 00:00:25 -->
      <g transform="translate(275.228365 554.43669)rotate(-30)scale(0.1 -0.1)">
       <use xlink:href="#DejaVuSans-48"/>
       <use x="63.623047" xlink:href="#DejaVuSans-48"/>
       <use x="127.246094" xlink:href="#DejaVuSans-58"/>
       <use x="160.9375" xlink:href="#DejaVuSans-48"/>
       <use x="224.560547" xlink:href="#DejaVuSans-48"/>
       <use x="288.183594" xlink:href="#DejaVuSans-58"/>
       <use x="321.875" xlink:href="#DejaVuSans-50"/>
       <use x="385.498047" xlink:href="#DejaVuSans-53"/>
      </g>
     </g>
    </g>
    <g id="xtick_4">
     <g id="line2d_7">
      <path clip-path="url(#pf2ca99593b)" d="M 413.345459 518.4 
L 413.345459 77.76 
" style="fill:none;stroke:#b0b0b0;stroke-linecap:square;stroke-width:0.8;"/>
     </g>
     <g id="line2d_8">
      <g>
       <use style="stroke:#000000;stroke-width:0.8;" x="413.345459" xlink:href="#m6e554bbb05" y="518.4"/>
      </g>
     </g>
     <g id="text_4">
      <!-- 00:00:30 -->
      <defs>
       <path d="M 40.578125 39.3125 
Q 47.65625 37.796875 51.625 33 
Q 55.609375 28.21875 55.609375 21.1875 
Q 55.609375 10.40625 48.1875 4.484375 
Q 40.765625 -1.421875 27.09375 -1.421875 
Q 22.515625 -1.421875 17.65625 -0.515625 
Q 12.796875 0.390625 7.625 2.203125 
L 7.625 11.71875 
Q 11.71875 9.328125 16.59375 8.109375 
Q 21.484375 6.890625 26.8125 6.890625 
Q 36.078125 6.890625 40.9375 10.546875 
Q 45.796875 14.203125 45.796875 21.1875 
Q 45.796875 27.640625 41.28125 31.265625 
Q 36.765625 34.90625 28.71875 34.90625 
L 20.21875 34.90625 
L 20.21875 43.015625 
L 29.109375 43.015625 
Q 36.375 43.015625 40.234375 45.921875 
Q 44.09375 48.828125 44.09375 54.296875 
Q 44.09375 59.90625 40.109375 62.90625 
Q 36.140625 65.921875 28.71875 65.921875 
Q 24.65625 65.921875 20.015625 65.03125 
Q 15.375 64.15625 9.8125 62.3125 
L 9.8125 71.09375 
Q 15.4375 72.65625 20.34375 73.4375 
Q 25.25 74.21875 29.59375 74.21875 
Q 40.828125 74.21875 47.359375 69.109375 
Q 53.90625 64.015625 53.90625 55.328125 
Q 53.90625 49.265625 50.4375 45.09375 
Q 46.96875 40.921875 40.578125 39.3125 
z
" id="DejaVuSans-51"/>
      </defs>
      <g transform="translate(373.410249 554.43669)rotate(-30)scale(0.1 -0.1)">
       <use xlink:href="#DejaVuSans-48"/>
       <use x="63.623047" xlink:href="#DejaVuSans-48"/>
       <use x="127.246094" xlink:href="#DejaVuSans-58"/>
       <use x="160.9375" xlink:href="#DejaVuSans-48"/>
       <use x="224.560547" xlink:href="#DejaVuSans-48"/>
       <use x="288.183594" xlink:href="#DejaVuSans-58"/>
       <use x="321.875" xlink:href="#DejaVuSans-51"/>
       <use x="385.498047" xlink:href="#DejaVuSans-48"/>
      </g>
     </g>
    </g>
    <g id="xtick_5">
     <g id="line2d_9">
      <path clip-path="url(#pf2ca99593b)" d="M 511.527344 518.4 
L 511.527344 77.76 
" style="fill:none;stroke:#b0b0b0;stroke-linecap:square;stroke-width:0.8;"/>
     </g>
     <g id="line2d_10">
      <g>
       <use style="stroke:#000000;stroke-width:0.8;" x="511.527344" xlink:href="#m6e554bbb05" y="518.4"/>
      </g>
     </g>
     <g id="text_5">
      <!-- 00:00:35 -->
      <g transform="translate(471.592134 554.43669)rotate(-30)scale(0.1 -0.1)">
       <use xlink:href="#DejaVuSans-48"/>
       <use x="63.623047" xlink:href="#DejaVuSans-48"/>
       <use x="127.246094" xlink:href="#DejaVuSans-58"/>
       <use x="160.9375" xlink:href="#DejaVuSans-48"/>
       <use x="224.560547" xlink:href="#DejaVuSans-48"/>
       <use x="288.183594" xlink:href="#DejaVuSans-58"/>
       <use x="321.875" xlink:href="#DejaVuSans-51"/>
       <use x="385.498047" xlink:href="#DejaVuSans-53"/>
      </g>
     </g>
    </g>
    <g id="xtick_6">
     <g id="line2d_11">
      <path clip-path="url(#pf2ca99593b)" d="M 609.709229 518.4 
L 609.709229 77.76 
" style="fill:none;stroke:#b0b0b0;stroke-linecap:square;stroke-width:0.8;"/>
     </g>
     <g id="line2d_12">
      <g>
       <use style="stroke:#000000;stroke-width:0.8;" x="609.709229" xlink:href="#m6e554bbb05" y="518.4"/>
      </g>
     </g>
     <g id="text_6">
      <!-- 00:00:40 -->
      <defs>
       <path d="M 37.796875 64.3125 
L 12.890625 25.390625 
L 37.796875 25.390625 
z
M 35.203125 72.90625 
L 47.609375 72.90625 
L 47.609375 25.390625 
L 58.015625 25.390625 
L 58.015625 17.1875 
L 47.609375 17.1875 
L 47.609375 0 
L 37.796875 0 
L 37.796875 17.1875 
L 4.890625 17.1875 
L 4.890625 26.703125 
z
" id="DejaVuSans-52"/>
      </defs>
      <g transform="translate(569.774019 554.43669)rotate(-30)scale(0.1 -0.1)">
       <use xlink:href="#DejaVuSans-48"/>
       <use x="63.623047" xlink:href="#DejaVuSans-48"/>
       <use x="127.246094" xlink:href="#DejaVuSans-58"/>
       <use x="160.9375" xlink:href="#DejaVuSans-48"/>
       <use x="224.560547" xlink:href="#DejaVuSans-48"/>
       <use x="288.183594" xlink:href="#DejaVuSans-58"/>
       <use x="321.875" xlink:href="#DejaVuSans-52"/>
       <use x="385.498047" xlink:href="#DejaVuSans-48"/>
      </g>
     </g>
    </g>
    <g id="xtick_7">
     <g id="line2d_13">
      <path clip-path="url(#pf2ca99593b)" d="M 707.890869 518.4 
L 707.890869 77.76 
" style="fill:none;stroke:#b0b0b0;stroke-linecap:square;stroke-width:0.8;"/>
     </g>
     <g id="line2d_14">
      <g>
       <use style="stroke:#000000;stroke-width:0.8;" x="707.890869" xlink:href="#m6e554bbb05" y="518.4"/>
      </g>
     </g>
     <g id="text_7">
      <!-- 00:00:45 -->
      <g transform="translate(667.955659 554.43669)rotate(-30)scale(0.1 -0.1)">
       <use xlink:href="#DejaVuSans-48"/>
       <use x="63.623047" xlink:href="#DejaVuSans-48"/>
       <use x="127.246094" xlink:href="#DejaVuSans-58"/>
       <use x="160.9375" xlink:href="#DejaVuSans-48"/>
       <use x="224.560547" xlink:href="#DejaVuSans-48"/>
       <use x="288.183594" xlink:href="#DejaVuSans-58"/>
       <use x="321.875" xlink:href="#DejaVuSans-52"/>
       <use x="385.498047" xlink:href="#DejaVuSans-53"/>
      </g>
     </g>
    </g>
    <g id="text_8">
     <!-- DateTime -->
     <defs>
      <path d="M 19.671875 64.796875 
L 19.671875 8.109375 
L 31.59375 8.109375 
Q 46.6875 8.109375 53.6875 14.9375 
Q 60.6875 21.78125 60.6875 36.53125 
Q 60.6875 51.171875 53.6875 57.984375 
Q 46.6875 64.796875 31.59375 64.796875 
z
M 9.8125 72.90625 
L 30.078125 72.90625 
Q 51.265625 72.90625 61.171875 64.09375 
Q 71.09375 55.28125 71.09375 36.53125 
Q 71.09375 17.671875 61.125 8.828125 
Q 51.171875 0 30.078125 0 
L 9.8125 0 
z
" id="DejaVuSans-68"/>
      <path d="M 34.28125 27.484375 
Q 23.390625 27.484375 19.1875 25 
Q 14.984375 22.515625 14.984375 16.5 
Q 14.984375 11.71875 18.140625 8.90625 
Q 21.296875 6.109375 26.703125 6.109375 
Q 34.1875 6.109375 38.703125 11.40625 
Q 43.21875 16.703125 43.21875 25.484375 
L 43.21875 27.484375 
z
M 52.203125 31.203125 
L 52.203125 0 
L 43.21875 0 
L 43.21875 8.296875 
Q 40.140625 3.328125 35.546875 0.953125 
Q 30.953125 -1.421875 24.3125 -1.421875 
Q 15.921875 -1.421875 10.953125 3.296875 
Q 6 8.015625 6 15.921875 
Q 6 25.140625 12.171875 29.828125 
Q 18.359375 34.515625 30.609375 34.515625 
L 43.21875 34.515625 
L 43.21875 35.40625 
Q 43.21875 41.609375 39.140625 45 
Q 35.0625 48.390625 27.6875 48.390625 
Q 23 48.390625 18.546875 47.265625 
Q 14.109375 46.140625 10.015625 43.890625 
L 10.015625 52.203125 
Q 14.9375 54.109375 19.578125 55.046875 
Q 24.21875 56 28.609375 56 
Q 40.484375 56 46.34375 49.84375 
Q 52.203125 43.703125 52.203125 31.203125 
z
" id="DejaVuSans-97"/>
      <path d="M 18.3125 70.21875 
L 18.3125 54.6875 
L 36.8125 54.6875 
L 36.8125 47.703125 
L 18.3125 47.703125 
L 18.3125 18.015625 
Q 18.3125 11.328125 20.140625 9.421875 
Q 21.96875 7.515625 27.59375 7.515625 
L 36.8125 7.515625 
L 36.8125 0 
L 27.59375 0 
Q 17.1875 0 13.234375 3.875 
Q 9.28125 7.765625 9.28125 18.015625 
L 9.28125 47.703125 
L 2.6875 47.703125 
L 2.6875 54.6875 
L 9.28125 54.6875 
L 9.28125 70.21875 
z
" id="DejaVuSans-116"/>
      <path d="M 56.203125 29.59375 
L 56.203125 25.203125 
L 14.890625 25.203125 
Q 15.484375 15.921875 20.484375 11.0625 
Q 25.484375 6.203125 34.421875 6.203125 
Q 39.59375 6.203125 44.453125 7.46875 
Q 49.3125 8.734375 54.109375 11.28125 
L 54.109375 2.78125 
Q 49.265625 0.734375 44.1875 -0.34375 
Q 39.109375 -1.421875 33.890625 -1.421875 
Q 20.796875 -1.421875 13.15625 6.1875 
Q 5.515625 13.8125 5.515625 26.8125 
Q 5.515625 40.234375 12.765625 48.109375 
Q 20.015625 56 32.328125 56 
Q 43.359375 56 49.78125 48.890625 
Q 56.203125 41.796875 56.203125 29.59375 
z
M 47.21875 32.234375 
Q 47.125 39.59375 43.09375 43.984375 
Q 39.0625 48.390625 32.421875 48.390625 
Q 24.90625 48.390625 20.390625 44.140625 
Q 15.875 39.890625 15.1875 32.171875 
z
" id="DejaVuSans-101"/>
      <path d="M -0.296875 72.90625 
L 61.375 72.90625 
L 61.375 64.59375 
L 35.5 64.59375 
L 35.5 0 
L 25.59375 0 
L 25.59375 64.59375 
L -0.296875 64.59375 
z
" id="DejaVuSans-84"/>
      <path d="M 9.421875 54.6875 
L 18.40625 54.6875 
L 18.40625 0 
L 9.421875 0 
z
M 9.421875 75.984375 
L 18.40625 75.984375 
L 18.40625 64.59375 
L 9.421875 64.59375 
z
" id="DejaVuSans-105"/>
      <path d="M 52 44.1875 
Q 55.375 50.25 60.0625 53.125 
Q 64.75 56 71.09375 56 
Q 79.640625 56 84.28125 50.015625 
Q 88.921875 44.046875 88.921875 33.015625 
L 88.921875 0 
L 79.890625 0 
L 79.890625 32.71875 
Q 79.890625 40.578125 77.09375 44.375 
Q 74.3125 48.1875 68.609375 48.1875 
Q 61.625 48.1875 57.5625 43.546875 
Q 53.515625 38.921875 53.515625 30.90625 
L 53.515625 0 
L 44.484375 0 
L 44.484375 32.71875 
Q 44.484375 40.625 41.703125 44.40625 
Q 38.921875 48.1875 33.109375 48.1875 
Q 26.21875 48.1875 22.15625 43.53125 
Q 18.109375 38.875 18.109375 30.90625 
L 18.109375 0 
L 9.078125 0 
L 9.078125 54.6875 
L 18.109375 54.6875 
L 18.109375 46.1875 
Q 21.1875 51.21875 25.484375 53.609375 
Q 29.78125 56 35.6875 56 
Q 41.65625 56 45.828125 52.96875 
Q 50 49.953125 52 44.1875 
z
" id="DejaVuSans-109"/>
     </defs>
     <g transform="translate(418.615625 567.83619)scale(0.1 -0.1)">
      <use xlink:href="#DejaVuSans-68"/>
      <use x="77.001953" xlink:href="#DejaVuSans-97"/>
      <use x="138.28125" xlink:href="#DejaVuSans-116"/>
      <use x="177.490234" xlink:href="#DejaVuSans-101"/>
      <use x="239.013672" xlink:href="#DejaVuSans-84"/>
      <use x="296.972656" xlink:href="#DejaVuSans-105"/>
      <use x="324.755859" xlink:href="#DejaVuSans-109"/>
      <use x="422.167969" xlink:href="#DejaVuSans-101"/>
     </g>
    </g>
   </g>
   <g id="matplotlib.axis_2">
    <g id="ytick_1">
     <g id="line2d_15">
      <path clip-path="url(#pf2ca99593b)" d="M 108 477.722362 
L 777.6 477.722362 
" style="fill:none;stroke:#b0b0b0;stroke-linecap:square;stroke-width:0.8;"/>
     </g>
     <g id="line2d_16">
      <defs>
       <path d="M 0 0 
L -3.5 0 
" id="m28cc3f9ac8" style="stroke:#000000;stroke-width:0.8;"/>
      </defs>
      <g>
       <use style="stroke:#000000;stroke-width:0.8;" x="108" xlink:href="#m28cc3f9ac8" y="477.722362"/>
      </g>
     </g>
     <g id="text_9">
      <!-- −30 -->
      <defs>
       <path d="M 10.59375 35.5 
L 73.1875 35.5 
L 73.1875 27.203125 
L 10.59375 27.203125 
z
" id="DejaVuSans-8722"/>
      </defs>
      <g transform="translate(79.895313 481.521581)scale(0.1 -0.1)">
       <use xlink:href="#DejaVuSans-8722"/>
       <use x="83.789062" xlink:href="#DejaVuSans-51"/>
       <use x="147.412109" xlink:href="#DejaVuSans-48"/>
      </g>
     </g>
    </g>
    <g id="ytick_2">
     <g id="line2d_17">
      <path clip-path="url(#pf2ca99593b)" d="M 108 422.659569 
L 777.6 422.659569 
" style="fill:none;stroke:#b0b0b0;stroke-linecap:square;stroke-width:0.8;"/>
     </g>
     <g id="line2d_18">
      <g>
       <use style="stroke:#000000;stroke-width:0.8;" x="108" xlink:href="#m28cc3f9ac8" y="422.659569"/>
      </g>
     </g>
     <g id="text_10">
      <!-- −20 -->
      <g transform="translate(79.895313 426.458788)scale(0.1 -0.1)">
       <use xlink:href="#DejaVuSans-8722"/>
       <use x="83.789062" xlink:href="#DejaVuSans-50"/>
       <use x="147.412109" xlink:href="#DejaVuSans-48"/>
      </g>
     </g>
    </g>
    <g id="ytick_3">
     <g id="line2d_19">
      <path clip-path="url(#pf2ca99593b)" d="M 108 367.596776 
L 777.6 367.596776 
" style="fill:none;stroke:#b0b0b0;stroke-linecap:square;stroke-width:0.8;"/>
     </g>
     <g id="line2d_20">
      <g>
       <use style="stroke:#000000;stroke-width:0.8;" x="108" xlink:href="#m28cc3f9ac8" y="367.596776"/>
      </g>
     </g>
     <g id="text_11">
      <!-- −10 -->
      <g transform="translate(79.895313 371.395995)scale(0.1 -0.1)">
       <use xlink:href="#DejaVuSans-8722"/>
       <use x="83.789062" xlink:href="#DejaVuSans-49"/>
       <use x="147.412109" xlink:href="#DejaVuSans-48"/>
      </g>
     </g>
    </g>
    <g id="ytick_4">
     <g id="line2d_21">
      <path clip-path="url(#pf2ca99593b)" d="M 108 312.533983 
L 777.6 312.533983 
" style="fill:none;stroke:#b0b0b0;stroke-linecap:square;stroke-width:0.8;"/>
     </g>
     <g id="line2d_22">
      <g>
       <use style="stroke:#000000;stroke-width:0.8;" x="108" xlink:href="#m28cc3f9ac8" y="312.533983"/>
      </g>
     </g>
     <g id="text_12">
      <!-- 0 -->
      <g transform="translate(94.6375 316.333202)scale(0.1 -0.1)">
       <use xlink:href="#DejaVuSans-48"/>
      </g>
     </g>
    </g>
    <g id="ytick_5">
     <g id="line2d_23">
      <path clip-path="url(#pf2ca99593b)" d="M 108 257.47119 
L 777.6 257.47119 
" style="fill:none;stroke:#b0b0b0;stroke-linecap:square;stroke-width:0.8;"/>
     </g>
     <g id="line2d_24">
      <g>
       <use style="stroke:#000000;stroke-width:0.8;" x="108" xlink:href="#m28cc3f9ac8" y="257.47119"/>
      </g>
     </g>
     <g id="text_13">
      <!-- 10 -->
      <g transform="translate(88.275 261.270409)scale(0.1 -0.1)">
       <use xlink:href="#DejaVuSans-49"/>
       <use x="63.623047" xlink:href="#DejaVuSans-48"/>
      </g>
     </g>
    </g>
    <g id="ytick_6">
     <g id="line2d_25">
      <path clip-path="url(#pf2ca99593b)" d="M 108 202.408397 
L 777.6 202.408397 
" style="fill:none;stroke:#b0b0b0;stroke-linecap:square;stroke-width:0.8;"/>
     </g>
     <g id="line2d_26">
      <g>
       <use style="stroke:#000000;stroke-width:0.8;" x="108" xlink:href="#m28cc3f9ac8" y="202.408397"/>
      </g>
     </g>
     <g id="text_14">
      <!-- 20 -->
      <g transform="translate(88.275 206.207616)scale(0.1 -0.1)">
       <use xlink:href="#DejaVuSans-50"/>
       <use x="63.623047" xlink:href="#DejaVuSans-48"/>
      </g>
     </g>
    </g>
    <g id="ytick_7">
     <g id="line2d_27">
      <path clip-path="url(#pf2ca99593b)" d="M 108 147.345604 
L 777.6 147.345604 
" style="fill:none;stroke:#b0b0b0;stroke-linecap:square;stroke-width:0.8;"/>
     </g>
     <g id="line2d_28">
      <g>
       <use style="stroke:#000000;stroke-width:0.8;" x="108" xlink:href="#m28cc3f9ac8" y="147.345604"/>
      </g>
     </g>
     <g id="text_15">
      <!-- 30 -->
      <g transform="translate(88.275 151.144823)scale(0.1 -0.1)">
       <use xlink:href="#DejaVuSans-51"/>
       <use x="63.623047" xlink:href="#DejaVuSans-48"/>
      </g>
     </g>
    </g>
    <g id="ytick_8">
     <g id="line2d_29">
      <path clip-path="url(#pf2ca99593b)" d="M 108 92.282812 
L 777.6 92.282812 
" style="fill:none;stroke:#b0b0b0;stroke-linecap:square;stroke-width:0.8;"/>
     </g>
     <g id="line2d_30">
      <g>
       <use style="stroke:#000000;stroke-width:0.8;" x="108" xlink:href="#m28cc3f9ac8" y="92.282812"/>
      </g>
     </g>
     <g id="text_16">
      <!-- 40 -->
      <g transform="translate(88.275 96.08203)scale(0.1 -0.1)">
       <use xlink:href="#DejaVuSans-52"/>
       <use x="63.623047" xlink:href="#DejaVuSans-48"/>
      </g>
     </g>
    </g>
    <g id="text_17">
     <!-- Mag (uT) -->
     <defs>
      <path d="M 9.8125 72.90625 
L 24.515625 72.90625 
L 43.109375 23.296875 
L 61.8125 72.90625 
L 76.515625 72.90625 
L 76.515625 0 
L 66.890625 0 
L 66.890625 64.015625 
L 48.09375 14.015625 
L 38.1875 14.015625 
L 19.390625 64.015625 
L 19.390625 0 
L 9.8125 0 
z
" id="DejaVuSans-77"/>
      <path d="M 45.40625 27.984375 
Q 45.40625 37.75 41.375 43.109375 
Q 37.359375 48.484375 30.078125 48.484375 
Q 22.859375 48.484375 18.828125 43.109375 
Q 14.796875 37.75 14.796875 27.984375 
Q 14.796875 18.265625 18.828125 12.890625 
Q 22.859375 7.515625 30.078125 7.515625 
Q 37.359375 7.515625 41.375 12.890625 
Q 45.40625 18.265625 45.40625 27.984375 
z
M 54.390625 6.78125 
Q 54.390625 -7.171875 48.1875 -13.984375 
Q 42 -20.796875 29.203125 -20.796875 
Q 24.46875 -20.796875 20.265625 -20.09375 
Q 16.0625 -19.390625 12.109375 -17.921875 
L 12.109375 -9.1875 
Q 16.0625 -11.328125 19.921875 -12.34375 
Q 23.78125 -13.375 27.78125 -13.375 
Q 36.625 -13.375 41.015625 -8.765625 
Q 45.40625 -4.15625 45.40625 5.171875 
L 45.40625 9.625 
Q 42.625 4.78125 38.28125 2.390625 
Q 33.9375 0 27.875 0 
Q 17.828125 0 11.671875 7.65625 
Q 5.515625 15.328125 5.515625 27.984375 
Q 5.515625 40.671875 11.671875 48.328125 
Q 17.828125 56 27.875 56 
Q 33.9375 56 38.28125 53.609375 
Q 42.625 51.21875 45.40625 46.390625 
L 45.40625 54.6875 
L 54.390625 54.6875 
z
" id="DejaVuSans-103"/>
      <path id="DejaVuSans-32"/>
      <path d="M 31 75.875 
Q 24.46875 64.65625 21.28125 53.65625 
Q 18.109375 42.671875 18.109375 31.390625 
Q 18.109375 20.125 21.3125 9.0625 
Q 24.515625 -2 31 -13.1875 
L 23.1875 -13.1875 
Q 15.875 -1.703125 12.234375 9.375 
Q 8.59375 20.453125 8.59375 31.390625 
Q 8.59375 42.28125 12.203125 53.3125 
Q 15.828125 64.359375 23.1875 75.875 
z
" id="DejaVuSans-40"/>
      <path d="M 8.5 21.578125 
L 8.5 54.6875 
L 17.484375 54.6875 
L 17.484375 21.921875 
Q 17.484375 14.15625 20.5 10.265625 
Q 23.53125 6.390625 29.59375 6.390625 
Q 36.859375 6.390625 41.078125 11.03125 
Q 45.3125 15.671875 45.3125 23.6875 
L 45.3125 54.6875 
L 54.296875 54.6875 
L 54.296875 0 
L 45.3125 0 
L 45.3125 8.40625 
Q 42.046875 3.421875 37.71875 1 
Q 33.40625 -1.421875 27.6875 -1.421875 
Q 18.265625 -1.421875 13.375 4.4375 
Q 8.5 10.296875 8.5 21.578125 
z
M 31.109375 56 
z
" id="DejaVuSans-117"/>
      <path d="M 8.015625 75.875 
L 15.828125 75.875 
Q 23.140625 64.359375 26.78125 53.3125 
Q 30.421875 42.28125 30.421875 31.390625 
Q 30.421875 20.453125 26.78125 9.375 
Q 23.140625 -1.703125 15.828125 -13.1875 
L 8.015625 -13.1875 
Q 14.5 -2 17.703125 9.0625 
Q 20.90625 20.125 20.90625 31.390625 
Q 20.90625 42.671875 17.703125 53.65625 
Q 14.5 64.65625 8.015625 75.875 
z
" id="DejaVuSans-41"/>
     </defs>
     <g transform="translate(73.815625 320.345625)rotate(-90)scale(0.1 -0.1)">
      <use xlink:href="#DejaVuSans-77"/>
      <use x="86.279297" xlink:href="#DejaVuSans-97"/>
      <use x="147.558594" xlink:href="#DejaVuSans-103"/>
      <use x="211.035156" xlink:href="#DejaVuSans-32"/>
      <use x="242.822266" xlink:href="#DejaVuSans-40"/>
      <use x="281.835938" xlink:href="#DejaVuSans-117"/>
      <use x="345.214844" xlink:href="#DejaVuSans-84"/>
      <use x="406.298828" xlink:href="#DejaVuSans-41"/>
     </g>
    </g>
   </g>
   <g id="line2d_31">
    <path clip-path="url(#pf2ca99593b)" d="M 138.436523 345.571659 
L 158.072754 338.138182 
L 158.072754 341.441949 
L 177.709229 335.660356 
L 197.345459 336.486298 
L 216.981934 335.660356 
L 236.618164 341.441949 
L 256.254639 336.486298 
L 275.890869 472.76671 
L 275.890869 339.790066 
L 295.527344 353.005136 
L 315.163574 343.093833 
L 334.800049 342.267891 
L 354.436523 319.96746 
L 354.436523 331.530647 
L 374.072754 334.834414 
L 393.709229 341.441949 
L 413.345459 183.687048 
L 432.981934 324.09717 
L 432.981934 318.315576 
L 452.618164 360.438613 
L 472.254639 356.308903 
L 491.890869 305.100506 
L 511.527344 299.318913 
L 511.527344 303.448622 
L 531.163574 293.53732 
L 550.800049 297.667029 
L 570.436279 299.318913 
L 590.072754 303.448622 
L 609.709229 302.62268 
L 629.345459 300.970797 
L 629.345459 293.53732 
L 648.981934 299.318913 
L 668.618164 305.100506 
L 688.254639 300.970797 
L 707.890869 296.841087 
L 727.527344 286.103843 
L 727.527344 300.144855 
L 747.163574 304.274564 
" style="fill:none;stroke:#1f77b4;stroke-linecap:square;stroke-width:1.5;"/>
    <defs>
     <path d="M 0 2.5 
C 0.663008 2.5 1.29895 2.236584 1.767767 1.767767 
C 2.236584 1.29895 2.5 0.663008 2.5 0 
C 2.5 -0.663008 2.236584 -1.29895 1.767767 -1.767767 
C 1.29895 -2.236584 0.663008 -2.5 0 -2.5 
C -0.663008 -2.5 -1.29895 -2.236584 -1.767767 -1.767767 
C -2.236584 -1.29895 -2.5 -0.663008 -2.5 0 
C -2.5 0.663008 -2.236584 1.29895 -1.767767 1.767767 
C -1.29895 2.236584 -0.663008 2.5 0 2.5 
z
" id="mfa7197823a" style="stroke:#1f77b4;"/>
    </defs>
    <g clip-path="url(#pf2ca99593b)">
     <use style="fill:#1f77b4;stroke:#1f77b4;" x="138.436523" xlink:href="#mfa7197823a" y="345.571659"/>
     <use style="fill:#1f77b4;stroke:#1f77b4;" x="158.072754" xlink:href="#mfa7197823a" y="338.138182"/>
     <use style="fill:#1f77b4;stroke:#1f77b4;" x="158.072754" xlink:href="#mfa7197823a" y="341.441949"/>
     <use style="fill:#1f77b4;stroke:#1f77b4;" x="177.709229" xlink:href="#mfa7197823a" y="335.660356"/>
     <use style="fill:#1f77b4;stroke:#1f77b4;" x="197.345459" xlink:href="#mfa7197823a" y="336.486298"/>
     <use style="fill:#1f77b4;stroke:#1f77b4;" x="216.981934" xlink:href="#mfa7197823a" y="335.660356"/>
     <use style="fill:#1f77b4;stroke:#1f77b4;" x="236.618164" xlink:href="#mfa7197823a" y="341.441949"/>
     <use style="fill:#1f77b4;stroke:#1f77b4;" x="256.254639" xlink:href="#mfa7197823a" y="336.486298"/>
     <use style="fill:#1f77b4;stroke:#1f77b4;" x="275.890869" xlink:href="#mfa7197823a" y="472.76671"/>
     <use style="fill:#1f77b4;stroke:#1f77b4;" x="275.890869" xlink:href="#mfa7197823a" y="339.790066"/>
     <use style="fill:#1f77b4;stroke:#1f77b4;" x="295.527344" xlink:href="#mfa7197823a" y="353.005136"/>
     <use style="fill:#1f77b4;stroke:#1f77b4;" x="315.163574" xlink:href="#mfa7197823a" y="343.093833"/>
     <use style="fill:#1f77b4;stroke:#1f77b4;" x="334.800049" xlink:href="#mfa7197823a" y="342.267891"/>
     <use style="fill:#1f77b4;stroke:#1f77b4;" x="354.436523" xlink:href="#mfa7197823a" y="319.96746"/>
     <use style="fill:#1f77b4;stroke:#1f77b4;" x="354.436523" xlink:href="#mfa7197823a" y="331.530647"/>
     <use style="fill:#1f77b4;stroke:#1f77b4;" x="374.072754" xlink:href="#mfa7197823a" y="334.834414"/>
     <use style="fill:#1f77b4;stroke:#1f77b4;" x="393.709229" xlink:href="#mfa7197823a" y="341.441949"/>
     <use style="fill:#1f77b4;stroke:#1f77b4;" x="413.345459" xlink:href="#mfa7197823a" y="183.687048"/>
     <use style="fill:#1f77b4;stroke:#1f77b4;" x="432.981934" xlink:href="#mfa7197823a" y="324.09717"/>
     <use style="fill:#1f77b4;stroke:#1f77b4;" x="432.981934" xlink:href="#mfa7197823a" y="318.315576"/>
     <use style="fill:#1f77b4;stroke:#1f77b4;" x="452.618164" xlink:href="#mfa7197823a" y="360.438613"/>
     <use style="fill:#1f77b4;stroke:#1f77b4;" x="472.254639" xlink:href="#mfa7197823a" y="356.308903"/>
     <use style="fill:#1f77b4;stroke:#1f77b4;" x="491.890869" xlink:href="#mfa7197823a" y="305.100506"/>
     <use style="fill:#1f77b4;stroke:#1f77b4;" x="511.527344" xlink:href="#mfa7197823a" y="299.318913"/>
     <use style="fill:#1f77b4;stroke:#1f77b4;" x="511.527344" xlink:href="#mfa7197823a" y="303.448622"/>
     <use style="fill:#1f77b4;stroke:#1f77b4;" x="531.163574" xlink:href="#mfa7197823a" y="293.53732"/>
     <use style="fill:#1f77b4;stroke:#1f77b4;" x="550.800049" xlink:href="#mfa7197823a" y="297.667029"/>
     <use style="fill:#1f77b4;stroke:#1f77b4;" x="570.436279" xlink:href="#mfa7197823a" y="299.318913"/>
     <use style="fill:#1f77b4;stroke:#1f77b4;" x="590.072754" xlink:href="#mfa7197823a" y="303.448622"/>
     <use style="fill:#1f77b4;stroke:#1f77b4;" x="609.709229" xlink:href="#mfa7197823a" y="302.62268"/>
     <use style="fill:#1f77b4;stroke:#1f77b4;" x="629.345459" xlink:href="#mfa7197823a" y="300.970797"/>
     <use style="fill:#1f77b4;stroke:#1f77b4;" x="629.345459" xlink:href="#mfa7197823a" y="293.53732"/>
     <use style="fill:#1f77b4;stroke:#1f77b4;" x="648.981934" xlink:href="#mfa7197823a" y="299.318913"/>
     <use style="fill:#1f77b4;stroke:#1f77b4;" x="668.618164" xlink:href="#mfa7197823a" y="305.100506"/>
     <use style="fill:#1f77b4;stroke:#1f77b4;" x="688.254639" xlink:href="#mfa7197823a" y="300.970797"/>
     <use style="fill:#1f77b4;stroke:#1f77b4;" x="707.890869" xlink:href="#mfa7197823a" y="296.841087"/>
     <use style="fill:#1f77b4;stroke:#1f77b4;" x="727.527344" xlink:href="#mfa7197823a" y="286.103843"/>
     <use style="fill:#1f77b4;stroke:#1f77b4;" x="727.527344" xlink:href="#mfa7197823a" y="300.144855"/>
     <use style="fill:#1f77b4;stroke:#1f77b4;" x="747.163574" xlink:href="#mfa7197823a" y="304.274564"/>
    </g>
   </g>
   <g id="line2d_32">
    <path clip-path="url(#pf2ca99593b)" d="M 138.436523 311.708041 
L 158.072754 316.663693 
L 158.072754 315.837751 
L 177.709229 314.185867 
L 197.345459 307.578332 
L 216.981934 314.185867 
L 236.618164 315.837751 
L 256.254639 313.359925 
L 275.890869 352.179194 
L 275.890869 310.882099 
L 295.527344 498.370909 
L 315.163574 281.148191 
L 334.800049 97.789091 
L 354.436523 273.714714 
L 354.436523 323.271228 
L 374.072754 315.837751 
L 393.709229 319.96746 
L 413.345459 317.489634 
L 432.981934 317.489634 
L 432.981934 323.271228 
L 452.618164 319.96746 
L 472.254639 302.62268 
L 491.890869 317.489634 
L 511.527344 319.96746 
L 511.527344 317.489634 
L 531.163574 316.663693 
L 550.800049 312.533983 
L 570.436279 313.359925 
L 590.072754 319.96746 
L 609.709229 312.533983 
L 629.345459 313.359925 
L 629.345459 316.663693 
L 648.981934 315.837751 
L 668.618164 317.489634 
L 688.254639 311.708041 
L 707.890869 315.837751 
L 727.527344 315.837751 
L 727.527344 312.533983 
L 747.163574 312.533983 
" style="fill:none;stroke:#ff7f0e;stroke-linecap:square;stroke-width:1.5;"/>
    <defs>
     <path d="M 0 2.5 
C 0.663008 2.5 1.29895 2.236584 1.767767 1.767767 
C 2.236584 1.29895 2.5 0.663008 2.5 0 
C 2.5 -0.663008 2.236584 -1.29895 1.767767 -1.767767 
C 1.29895 -2.236584 0.663008 -2.5 0 -2.5 
C -0.663008 -2.5 -1.29895 -2.236584 -1.767767 -1.767767 
C -2.236584 -1.29895 -2.5 -0.663008 -2.5 0 
C -2.5 0.663008 -2.236584 1.29895 -1.767767 1.767767 
C -1.29895 2.236584 -0.663008 2.5 0 2.5 
z
" id="m3d2a153e4c" style="stroke:#ff7f0e;"/>
    </defs>
    <g clip-path="url(#pf2ca99593b)">
     <use style="fill:#ff7f0e;stroke:#ff7f0e;" x="138.436523" xlink:href="#m3d2a153e4c" y="311.708041"/>
     <use style="fill:#ff7f0e;stroke:#ff7f0e;" x="158.072754" xlink:href="#m3d2a153e4c" y="316.663693"/>
     <use style="fill:#ff7f0e;stroke:#ff7f0e;" x="158.072754" xlink:href="#m3d2a153e4c" y="315.837751"/>
     <use style="fill:#ff7f0e;stroke:#ff7f0e;" x="177.709229" xlink:href="#m3d2a153e4c" y="314.185867"/>
     <use style="fill:#ff7f0e;stroke:#ff7f0e;" x="197.345459" xlink:href="#m3d2a153e4c" y="307.578332"/>
     <use style="fill:#ff7f0e;stroke:#ff7f0e;" x="216.981934" xlink:href="#m3d2a153e4c" y="314.185867"/>
     <use style="fill:#ff7f0e;stroke:#ff7f0e;" x="236.618164" xlink:href="#m3d2a153e4c" y="315.837751"/>
     <use style="fill:#ff7f0e;stroke:#ff7f0e;" x="256.254639" xlink:href="#m3d2a153e4c" y="313.359925"/>
     <use style="fill:#ff7f0e;stroke:#ff7f0e;" x="275.890869" xlink:href="#m3d2a153e4c" y="352.179194"/>
     <use style="fill:#ff7f0e;stroke:#ff7f0e;" x="275.890869" xlink:href="#m3d2a153e4c" y="310.882099"/>
     <use style="fill:#ff7f0e;stroke:#ff7f0e;" x="295.527344" xlink:href="#m3d2a153e4c" y="498.370909"/>
     <use style="fill:#ff7f0e;stroke:#ff7f0e;" x="315.163574" xlink:href="#m3d2a153e4c" y="281.148191"/>
     <use style="fill:#ff7f0e;stroke:#ff7f0e;" x="334.800049" xlink:href="#m3d2a153e4c" y="97.789091"/>
     <use style="fill:#ff7f0e;stroke:#ff7f0e;" x="354.436523" xlink:href="#m3d2a153e4c" y="273.714714"/>
     <use style="fill:#ff7f0e;stroke:#ff7f0e;" x="354.436523" xlink:href="#m3d2a153e4c" y="323.271228"/>
     <use style="fill:#ff7f0e;stroke:#ff7f0e;" x="374.072754" xlink:href="#m3d2a153e4c" y="315.837751"/>
     <use style="fill:#ff7f0e;stroke:#ff7f0e;" x="393.709229" xlink:href="#m3d2a153e4c" y="319.96746"/>
     <use style="fill:#ff7f0e;stroke:#ff7f0e;" x="413.345459" xlink:href="#m3d2a153e4c" y="317.489634"/>
     <use style="fill:#ff7f0e;stroke:#ff7f0e;" x="432.981934" xlink:href="#m3d2a153e4c" y="317.489634"/>
     <use style="fill:#ff7f0e;stroke:#ff7f0e;" x="432.981934" xlink:href="#m3d2a153e4c" y="323.271228"/>
     <use style="fill:#ff7f0e;stroke:#ff7f0e;" x="452.618164" xlink:href="#m3d2a153e4c" y="319.96746"/>
     <use style="fill:#ff7f0e;stroke:#ff7f0e;" x="472.254639" xlink:href="#m3d2a153e4c" y="302.62268"/>
     <use style="fill:#ff7f0e;stroke:#ff7f0e;" x="491.890869" xlink:href="#m3d2a153e4c" y="317.489634"/>
     <use style="fill:#ff7f0e;stroke:#ff7f0e;" x="511.527344" xlink:href="#m3d2a153e4c" y="319.96746"/>
     <use style="fill:#ff7f0e;stroke:#ff7f0e;" x="511.527344" xlink:href="#m3d2a153e4c" y="317.489634"/>
     <use style="fill:#ff7f0e;stroke:#ff7f0e;" x="531.163574" xlink:href="#m3d2a153e4c" y="316.663693"/>
     <use style="fill:#ff7f0e;stroke:#ff7f0e;" x="550.800049" xlink:href="#m3d2a153e4c" y="312.533983"/>
     <use style="fill:#ff7f0e;stroke:#ff7f0e;" x="570.436279" xlink:href="#m3d2a153e4c" y="313.359925"/>
     <use style="fill:#ff7f0e;stroke:#ff7f0e;" x="590.072754" xlink:href="#m3d2a153e4c" y="319.96746"/>
     <use style="fill:#ff7f0e;stroke:#ff7f0e;" x="609.709229" xlink:href="#m3d2a153e4c" y="312.533983"/>
     <use style="fill:#ff7f0e;stroke:#ff7f0e;" x="629.345459" xlink:href="#m3d2a153e4c" y="313.359925"/>
     <use style="fill:#ff7f0e;stroke:#ff7f0e;" x="629.345459" xlink:href="#m3d2a153e4c" y="316.663693"/>
     <use style="fill:#ff7f0e;stroke:#ff7f0e;" x="648.981934" xlink:href="#m3d2a153e4c" y="315.837751"/>
     <use style="fill:#ff7f0e;stroke:#ff7f0e;" x="668.618164" xlink:href="#m3d2a153e4c" y="317.489634"/>
     <use style="fill:#ff7f0e;stroke:#ff7f0e;" x="688.254639" xlink:href="#m3d2a153e4c" y="311.708041"/>
     <use style="fill:#ff7f0e;stroke:#ff7f0e;" x="707.890869" xlink:href="#m3d2a153e4c" y="315.837751"/>
     <use style="fill:#ff7f0e;stroke:#ff7f0e;" x="727.527344" xlink:href="#m3d2a153e4c" y="315.837751"/>
     <use style="fill:#ff7f0e;stroke:#ff7f0e;" x="727.527344" xlink:href="#m3d2a153e4c" y="312.533983"/>
     <use style="fill:#ff7f0e;stroke:#ff7f0e;" x="747.163574" xlink:href="#m3d2a153e4c" y="312.533983"/>
    </g>
   </g>
   <g id="line2d_33">
    <path clip-path="url(#pf2ca99593b)" d="M 138.436523 219.202549 
L 158.072754 220.028491 
L 158.072754 219.202549 
L 177.709229 215.898782 
L 197.345459 210.94313 
L 216.981934 215.898782 
L 236.618164 219.202549 
L 256.254639 217.550665 
L 275.890869 279.496307 
L 275.890869 222.506317 
L 295.527344 432.295558 
L 315.163574 213.420956 
L 334.800049 233.243561 
L 354.436523 200.205886 
L 354.436523 218.376607 
L 374.072754 221.680375 
L 393.709229 219.202549 
L 413.345459 263.803411 
L 432.981934 213.420956 
L 432.981934 218.376607 
L 452.618164 221.680375 
L 472.254639 234.069503 
L 491.890869 227.461968 
L 511.527344 225.810084 
L 511.527344 219.202549 
L 531.163574 222.506317 
L 550.800049 226.636026 
L 570.436279 225.810084 
L 590.072754 223.332259 
L 609.709229 230.765736 
L 629.345459 229.939794 
L 629.345459 222.506317 
L 648.981934 223.332259 
L 668.618164 227.461968 
L 688.254639 227.461968 
L 707.890869 225.810084 
L 727.527344 221.680375 
L 727.527344 222.506317 
L 747.163574 230.765736 
" style="fill:none;stroke:#2ca02c;stroke-linecap:square;stroke-width:1.5;"/>
    <defs>
     <path d="M 0 2.5 
C 0.663008 2.5 1.29895 2.236584 1.767767 1.767767 
C 2.236584 1.29895 2.5 0.663008 2.5 0 
C 2.5 -0.663008 2.236584 -1.29895 1.767767 -1.767767 
C 1.29895 -2.236584 0.663008 -2.5 0 -2.5 
C -0.663008 -2.5 -1.29895 -2.236584 -1.767767 -1.767767 
C -2.236584 -1.29895 -2.5 -0.663008 -2.5 0 
C -2.5 0.663008 -2.236584 1.29895 -1.767767 1.767767 
C -1.29895 2.236584 -0.663008 2.5 0 2.5 
z
" id="mfc490890ca" style="stroke:#2ca02c;"/>
    </defs>
    <g clip-path="url(#pf2ca99593b)">
     <use style="fill:#2ca02c;stroke:#2ca02c;" x="138.436523" xlink:href="#mfc490890ca" y="219.202549"/>
     <use style="fill:#2ca02c;stroke:#2ca02c;" x="158.072754" xlink:href="#mfc490890ca" y="220.028491"/>
     <use style="fill:#2ca02c;stroke:#2ca02c;" x="158.072754" xlink:href="#mfc490890ca" y="219.202549"/>
     <use style="fill:#2ca02c;stroke:#2ca02c;" x="177.709229" xlink:href="#mfc490890ca" y="215.898782"/>
     <use style="fill:#2ca02c;stroke:#2ca02c;" x="197.345459" xlink:href="#mfc490890ca" y="210.94313"/>
     <use style="fill:#2ca02c;stroke:#2ca02c;" x="216.981934" xlink:href="#mfc490890ca" y="215.898782"/>
     <use style="fill:#2ca02c;stroke:#2ca02c;" x="236.618164" xlink:href="#mfc490890ca" y="219.202549"/>
     <use style="fill:#2ca02c;stroke:#2ca02c;" x="256.254639" xlink:href="#mfc490890ca" y="217.550665"/>
     <use style="fill:#2ca02c;stroke:#2ca02c;" x="275.890869" xlink:href="#mfc490890ca" y="279.496307"/>
     <use style="fill:#2ca02c;stroke:#2ca02c;" x="275.890869" xlink:href="#mfc490890ca" y="222.506317"/>
     <use style="fill:#2ca02c;stroke:#2ca02c;" x="295.527344" xlink:href="#mfc490890ca" y="432.295558"/>
     <use style="fill:#2ca02c;stroke:#2ca02c;" x="315.163574" xlink:href="#mfc490890ca" y="213.420956"/>
     <use style="fill:#2ca02c;stroke:#2ca02c;" x="334.800049" xlink:href="#mfc490890ca" y="233.243561"/>
     <use style="fill:#2ca02c;stroke:#2ca02c;" x="354.436523" xlink:href="#mfc490890ca" y="200.205886"/>
     <use style="fill:#2ca02c;stroke:#2ca02c;" x="354.436523" xlink:href="#mfc490890ca" y="218.376607"/>
     <use style="fill:#2ca02c;stroke:#2ca02c;" x="374.072754" xlink:href="#mfc490890ca" y="221.680375"/>
     <use style="fill:#2ca02c;stroke:#2ca02c;" x="393.709229" xlink:href="#mfc490890ca" y="219.202549"/>
     <use style="fill:#2ca02c;stroke:#2ca02c;" x="413.345459" xlink:href="#mfc490890ca" y="263.803411"/>
     <use style="fill:#2ca02c;stroke:#2ca02c;" x="432.981934" xlink:href="#mfc490890ca" y="213.420956"/>
     <use style="fill:#2ca02c;stroke:#2ca02c;" x="432.981934" xlink:href="#mfc490890ca" y="218.376607"/>
     <use style="fill:#2ca02c;stroke:#2ca02c;" x="452.618164" xlink:href="#mfc490890ca" y="221.680375"/>
     <use style="fill:#2ca02c;stroke:#2ca02c;" x="472.254639" xlink:href="#mfc490890ca" y="234.069503"/>
     <use style="fill:#2ca02c;stroke:#2ca02c;" x="491.890869" xlink:href="#mfc490890ca" y="227.461968"/>
     <use style="fill:#2ca02c;stroke:#2ca02c;" x="511.527344" xlink:href="#mfc490890ca" y="225.810084"/>
     <use style="fill:#2ca02c;stroke:#2ca02c;" x="511.527344" xlink:href="#mfc490890ca" y="219.202549"/>
     <use style="fill:#2ca02c;stroke:#2ca02c;" x="531.163574" xlink:href="#mfc490890ca" y="222.506317"/>
     <use style="fill:#2ca02c;stroke:#2ca02c;" x="550.800049" xlink:href="#mfc490890ca" y="226.636026"/>
     <use style="fill:#2ca02c;stroke:#2ca02c;" x="570.436279" xlink:href="#mfc490890ca" y="225.810084"/>
     <use style="fill:#2ca02c;stroke:#2ca02c;" x="590.072754" xlink:href="#mfc490890ca" y="223.332259"/>
     <use style="fill:#2ca02c;stroke:#2ca02c;" x="609.709229" xlink:href="#mfc490890ca" y="230.765736"/>
     <use style="fill:#2ca02c;stroke:#2ca02c;" x="629.345459" xlink:href="#mfc490890ca" y="229.939794"/>
     <use style="fill:#2ca02c;stroke:#2ca02c;" x="629.345459" xlink:href="#mfc490890ca" y="222.506317"/>
     <use style="fill:#2ca02c;stroke:#2ca02c;" x="648.981934" xlink:href="#mfc490890ca" y="223.332259"/>
     <use style="fill:#2ca02c;stroke:#2ca02c;" x="668.618164" xlink:href="#mfc490890ca" y="227.461968"/>
     <use style="fill:#2ca02c;stroke:#2ca02c;" x="688.254639" xlink:href="#mfc490890ca" y="227.461968"/>
     <use style="fill:#2ca02c;stroke:#2ca02c;" x="707.890869" xlink:href="#mfc490890ca" y="225.810084"/>
     <use style="fill:#2ca02c;stroke:#2ca02c;" x="727.527344" xlink:href="#mfc490890ca" y="221.680375"/>
     <use style="fill:#2ca02c;stroke:#2ca02c;" x="727.527344" xlink:href="#mfc490890ca" y="222.506317"/>
     <use style="fill:#2ca02c;stroke:#2ca02c;" x="747.163574" xlink:href="#mfc490890ca" y="230.765736"/>
    </g>
   </g>
   <g id="patch_3">
    <path d="M 108 518.4 
L 108 77.76 
" style="fill:none;stroke:#000000;stroke-linecap:square;stroke-linejoin:miter;stroke-width:0.8;"/>
   </g>
   <g id="patch_4">
    <path d="M 777.6 518.4 
L 777.6 77.76 
" style="fill:none;stroke:#000000;stroke-linecap:square;stroke-linejoin:miter;stroke-width:0.8;"/>
   </g>
   <g id="patch_5">
    <path d="M 108 518.4 
L 777.600098 518.4 
" style="fill:none;stroke:#000000;stroke-linecap:square;stroke-linejoin:miter;stroke-width:0.8;"/>
   </g>
   <g id="patch_6">
    <path d="M 108 77.76 
L 777.600098 77.76 
" style="fill:none;stroke:#000000;stroke-linecap:square;stroke-linejoin:miter;stroke-width:0.8;"/>
   </g>
   <g id="text_18">
    <!-- IMU Mag (uT) -->
    <defs>
     <path d="M 9.8125 72.90625 
L 19.671875 72.90625 
L 19.671875 0 
L 9.8125 0 
z
" id="DejaVuSans-73"/>
     <path d="M 8.6875 72.90625 
L 18.609375 72.90625 
L 18.609375 28.609375 
Q 18.609375 16.890625 22.84375 11.734375 
Q 27.09375 6.59375 36.625 6.59375 
Q 46.09375 6.59375 50.34375 11.734375 
Q 54.59375 16.890625 54.59375 28.609375 
L 54.59375 72.90625 
L 64.5 72.90625 
L 64.5 27.390625 
Q 64.5 13.140625 57.4375 5.859375 
Q 50.390625 -1.421875 36.625 -1.421875 
Q 22.796875 -1.421875 15.734375 5.859375 
Q 8.6875 13.140625 8.6875 27.390625 
z
" id="DejaVuSans-85"/>
    </defs>
    <g transform="translate(402.83625 71.76)scale(0.12 -0.12)">
     <use xlink:href="#DejaVuSans-73"/>
     <use x="29.492188" xlink:href="#DejaVuSans-77"/>
     <use x="115.771484" xlink:href="#DejaVuSans-85"/>
     <use x="188.964844" xlink:href="#DejaVuSans-32"/>
     <use x="220.751953" xlink:href="#DejaVuSans-77"/>
     <use x="307.03125" xlink:href="#DejaVuSans-97"/>
     <use x="368.310547" xlink:href="#DejaVuSans-103"/>
     <use x="431.787109" xlink:href="#DejaVuSans-32"/>
     <use x="463.574219" xlink:href="#DejaVuSans-40"/>
     <use x="502.587891" xlink:href="#DejaVuSans-117"/>
     <use x="565.966797" xlink:href="#DejaVuSans-84"/>
     <use x="627.050781" xlink:href="#DejaVuSans-41"/>
    </g>
   </g>
   <g id="legend_1">
    <g id="patch_7">
     <path d="M 680.396875 130.62875 
L 770.6 130.62875 
Q 772.6 130.62875 772.6 128.62875 
L 772.6 84.76 
Q 772.6 82.76 770.6 82.76 
L 680.396875 82.76 
Q 678.396875 82.76 678.396875 84.76 
L 678.396875 128.62875 
Q 678.396875 130.62875 680.396875 130.62875 
z
" style="fill:#ffffff;opacity:0.8;stroke:#cccccc;stroke-linejoin:miter;"/>
    </g>
    <g id="line2d_34">
     <path d="M 682.396875 90.858437 
L 702.396875 90.858437 
" style="fill:none;stroke:#1f77b4;stroke-linecap:square;stroke-width:1.5;"/>
    </g>
    <g id="line2d_35">
     <g>
      <use style="fill:#1f77b4;stroke:#1f77b4;" x="692.396875" xlink:href="#mfa7197823a" y="90.858437"/>
     </g>
    </g>
    <g id="text_19">
     <!-- Mag_X_(uT) -->
     <defs>
      <path d="M 50.984375 -16.609375 
L 50.984375 -23.578125 
L -0.984375 -23.578125 
L -0.984375 -16.609375 
z
" id="DejaVuSans-95"/>
      <path d="M 6.296875 72.90625 
L 16.890625 72.90625 
L 35.015625 45.796875 
L 53.21875 72.90625 
L 63.8125 72.90625 
L 40.375 37.890625 
L 65.375 0 
L 54.78125 0 
L 34.28125 31 
L 13.625 0 
L 2.984375 0 
L 29 38.921875 
z
" id="DejaVuSans-88"/>
     </defs>
     <g transform="translate(710.396875 94.358437)scale(0.1 -0.1)">
      <use xlink:href="#DejaVuSans-77"/>
      <use x="86.279297" xlink:href="#DejaVuSans-97"/>
      <use x="147.558594" xlink:href="#DejaVuSans-103"/>
      <use x="211.035156" xlink:href="#DejaVuSans-95"/>
      <use x="261.035156" xlink:href="#DejaVuSans-88"/>
      <use x="329.541016" xlink:href="#DejaVuSans-95"/>
      <use x="379.541016" xlink:href="#DejaVuSans-40"/>
      <use x="418.554688" xlink:href="#DejaVuSans-117"/>
      <use x="481.933594" xlink:href="#DejaVuSans-84"/>
      <use x="543.017578" xlink:href="#DejaVuSans-41"/>
     </g>
    </g>
    <g id="line2d_36">
     <path d="M 682.396875 105.814687 
L 702.396875 105.814687 
" style="fill:none;stroke:#ff7f0e;stroke-linecap:square;stroke-width:1.5;"/>
    </g>
    <g id="line2d_37">
     <g>
      <use style="fill:#ff7f0e;stroke:#ff7f0e;" x="692.396875" xlink:href="#m3d2a153e4c" y="105.814687"/>
     </g>
    </g>
    <g id="text_20">
     <!-- Mag_Y_(uT) -->
     <defs>
      <path d="M -0.203125 72.90625 
L 10.40625 72.90625 
L 30.609375 42.921875 
L 50.6875 72.90625 
L 61.28125 72.90625 
L 35.5 34.71875 
L 35.5 0 
L 25.59375 0 
L 25.59375 34.71875 
z
" id="DejaVuSans-89"/>
     </defs>
     <g transform="translate(710.396875 109.314687)scale(0.1 -0.1)">
      <use xlink:href="#DejaVuSans-77"/>
      <use x="86.279297" xlink:href="#DejaVuSans-97"/>
      <use x="147.558594" xlink:href="#DejaVuSans-103"/>
      <use x="211.035156" xlink:href="#DejaVuSans-95"/>
      <use x="261.035156" xlink:href="#DejaVuSans-89"/>
      <use x="322.119141" xlink:href="#DejaVuSans-95"/>
      <use x="372.119141" xlink:href="#DejaVuSans-40"/>
      <use x="411.132812" xlink:href="#DejaVuSans-117"/>
      <use x="474.511719" xlink:href="#DejaVuSans-84"/>
      <use x="535.595703" xlink:href="#DejaVuSans-41"/>
     </g>
    </g>
    <g id="line2d_38">
     <path d="M 682.396875 120.770937 
L 702.396875 120.770937 
" style="fill:none;stroke:#2ca02c;stroke-linecap:square;stroke-width:1.5;"/>
    </g>
    <g id="line2d_39">
     <g>
      <use style="fill:#2ca02c;stroke:#2ca02c;" x="692.396875" xlink:href="#mfc490890ca" y="120.770937"/>
     </g>
    </g>
    <g id="text_21">
     <!-- Mag_Z_(uT) -->
     <defs>
      <path d="M 5.609375 72.90625 
L 62.890625 72.90625 
L 62.890625 65.375 
L 16.796875 8.296875 
L 64.015625 8.296875 
L 64.015625 0 
L 4.5 0 
L 4.5 7.515625 
L 50.59375 64.59375 
L 5.609375 64.59375 
z
" id="DejaVuSans-90"/>
     </defs>
     <g transform="translate(710.396875 124.270937)scale(0.1 -0.1)">
      <use xlink:href="#DejaVuSans-77"/>
      <use x="86.279297" xlink:href="#DejaVuSans-97"/>
      <use x="147.558594" xlink:href="#DejaVuSans-103"/>
      <use x="211.035156" xlink:href="#DejaVuSans-95"/>
      <use x="261.035156" xlink:href="#DejaVuSans-90"/>
      <use x="329.541016" xlink:href="#DejaVuSans-95"/>
      <use x="379.541016" xlink:href="#DejaVuSans-40"/>
      <use x="418.554688" xlink:href="#DejaVuSans-117"/>
      <use x="481.933594" xlink:href="#DejaVuSans-84"/>
      <use x="543.017578" xlink:href="#DejaVuSans-41"/>
     </g>
    </g>
   </g>
  </g>
 </g>
 <defs>
  <clipPath id="pf2ca99593b">
   <rect height="440.64" width="669.6" x="108" y="77.76"/>
  </clipPath>
 </defs>
</svg>
